<svg width="22" height="22" viewBox="0 0 22 22" fill="none" xmlns="http://www.w3.org/2000/svg">
<path d="M10.1135 14.9211C10.2806 14.7524 10.2806 14.4805 10.1135 14.3134C9.94635 14.1463 9.67436 14.1463 9.50559 14.3134C9.33847 14.4821 9.33847 14.754 9.50559 14.9211C9.67272 15.0881 9.94471 15.0881 10.1135 14.9211Z" fill="#8D2FFF"/>
<path d="M8.07849 4.72528C8.07849 7.33115 10.1987 9.45057 12.8055 9.45057C15.4124 9.45057 17.5309 7.33115 17.5309 4.72528C17.5309 2.11942 15.4107 0 12.8039 0C10.1971 0 8.07849 2.11942 8.07849 4.72528ZM16.6724 4.72528C16.6724 6.8578 14.9372 8.59068 12.8055 8.59068C10.6739 8.59068 8.9387 6.85616 8.9387 4.72528C8.9387 2.5944 10.6739 0.859887 12.8055 0.859887C14.9372 0.859887 16.6724 2.59276 16.6724 4.72528Z" fill="#8D2FFF"/>
<path d="M4.94906 21.8722C5.11618 22.0393 5.38653 22.0426 5.5553 21.8755L7.63946 19.8232C7.99337 19.4695 8.10151 18.9453 7.94586 18.49L8.3948 18.0576C8.63566 17.825 8.95353 17.6956 9.28942 17.6956H15.0012C16.0154 17.6956 16.9723 17.3058 17.6981 16.5999C17.7276 16.5704 17.472 16.8734 21.5961 11.9467C22.2073 11.2227 22.1155 10.1368 21.3913 9.52424C20.672 8.91823 19.5939 9.00503 18.9794 9.71587L16.4431 12.3217C16.1236 11.927 15.6353 11.683 15.1077 11.683H10.3151C9.6335 11.398 8.90929 11.2538 8.16377 11.2538C6.09436 11.2538 4.28711 12.2087 3.31876 14.0006C2.91078 13.9236 2.47985 14.0464 2.17018 14.356L0.125344 16.4066C-0.0417815 16.5737 -0.0417815 16.8439 0.125344 17.0126L4.94906 21.8722ZM8.16377 12.1137C8.82245 12.1137 9.45818 12.2464 10.0562 12.5068C10.1103 12.5314 10.1693 12.5429 10.2283 12.5429H15.1077C15.573 12.5429 15.9679 12.9228 15.9679 13.4011C15.9679 13.8745 15.5829 14.261 15.1077 14.261H11.6013C11.3637 14.261 11.172 14.4526 11.172 14.6901C11.172 14.9276 11.3637 15.1192 11.6013 15.1192H15.1077C16.0547 15.1192 16.8265 14.3478 16.8265 13.4011C16.8265 13.3258 16.8216 13.2504 16.8117 13.1767C19.2645 10.656 19.6103 10.3022 19.625 10.2842C19.9314 9.92225 20.4754 9.87639 20.8359 10.181C21.198 10.4873 21.2438 11.0295 20.9358 11.3931L17.0821 15.9988C16.5201 16.5393 15.7811 16.8357 14.9996 16.8357H9.28778C8.72742 16.8357 8.19818 17.0503 7.79675 17.4385L7.43137 17.7906L4.06427 14.4281C4.85075 12.9523 6.32703 12.1137 8.16377 12.1137ZM2.77642 14.9636C2.91733 14.8228 3.13525 14.7966 3.30893 14.903C3.38266 14.9489 3.16966 14.754 7.03158 18.6079C7.20362 18.7799 7.19379 19.0534 7.03322 19.2139L5.25709 20.9632L1.03471 16.7096L2.77642 14.9636Z" fill="#8D2FFF"/>
<path d="M12.278 2.16039V2.65011C11.7782 2.827 11.4178 3.30527 11.4178 3.86542C11.4178 4.57298 11.9912 5.14952 12.6991 5.15443C12.917 5.15607 13.1087 5.31658 13.1333 5.53442C13.1628 5.7932 12.9596 6.01432 12.7056 6.01432C12.5238 6.01432 12.3288 5.9013 12.1535 5.69657C12.0158 5.53606 11.7815 5.48692 11.6013 5.59502C11.367 5.73424 11.3227 6.04216 11.4899 6.24198C11.7193 6.51551 11.9896 6.7055 12.2763 6.80214V7.29023C12.2763 7.50479 12.4287 7.69806 12.6417 7.72918C12.9072 7.76685 13.1349 7.56211 13.1349 7.30497V6.80214C13.6347 6.62525 13.9951 6.14699 13.9951 5.58683C13.9951 4.87927 13.4216 4.30273 12.7138 4.29782C12.4959 4.29618 12.3042 4.13567 12.2796 3.91783C12.2501 3.65905 12.4533 3.43793 12.7073 3.43793C12.8564 3.43793 13.0137 3.51164 13.1611 3.6525C13.3151 3.79827 13.5527 3.82775 13.7231 3.69999C13.9427 3.53784 13.9558 3.22665 13.769 3.04484C13.5511 2.83356 13.3332 2.71399 13.1366 2.65011V2.15056C13.1366 1.89178 12.9088 1.68704 12.6434 1.72635C12.4304 1.75419 12.278 1.94583 12.278 2.16039Z" fill="#8D2FFF"/>
</svg>
