<svg width="187" height="225" viewBox="0 0 187 225" fill="none" xmlns="http://www.w3.org/2000/svg">
<path d="M184.13 114.647C183.307 98.6342 174.85 77.6875 164.714 70.8695C156.104 65.0783 148.882 65.1704 138.228 72.5141C105.755 94.8969 91.5261 56.9227 57.2101 75.2964C52.8464 77.6328 21.829 94.2389 18.8806 130.885C17.1496 152.423 25.2348 179.408 37.5779 189.81C60.7582 209.347 76.0512 167.021 107.477 184.129C122.938 192.544 128.979 197.188 141.032 196.481C160.866 195.319 186.318 157.183 184.13 114.647Z" fill="#FDD7C7"/>
<path d="M182.2 97.2609C182.575 98.5144 182.009 96.7842 181.496 95.4308C181.24 94.7534 181.003 94.168 180.943 94.081C180.883 93.994 181.011 94.3995 181.433 95.722C180.76 93.9134 179.769 91.1124 178.536 88.264C177.921 86.8401 177.254 85.4011 176.568 84.0635C175.882 82.726 175.183 81.4811 174.537 80.442C174.284 80.2622 174.671 81.1245 174.537 81.1079C174.503 81.1036 174.436 81.0446 174.321 80.9015C174.206 80.7584 174.037 80.5305 173.794 80.1932L173.372 79.6006L173.113 79.236L172.816 78.8254C172.395 78.2458 171.87 77.531 171.19 76.6838C170.293 75.5383 169.549 74.7055 168.968 74.0749C168.387 73.4442 167.961 73.0177 167.666 72.7121C167.516 72.5604 167.402 72.4345 167.31 72.3353C167.236 72.2584 167.167 72.1777 167.102 72.0937C167.037 72.0185 166.99 71.9305 166.962 71.8355C166.945 71.7557 166.913 71.6801 166.867 71.6126C166.736 71.4274 166.584 71.2584 166.414 71.1092C166.349 71.048 166.276 70.9812 166.194 70.9071C166.111 70.833 166.016 70.7568 165.912 70.6712C165.706 70.4986 165.445 70.3038 165.136 70.083L164.633 69.7378C164.542 69.6767 164.449 69.6112 164.35 69.5479L164.039 69.3509C163.823 69.2157 163.597 69.0669 163.343 68.9194L162.953 68.6915C162.819 68.6109 162.678 68.534 162.531 68.4556C162.802 68.5937 163.062 68.7476 163.326 68.8957C163.591 69.0438 163.848 69.2006 164.107 69.3567C164.235 69.435 164.366 69.5106 164.492 69.5925L164.873 69.8363L165.253 70.0801L165.636 70.3419C166.637 71.0486 167.581 71.8332 168.459 72.6884L168.221 72.4302L167.966 72.1684C167.794 71.9894 167.606 71.8089 167.412 71.6255C167.315 71.532 167.214 71.44 167.111 71.3479L166.794 71.066C166.573 70.8812 166.35 70.687 166.107 70.5008C165.864 70.3145 165.612 70.1247 165.351 69.9348L164.555 69.3912L163.705 68.8461C163.409 68.6706 163.11 68.4865 162.798 68.3103L162.323 68.0486L162.081 67.9162L161.833 67.7904L161.329 67.5365C161.16 67.4531 160.984 67.3755 160.81 67.2949C160.462 67.1281 160.095 66.985 159.731 66.8332C159.547 66.7577 159.356 66.6937 159.167 66.6233L158.879 66.519C158.784 66.4837 158.685 66.4564 158.588 66.4241C156.959 65.8833 155.259 65.5836 153.543 65.5345L153.211 65.5273C153.1 65.5273 152.989 65.523 152.878 65.5273L152.208 65.546C151.763 65.5784 151.314 65.605 150.87 65.669L150.535 65.7114C150.422 65.7243 150.313 65.7474 150.202 65.7653C149.981 65.8042 149.758 65.8373 149.537 65.8833L148.878 66.0271C148.768 66.0501 148.662 66.0782 148.551 66.1076L148.225 66.1932L147.898 66.2795C147.79 66.3097 147.683 66.345 147.577 66.3773C147.361 66.4442 147.145 66.5082 146.935 66.578C146.514 66.7275 146.088 66.8656 145.677 67.0375C144.844 67.3568 144.042 67.73 143.254 68.1162C141.725 68.888 140.241 69.7454 138.808 70.6842L138.546 70.8532L138.289 71.0265L137.777 71.3702L137.279 71.7017L136.794 72.0217L136.313 72.3396L136.074 72.4971L135.833 72.6452L134.877 73.2292C133.055 74.4282 131.15 75.4975 129.177 76.4293C127.17 77.3643 125.072 78.0932 122.917 78.6046C120.579 79.141 118.181 79.3743 115.784 79.2986C114.473 79.2541 113.166 79.1288 111.87 78.9232C110.476 78.6996 109.096 78.3983 107.737 78.0207C107.891 78.0703 108.179 78.1573 108.517 78.2595L109.596 78.568C110.3 78.7621 110.858 78.9275 110.559 78.9326C109.485 78.7887 108.021 78.4536 106.571 78.0344C105.12 77.6151 103.684 77.1146 102.629 76.7277C101.909 76.4451 101.401 76.2286 101.054 76.0733C100.708 75.918 100.522 75.8202 100.455 75.7677C100.319 75.6612 100.65 75.7353 101.094 75.8446C101.981 76.0704 103.323 76.4393 102.263 75.9611C99.8664 75.0536 97.563 74.077 94.9641 73.0846C93.6646 72.5891 92.2918 72.0886 90.7932 71.6075C89.1717 71.0827 87.5247 70.6401 85.8585 70.2815C82.8468 69.7493 79.774 69.5091 76.7371 69.6551C75.2126 69.4681 73.4378 69.4588 71.4753 69.6911C69.5128 69.9233 67.3654 70.3951 65.1059 71.1343L64.6795 71.271L64.2538 71.4241L63.3908 71.737L63.1751 71.8161L62.9594 71.9038L62.5236 72.08L61.6405 72.4396L60.7552 72.8344L60.3072 73.0343L60.0814 73.135L59.8585 73.2435L58.956 73.6815L58.5 73.9037L58.047 74.141C55.6142 75.3901 53.0987 76.8557 50.5062 78.5133C50.0532 78.9182 49.0392 79.6423 47.7736 80.5722C46.5079 81.502 45.0013 82.6404 43.5357 83.8356C42.0702 85.0308 40.6499 86.2806 39.5194 87.3744C38.3889 88.4682 37.5468 89.3879 37.1894 89.8784C36.6932 90.4005 36.3193 90.8133 36.0489 91.152C35.8395 91.3984 35.6502 91.6612 35.483 91.938C35.2571 92.3313 35.2852 92.491 35.3391 92.6312C35.3931 92.7714 35.483 92.8908 35.3751 93.2065C35.2922 93.4339 35.1836 93.651 35.0515 93.8537C34.9659 93.9975 34.8587 94.1522 34.735 94.3355C34.6114 94.5189 34.4654 94.7253 34.295 94.9576C34.2173 95.0563 34.1432 95.1522 34.0727 95.2452L33.8743 95.5092L33.532 95.9672C33.3248 96.2419 33.1724 96.4627 33.053 96.6324C32.8179 96.9711 32.7337 97.1071 32.7517 97.1078C32.7697 97.1085 32.8876 96.9747 33.0566 96.7734C33.2256 96.572 33.4442 96.3024 33.67 96.0392C33.8958 95.776 34.1173 95.5092 34.2928 95.3136C34.4683 95.1179 34.5919 94.9885 34.6092 94.9907C34.6265 94.9928 34.5373 95.1251 34.2914 95.4545C34.0454 95.7839 33.6441 96.3175 33.0688 97.1279L33.5471 96.5217L33.9785 95.9823L34.3618 95.4969L34.7056 95.0655C35.1313 94.5196 35.4549 94.104 35.7001 93.7559C35.9453 93.4079 36.1266 93.1382 36.2718 92.893C36.3438 92.77 36.4113 92.6528 36.4753 92.5334C36.5393 92.414 36.6055 92.3054 36.6731 92.1868C36.8105 91.9516 36.9607 91.6963 37.1765 91.3835C37.2858 91.2282 37.4109 91.0578 37.5583 90.8665C37.7058 90.6752 37.874 90.463 38.0754 90.23C38.4745 89.7605 38.9894 89.1923 39.6819 88.4984C40.3745 87.8044 41.2432 86.981 42.3564 86.0167L42.0105 86.4963C42.9453 85.7261 44.037 84.8049 45.2156 83.8521C46.3943 82.8993 47.6549 81.9105 48.9134 80.9943C50.1718 80.0781 51.4181 79.2296 52.5457 78.5313C53.6733 77.833 54.6815 77.2858 55.4452 76.9492C56.1255 76.553 56.726 76.2179 57.2516 75.9266C57.5156 75.7785 57.7608 75.6526 57.9866 75.5304L58.6108 75.1938C58.8014 75.0924 58.9704 74.9925 59.1322 74.9119L59.5636 74.6897C59.8196 74.5559 60.0153 74.4488 60.1598 74.3654C60.7351 74.0303 60.5064 74.0633 60.0879 74.1777C59.6693 74.292 59.061 74.4876 58.9013 74.4725C58.8215 74.4653 58.8546 74.4049 59.0797 74.2568C59.1926 74.1813 59.3537 74.0842 59.573 73.9591C59.6823 73.8972 59.8069 73.828 59.9469 73.7512L60.1684 73.6312L60.2892 73.5664L60.418 73.5039C60.6337 73.432 60.8897 73.3392 61.1774 73.2335L61.6326 73.0645L61.8771 72.9732L62.136 72.8847L63.2693 72.4928C63.3693 72.4568 63.4721 72.4209 63.5764 72.3928L63.8935 72.2936L64.5486 72.0893L64.8859 71.9836L65.2318 71.8873L65.9409 71.6924L66.3004 71.5931C66.4212 71.5586 66.5449 71.5335 66.6679 71.5033L67.4129 71.3278L67.7883 71.2386C67.9141 71.2113 68.0414 71.1883 68.168 71.1631L68.9317 71.002C69.0597 70.9783 69.1856 70.9488 69.3143 70.9301L69.6976 70.8704L70.4598 70.7518C72.2611 70.4921 74.082 70.3931 75.9008 70.4562C77.3642 70.5224 78.3386 70.682 78.4587 70.7906C76.845 70.6919 75.2263 70.7066 73.6147 70.8345C72.0029 70.964 70.4018 71.2028 68.8224 71.5493C69.0151 71.5076 69.1647 71.4774 69.2812 71.4544C69.3977 71.4313 69.4818 71.4242 69.5408 71.4177C69.658 71.4069 69.6767 71.4177 69.6666 71.4342C69.6458 71.4673 69.512 71.5248 69.8292 71.486C71.4465 71.0682 73.8038 70.7827 76.3128 70.8711C78.8226 70.9431 81.4618 71.3803 83.6939 71.939C85.9261 72.4978 87.7764 73.1033 88.7997 73.3866C89.3125 73.5262 89.6196 73.5858 89.6627 73.5182C89.7058 73.4506 89.4879 73.263 88.9378 72.9322C88.3301 72.7128 87.1968 72.3676 86.0865 72.0836L85.6737 71.9728L85.2688 71.8729C85.0035 71.8074 84.7496 71.742 84.5152 71.6809C84.0442 71.5694 83.6522 71.4651 83.4113 71.3824C83.4789 71.358 83.64 71.3594 83.8809 71.3824C84.0008 71.3939 84.14 71.4107 84.2987 71.4328L84.5483 71.4695C84.636 71.4838 84.7273 71.5011 84.823 71.5191C85.0135 71.555 85.2206 71.596 85.4414 71.6406C85.5522 71.6636 85.6658 71.6859 85.783 71.7125L86.1426 71.7974L86.9156 71.9836L87.7469 72.208C88.8896 72.5244 90.1589 72.9192 91.4375 73.3528C92.7161 73.7865 94.0055 74.2518 95.1985 74.6796C96.398 75.1981 97.6328 75.7583 98.938 76.3293C100.243 76.9003 101.626 77.4943 103.122 78.0682C104.718 78.6873 106.346 79.2212 107.998 79.6675C109.9 80.182 111.843 80.5256 113.805 80.6944C115.262 80.7937 115.564 80.7297 115.863 80.6779C116.058 80.6408 116.256 80.6168 116.454 80.606L116.703 80.593C116.796 80.5858 116.9 80.5794 117.019 80.5736C117.255 80.5607 117.545 80.5492 117.906 80.5391C119.793 80.5353 121.675 80.3528 123.527 79.994C124.342 79.8437 125.093 79.6481 125.801 79.4633L126.824 79.1584L127.07 79.0865L127.31 79.0037L127.779 78.8398C128.906 78.4437 130.01 77.9876 131.087 77.4734C131.214 77.4174 131.335 77.3548 131.457 77.2929L131.816 77.1089L132.528 76.745C132.646 76.686 132.76 76.6206 132.874 76.5566L133.217 76.3638L133.899 75.9798C134.128 75.8554 134.347 75.7123 134.572 75.5771L135.248 75.1629C135.362 75.091 135.478 75.0248 135.59 74.9522L135.93 74.7285L136.623 74.2726L136.978 74.0403C137.097 73.9605 137.214 73.8757 137.334 73.793L138.066 73.2817C138.569 72.9336 139.072 72.5733 139.618 72.203C140.846 71.3613 142.123 70.5934 143.443 69.9032L144.009 69.6155C144.201 69.5177 144.4 69.4286 144.601 69.3329C144.802 69.2373 145.006 69.1402 145.217 69.0525L145.86 68.7778C146.794 68.3983 147.752 68.0821 148.728 67.8314C149.378 67.636 150.038 67.4778 150.706 67.3575L151.216 67.2813L151.472 67.2431L151.731 67.2165L152.251 67.1655L152.775 67.1396L153.039 67.1281H153.303C153.479 67.1281 153.657 67.1281 153.834 67.1317C154.188 67.1525 154.545 67.1612 154.9 67.2036L155.169 67.2309L155.302 67.2453L155.436 67.2654L155.971 67.3481C156.06 67.3596 156.149 67.3798 156.238 67.3978L156.505 67.4517L156.772 67.5063C156.861 67.5236 156.949 67.5502 157.038 67.5711L157.569 67.7063L158.096 67.8645L158.36 67.945L158.623 68.0335C158.797 68.0953 158.972 68.1536 159.145 68.2183C159.489 68.3578 159.839 68.4844 160.177 68.6411C160.347 68.7174 160.519 68.79 160.688 68.8691L161.191 69.115C161.276 69.156 161.36 69.1956 161.444 69.2387L161.693 69.3703L162.19 69.6342L162.681 69.914C162.845 70.0075 163.009 70.1002 163.169 70.2016L163.653 70.4965C163.815 70.5936 163.971 70.7007 164.13 70.8021C164.29 70.9035 164.449 71.0071 164.606 71.112C164.763 71.217 164.916 71.3242 165.069 71.4328C166.291 72.308 167.411 73.3327 168.449 74.4208C169.473 75.5073 170.432 76.6537 171.321 77.8539C173.089 80.227 174.589 82.7051 175.918 85.1019C175.414 84.4231 176.246 86.0368 177.2 88.1302C177.678 89.1765 178.186 90.3429 178.615 91.3835C179.044 92.4241 179.397 93.3352 179.595 93.858C179.915 94.57 180.624 96.3383 181.31 98.4871C181.654 99.5607 181.995 100.728 182.295 101.897C182.595 103.066 182.854 104.238 183.051 105.313C182.924 104.681 182.853 104.302 182.813 104.061C182.785 103.922 182.771 103.78 182.771 103.637C182.771 103.478 182.81 103.412 182.636 102.528C183.179 104.939 183.528 106.874 183.796 108.42C184.065 109.965 184.237 111.126 184.382 111.997C184.669 113.739 184.84 114.329 184.986 114.602C184.923 112.668 184.811 111.172 184.704 109.872C184.597 108.571 184.475 107.468 184.321 106.326C184.166 105.184 183.968 104.006 183.653 102.565C183.339 101.124 182.899 99.4248 182.2 97.2609Z" fill="white"/>
<path d="M20.9722 116.228C21.116 116.012 21.139 116.102 21.0844 116.407C21.0297 116.711 20.9125 117.237 20.7435 117.887C20.6644 118.214 20.5774 118.573 20.4846 118.954C20.4386 119.145 20.3868 119.339 20.3408 119.54C20.2948 119.74 20.2495 119.944 20.202 120.15C20.005 120.975 19.8324 121.846 19.667 122.667C19.5231 123.489 19.3793 124.256 19.2959 124.884C19.2513 125.197 19.2146 125.474 19.1866 125.703C19.1585 125.933 19.1499 126.115 19.1463 126.237C19.1413 126.728 19.27 126.256 19.7993 124.126C19.7367 124.495 19.6857 124.855 19.6303 125.204C19.5749 125.554 19.5203 125.885 19.4807 126.211C19.4412 126.538 19.3937 126.85 19.3527 127.155C19.3326 127.306 19.3088 127.456 19.2923 127.603C19.2758 127.751 19.2592 127.897 19.2427 128.04C19.0989 129.184 19.0061 130.189 18.9112 131.111C18.8896 131.342 18.8687 131.568 18.8486 131.789C18.827 132.011 18.8119 132.229 18.7925 132.443C18.7537 132.875 18.7206 133.287 18.6904 133.698C18.6602 134.109 18.6321 134.514 18.6012 134.92C18.5703 135.327 18.5509 135.739 18.525 136.159C18.5192 135.727 18.5149 135.357 18.5106 135.04C18.5063 134.723 18.5106 134.46 18.5106 134.242C18.5063 133.811 18.5106 133.563 18.5041 133.451C18.4948 133.227 18.4696 133.536 18.438 133.945C18.3869 134.764 18.3179 135.986 18.2532 134.125C17.9957 139.674 18.3438 145.18 19.1262 150.558C19.8996 155.89 21.13 161.145 22.8038 166.266C23.6373 168.801 24.5829 171.289 25.6551 173.711C26.7184 176.129 27.9318 178.479 29.2882 180.745C29.9685 181.873 30.6907 182.973 31.4549 184.044C32.2187 185.116 33.0367 186.148 33.9057 187.136L34.2329 187.505C34.3429 187.627 34.4565 187.746 34.568 187.865C34.7895 188.107 35.021 188.341 35.2512 188.575C35.3655 188.694 35.4834 188.808 35.6021 188.923L35.9566 189.266L36.3205 189.599C36.442 189.71 36.5621 189.823 36.688 189.929L37.0619 190.252C37.1849 190.362 37.3158 190.459 37.4431 190.564L38.2097 191.178C38.4714 191.376 38.7389 191.565 39.0007 191.759C39.1337 191.854 39.2639 191.954 39.3998 192.046L39.8119 192.317L40.4332 192.704L41.0718 193.064L41.3896 193.233L41.5493 193.321L41.7125 193.401L42.3655 193.721C42.4748 193.772 42.5812 193.831 42.6927 193.877L43.0264 194.02L43.6916 194.303L44.3704 194.547L44.7091 194.668C44.822 194.707 44.9385 194.74 45.0529 194.773L45.7411 194.975C45.9719 195.037 46.2056 195.085 46.4372 195.141L46.7845 195.221C46.9003 195.249 47.019 195.263 47.1355 195.285L47.8366 195.404C48.0718 195.435 48.3069 195.457 48.5421 195.484L48.8937 195.523C49.0109 195.531 49.1289 195.536 49.2461 195.542L49.9508 195.577H50.6534C50.7706 195.577 50.8879 195.577 51.0044 195.573L51.3539 195.553L51.7026 195.532C51.8184 195.524 51.9356 195.523 52.0507 195.507C52.5124 195.455 52.9755 195.415 53.43 195.333L53.7723 195.278L53.9434 195.252L54.1124 195.217L54.7884 195.078L54.9574 195.044L55.1242 195.002L55.4579 194.919C55.6794 194.862 55.9045 194.814 56.1224 194.747C57.8647 194.249 59.5682 193.624 61.2188 192.877C62.8613 192.148 64.4592 191.347 66.037 190.521C67.6148 189.695 69.176 188.851 70.7451 188.019C72.3142 187.188 73.8899 186.375 75.4914 185.612C77.0928 184.848 78.7274 184.132 80.4023 183.518L81.125 183.218C81.353 183.122 81.5723 183.043 81.7765 182.962L82.3518 182.734L82.8646 182.545L83.3097 182.378C83.4463 182.324 83.5751 182.283 83.6923 182.24C83.9267 182.156 84.1202 182.082 84.2762 182.02C84.3539 181.989 84.42 181.96 84.4826 181.934C84.5452 181.908 84.5948 181.888 84.6379 181.868C84.697 181.844 84.7523 181.812 84.8019 181.772C84.8501 181.722 84.7825 181.7 84.6322 181.7C84.4101 181.705 84.1887 181.727 83.9699 181.764C83.8303 181.785 83.6822 181.809 83.519 181.836L83.2745 181.877L83.0235 181.928C82.6855 182 82.3324 182.071 82.003 182.143C81.6737 182.215 81.3681 182.292 81.1171 182.345C82.8699 181.683 84.6702 181.155 86.5026 180.763C88.3354 180.383 90.2006 180.181 92.0723 180.161L91.3639 180.149L90.6556 180.167L90.3011 180.176L90.1234 180.181L89.9465 180.193L89.2382 180.242C89.1202 180.251 89.0016 180.257 88.8837 180.269L88.5306 180.308L87.8237 180.387C87.5885 180.415 87.3548 180.458 87.1196 180.489L86.768 180.543C86.65 180.561 86.5328 180.578 86.4163 180.602C84.542 180.943 82.6962 181.426 80.8949 182.046C80.7906 182.028 81.0142 181.902 81.4508 181.713C81.6665 181.616 81.939 181.497 82.2533 181.386L82.7509 181.201L83.0185 181.104L83.2989 181.011L83.8864 180.819C83.9871 180.786 84.0878 180.751 84.1913 180.721L84.5035 180.63L85.1377 180.448L85.2974 180.401L85.4592 180.361L85.7806 180.279L86.417 180.118C86.6278 180.068 86.837 180.026 87.0398 179.98L87.6324 179.846L88.1875 179.74C89.257 179.603 90.3333 179.524 91.4114 179.505C91.1152 179.447 90.8153 179.409 90.5139 179.393L90.2356 179.375C90.14 179.37 90.04 179.365 89.9379 179.367C89.7337 179.367 89.516 179.37 89.2849 179.378C88.8232 179.378 88.3177 179.437 87.7676 179.491C87.6957 179.498 87.6288 179.503 87.559 179.514L87.3483 179.544L86.9168 179.61L86.4688 179.682C86.3171 179.706 86.1654 179.74 86.01 179.77L85.544 179.857C85.3851 179.891 85.2219 179.92 85.0608 179.962L84.0648 180.212C83.7275 180.306 83.3845 180.408 83.0343 180.511C82.8588 180.561 82.6848 180.621 82.5086 180.679L81.9757 180.856C80.4716 181.378 78.9969 181.981 77.5581 182.663C76.0587 183.367 74.5464 184.158 73.0535 184.988C71.5606 185.817 70.0806 186.68 68.6338 187.517C67.1869 188.354 65.7731 189.165 64.411 189.891C63.049 190.616 61.738 191.262 60.5155 191.778C61.244 191.45 61.8689 191.15 62.4068 190.889L63.1483 190.523L63.766 190.211C64.1392 190.022 64.4369 189.873 64.6692 189.755C64.9015 189.638 65.0712 189.558 65.1863 189.506C65.6436 189.294 65.2416 189.568 64.6325 189.948C64.0234 190.328 63.2058 190.811 62.8455 191.052C62.6657 191.172 62.6017 191.234 62.7376 191.196C62.8616 191.154 62.9833 191.106 63.1022 191.052L63.4172 190.913L63.8286 190.718C62.6355 191.354 61.4288 191.962 60.1977 192.516L60.5177 192.379L60.8542 192.228L61.582 191.901L62.3774 191.531C62.6549 191.401 62.9404 191.26 63.2403 191.118C64.4319 190.543 65.7896 189.843 67.2969 189.043C68.8042 188.242 70.4611 187.341 72.2689 186.388C73.1736 185.914 74.1149 185.424 75.0994 184.939C75.5899 184.693 76.0947 184.455 76.6053 184.209L77.3827 183.85L77.7775 183.669L78.1773 183.494C75.2202 184.834 72.3811 186.417 69.5593 188.006C66.7374 189.596 63.9242 191.2 60.9902 192.531L60.7155 192.657L60.4386 192.776L59.8841 193.014C59.7008 193.096 59.5124 193.167 59.3261 193.242L58.7666 193.466L58.2014 193.673L57.9188 193.776L57.7749 193.828L57.6311 193.875L57.0558 194.062C56.9609 194.093 56.866 194.125 56.7682 194.155L56.4805 194.238L55.9052 194.405C55.7125 194.458 55.5176 194.502 55.3234 194.548L55.0358 194.62C54.9394 194.644 54.8423 194.669 54.7438 194.686L54.157 194.804L53.8636 194.863L53.5673 194.907L52.9769 194.997C52.7799 195.024 52.5807 195.039 52.3829 195.061L52.0866 195.091L51.9385 195.106C51.8889 195.11 51.8393 195.111 51.7896 195.114C50.2101 195.22 48.6234 195.11 47.0736 194.787C47.0262 194.777 46.9773 194.77 46.9298 194.758L46.786 194.722L46.4983 194.65L45.9288 194.506L45.37 194.326L45.091 194.237C44.9975 194.207 44.9047 194.179 44.8141 194.141L44.2697 193.926C44.0885 193.854 43.9044 193.79 43.7297 193.703L43.2004 193.461L42.9358 193.339C42.8466 193.301 42.7639 193.25 42.6776 193.206L42.1641 192.935C41.9937 192.844 41.8211 192.757 41.6607 192.653L41.1653 192.355L40.9179 192.205L40.7949 192.133L40.6748 192.053C40.357 191.837 40.0377 191.621 39.722 191.406L38.8044 190.717L38.69 190.631L38.58 190.539L38.36 190.357L37.9198 189.993C37.6228 189.755 37.3445 189.496 37.0605 189.245C36.5058 188.729 35.9717 188.197 35.4583 187.648C35.3288 187.511 35.2059 187.369 35.0793 187.23C34.9527 187.092 34.8276 186.952 34.7075 186.809L34.3422 186.383C34.2235 186.24 34.1056 186.096 33.9869 185.952L33.81 185.736L33.6382 185.516L33.2951 185.077L32.9622 184.631C32.8507 184.483 32.7407 184.334 32.6343 184.183C31.7713 182.982 30.9738 181.752 30.2417 180.494C28.8106 178.03 27.5508 175.469 26.4713 172.831C25.4352 170.312 24.5279 167.741 23.753 165.129C23.8839 165.735 24.337 167.339 23.666 165.533C23.0692 163.717 22.6226 162.06 22.2716 160.55C21.9207 159.041 21.6712 157.679 21.477 156.445C21.0916 153.976 20.9262 152.022 20.7514 150.365C20.8693 151.47 21.0017 152.574 21.1591 153.673C20.8844 152.523 20.6306 151.179 20.4177 149.718C20.2049 148.257 20.0323 146.68 19.9093 145.07C19.7863 143.461 19.7101 141.819 19.6785 140.226C19.6468 138.633 19.6605 137.089 19.6929 135.675C19.6555 134.13 19.6562 132.714 19.7036 131.298C19.7115 130.943 19.7346 130.589 19.7525 130.233C19.7705 129.877 19.7892 129.514 19.8151 129.155C19.841 128.795 19.8777 128.426 19.9093 128.054C19.9266 127.867 19.9395 127.679 19.9618 127.49C19.9841 127.301 20.0064 127.11 20.0287 126.914C20.051 126.719 20.0754 126.527 20.1006 126.329C20.1258 126.131 20.1473 125.932 20.1797 125.731C20.2415 125.327 20.3041 124.915 20.3688 124.488C20.517 123.64 20.6788 122.743 20.896 121.789C21.39 119.576 22.0233 117.397 22.7923 115.265C22.6866 115.354 22.5866 115.446 22.4838 115.536C23.3527 112.838 24.4019 110.201 25.6242 107.643C25.3862 108.114 25.2208 108.414 25.1208 108.598C25.0209 108.782 24.977 108.844 24.9633 108.833C24.9396 108.813 25.0439 108.499 25.1237 108.291C24.9622 108.564 24.8197 108.847 24.6973 109.139L24.4348 109.747L24.0752 110.621C23.9501 110.714 23.9407 110.523 24.0242 110.111C24.1076 109.699 24.2953 109.072 24.5592 108.293C24.6951 107.906 24.8569 107.484 25.0317 107.03C25.2064 106.576 25.4157 106.103 25.6285 105.604C25.7386 105.356 25.8558 105.105 25.9744 104.849L26.1542 104.463L26.2463 104.267C26.2779 104.202 26.3103 104.138 26.3426 104.073C26.6022 103.553 26.8654 103.017 27.1552 102.491C26.3987 103.805 25.6904 105.144 25.187 106.095C25.6005 105.204 26.3261 103.789 27.1782 102.284C28.0304 100.778 29.0135 99.1914 29.8541 97.9128C30.6948 96.6342 31.3787 95.6482 31.5613 95.2995C31.6527 95.1254 31.6196 95.1111 31.4254 95.3038C31.2312 95.4965 30.871 95.8927 30.3323 96.5608L30.0174 96.9923L29.7196 97.413C29.5262 97.6898 29.3342 97.9545 29.158 98.2184C28.8049 98.7455 28.4734 99.2381 28.1793 99.7135C28.0304 99.9508 27.8851 100.179 27.7478 100.403C27.6104 100.627 27.4839 100.849 27.3573 101.062C27.1027 101.486 26.8791 101.895 26.6662 102.284C26.5612 102.479 26.4555 102.665 26.3592 102.852L26.0787 103.398L25.8133 103.921C25.727 104.092 25.6487 104.263 25.5696 104.429C25.4121 104.762 25.2582 105.082 25.1151 105.4L24.7008 106.341C24.5613 106.649 24.4376 106.964 24.3053 107.276C24.173 107.588 24.0371 107.906 23.9098 108.235C23.7825 108.564 23.643 108.899 23.5021 109.248C23.3611 109.598 23.2238 109.967 23.0742 110.347C22.4895 111.885 21.792 113.722 20.9722 116.228Z" fill="white"/>
<path d="M51.7451 79.2943C50.908 79.8696 50.3205 80.2953 49.925 80.5945C49.6923 80.7613 49.4682 80.9396 49.2533 81.1288C49.116 81.2676 49.5259 81.0051 50.1041 80.6419C50.6822 80.2788 51.4294 79.8121 51.9508 79.5187C52.4721 79.2253 52.7605 79.0951 52.4146 79.3806C54.4393 78.0765 56.5302 76.8783 58.6789 75.7907C58.6991 75.7152 58.3143 75.8626 57.7124 76.1301C57.1069 76.4084 56.2979 76.8147 55.4702 77.2584C54.6425 77.7022 53.8004 78.1775 53.1215 78.5622C52.4427 78.947 51.9256 79.2368 51.7451 79.2943Z" fill="white"/>
<path d="M126.521 195.296C126.679 195.323 126.835 195.363 126.987 195.415C127.203 195.478 127.474 195.562 127.787 195.666C127.943 195.719 128.113 195.77 128.29 195.825L128.85 196.002C129.045 196.062 129.25 196.119 129.46 196.181C129.669 196.243 129.885 196.308 130.107 196.365L130.786 196.546L131.487 196.71C131.722 196.769 131.961 196.815 132.198 196.863C132.435 196.911 132.672 196.964 132.909 197L133.61 197.117C133.841 197.152 134.069 197.179 134.289 197.209L134.616 197.251C134.724 197.265 134.832 197.273 134.935 197.283L135.536 197.338C136.826 197.488 138.122 197.573 139.42 197.591C139.985 197.608 140.523 197.591 141.061 197.591C141.337 197.581 141.617 197.563 141.898 197.548L142.109 197.535L142.32 197.511L142.746 197.462C144.036 197.298 145.306 197.001 146.535 196.575L147.08 196.385C147.265 196.319 147.45 196.241 147.642 196.163C147.834 196.086 148.03 196.008 148.229 195.923L148.834 195.647L149.148 195.503C149.254 195.454 149.356 195.398 149.464 195.345L150.117 195.01C150.339 194.894 150.561 194.764 150.791 194.636L151.141 194.439C151.259 194.373 151.373 194.299 151.492 194.227C149.926 194.966 149.499 195.008 149.866 194.726C149.912 194.689 149.97 194.648 150.037 194.599C150.105 194.55 150.181 194.493 150.271 194.432C150.448 194.31 150.665 194.167 150.918 194.005L151.752 193.441C151.907 193.339 152.063 193.225 152.226 193.11L152.729 192.75C152.905 192.629 153.077 192.494 153.257 192.36L153.808 191.947C153.993 191.803 154.178 191.653 154.368 191.503L154.656 191.275C154.753 191.199 154.849 191.122 154.943 191.041L155.519 190.556C155.615 190.474 155.714 190.394 155.806 190.31L156.094 190.055L156.669 189.543C156.858 189.369 157.044 189.191 157.232 189.016C158.586 187.74 159.859 186.381 161.043 184.946L160.46 185.548C160.257 185.757 160.035 185.967 159.81 186.19C159.585 186.412 159.349 186.641 159.099 186.869C158.849 187.097 158.596 187.339 158.33 187.578C157.266 188.538 156.05 189.55 154.725 190.542L154.477 190.729L154.222 190.912L153.71 191.28C153.54 191.405 153.364 191.523 153.188 191.639L152.658 191.999L152.526 192.089L152.39 192.176L152.118 192.348L151.574 192.697L151.017 193.03L150.739 193.198C150.646 193.254 150.553 193.31 150.457 193.361C148.969 194.218 147.418 194.959 145.817 195.579C145.918 195.566 145.918 195.586 145.836 195.635C145.678 195.713 145.516 195.781 145.349 195.839L144.95 195.983C144.878 196.01 144.798 196.034 144.715 196.058L144.459 196.13L143.893 196.294L143.261 196.438C143.151 196.462 143.04 196.49 142.927 196.51L142.579 196.569L142.223 196.629C142.104 196.649 141.984 196.671 141.864 196.682L141.125 196.762C140.877 196.785 140.632 196.797 140.387 196.814C139.9 196.851 139.419 196.86 138.966 196.878C138.74 196.887 138.52 196.883 138.31 196.886C138.1 196.889 137.899 196.89 137.71 196.886C136.55 196.776 136.209 196.646 136.052 196.545C135.99 196.496 135.931 196.443 135.876 196.388C135.765 196.306 135.641 196.245 135.509 196.207C135.407 196.173 135.277 196.135 135.111 196.096C135.029 196.075 134.937 196.054 134.834 196.032L134.496 195.953L134.09 195.865L133.859 195.817L133.61 195.759L133.049 195.634C132.847 195.589 132.633 195.531 132.402 195.476C131.48 195.247 130.31 194.929 128.848 194.412C127.387 193.895 125.637 193.172 123.552 192.154C120.422 190.806 113.115 186.479 113.431 187.027C112.367 186.496 111.395 185.876 110.386 185.258C109.882 184.95 109.366 184.641 108.824 184.346C108.266 184.035 107.69 183.759 107.098 183.519L106.476 183.268L106.166 183.143C106.061 183.103 105.956 183.068 105.851 183.03C105.959 183.084 106.071 183.135 106.179 183.193L106.501 183.368L107.148 183.716C107.579 183.945 107.999 184.19 108.423 184.429C109.268 184.909 110.111 185.392 110.954 185.88L116 188.804C116.73 189.114 117.441 189.463 118.132 189.851C117.119 189.414 119.821 191.055 121.993 192.291C122.534 192.604 123.045 192.887 123.447 193.121C123.849 193.356 124.148 193.529 124.265 193.625C124.383 193.72 124.32 193.74 124.006 193.642C123.849 193.592 123.629 193.516 123.338 193.404C123.046 193.292 122.687 193.143 122.248 192.952C121.044 192.358 119.859 191.73 118.683 191.097C117.506 190.464 116.339 189.815 115.176 189.166C112.848 187.867 110.531 186.561 108.2 185.283C107.769 185.067 107.462 184.918 107.265 184.834C107.069 184.75 106.992 184.731 107.008 184.762C107.039 184.817 107.46 185.094 108.145 185.509C109.511 186.338 111.932 187.752 114.433 189.176C118.144 191.126 119.93 192.022 121.385 192.772L123.542 193.876L124.155 194.185L124.842 194.518C125.084 194.637 125.346 194.757 125.625 194.884L126.056 195.082L126.521 195.296Z" fill="white"/>
<path d="M90.3433 180.396C90.2714 180.407 90.1995 180.416 90.1276 180.43L89.9118 180.473L89.489 180.558C91.7806 180.336 94.091 180.402 96.366 180.756C98.6377 181.13 100.861 181.753 102.997 182.613C100.999 181.789 98.9202 181.177 96.7946 180.786C94.6674 180.4 92.5016 180.269 90.3433 180.396Z" fill="white"/>
<path d="M170.421 174.141C170.232 174.433 170.04 174.716 169.854 174.999L169.306 175.837L168.761 176.657L168.493 177.065L168.218 177.467L167.668 178.276C167.483 178.544 167.288 178.808 167.093 179.075C166.709 179.612 166.292 180.141 165.859 180.683C165.897 180.853 165.931 181.022 165.97 181.191C166.173 180.908 166.367 180.616 166.566 180.332C166.766 180.049 166.963 179.757 167.153 179.469L167.728 178.598C167.918 178.307 168.102 178.012 168.288 177.719L168.567 177.279C168.66 177.135 168.748 176.983 168.839 176.834L169.379 175.945C169.557 175.647 169.728 175.346 169.904 175.047C170.079 174.748 170.257 174.445 170.421 174.141Z" fill="white"/>
<path d="M40.835 190.94C40.1345 190.39 39.181 189.595 38.1411 188.668C37.6269 188.204 37.1027 187.686 36.5806 187.139C36.0585 186.593 35.5443 186.011 35.0489 185.413C34.5534 184.816 34.0845 184.207 33.6423 183.608C33.4265 183.305 33.2108 183.01 33.0109 182.713L32.7146 182.277L32.4363 181.846C31.7107 180.72 31.1613 179.718 30.8449 179.029C31.4791 180.099 31.6891 180.447 31.7545 180.611C31.82 180.775 31.7545 180.74 31.8984 181.01C31.4489 180.347 31.011 179.675 30.5924 178.989C30.1739 178.303 29.7669 177.607 29.3699 176.903C30.6451 179.614 32.214 182.176 34.0486 184.544C34.5167 185.138 35.0028 185.723 35.5127 186.293C36.0226 186.863 36.5576 187.418 37.1192 187.953C37.6809 188.489 38.2698 189.003 38.894 189.499C39.0494 189.624 39.2018 189.754 39.3608 189.876L39.844 190.235L40.3301 190.595L40.835 190.94Z" fill="white"/>
<path d="M181.452 148.459C181.781 147.323 182.054 146.296 182.312 145.354C182.435 144.881 182.553 144.43 182.666 143.995C182.695 143.886 182.724 143.779 182.752 143.672C182.78 143.565 182.804 143.456 182.83 143.354C182.883 143.144 182.934 142.938 182.985 142.735C183.396 141.112 183.719 139.686 184.034 138.204C184.11 137.834 184.178 137.459 184.256 137.078C184.333 136.697 184.407 136.308 184.471 135.906L184.676 134.663C184.694 134.556 184.711 134.448 184.729 134.338C184.747 134.229 184.76 134.118 184.775 134.007L184.87 133.324C185.12 131.463 185.354 129.279 185.479 126.508C185.49 125.303 185.4 126.041 185.316 126.642C185.27 126.942 185.226 127.208 185.205 127.182C185.195 127.169 185.189 127.083 185.192 126.895C185.195 126.706 185.204 126.406 185.216 125.971C185.227 125.536 185.242 125.146 185.258 124.789C185.274 124.432 185.28 124.109 185.294 123.814C185.308 123.519 185.321 123.252 185.336 123.006C185.352 122.759 185.367 122.533 185.381 122.321C185.408 121.897 185.44 121.53 185.471 121.157C185.487 120.973 185.502 120.788 185.518 120.596C185.533 120.404 185.54 120.205 185.549 119.992L185.614 120.662L185.667 121.333C185.621 120.663 185.551 119.631 185.485 118.528C185.442 117.978 185.398 117.411 185.354 116.862C185.334 116.587 185.303 116.318 185.277 116.059C185.25 115.799 185.221 115.548 185.195 115.312C185.169 115.075 185.141 114.853 185.114 114.649C185.088 114.444 185.059 114.262 185.032 114.101C185.003 113.876 184.951 113.655 184.879 113.441C184.784 113.231 184.706 113.527 184.656 114.618C184.835 117.649 184.83 120.688 184.64 123.718C184.469 126.405 184.182 128.799 183.849 131.083C183.516 133.367 183.129 135.541 182.704 137.794C182.278 140.046 181.818 142.376 181.289 144.973C181.289 145.289 181.276 145.603 181.267 145.919L181.24 146.868C180.658 148.917 180.017 150.946 179.318 152.957C179.269 153.172 179.284 153.244 179.222 153.513C179.191 153.648 179.142 153.833 179.056 154.109C178.969 154.385 178.836 154.751 178.651 155.251C178.547 155.509 178.464 155.723 178.389 155.898C178.314 156.073 178.255 156.203 178.21 156.3C178.119 156.495 178.081 156.55 178.083 156.502C178.11 156.359 178.147 156.219 178.194 156.082C178.228 155.973 178.266 155.846 178.311 155.708C178.355 155.57 178.398 155.42 178.447 155.259C178.544 154.942 178.651 154.595 178.756 154.252C178.861 153.91 178.952 153.576 179.033 153.287C179.19 152.705 179.282 152.301 179.204 152.37C177.859 156.239 176.288 160.025 174.501 163.71C174.192 164.393 174.352 164.125 174.573 163.738C174.793 163.35 175.053 162.837 174.982 163.047C173.875 165.743 172.706 167.812 171.544 169.755C170.383 171.698 169.225 173.521 168.003 175.715C168.735 174.681 169.432 173.621 170.12 172.556L170.624 171.749C170.79 171.478 170.963 171.212 171.127 170.938L171.617 170.121L171.861 169.713L172.099 169.3C169.931 173.357 167.778 176.77 165.627 179.767C164.548 181.265 163.473 182.659 162.38 183.969C161.287 185.279 160.175 186.502 159.029 187.657C162.344 184.411 164.949 181.217 167.219 178.14C168.351 176.598 169.392 175.077 170.37 173.565C171.348 172.054 172.268 170.551 173.126 169.028C173.347 168.651 173.553 168.266 173.764 167.885L174.08 167.31C174.185 167.119 174.284 166.925 174.386 166.734C174.588 166.348 174.794 165.964 174.993 165.575C175.191 165.186 175.384 164.793 175.581 164.401C176.35 162.827 177.091 161.216 177.785 159.539C178.479 157.861 179.135 156.116 179.755 154.28C180.374 152.444 180.932 150.51 181.452 148.459Z" fill="white"/>
<path d="M77.5888 198.421C81.288 197.304 87.0468 196.032 93.9231 196.606C113.771 198.26 119.884 213.373 138.842 219.746C140.188 220.195 141.562 220.553 142.955 220.819C167.536 225.565 166.704 202.179 162.347 177.528C162.037 175.77 161.648 173.933 161.18 172.016" stroke="#007E96" stroke-width="6" stroke-linecap="round" stroke-linejoin="round"/>
<path d="M178.054 148.747L178.109 148.736L170.737 110.868C170.524 109.773 170.098 108.732 169.483 107.802C168.867 106.872 168.075 106.073 167.15 105.45C166.226 104.826 165.187 104.391 164.095 104.17C163.002 103.948 161.876 103.944 160.782 104.157L156.08 105.072" stroke="white" stroke-width="5" stroke-linecap="round" stroke-linejoin="round"/>
<path d="M140.8 106.463L136.092 107.379C134.998 107.592 133.956 108.019 133.027 108.634C132.097 109.25 131.298 110.042 130.675 110.967C130.052 111.891 129.617 112.93 129.395 114.022C129.173 115.115 129.168 116.24 129.382 117.335L136.753 155.203L136.809 155.192" stroke="white" stroke-width="5" stroke-linecap="round" stroke-linejoin="round"/>
<path d="M136.81 155.192C139.632 165.803 150.241 172.556 161.18 170.429C172.12 168.302 179.419 158.06 178.054 147.162" stroke="#007E96" stroke-width="6" stroke-linecap="round" stroke-linejoin="round"/>
<path d="M157.073 108C155.14 108 153.573 106.433 153.573 104.5C153.573 102.567 155.14 101 157.073 101C159.006 101 160.573 102.567 160.573 104.5C160.573 106.433 159.006 108 157.073 108Z" fill="#DB4041"/>
<path d="M140.573 109C138.916 109 137.573 107.657 137.573 106C137.573 104.343 138.916 103 140.573 103C142.23 103 143.573 104.343 143.573 106C143.573 107.657 142.23 109 140.573 109Z" fill="#DB4041"/>
<path d="M111.145 133.631L117.994 130.172C118.526 129.894 118.927 129.417 119.111 128.846C119.294 128.274 119.245 127.654 118.975 127.118C118.704 126.582 118.234 126.174 117.665 125.983C117.096 125.792 116.474 125.832 115.935 126.095L109.085 129.555C108.553 129.833 108.152 130.309 107.969 130.881C107.785 131.452 107.834 132.073 108.105 132.609C108.376 133.144 108.846 133.552 109.415 133.743C109.984 133.935 110.605 133.895 111.145 133.631Z" fill="#F3795B"/>
<path d="M112.393 127.838L114.49 131.989L117.977 130.228C118.521 129.946 118.931 129.461 119.12 128.878C119.308 128.295 119.259 127.661 118.983 127.115C118.706 126.568 118.226 126.152 117.645 125.958C117.064 125.763 116.429 125.806 115.88 126.077L112.393 127.838Z" fill="#007E95"/>
<path d="M109.943 130.277L115.81 127.313" stroke="white" stroke-linecap="round" stroke-linejoin="round"/>
<path d="M172.195 64.3567L154.646 29.3868C152.661 25.4303 148.006 23.7519 144.246 25.6391L75.7655 60.0053C72.0051 61.8925 70.5665 66.6288 72.552 70.5853L90.1008 105.555C90.5616 106.479 91.1906 107.308 91.9556 108.001C94.282 110.111 97.6475 110.73 100.502 109.299L168.982 74.9336C172.743 73.0458 174.179 68.3108 172.195 64.3567Z" fill="#F3795B"/>
<path d="M105.765 94.1073L101.085 84.7812C100.902 84.4167 100.649 84.0917 100.341 83.8249C100.032 83.5582 99.6741 83.3547 99.2869 83.2263C98.8998 83.0979 98.4912 83.047 98.0843 83.0765C97.6775 83.106 97.2805 83.2154 96.916 83.3983C96.5514 83.5813 96.2265 83.8342 95.9597 84.1427C95.6929 84.4513 95.4895 84.8093 95.3611 85.1965C95.2327 85.5836 95.1818 85.9922 95.2113 86.399C95.2408 86.8058 95.3501 87.2028 95.5331 87.5674L100.212 96.8947C100.588 97.6192 101.234 98.1665 102.011 98.4183C102.788 98.67 103.632 98.6059 104.362 98.2398C105.091 97.8736 105.647 97.235 105.91 96.462C106.172 95.689 106.12 94.8437 105.764 94.1091L105.765 94.1073Z" fill="#A5D3E3"/>
<path d="M115.386 89.2795L110.705 79.9552C110.335 79.2191 109.689 78.6599 108.907 78.4007C108.125 78.1414 107.272 78.2033 106.536 78.5727C105.8 78.9422 105.241 79.5889 104.982 80.3706C104.722 81.1524 104.784 82.0051 105.154 82.7412L109.834 92.0673C110.016 92.4318 110.269 92.7567 110.578 93.0234C110.886 93.2901 111.244 93.4935 111.631 93.6219C112.019 93.7502 112.427 93.8011 112.834 93.7716C113.241 93.7421 113.638 93.6327 114.002 93.4498C114.367 93.2669 114.691 93.0139 114.958 92.7054C115.225 92.397 115.428 92.039 115.557 91.6519C115.685 91.2648 115.736 90.8562 115.706 90.4495C115.677 90.0427 115.567 89.6458 115.385 89.2813L115.386 89.2795Z" fill="#A5D3E3"/>
<path d="M125.008 84.4517L120.328 75.1256C120.149 74.7553 119.897 74.4244 119.589 74.152C119.28 73.8797 118.921 73.6713 118.531 73.5391C118.142 73.4068 117.73 73.3533 117.319 73.3816C116.909 73.41 116.508 73.5196 116.14 73.7041C115.772 73.8887 115.445 74.1444 115.177 74.4566C114.909 74.7687 114.705 75.131 114.578 75.5225C114.452 75.9139 114.404 76.3266 114.438 76.7367C114.472 77.1467 114.587 77.546 114.776 77.9112L119.456 87.2372C119.832 87.9618 120.479 88.5091 121.255 88.7608C122.032 89.0125 122.876 88.9484 123.606 88.5823C124.335 88.2162 124.892 87.5776 125.154 86.8045C125.416 86.0315 125.364 85.1863 125.008 84.4517Z" fill="#A5D3E3"/>
<path d="M134.63 79.6228L129.95 70.2967C129.767 69.9323 129.514 69.6075 129.206 69.3408C128.897 69.0742 128.539 68.8709 128.152 68.7425C127.765 68.6142 127.357 68.5633 126.95 68.5928C126.544 68.6223 126.147 68.7316 125.782 68.9145C125.418 69.0974 125.093 69.3502 124.827 69.6586C124.56 69.967 124.357 70.3249 124.228 70.7119C124.1 71.0989 124.049 71.5073 124.078 71.914C124.108 72.3206 124.217 72.7175 124.4 73.0819L129.08 82.4079C129.449 83.1439 130.096 83.7029 130.877 83.9621C131.659 84.2214 132.511 84.1595 133.247 83.7902C133.983 83.4208 134.542 82.7743 134.802 81.9927C135.061 81.2112 134.999 80.3587 134.63 79.6228Z" fill="#A5D3E3"/>
<path d="M144.253 74.7945L139.573 65.4684C139.394 65.0981 139.142 64.7672 138.834 64.4948C138.526 64.2224 138.166 64.0141 137.776 63.8818C137.387 63.7496 136.975 63.6961 136.564 63.7244C136.154 63.7527 135.753 63.8624 135.385 64.0469C135.017 64.2314 134.69 64.4872 134.422 64.7993C134.154 65.1115 133.95 65.4738 133.824 65.8652C133.697 66.2566 133.649 66.6694 133.683 67.0794C133.717 67.4895 133.832 67.8887 134.022 68.2539L138.701 77.58C139.077 78.3046 139.724 78.8519 140.5 79.1036C141.277 79.3553 142.121 79.2912 142.851 78.9251C143.581 78.559 144.137 77.9203 144.399 77.1473C144.661 76.3743 144.609 75.5291 144.253 74.7945Z" fill="#A5D3E3"/>
<path d="M153.875 69.9654L149.195 60.64C149.015 60.2697 148.764 59.9388 148.455 59.6664C148.147 59.394 147.787 59.1857 147.398 59.0534C147.008 58.9212 146.596 58.8677 146.186 58.896C145.775 58.9243 145.374 59.034 145.007 59.2185C144.639 59.403 144.311 59.6588 144.043 59.9709C143.775 60.2831 143.572 60.6454 143.445 61.0368C143.318 61.4282 143.27 61.841 143.304 62.251C143.338 62.6611 143.453 63.0603 143.643 63.4255L148.323 72.7516C148.506 73.1162 148.759 73.4411 149.067 73.7079C149.376 73.9747 149.734 74.1781 150.121 74.3065C150.903 74.5659 151.756 74.504 152.492 74.1345C153.228 73.765 153.787 73.1182 154.047 72.3364C154.306 71.5545 154.244 70.7017 153.875 69.9654Z" fill="#A5D3E3"/>
<path d="M163.495 65.1396L158.817 55.8111C158.447 55.075 157.8 54.5158 157.018 54.2567C156.236 53.9976 155.383 54.0596 154.647 54.4293C153.911 54.799 153.352 55.4459 153.093 56.2278C152.834 57.0097 152.896 57.8625 153.265 58.5987L157.949 67.9245C158.122 68.3046 158.37 68.6458 158.678 68.9277C158.986 69.2096 159.348 69.4265 159.742 69.5653C160.136 69.7042 160.554 69.7622 160.971 69.7358C161.387 69.7094 161.795 69.5992 162.168 69.4118C162.541 69.2243 162.873 68.9636 163.143 68.645C163.413 68.3265 163.616 67.9567 163.74 67.5579C163.864 67.159 163.906 66.7393 163.864 66.3238C163.822 65.9082 163.696 65.5055 163.495 65.1396Z" fill="#A5D3E3"/>
<path d="M97.8728 92.2295L103.424 89.4439L101.084 84.7808C100.901 84.4163 100.649 84.0914 100.34 83.8246C100.031 83.5578 99.6734 83.3544 99.2863 83.226C98.8992 83.0975 98.4905 83.0466 98.0837 83.0761C97.6769 83.1057 97.2799 83.215 96.9154 83.3979C96.5508 83.5809 96.2259 83.8338 95.9591 84.1424C95.6923 84.4509 95.4889 84.8089 95.3605 85.1961C95.2321 85.5832 95.1811 85.9918 95.2107 86.3986C95.2402 86.8055 95.3495 87.2025 95.5325 87.567L97.8728 92.2295Z" fill="#007E95"/>
<path d="M107.492 87.4008L113.043 84.6148L110.705 79.9552C110.335 79.2191 109.688 78.6599 108.907 78.4006C108.125 78.1413 107.272 78.2032 106.536 78.5727C105.8 78.9421 105.241 79.5888 104.982 80.3706C104.722 81.1523 104.784 82.005 105.154 82.7411L107.492 87.4008Z" fill="#007E95"/>
<path d="M117.117 82.5743L122.668 79.7887L120.328 75.1257C120.149 74.7554 119.898 74.4245 119.589 74.1521C119.281 73.8798 118.921 73.6714 118.532 73.5392C118.142 73.4069 117.73 73.3534 117.32 73.3817C116.909 73.4101 116.508 73.5197 116.14 73.7042C115.773 73.8888 115.445 74.1445 115.177 74.4567C114.909 74.7688 114.706 75.1311 114.579 75.5226C114.452 75.914 114.404 76.3267 114.438 76.7368C114.472 77.1468 114.587 77.5461 114.777 77.9113L117.117 82.5743Z" fill="#007E95"/>
<path d="M126.739 77.7469L132.289 74.9618L129.949 70.2987C129.766 69.9343 129.513 69.6095 129.205 69.3429C128.896 69.0762 128.538 68.8729 128.151 68.7445C127.764 68.6162 127.356 68.5653 126.949 68.5948C126.543 68.6243 126.146 68.7336 125.781 68.9165C125.417 69.0994 125.092 69.3523 124.826 69.6607C124.559 69.9691 124.356 70.327 124.227 70.7139C124.099 71.1009 124.048 71.5094 124.078 71.916C124.107 72.3227 124.216 72.7195 124.399 73.0839L126.739 77.7469Z" fill="#007E95"/>
<path d="M136.361 72.9166L141.913 70.131L139.573 65.468C139.394 65.0977 139.142 64.7668 138.834 64.4944C138.525 64.2221 138.166 64.0137 137.776 63.8815C137.387 63.7492 136.975 63.6957 136.564 63.724C136.154 63.7524 135.753 63.862 135.385 64.0465C135.017 64.2311 134.69 64.4868 134.422 64.799C134.154 65.1111 133.95 65.4734 133.823 65.8649C133.697 66.2563 133.649 66.669 133.683 67.0791C133.717 67.4891 133.832 67.8884 134.021 68.2536L136.361 72.9166Z" fill="#007E95"/>
<path d="M145.983 68.0885L151.534 65.3029L149.195 60.6399C149.015 60.2696 148.764 59.9387 148.455 59.6663C148.147 59.3939 147.788 59.1856 147.398 59.0533C147.008 58.9211 146.596 58.8676 146.186 58.8959C145.775 58.9242 145.374 59.0339 145.007 59.2184C144.639 59.4029 144.311 59.6587 144.043 59.9709C143.775 60.283 143.572 60.6453 143.445 61.0367C143.318 61.4281 143.27 61.8409 143.304 62.2509C143.338 62.661 143.453 63.0602 143.643 63.4254L145.983 68.0885Z" fill="#007E95"/>
<path d="M161.156 60.4743L158.816 55.8113C158.633 55.4468 158.38 55.1219 158.071 54.8552C157.763 54.5885 157.405 54.3852 157.018 54.2569C156.63 54.1286 156.222 54.0778 155.815 54.1074C155.408 54.137 155.011 54.2464 154.647 54.4295C154.282 54.6125 153.957 54.8655 153.691 55.1741C153.424 55.4827 153.221 55.8408 153.092 56.228C152.964 56.6151 152.913 57.0238 152.943 57.4306C152.972 57.8374 153.082 58.2343 153.265 58.5988L155.605 63.2619L161.156 60.4743Z" fill="#007E95"/>
<path d="M95.7352 74.123L91.0549 64.7975C90.6788 64.073 90.0326 63.5256 89.256 63.2739C88.4795 63.0222 87.635 63.0863 86.9054 63.4524C86.1758 63.8185 85.6196 64.4572 85.3572 65.2302C85.0948 66.0032 85.1473 66.8485 85.5034 67.5831L90.1832 76.9092C90.3661 77.2737 90.6191 77.5987 90.9276 77.8654C91.2361 78.1322 91.5942 78.3356 91.9813 78.4641C92.3685 78.5925 92.7771 78.6434 93.1839 78.6139C93.5907 78.5844 93.9877 78.475 94.3523 78.2921C95.0885 77.9226 95.6478 77.2758 95.9072 76.4939C96.1665 75.7121 96.1046 74.8592 95.7352 74.123Z" fill="#A5D3E3"/>
<path d="M105.355 69.2931L100.675 59.9676C100.306 59.2315 99.6589 58.6723 98.8772 58.4131C98.0954 58.1538 97.2427 58.2157 96.5066 58.5851C95.7705 58.9546 95.2113 59.6013 94.952 60.383C94.6928 61.1648 94.7547 62.0175 95.1241 62.7536L99.8039 72.0797C100.178 72.8072 100.825 73.3574 101.603 73.611C102.381 73.8645 103.227 73.8009 103.959 73.4338C104.69 73.0667 105.247 72.4259 105.508 71.6506C105.77 70.8753 105.715 70.0281 105.355 69.2931Z" fill="#A5D3E3"/>
<path d="M114.98 64.4669L110.3 55.1408C110.117 54.7763 109.864 54.4513 109.555 54.1845C109.247 53.9177 108.889 53.7143 108.502 53.5859C108.114 53.4575 107.706 53.4066 107.299 53.4361C106.892 53.4656 106.495 53.575 106.131 53.7579C105.766 53.9408 105.441 54.1938 105.174 54.5023C104.908 54.8108 104.704 55.1689 104.576 55.556C104.447 55.9432 104.396 56.3518 104.426 56.7586C104.455 57.1654 104.565 57.5624 104.748 57.927L109.428 67.2531C109.797 67.9893 110.444 68.5486 111.226 68.808C112.008 69.0673 112.86 69.0054 113.597 68.636C114.333 68.2665 114.892 67.6197 115.152 66.8378C115.411 66.056 115.349 65.2031 114.98 64.4669Z" fill="#A5D3E3"/>
<path d="M124.601 59.6384L119.921 50.3123C119.742 49.9426 119.49 49.6123 119.182 49.3405C118.873 49.0687 118.514 48.8609 118.125 48.729C117.735 48.5972 117.324 48.544 116.914 48.5725C116.503 48.601 116.103 48.7106 115.736 48.895C115.368 49.0794 115.041 49.3349 114.773 49.6467C114.506 49.9585 114.302 50.3204 114.175 50.7114C114.048 51.1024 114 51.5147 114.034 51.9244C114.068 52.3341 114.182 52.733 114.371 53.098L119.052 62.4235C119.421 63.1594 120.067 63.7185 120.849 63.9777C121.631 64.2369 122.483 64.1751 123.219 63.8057C123.955 63.4364 124.514 62.7899 124.773 62.0083C125.032 61.2268 124.97 60.3743 124.601 59.6384Z" fill="#A5D3E3"/>
<path d="M134.226 54.8091L129.546 45.483C129.366 45.1127 129.115 44.7818 128.807 44.5095C128.498 44.2371 128.139 44.0287 127.749 43.8965C127.359 43.7642 126.947 43.7107 126.537 43.7391C126.126 43.7674 125.726 43.877 125.358 44.0615C124.99 44.2461 124.663 44.5018 124.395 44.814C124.127 45.1261 123.923 45.4885 123.796 45.8799C123.669 46.2713 123.622 46.684 123.656 47.0941C123.689 47.5042 123.805 47.9034 123.994 48.2686L128.672 57.5971C129.049 58.3216 129.695 58.8689 130.471 59.1207C131.248 59.3724 132.092 59.3082 132.822 58.9421C133.552 58.576 134.108 57.9374 134.37 57.1644C134.633 56.3914 134.58 55.5461 134.224 54.8115L134.226 54.8091Z" fill="#A5D3E3"/>
<path d="M143.846 49.981L139.165 40.6573C138.78 39.9478 138.135 39.4157 137.366 39.1735C136.596 38.9314 135.762 38.9982 135.041 39.3599C134.32 39.7215 133.768 40.3496 133.502 41.1112C133.235 41.8729 133.276 42.7082 133.615 43.4404L138.295 52.7665C138.671 53.4911 139.317 54.0384 140.093 54.2901C140.87 54.5418 141.714 54.4777 142.444 54.1116C143.174 53.7455 143.73 53.1068 143.992 52.3338C144.255 51.5608 144.202 50.7156 143.846 49.981Z" fill="#A5D3E3"/>
<path d="M153.467 45.1531L148.787 35.827C148.417 35.0911 147.771 34.532 146.989 34.2728C146.208 34.0137 145.355 34.0755 144.619 34.4449C144.255 34.6278 143.93 34.8807 143.663 35.1892C143.396 35.4977 143.193 35.8557 143.065 36.2428C142.936 36.6299 142.886 37.0385 142.915 37.4452C142.945 37.8519 143.054 38.2488 143.238 38.6131L147.917 47.9382C148.1 48.3028 148.353 48.6277 148.661 48.8946C148.969 49.1614 149.327 49.3648 149.714 49.4933C150.101 49.6218 150.51 49.6727 150.916 49.6432C151.323 49.6138 151.72 49.5045 152.084 49.3216C152.449 49.1393 152.774 48.8866 153.041 48.5781C153.308 48.2696 153.511 47.9113 153.639 47.524C153.768 47.137 153.819 46.7282 153.79 46.3213C153.76 45.9144 153.65 45.5174 153.467 45.1531Z" fill="#A5D3E3"/>
<path d="M87.8443 72.2465L93.3959 69.4609L91.056 64.7979C90.6798 64.0734 90.0336 63.526 89.2571 63.2743C88.4805 63.0226 87.6361 63.0867 86.9064 63.4528C86.1768 63.8189 85.6206 64.4576 85.3582 65.2306C85.0958 66.0036 85.1484 66.8489 85.5044 67.5835L87.8443 72.2465Z" fill="#007E95"/>
<path d="M97.4677 67.4192L103.019 64.6326L100.679 59.9702C100.496 59.6057 100.243 59.2808 99.9344 59.0141C99.6259 58.7474 99.2679 58.544 98.8808 58.4156C98.4938 58.2872 98.0852 58.2364 97.6784 58.2659C97.2717 58.2954 96.8748 58.4048 96.5103 58.5877C96.1458 58.7706 95.8209 59.0235 95.5542 59.332C95.2874 59.6405 95.0841 59.9985 94.9557 60.3856C94.8273 60.7727 94.7764 61.1812 94.806 61.588C94.8355 61.9947 94.9448 62.3917 95.1278 62.7562L97.4677 67.4192Z" fill="#007E95"/>
<path d="M107.088 62.59L112.638 59.8062L110.298 55.1432C110.115 54.7786 109.862 54.4537 109.554 54.1869C109.245 53.9201 108.887 53.7167 108.5 53.5883C108.113 53.4598 107.704 53.4089 107.298 53.4384C106.891 53.468 106.494 53.5773 106.129 53.7602C105.765 53.9432 105.44 54.1961 105.173 54.5047C104.906 54.8132 104.703 55.1712 104.574 55.5584C104.446 55.9455 104.395 56.3541 104.425 56.761C104.454 57.1678 104.563 57.5648 104.746 57.9293L107.088 62.59Z" fill="#007E95"/>
<path d="M116.709 57.7597L122.259 54.9739L119.919 50.3109C119.739 49.9412 119.488 49.6109 119.179 49.3391C118.871 49.0673 118.512 48.8595 118.122 48.7277C117.733 48.5958 117.321 48.5426 116.911 48.5711C116.501 48.5996 116.101 48.7092 115.733 48.8936C115.366 49.078 115.039 49.3335 114.771 49.6453C114.503 49.9571 114.3 50.319 114.173 50.71C114.046 51.101 113.998 51.5133 114.032 51.923C114.065 52.3327 114.18 52.7316 114.369 53.0966L116.709 57.7597Z" fill="#007E95"/>
<path d="M126.334 52.9313L131.885 50.1457L129.545 45.4826C129.366 45.1124 129.114 44.7814 128.806 44.5091C128.498 44.2367 128.138 44.0284 127.748 43.8961C127.359 43.7639 126.947 43.7103 126.536 43.7387C126.126 43.767 125.725 43.8766 125.357 44.0612C124.99 44.2457 124.662 44.5015 124.394 44.8136C124.126 45.1258 123.923 45.4881 123.796 45.8795C123.669 46.2709 123.621 46.6837 123.655 47.0937C123.689 47.5038 123.804 47.903 123.994 48.2682L126.334 52.9313Z" fill="#007E95"/>
<path d="M135.954 48.1031L141.506 45.3175L139.165 40.6569C138.78 39.9474 138.135 39.4153 137.366 39.1731C136.596 38.931 135.762 38.9978 135.041 39.3595C134.32 39.7211 133.768 40.3493 133.501 41.1109C133.235 41.8725 133.276 42.7078 133.615 43.4401L135.954 48.1031Z" fill="#007E95"/>
<path d="M101.304 95.42L97.3669 87.5737" stroke="white" stroke-width="2" stroke-linecap="round" stroke-linejoin="round"/>
<path d="M110.879 90.6153L106.942 82.769" stroke="white" stroke-width="2" stroke-linecap="round" stroke-linejoin="round"/>
<path d="M120.454 85.8106L116.516 77.9643" stroke="white" stroke-width="2" stroke-linecap="round" stroke-linejoin="round"/>
<path d="M130.028 81.0058L126.091 73.1605" stroke="white" stroke-width="2" stroke-linecap="round" stroke-linejoin="round"/>
<path d="M139.603 76.2017L135.665 68.3554" stroke="white" stroke-width="2" stroke-linecap="round" stroke-linejoin="round"/>
<path d="M149.177 71.3971L145.24 63.5507" stroke="white" stroke-width="2" stroke-linecap="round" stroke-linejoin="round"/>
<path d="M158.752 66.5909L154.815 58.745" stroke="white" stroke-width="2" stroke-linecap="round" stroke-linejoin="round"/>
<path d="M91.2755 75.4355L87.3382 67.5902" stroke="white" stroke-width="2" stroke-linecap="round" stroke-linejoin="round"/>
<path d="M100.85 70.6314L96.9128 62.7851" stroke="white" stroke-width="2" stroke-linecap="round" stroke-linejoin="round"/>
<path d="M110.425 65.8267L106.488 57.9804" stroke="white" stroke-width="2" stroke-linecap="round" stroke-linejoin="round"/>
<path d="M119.999 61.0216L116.062 53.1756" stroke="white" stroke-width="2" stroke-linecap="round" stroke-linejoin="round"/>
<path d="M129.574 56.2169L125.637 48.3706" stroke="white" stroke-width="2" stroke-linecap="round" stroke-linejoin="round"/>
<path d="M139.149 51.4122L135.212 43.5659" stroke="white" stroke-width="2" stroke-linecap="round" stroke-linejoin="round"/>
<path d="M148.103 159.256L153.721 164.482C153.94 164.689 154.198 164.85 154.48 164.956C154.762 165.063 155.062 165.113 155.363 165.103C155.664 165.093 155.96 165.024 156.234 164.899C156.508 164.774 156.755 164.596 156.96 164.376C157.165 164.155 157.325 163.896 157.429 163.614C157.534 163.331 157.582 163.031 157.57 162.73C157.558 162.429 157.487 162.133 157.36 161.86C157.233 161.586 157.054 161.341 156.832 161.137L151.214 155.911C150.994 155.704 150.736 155.543 150.455 155.436C150.173 155.33 149.873 155.28 149.572 155.29C149.271 155.3 148.975 155.369 148.7 155.494C148.426 155.619 148.18 155.796 147.974 156.017C147.769 156.238 147.61 156.497 147.505 156.779C147.4 157.061 147.353 157.362 147.365 157.663C147.377 157.964 147.448 158.259 147.575 158.533C147.701 158.806 147.881 159.052 148.103 159.255V159.256Z" fill="#F3795B"/>
<path d="M153.97 158.418L150.806 161.823L153.667 164.484C153.889 164.701 154.152 164.872 154.44 164.986C154.729 165.1 155.038 165.154 155.348 165.147C155.659 165.14 155.964 165.071 156.248 164.943C156.531 164.816 156.786 164.633 156.997 164.406C157.208 164.178 157.372 163.911 157.478 163.619C157.584 163.327 157.631 163.017 157.616 162.707C157.6 162.397 157.523 162.093 157.388 161.814C157.253 161.534 157.064 161.284 156.831 161.079L153.97 158.418Z" fill="#007E95"/>
<path d="M150.833 156.965L155.646 161.442" stroke="white" stroke-linecap="round" stroke-linejoin="round"/>
<path d="M77.6263 153.796C77.4976 154.391 77.3962 154.983 77.3178 155.573C77.3006 155.704 77.2848 155.835 77.2704 155.966C77.256 156.098 77.2423 156.227 77.2294 156.357C77.2107 156.554 77.1949 156.749 77.1812 156.943C77.1726 157.074 77.1647 157.205 77.1582 157.335C77.1481 157.528 77.1409 157.723 77.1359 157.917C77.1359 157.982 77.1359 158.047 77.1359 158.111C77.1359 158.24 77.1359 158.369 77.1359 158.497C77.1359 158.626 77.1359 158.756 77.1359 158.884C77.1421 159.267 77.1582 159.651 77.1841 160.034C77.2006 160.289 77.2222 160.542 77.2474 160.796C77.2596 160.922 77.2733 161.048 77.2869 161.175C77.3157 161.427 77.3495 161.678 77.3847 161.929C77.4758 162.555 77.5894 163.176 77.7256 163.791C77.7802 164.037 77.8375 164.282 77.8975 164.525C77.9574 164.769 78.0214 165.011 78.0895 165.253C78.1561 165.496 78.2261 165.735 78.2994 165.972C81.7513 177.312 91.7881 186.103 93.4867 187.531L93.5039 187.544C93.6528 187.668 93.7326 187.733 93.7326 187.733C93.7326 187.733 101.109 185.842 108.444 181.219C108.622 181.107 108.803 180.993 108.98 180.876C109.157 180.76 109.34 180.642 109.516 180.523C109.692 180.404 109.876 180.282 110.05 180.163C110.225 180.045 110.41 179.917 110.582 179.79C110.755 179.664 110.936 179.536 111.112 179.407C111.903 178.825 112.685 178.209 113.444 177.557C113.613 177.413 113.78 177.267 113.947 177.119C114.114 176.97 114.28 176.82 114.443 176.668C114.607 176.516 114.77 176.363 114.932 176.207C115.174 175.975 115.414 175.738 115.651 175.496C115.808 175.337 115.964 175.173 116.118 175.009C117.365 173.69 118.479 172.25 119.444 170.713C119.9 169.98 120.317 169.223 120.693 168.446C120.761 168.302 120.829 168.158 120.894 168.014C121.158 167.439 121.397 166.847 121.613 166.24C121.722 165.937 121.824 165.631 121.92 165.32C121.946 165.238 121.971 165.156 121.992 165.072C122.037 164.921 122.081 164.768 122.123 164.614C122.227 164.236 122.321 163.853 122.405 163.464C122.578 162.664 122.665 161.848 122.665 161.03C122.665 160.935 122.665 160.84 122.661 160.747C122.652 160.371 122.624 159.997 122.578 159.628C122.572 159.582 122.565 159.535 122.56 159.489C122.534 159.305 122.504 159.122 122.47 158.941C122.453 158.85 122.434 158.759 122.416 158.669C122.406 158.624 122.396 158.578 122.386 158.533C122.366 158.444 122.345 158.354 122.322 158.264C122.244 157.952 122.152 157.643 122.048 157.34C122.019 157.254 121.987 157.167 121.956 157.082L121.907 156.953C121.874 156.868 121.841 156.783 121.806 156.698C121.685 156.403 121.551 156.113 121.405 155.829C121.364 155.747 121.321 155.666 121.277 155.586C121.233 155.507 121.19 155.427 121.144 155.348C120.139 153.598 118.689 152.144 116.942 151.133C115.195 150.122 113.212 149.59 111.194 149.591C111.1 149.591 111.005 149.591 110.91 149.595C110.629 149.602 110.348 149.619 110.07 149.647C109.977 149.657 109.885 149.667 109.792 149.679C109.746 149.685 109.7 149.691 109.653 149.696C109.469 149.722 109.287 149.751 109.105 149.786C109.014 149.803 108.924 149.821 108.834 149.84C107.219 150.185 105.699 150.874 104.375 151.861C104.338 151.887 104.303 151.915 104.265 151.944C103.977 152.165 103.699 152.399 103.429 152.647C103.295 152.77 103.165 152.898 103.037 153.028C102.973 153.092 102.91 153.158 102.848 153.224C102.627 153.46 102.416 153.706 102.214 153.962C102.162 154.03 102.11 154.096 102.059 154.165C101.087 155.46 100.401 156.946 100.045 158.525L100.034 158.577C100.052 158.49 100.07 158.403 100.086 158.317C100.125 158.116 100.159 157.914 100.187 157.713C100.232 157.377 100.264 157.044 100.28 156.712C100.287 156.568 100.291 156.426 100.293 156.285C100.293 156.191 100.293 156.097 100.293 156.003C100.293 155.768 100.28 155.534 100.262 155.301C100.254 155.208 100.246 155.115 100.237 155.023C100.228 154.93 100.218 154.838 100.205 154.747C100.2 154.7 100.194 154.654 100.188 154.608C100.162 154.424 100.132 154.242 100.098 154.062C100.089 154.016 100.08 153.971 100.072 153.925C100.053 153.835 100.034 153.745 100.013 153.656C99.9933 153.566 99.9718 153.477 99.9488 153.388C99.9258 153.299 99.9027 153.21 99.8769 153.121C99.1835 150.657 97.686 148.496 95.6227 146.982C93.5593 145.467 91.0487 144.686 88.4903 144.763C85.9319 144.84 83.4727 145.77 81.5041 147.406C79.5355 149.042 78.1705 151.289 77.6263 153.79V153.796Z" fill="#F3795B"/>
<path d="M116.048 155.2C116.048 155.2 126.96 163.989 106.804 178.255" stroke="white" stroke-width="2" stroke-linecap="round" stroke-linejoin="round"/>
<path d="M23.278 200.088C23.278 200.088 28.0882 215.235 50.9644 205.769C50.9644 205.769 40.4918 206.19 34.1102 201.874C34.1102 201.874 31.4056 198.993 36.3683 199.833C41.331 200.673 47.2055 201.998 51.1233 201.965C55.0411 201.931 57.8191 199.771 59.4393 196.931C61.0595 194.091 64.2366 186.654 64.2366 186.654C64.2366 186.654 49.5585 191.638 46.6834 186.1C46.6834 186.1 45.2703 183.554 53.5022 182.99C61.734 182.427 65.8812 179.618 66.1588 177.649C66.4364 175.68 66.929 162.821 66.107 161.921C66.107 161.921 59.0474 166.501 58.475 163.409C57.9025 160.318 62.5618 158.849 62.5618 158.849C62.5618 158.849 66.0028 156.975 64.7421 153.375C63.4815 149.775 62.7286 145.486 62.7286 145.486C62.7286 145.486 58.6943 148.102 54.171 149.962C49.6477 151.823 48.8653 156.506 48.8401 160.704C48.8149 164.902 45.9053 164.279 45.4782 162.884C45.051 161.49 44.6087 154.732 45.7658 153.024L37.424 155.809C37.424 155.809 34.3123 155.797 34.2281 160.267C34.144 164.738 36.0749 170.294 36.0749 170.294C36.0749 170.294 36.5401 175.245 33.4263 173.205C30.3125 171.166 29.3223 161.539 30.803 158.668C30.803 158.668 24.9018 159.511 18.9438 167.077C18.9438 167.077 17.3517 172.169 21.4421 180.501C25.5325 188.833 19.4156 186.949 19.4156 186.949C19.4156 186.949 14.158 183.076 13.9056 174.404C13.9056 174.404 4.03417 190.478 21.1846 198.697L23.278 200.088Z" fill="#007E96"/>
<path d="M23.2674 200.079C34.951 190.093 49.0589 174.688 58.6348 154.016" stroke="white" stroke-linecap="round" stroke-linejoin="round"/>
<path d="M2.46832 213.712C3.03571 214.272 12.0327 209.685 23.2705 200.079" stroke="#007E96" stroke-width="3" stroke-linecap="round" stroke-linejoin="round"/>
<path d="M2.25696 148.901L0.291016 142.062L15.4475 137.705L17.4135 144.543L2.25696 148.901Z" fill="#F2795B"/>
<path d="M52.1619 135.784L56.0566 130.823L55.467 128.772L49.5464 126.686L16.7298 136.119L19.3445 145.217L52.1619 135.784Z" fill="#F2795B"/>
<path d="M56.4553 130.345L55.854 128.283L60.5761 126.906L61.1773 128.967L56.4553 130.345Z" fill="#F2795B"/>
<path d="M51.4302 134.995L50.6255 132.232" stroke="white" stroke-linecap="round" stroke-linejoin="round"/>
<path d="M49.2021 135.644L48.3974 132.881" stroke="white" stroke-linecap="round" stroke-linejoin="round"/>
<path d="M46.9746 136.293L46.1699 133.53" stroke="white" stroke-linecap="round" stroke-linejoin="round"/>
<path d="M44.7466 136.941L43.9419 134.178" stroke="white" stroke-linecap="round" stroke-linejoin="round"/>
<path d="M42.5186 137.59L40.994 132.354" stroke="white" stroke-linecap="round" stroke-linejoin="round"/>
<path d="M40.2905 138.238L39.4858 135.476" stroke="white" stroke-linecap="round" stroke-linejoin="round"/>
<path d="M38.063 138.887L37.2583 136.125" stroke="white" stroke-linecap="round" stroke-linejoin="round"/>
<path d="M35.835 139.535L35.0303 136.773" stroke="white" stroke-linecap="round" stroke-linejoin="round"/>
<path d="M33.6069 140.184L32.8022 137.422" stroke="white" stroke-linecap="round" stroke-linejoin="round"/>
<path d="M31.3794 140.833L29.8548 135.597" stroke="white" stroke-linecap="round" stroke-linejoin="round"/>
<path d="M29.1514 141.482L28.3467 138.72" stroke="white" stroke-linecap="round" stroke-linejoin="round"/>
<path d="M26.9233 142.13L26.1186 139.368" stroke="white" stroke-linecap="round" stroke-linejoin="round"/>
<path d="M24.6958 142.779L23.8911 140.016" stroke="white" stroke-linecap="round" stroke-linejoin="round"/>
<path d="M22.4678 143.427L21.6638 140.665" stroke="white" stroke-linecap="round" stroke-linejoin="round"/>
<path d="M20.2397 144.076L18.7152 138.84" stroke="white" stroke-linecap="round" stroke-linejoin="round"/>
<path d="M15.8204 148.834L11.7812 134.785L16.0047 133.57L20.0439 147.62L15.8204 148.834Z" fill="#007E96"/>
<path d="M61.1358 128.017L84.8174 121.21" stroke="#007E96" stroke-linecap="round" stroke-linejoin="round"/>
<path d="M81.2874 205.123C77.6688 205.123 74.7354 202.19 74.7354 198.571C74.7354 194.953 77.6688 192.02 81.2874 192.02C84.9059 192.02 87.8394 194.953 87.8394 198.571C87.8394 202.19 84.9059 205.123 81.2874 205.123Z" fill="white" stroke="#007E96" stroke-width="6" stroke-linecap="round" stroke-linejoin="round"/>
<path d="M138.831 135.307C138.831 137.059 139.43 138.758 140.528 140.123C141.627 141.488 143.16 142.436 144.872 142.809C145.279 142.898 145.692 142.954 146.108 142.975C146.238 142.982 146.37 142.985 146.503 142.985C147.58 142.985 148.646 142.758 149.63 142.319C150.614 141.881 151.495 141.24 152.215 140.438C152.935 139.637 153.478 138.693 153.809 137.667C154.141 136.642 154.252 135.558 154.137 134.487C154.022 133.416 153.683 132.381 153.141 131.449C152.6 130.518 151.868 129.71 150.994 129.08C150.12 128.45 149.124 128.011 148.069 127.791C147.014 127.571 145.925 127.576 144.872 127.805C143.16 128.179 141.628 129.126 140.529 130.491C139.43 131.855 138.831 133.555 138.831 135.307Z" fill="#F3795B"/>
<path d="M139.92 135.22H153.239" stroke="white" stroke-linecap="round" stroke-linejoin="round"/>
<path d="M99.047 134.171C100.614 133.384 101.863 132.084 102.589 130.488C103.314 128.892 103.472 127.095 103.035 125.397C102.931 124.994 102.795 124.6 102.628 124.219C102.575 124.099 102.518 123.98 102.458 123.859C101.974 122.897 101.292 122.048 100.458 121.366C99.6242 120.684 98.656 120.186 97.6167 119.903C96.5773 119.62 95.49 119.559 94.4256 119.724C93.3611 119.889 92.3432 120.276 91.4381 120.86C90.533 121.444 89.761 122.212 89.1721 123.114C88.5833 124.016 88.1909 125.032 88.0205 126.095C87.85 127.159 87.9053 128.246 88.1827 129.287C88.4601 130.328 88.9535 131.299 89.6307 132.136C90.7324 133.499 92.2672 134.444 93.9801 134.814C95.693 135.184 97.481 134.957 99.047 134.171Z" fill="#F3795B"/>
<path d="M98.4819 133.24L92.4974 121.341" stroke="white" stroke-linecap="round" stroke-linejoin="round"/>
<path d="M19.375 73.1462C19.375 73.1462 3.93538 76.9101 11.812 100.379C11.812 100.379 12.1075 89.9018 16.8502 83.8302C16.8502 83.8302 19.9093 81.3291 18.7314 86.2228C17.5535 91.1164 15.8304 96.886 15.5967 100.798C15.363 104.71 17.3277 107.63 20.0553 109.439C22.783 111.248 29.9793 114.927 29.9793 114.927C29.9793 114.927 26.0119 99.9437 31.7332 97.4526C31.7332 97.4526 34.3703 96.2172 34.3688 104.468C34.3674 112.718 36.8858 117.052 38.8332 117.458C40.7806 117.864 53.5753 119.24 54.5274 118.481C54.5274 118.481 50.4413 111.125 53.5652 110.766C56.6891 110.406 57.8354 115.153 57.8354 115.153C57.8354 115.153 59.47 118.714 63.1476 117.703C66.8252 116.691 71.1558 116.235 71.1558 116.235C71.1558 116.235 68.8208 112.031 67.2725 107.39C65.7242 102.748 61.1045 101.649 56.917 101.337C52.7296 101.025 53.5508 98.1646 54.9718 97.8338C56.3928 97.503 63.1641 97.5231 64.7886 98.7981L62.5809 90.2844C62.5809 90.2844 62.8053 87.1806 58.3488 86.7909C53.8924 86.4011 48.2207 87.9472 48.2207 87.9472C48.2207 87.9472 43.2486 88.0731 45.4966 85.106C47.7446 82.1388 57.4168 81.8131 60.1804 83.4843C60.1804 83.4843 59.7432 77.5393 52.6023 71.0779C52.6023 71.0779 47.631 69.1413 39.0388 72.6528C30.4467 76.1643 32.7443 70.1905 32.7443 70.1905C32.7443 70.1905 36.9677 65.2091 45.6368 65.5507C45.6368 65.5507 30.2748 54.6027 20.9032 71.152L19.375 73.1462Z" fill="#F3795B"/>
<path d="M19.3847 73.1392C28.5478 85.4787 42.9519 100.61 62.9214 111.574" stroke="white" stroke-linecap="round" stroke-linejoin="round"/>
</svg>
