<svg width="101" height="100" viewBox="0 0 101 100" fill="none" xmlns="http://www.w3.org/2000/svg">
<mask id="mask0" mask-type="alpha" maskUnits="userSpaceOnUse" x="0" y="0" width="101" height="100">
<rect x="1.5" y="1" width="98" height="98" rx="7" fill="white" stroke="#F8F7FF" stroke-width="2"/>
</mask>
<g mask="url(#mask0)">
<g filter="url(#filter0_d)">
<path d="M63.202 71.0071H-28.4813C-35.2733 71.0071 -40.7812 65.272 -40.7812 58.1947V-2.35993C-40.7812 -9.43488 -35.2756 -15.1724 -28.4813 -15.1724H63.202C69.994 -15.1724 75.502 -9.43728 75.502 -2.35993V58.1947C75.4997 65.272 69.994 71.0071 63.202 71.0071Z" fill="#9C77BC"/>
</g>
<path d="M44.6677 1.03788C40.8456 1.03788 37.7471 -2.18975 37.7471 -6.17106V-25.8814C37.7471 -29.8627 40.8456 -33.0903 44.6677 -33.0903C48.4897 -33.0903 51.5882 -29.8627 51.5882 -25.8814V-6.17106C51.5859 -2.18736 48.4897 1.03788 44.6677 1.03788Z" fill="#9C77BC"/>
<path d="M44.6681 2.11457C40.2833 2.11457 36.7139 -1.60115 36.7139 -6.17104V-25.8814C36.7139 -30.4489 40.281 -34.167 44.6681 -34.167C49.0552 -34.167 52.6222 -30.4513 52.6222 -25.8814V-6.17104C52.62 -1.60115 49.0529 2.11457 44.6681 2.11457ZM44.6681 -32.0089C41.4225 -32.0089 38.7811 -29.2574 38.7811 -25.8766V-6.16626C38.7811 -2.7855 41.4225 -0.0339928 44.6681 -0.0339928C47.9136 -0.0339928 50.555 -2.7855 50.555 -6.16626V-25.8766C50.5527 -29.2597 47.9136 -32.0089 44.6681 -32.0089Z" fill="white"/>
<path d="M60.1229 61.8437H-25.182C-28.7766 61.8437 -31.6914 58.8074 -31.6914 55.063V5.76562H66.6346V55.063C66.6323 58.8074 63.7175 61.8437 60.1229 61.8437Z" fill="white"/>
<path d="M4.7868 23.7249H-4.07466C-5.28743 23.7249 -6.27051 22.7008 -6.27051 21.4375V12.2092C-6.27051 10.9459 -5.28743 9.92188 -4.07466 9.92188H4.78451C5.99728 9.92188 6.98035 10.9459 6.98035 12.2092V21.4375C6.98265 22.7008 5.99957 23.7249 4.7868 23.7249Z" fill="#9C77BC"/>
<path d="M21.8988 23.7249H13.0396C11.8268 23.7249 10.8438 22.7008 10.8438 21.4375V12.2092C10.8438 10.9459 11.8268 9.92188 13.0396 9.92188H21.8988C23.1115 9.92188 24.0946 10.9459 24.0946 12.2092V21.4375C24.0946 22.7008 23.1115 23.7249 21.8988 23.7249Z" fill="#9C77BC"/>
<path d="M39.0111 23.7249H30.1519C28.9391 23.7249 27.9561 22.7008 27.9561 21.4375V12.2092C27.9561 10.9459 28.9391 9.92188 30.1519 9.92188H39.0111C40.2238 9.92188 41.2069 10.9459 41.2069 12.2092V21.4375C41.2092 22.7008 40.2238 23.7249 39.0111 23.7249Z" fill="#9C77BC"/>
<path d="M56.1253 23.7249H47.2662C46.0534 23.7249 45.0703 22.7008 45.0703 21.4375V12.2092C45.0703 10.9459 46.0534 9.92188 47.2662 9.92188H56.1253C57.3381 9.92188 58.3212 10.9459 58.3212 12.2092V21.4375C58.3212 22.7008 57.3381 23.7249 56.1253 23.7249Z" fill="#7F3F97"/>
<path d="M4.78778 40.7068H-4.07369C-5.28646 40.7068 -6.26953 39.6828 -6.26953 38.4195V29.1911C-6.26953 27.9278 -5.28646 26.9038 -4.07369 26.9038H4.78549C5.99825 26.9038 6.98133 27.9278 6.98133 29.1911V38.4195C6.98363 39.6828 6.00054 40.7068 4.78778 40.7068Z" fill="#9C77BC"/>
<path d="M4.78739 40.8264H-4.07408C-5.34886 40.8264 -6.38477 39.7474 -6.38477 38.4195V29.1911C-6.38477 27.8632 -5.34886 26.7842 -4.07408 26.7842H4.7851C6.05988 26.7842 7.09578 27.8632 7.09578 29.1911V38.4195C7.09808 39.7474 6.06217 40.8264 4.78739 40.8264ZM-4.07408 27.0211C-5.22253 27.0211 -6.15507 27.9948 -6.15507 29.1888V38.4171C-6.15507 39.6134 -5.22023 40.5848 -4.07408 40.5848H4.7851C5.93355 40.5848 6.86609 39.611 6.86609 38.4171V29.1888C6.86609 27.9925 5.93125 27.0211 4.7851 27.0211H-4.07408Z" fill="#7F3F97"/>
<path d="M21.8988 40.7078H13.0396C11.8268 40.7078 10.8438 39.6837 10.8438 38.4204V29.1921C10.8438 27.9288 11.8268 26.9048 13.0396 26.9048H21.8988C23.1115 26.9048 24.0946 27.9288 24.0946 29.1921V38.4204C24.0946 39.6837 23.1115 40.7078 21.8988 40.7078Z" fill="#9C77BC"/>
<path d="M39.0111 40.7078H30.1519C28.9391 40.7078 27.9561 39.6837 27.9561 38.4204V29.1921C27.9561 27.9288 28.9391 26.9048 30.1519 26.9048H39.0111C40.2238 26.9048 41.2069 27.9288 41.2069 29.1921V38.4204C41.2092 39.6837 40.2238 40.7078 39.0111 40.7078Z" fill="#9C77BC"/>
<path d="M56.1253 40.7078H47.2662C46.0534 40.7078 45.0703 39.6837 45.0703 38.4204V29.1921C45.0703 27.9288 46.0534 26.9048 47.2662 26.9048H56.1253C57.3381 26.9048 58.3212 27.9288 58.3212 29.1921V38.4204C58.3212 39.6837 57.3381 40.7078 56.1253 40.7078Z" fill="#9C77BC"/>
<path d="M4.7868 57.6902H-4.07466C-5.28743 57.6902 -6.27051 56.6661 -6.27051 55.4028V46.1745C-6.27051 44.9112 -5.28743 43.8872 -4.07466 43.8872H4.78451C5.99728 43.8872 6.98035 44.9112 6.98035 46.1745V55.4028C6.98265 56.6661 5.99957 57.6902 4.7868 57.6902Z" fill="#9C77BC"/>
<path d="M21.8988 57.6902H13.0396C11.8268 57.6902 10.8438 56.6661 10.8438 55.4028V46.1745C10.8438 44.9112 11.8268 43.8872 13.0396 43.8872H21.8988C23.1115 43.8872 24.0946 44.9112 24.0946 46.1745V55.4028C24.0946 56.6661 23.1115 57.6902 21.8988 57.6902Z" fill="#9C77BC"/>
<path d="M39.0111 57.6902H30.1519C28.9391 57.6902 27.9561 56.6661 27.9561 55.4028V46.1745C27.9561 44.9112 28.9391 43.8872 30.1519 43.8872H39.0111C40.2238 43.8872 41.2069 44.9112 41.2069 46.1745V55.4028C41.2092 56.6661 40.2238 57.6902 39.0111 57.6902Z" fill="#9C77BC"/>
<path d="M56.1253 57.6902H47.2662C46.0534 57.6902 45.0703 56.6661 45.0703 55.4028V46.1745C45.0703 44.9112 46.0534 43.8872 47.2662 43.8872H56.1253C57.3381 43.8872 58.3212 44.9112 58.3212 46.1745V55.4028C58.3212 56.6661 57.3381 57.6902 56.1253 57.6902Z" fill="#9C77BC"/>
<g filter="url(#filter1_d)">
<path d="M69.2912 87.5C81.9221 87.5 92.1615 76.834 92.1615 63.6768C92.1615 50.5195 81.9221 39.8535 69.2912 39.8535C56.6603 39.8535 46.4209 50.5195 46.4209 63.6768C46.4209 76.834 56.6603 87.5 69.2912 87.5Z" fill="white"/>
</g>
<path d="M69.2918 83.313C58.8983 83.313 50.4434 74.5058 50.4434 63.6792C50.4434 52.8526 58.8983 44.0454 69.2918 44.0454C79.6853 44.0454 88.1402 52.8526 88.1402 63.6792C88.1402 74.5058 79.6853 83.313 69.2918 83.313ZM69.2918 47.3927C60.6715 47.3927 53.659 54.6973 53.659 63.6768C53.659 72.6563 60.6715 79.9609 69.2918 79.9609C77.9121 79.9609 84.9245 72.6563 84.9245 63.6768C84.9268 54.6973 77.9144 47.3927 69.2918 47.3927Z" fill="#9C77BC"/>
<path d="M79.3195 66.6887H69.2912C68.214 66.6887 67.3389 65.7771 67.3389 64.6549V56.0176C67.3389 54.8955 68.214 53.9839 69.2912 53.9839C70.3685 53.9839 71.2436 54.8955 71.2436 56.0176V62.6212H79.3195C80.3968 62.6212 81.2719 63.5328 81.2719 64.6549C81.2719 65.7771 80.3991 66.6887 79.3195 66.6887Z" fill="#9C77BC"/>
</g>
<rect x="1.5" y="1" width="98" height="98" rx="7" stroke="#E9E5FF" stroke-width="2"/>
<defs>
<filter id="filter0_d" x="-50.7812" y="-21.1724" width="136.283" height="106.179" filterUnits="userSpaceOnUse" color-interpolation-filters="sRGB">
<feFlood flood-opacity="0" result="BackgroundImageFix"/>
<feColorMatrix in="SourceAlpha" type="matrix" values="0 0 0 0 0 0 0 0 0 0 0 0 0 0 0 0 0 0 127 0"/>
<feOffset dy="4"/>
<feGaussianBlur stdDeviation="5"/>
<feColorMatrix type="matrix" values="0 0 0 0 0 0 0 0 0 0 0 0 0 0 0 0 0 0 0.25 0"/>
<feBlend mode="normal" in2="BackgroundImageFix" result="effect1_dropShadow"/>
<feBlend mode="normal" in="SourceGraphic" in2="effect1_dropShadow" result="shape"/>
</filter>
<filter id="filter1_d" x="36.4209" y="33.8535" width="65.7406" height="67.6465" filterUnits="userSpaceOnUse" color-interpolation-filters="sRGB">
<feFlood flood-opacity="0" result="BackgroundImageFix"/>
<feColorMatrix in="SourceAlpha" type="matrix" values="0 0 0 0 0 0 0 0 0 0 0 0 0 0 0 0 0 0 127 0"/>
<feOffset dy="4"/>
<feGaussianBlur stdDeviation="5"/>
<feColorMatrix type="matrix" values="0 0 0 0 0 0 0 0 0 0 0 0 0 0 0 0 0 0 0.25 0"/>
<feBlend mode="normal" in2="BackgroundImageFix" result="effect1_dropShadow"/>
<feBlend mode="normal" in="SourceGraphic" in2="effect1_dropShadow" result="shape"/>
</filter>
</defs>
</svg>
