<?xml version="1.0" standalone="no"?>
<!DOCTYPE svg PUBLIC "-//W3C//DTD SVG 20010904//EN"
 "http://www.w3.org/TR/2001/REC-SVG-20010904/DTD/svg10.dtd">
<svg version="1.0" xmlns="http://www.w3.org/2000/svg"
 width="256.000000pt" height="256.000000pt" viewBox="0 0 256.000000 256.000000"
 preserveAspectRatio="xMidYMid meet">

<g transform="translate(0.000000,256.000000) scale(0.100000,-0.100000)"
fill="#000000" stroke="none">
<path d="M1290 1864 c0 -41 -5 -51 -41 -86 -36 -35 -39 -42 -25 -50 10 -6 16
-22 16 -46 0 -33 -5 -40 -36 -57 -46 -25 -81 -66 -95 -115 -7 -22 -18 -40 -26
-40 -18 0 -16 -17 3 -24 21 -8 15 -52 -7 -48 -22 3 -41 -22 -37 -50 2 -15 11
-24 26 -26 27 -4 28 -14 4 -35 -26 -24 -50 -21 -54 6 -4 29 -22 29 -26 -1 -2
-13 -20 -39 -40 -58 -24 -23 -33 -37 -24 -41 8 -3 12 -27 12 -68 0 -41 -4 -65
-12 -69 -10 -5 -10 -7 0 -12 6 -3 12 -12 12 -20 0 -11 -20 -14 -100 -14 -80 0
-100 3 -100 14 0 8 6 17 13 20 10 5 10 7 0 12 -8 3 -13 25 -13 55 0 37 -4 49
-15 49 -8 0 -15 -4 -15 -10 0 -5 -4 -10 -10 -10 -14 0 -13 77 1 82 7 2 -2 19
-20 38 -17 19 -31 45 -31 57 0 14 -6 23 -15 23 -9 0 -15 -9 -15 -23 0 -12 -14
-38 -31 -57 -18 -19 -27 -36 -20 -38 14 -5 15 -82 1 -82 -5 0 -10 5 -10 10 0
6 -7 10 -15 10 -11 0 -15 -12 -15 -49 0 -30 -5 -52 -12 -55 -10 -5 -10 -7 0
-12 6 -3 12 -23 12 -44 0 -22 -5 -40 -12 -43 -10 -4 -10 -7 0 -18 8 -8 12 -46
12 -110 0 -69 -4 -99 -12 -102 -10 -4 -10 -7 -1 -18 9 -9 13 -49 13 -126 l0
-113 -25 0 c-14 0 -25 -4 -25 -10 0 -7 280 -10 820 -10 540 0 820 3 820 10 0
6 -11 10 -25 10 l-25 0 0 113 c0 77 4 117 13 126 10 11 10 14 0 18 -9 3 -13
33 -13 102 0 64 4 102 13 110 10 11 10 14 0 18 -17 6 -17 80 0 87 10 5 10 7 0
12 -8 3 -13 25 -13 55 0 37 -4 49 -15 49 -8 0 -15 -4 -15 -10 0 -5 -7 -10 -15
-10 -21 0 -20 66 1 78 14 8 11 14 -15 43 -17 18 -31 44 -31 56 0 14 -6 23 -15
23 -9 0 -15 -9 -15 -22 0 -13 -15 -38 -32 -57 -20 -22 -28 -36 -20 -39 14 -4
16 -82 2 -82 -5 0 -10 5 -10 10 0 6 -7 10 -15 10 -11 0 -15 -12 -15 -49 0 -30
-5 -52 -12 -55 -10 -5 -10 -7 0 -12 6 -3 12 -12 12 -20 0 -11 -20 -14 -100
-14 -80 0 -100 3 -100 14 0 8 6 17 13 20 10 5 10 7 0 12 -9 4 -13 28 -13 69 0
42 4 65 13 68 7 3 -3 19 -28 43 -21 21 -39 47 -40 58 0 30 -25 32 -25 2 0 -30
-29 -36 -54 -10 -22 21 -20 34 5 34 17 0 20 5 17 38 -2 29 -7 37 -23 37 -25 0
-34 42 -11 51 20 8 21 24 1 24 -8 0 -15 7 -15 15 0 46 -71 134 -120 150 -26 8
-29 79 -3 93 15 9 11 15 -25 50 -37 36 -42 46 -42 86 0 25 -4 46 -10 46 -5 0
-10 -21 -10 -46z m38 -101 c2 -9 -7 -13 -27 -13 -30 0 -39 9 -24 24 11 10 46
3 51 -11z m10 -75 c2 -29 0 -38 -12 -38 -11 0 -16 9 -16 26 0 16 -5 24 -12 22
-7 -3 -13 -13 -13 -23 0 -10 -6 -20 -12 -22 -9 -3 -13 8 -13 37 l0 41 38 -3
c35 -3 37 -5 40 -40z m42 -83 c43 -22 90 -84 90 -119 0 -14 -23 -16 -175 -16
-96 0 -175 3 -175 7 0 4 9 26 21 49 42 87 152 123 239 79z m-240 -186 c0 -17
-4 -28 -10 -24 -5 3 -10 17 -10 31 0 13 5 24 10 24 6 0 10 -14 10 -31z m80 6
c0 -20 -5 -25 -25 -25 -20 0 -25 5 -25 25 0 20 5 25 25 25 20 0 25 -5 25 -25z
m128 -2 c-3 -25 -6 -27 -50 -28 -46 0 -48 1 -48 27 0 27 2 28 51 28 49 0 50
-1 47 -27z m77 -2 c0 -18 -6 -25 -23 -26 -26 -2 -38 16 -28 41 10 26 51 14 51
-15z m55 -1 c0 -10 -5 -22 -10 -25 -13 -8 -24 20 -16 41 8 20 26 9 26 -16z
m48 -62 c-4 -10 -61 -14 -231 -16 -198 -2 -227 0 -227 13 0 13 31 15 231 15
180 0 230 -3 227 -12z m-378 -87 c0 -34 -4 -51 -15 -55 -32 -12 -13 -26 35
-26 38 0 50 -4 50 -15 0 -12 -13 -15 -60 -15 l-60 0 0 -35 c0 -24 -5 -35 -15
-35 -23 0 -21 96 2 105 16 6 15 8 -7 25 l-25 19 27 21 c15 11 30 29 33 40 4
11 13 20 21 20 10 0 14 -13 14 -49z m48 -4 c2 -37 0 -47 -12 -47 -12 0 -16 12
-16 51 0 66 24 62 28 -4z m174 3 c3 -57 -12 -68 -27 -18 -6 17 -20 35 -31 39
-29 10 -64 -15 -64 -47 0 -15 -6 -24 -15 -24 -11 0 -15 12 -15 50 l0 50 74 0
74 0 4 -50z m56 -3 c2 -37 0 -47 -12 -47 -12 0 -16 12 -16 51 0 66 24 62 28
-4z m57 33 c3 -11 18 -29 33 -40 l27 -21 -25 -19 c-22 -17 -23 -19 -7 -25 23
-9 25 -105 3 -105 -10 0 -16 13 -18 37 l-3 36 -57 1 c-69 1 -82 20 -18 24 50
4 73 18 47 28 -23 8 -25 104 -3 104 8 0 17 -9 21 -20z m-835 -45 c11 -13 8
-15 -14 -15 -25 0 -33 10 -19 23 10 11 19 8 33 -8z m668 -13 c3 -18 -1 -22
-22 -22 -19 0 -26 5 -26 18 0 39 43 43 48 4z m656 22 c25 -9 19 -24 -9 -24
-24 0 -32 10 -18 23 8 8 8 8 27 1z m-944 -34 c11 -7 5 -10 -23 -10 -23 0 -36
4 -32 10 8 13 35 13 55 0z m585 0 c4 -6 -7 -10 -25 -10 -18 0 -29 4 -25 10 3
6 15 10 25 10 10 0 22 -4 25 -10z m-957 -52 c3 -35 1 -38 -22 -38 -24 0 -26 4
-26 41 0 36 2 40 23 37 18 -2 23 -10 25 -40z m1332 2 c0 -36 -2 -40 -25 -40
-22 0 -25 4 -25 40 0 36 3 40 25 40 23 0 25 -4 25 -40z m-950 -55 c0 -69 -17
-90 -22 -28 -4 53 -28 56 -28 3 0 -63 -22 -45 -25 20 -1 30 0 58 2 63 2 4 20
7 39 7 l34 0 0 -65z m308 53 c-3 -7 -25 -14 -51 -16 -37 -2 -47 0 -47 12 0 12
12 16 51 16 36 0 49 -4 47 -12z m282 -54 c0 -46 -3 -65 -12 -62 -7 3 -12 19
-12 38 -1 18 -7 35 -13 37 -9 3 -13 -8 -13 -37 0 -29 -4 -40 -12 -38 -8 3 -14
28 -16 66 l-3 62 41 0 40 0 0 -66z m-460 -9 c0 -20 -5 -25 -25 -25 -20 0 -25
5 -25 25 0 20 5 25 25 25 20 0 25 -5 25 -25z m230 0 l0 -25 -100 0 -100 0 0
25 0 25 100 0 100 0 0 -25z m80 0 c0 -20 -5 -25 -25 -25 -20 0 -25 5 -25 25 0
20 5 25 25 25 20 0 25 -5 25 -25z m-772 -27 c-3 -21 -9 -23 -80 -26 -78 -3
-78 -3 -78 23 0 25 1 25 81 25 78 0 80 -1 77 -22z m1332 -3 c0 -26 0 -26 -77
-23 -72 3 -78 5 -81 26 -3 21 -1 22 77 22 80 0 81 0 81 -25z m-510 -35 c0 -6
-83 -10 -230 -10 -147 0 -230 4 -230 10 0 6 83 10 230 10 147 0 230 -4 230
-10z m-820 -50 l0 -40 -75 0 -75 0 0 40 0 40 75 0 75 0 0 -40z m334 25 c3 -8
15 -15 26 -15 15 0 20 -7 20 -25 0 -25 -1 -26 -62 -23 l-62 3 1 33 c1 17 2 34
2 37 2 13 69 4 75 -10z m586 -25 l0 -40 -65 0 c-63 0 -65 1 -65 25 0 20 5 25
24 25 13 0 26 7 30 15 3 9 19 15 41 15 34 0 35 -1 35 -40z m410 0 l0 -40 -75
0 -75 0 0 40 0 40 75 0 75 0 0 -40z m-870 -15 c0 -20 -5 -25 -25 -25 -20 0
-25 5 -25 25 0 20 5 25 25 25 20 0 25 -5 25 -25z m230 0 l0 -25 -100 0 -100 0
0 25 0 25 100 0 100 0 0 -25z m80 0 c0 -20 -5 -25 -25 -25 -20 0 -25 5 -25 25
0 20 5 25 25 25 20 0 25 -5 25 -25z m-540 -6 c0 -7 -8 -18 -17 -25 -17 -12
-17 -13 0 -19 41 -16 10 -25 -88 -25 -58 0 -105 3 -105 6 0 4 8 13 18 20 16
13 16 15 -1 25 -34 20 -5 29 94 29 67 0 99 -4 99 -11z m920 -3 c0 -8 -6 -16
-12 -19 -10 -4 -10 -7 0 -18 6 -7 12 -17 12 -21 0 -4 -45 -8 -100 -8 -55 0
-100 4 -100 8 0 4 6 14 13 21 10 11 10 14 0 18 -7 3 -13 11 -13 19 0 11 20 14
100 14 80 0 100 -3 100 -14z m-1150 -146 l0 -100 -75 0 -75 0 0 100 0 100 75
0 75 0 0 -100z m308 -127 l-3 -228 -23 0 -23 0 -2 228 -2 227 28 0 27 0 -2
-227z m72 202 c0 -20 -5 -25 -25 -25 -20 0 -25 5 -25 25 0 20 5 25 25 25 20 0
25 -5 25 -25z m80 -205 l0 -230 -25 0 -25 0 0 230 0 230 25 0 25 0 0 -230z
m230 193 l0 -36 -24 22 c-34 32 -92 37 -138 13 l-38 -20 0 29 0 29 100 0 100
0 0 -37z m78 -190 c-3 -228 -3 -228 -25 -231 l-23 -3 0 230 0 231 25 0 25 0
-2 -227z m72 202 c0 -20 -5 -25 -25 -25 -20 0 -25 5 -25 25 0 20 5 25 25 25
20 0 25 -5 25 -25z m80 -205 l0 -230 -25 0 -25 0 0 230 0 230 25 0 25 0 0
-230z m410 130 l0 -100 -75 0 -75 0 0 100 0 100 75 0 75 0 0 -100z m-1100
-155 l0 -206 -102 3 -103 3 -3 109 c-2 90 0 111 13 118 19 11 20 28 0 28 -12
0 -15 15 -15 75 l0 75 105 0 105 0 0 -205z m411 195 c41 -23 49 -60 49 -235
l0 -165 -100 0 -100 0 0 176 0 176 29 29 c31 31 83 39 122 19z m509 -65 c0
-43 -4 -75 -10 -75 -5 0 -10 -7 -10 -15 0 -8 5 -15 10 -15 6 0 10 -45 10 -115
l0 -115 -100 0 -100 0 0 205 0 205 100 0 100 0 0 -75z m-772 12 c3 -34 1 -37
-22 -37 -22 0 -26 5 -26 28 0 30 17 54 35 49 5 -2 11 -20 13 -40z m460 0 c3
-34 1 -37 -22 -37 -22 0 -26 5 -26 28 0 30 17 54 35 49 5 -2 11 -20 13 -40z
m-458 -87 c0 -25 -4 -30 -25 -30 -20 0 -25 5 -25 23 0 28 7 37 32 37 13 0 18
-8 18 -30z m460 0 c0 -25 -4 -30 -25 -30 -20 0 -25 5 -25 23 0 28 7 37 32 37
13 0 18 -8 18 -30z m-840 -145 l0 -115 -75 0 -75 0 0 115 0 115 75 0 75 0 0
-115z m1330 0 l0 -115 -75 0 -75 0 0 115 0 115 75 0 75 0 0 -115z m-952 52 c3
-34 1 -37 -22 -37 -23 0 -26 4 -26 33 0 38 7 49 30 45 9 -2 16 -16 18 -41z
m460 0 c3 -34 1 -37 -22 -37 -22 0 -26 5 -26 28 0 30 17 54 35 49 5 -2 11 -20
13 -40z m-458 -113 c0 -52 -1 -55 -22 -52 -19 2 -24 10 -26 42 -4 49 3 66 28
66 18 0 20 -6 20 -56z m460 0 c0 -52 -1 -55 -22 -52 -19 2 -24 10 -26 42 -4
49 3 66 28 66 18 0 20 -6 20 -56z"/>
<path d="M1290 1420 c0 -5 5 -10 10 -10 6 0 10 5 10 10 0 6 -4 10 -10 10 -5 0
-10 -4 -10 -10z"/>
<path d="M620 1000 c0 -5 5 -10 10 -10 6 0 10 5 10 10 0 6 -4 10 -10 10 -5 0
-10 -4 -10 -10z"/>
<path d="M1950 1000 c0 -5 7 -10 16 -10 8 0 12 5 9 10 -3 6 -10 10 -16 10 -5
0 -9 -4 -9 -10z"/>
<path d="M584 896 c-3 -7 -4 -35 -2 -62 l3 -49 48 -3 47 -3 0 65 0 66 -45 0
c-30 0 -48 -5 -51 -14z m76 -26 c0 -5 -11 -10 -25 -10 -14 0 -25 5 -25 10 0 6
11 10 25 10 14 0 25 -4 25 -10z m0 -50 c0 -5 -11 -10 -25 -10 -14 0 -25 5 -25
10 0 6 11 10 25 10 14 0 25 -4 25 -10z"/>
<path d="M1914 896 c-3 -7 -4 -35 -2 -62 l3 -49 48 -3 47 -3 0 65 0 66 -45 0
c-30 0 -48 -5 -51 -14z m76 -26 c0 -5 -11 -10 -25 -10 -14 0 -25 5 -25 10 0 6
11 10 25 10 14 0 25 -4 25 -10z m0 -50 c0 -5 -11 -10 -25 -10 -14 0 -25 5 -25
10 0 6 11 10 25 10 14 0 25 -4 25 -10z"/>
<path d="M790 796 l0 -66 50 0 51 0 -3 63 -3 62 -47 3 -48 3 0 -65z m70 24 c0
-5 -11 -10 -25 -10 -14 0 -25 5 -25 10 0 6 11 10 25 10 14 0 25 -4 25 -10z m0
-50 c0 -5 -7 -10 -15 -10 -8 0 -18 0 -22 -1 -4 0 -9 4 -11 10 -2 6 8 11 22 11
14 0 26 -4 26 -10z"/>
<path d="M790 615 l0 -66 48 3 47 3 0 60 0 60 -47 3 -48 3 0 -66z m70 25 c0
-5 -11 -10 -25 -10 -14 0 -25 5 -25 10 0 6 11 10 25 10 14 0 25 -4 25 -10z m0
-50 c0 -5 -11 -10 -25 -10 -14 0 -25 5 -25 10 0 6 11 10 25 10 14 0 25 -4 25
-10z"/>
<path d="M1710 796 l0 -66 50 0 51 0 -3 63 -3 62 -47 3 -48 3 0 -65z m70 24
c0 -5 -11 -10 -25 -10 -14 0 -25 5 -25 10 0 6 11 10 25 10 14 0 25 -4 25 -10z
m0 -53 c0 -17 -42 -15 -48 1 -2 7 7 12 22 12 15 0 26 -6 26 -13z"/>
<path d="M1710 615 l0 -65 50 0 50 0 0 65 0 65 -50 0 -50 0 0 -65z m70 25 c0
-5 -11 -10 -25 -10 -14 0 -25 5 -25 10 0 6 11 10 25 10 14 0 25 -4 25 -10z m0
-50 c0 -5 -11 -10 -25 -10 -14 0 -25 5 -25 10 0 6 11 10 25 10 14 0 25 -4 25
-10z"/>
<path d="M587 673 c-4 -3 -7 -33 -7 -65 l0 -58 50 0 50 0 0 65 0 65 -43 0
c-24 0 -47 -3 -50 -7z m73 -58 c0 -31 -3 -35 -25 -35 -22 0 -25 4 -25 35 0 31
3 35 25 35 22 0 25 -4 25 -35z"/>
<path d="M1914 666 c-3 -7 -4 -35 -2 -62 l3 -49 48 -3 47 -3 0 65 0 66 -45 0
c-30 0 -48 -5 -51 -14z m76 -51 c0 -31 -3 -35 -25 -35 -22 0 -25 4 -25 35 0
31 3 35 25 35 22 0 25 -4 25 -35z"/>
</g>
</svg>
