<svg width="27" height="26" viewBox="0 0 27 26" fill="none" xmlns="http://www.w3.org/2000/svg">
<path d="M12.4116 17.6338C12.6167 17.4344 12.6167 17.1131 12.4116 16.9157C12.2065 16.7182 11.8727 16.7182 11.6655 16.9157C11.4604 17.115 11.4604 17.4364 11.6655 17.6338C11.8707 17.8312 12.2044 17.8312 12.4116 17.6338Z" fill="#6230CC"/>
<path d="M9.91406 5.5844C9.91406 8.66405 12.5161 11.1688 15.7153 11.1688C18.9145 11.1688 21.5145 8.66405 21.5145 5.5844C21.5145 2.50475 18.9125 0 15.7133 0C12.514 0 9.91406 2.50475 9.91406 5.5844ZM20.4608 5.5844C20.4608 8.10464 18.3313 10.1526 15.7153 10.1526C13.0992 10.1526 10.9697 8.1027 10.9697 5.5844C10.9697 3.0661 13.0992 1.01623 15.7153 1.01623C18.3313 1.01623 20.4608 3.06416 20.4608 5.5844Z" fill="#6230CC"/>
<path d="M6.07367 25.8487C6.27877 26.0461 6.61056 26.05 6.81767 25.8526L9.37543 23.4272C9.80976 23.0091 9.94248 22.3897 9.75145 21.8515L10.3024 21.3405C10.598 21.0657 10.9881 20.9127 11.4003 20.9127H18.41C19.6547 20.9127 20.829 20.452 21.7198 19.6178C21.756 19.5829 21.4423 19.941 26.5036 14.1185C27.2536 13.263 27.141 11.9796 26.2522 11.2557C25.3695 10.5395 24.0463 10.6421 23.2923 11.4822L20.1795 14.5618C19.7874 14.0953 19.1882 13.8069 18.5407 13.8069H12.6591C11.8226 13.4701 10.9338 13.2998 10.0189 13.2998C7.47923 13.2998 5.2613 14.4282 4.07291 16.5459C3.57221 16.4549 3.04337 16.6001 2.66333 16.9659L0.153827 19.3894C-0.0512758 19.5868 -0.0512758 19.9062 0.153827 20.1056L6.07367 25.8487ZM10.0189 14.316C10.8272 14.316 11.6074 14.4728 12.3414 14.7805C12.4077 14.8096 12.4801 14.8231 12.5525 14.8231H18.5407C19.1118 14.8231 19.5964 15.2722 19.5964 15.8374C19.5964 16.3968 19.1239 16.8536 18.5407 16.8536H14.2376C13.946 16.8536 13.7107 17.0801 13.7107 17.3608C13.7107 17.6415 13.946 17.8679 14.2376 17.8679H18.5407C19.703 17.8679 20.6501 16.9562 20.6501 15.8374C20.6501 15.7484 20.644 15.6593 20.632 15.5722C23.6422 12.5932 24.0664 12.1751 24.0845 12.1538C24.4606 11.7261 25.1282 11.6719 25.5705 12.0319C26.0149 12.3939 26.0712 13.0346 25.6932 13.4643L20.9638 18.9074C20.2741 19.5462 19.3672 19.8965 18.408 19.8965H11.3983C10.7106 19.8965 10.0611 20.1501 9.56847 20.6088L9.12005 21.025L4.98783 17.0511C5.95302 15.307 7.76476 14.316 10.0189 14.316ZM3.40733 17.684C3.58026 17.5176 3.8477 17.4866 4.06084 17.6124C4.15133 17.6666 3.88992 17.4363 8.62942 21.9909C8.84055 22.1941 8.82849 22.5174 8.63143 22.7071L6.4517 24.7744L1.26983 19.7475L3.40733 17.684Z" fill="#6230CC"/>
<path d="M15.069 2.55311V3.13188C14.4557 3.34093 14.0133 3.90614 14.0133 4.56814C14.0133 5.40435 14.7171 6.0857 15.5858 6.09151C15.8532 6.09345 16.0885 6.28314 16.1187 6.54059C16.1549 6.84642 15.9055 7.10774 15.5938 7.10774C15.3706 7.10774 15.1314 6.97417 14.9162 6.73222C14.7473 6.54252 14.4597 6.48445 14.2385 6.61221C13.951 6.77674 13.8967 7.14064 14.1018 7.37679C14.3833 7.70005 14.7151 7.92459 15.067 8.03879V8.61562C15.067 8.86919 15.254 9.0976 15.5154 9.13438C15.8412 9.1789 16.1207 8.93694 16.1207 8.63304V8.03879C16.734 7.82974 17.1763 7.26453 17.1763 6.60253C17.1763 5.76632 16.4726 5.08496 15.6039 5.07916C15.3365 5.07722 15.1012 4.88753 15.071 4.63008C15.0348 4.32425 15.2842 4.06293 15.5958 4.06293C15.7788 4.06293 15.9719 4.15004 16.1528 4.3165C16.3419 4.48878 16.6334 4.52362 16.8426 4.37264C17.112 4.18101 17.1281 3.81323 16.8989 3.59837C16.6314 3.34867 16.364 3.20737 16.1227 3.13188V2.5415C16.1227 2.23566 15.8432 1.9937 15.5174 2.04016C15.256 2.07307 15.069 2.29954 15.069 2.55311Z" fill="#6230CC"/>
</svg>
