<?xml version="1.0" standalone="no"?>
<!DOCTYPE svg PUBLIC "-//W3C//DTD SVG 20010904//EN"
 "http://www.w3.org/TR/2001/REC-SVG-20010904/DTD/svg10.dtd">
<svg version="1.0" xmlns="http://www.w3.org/2000/svg"
 width="512.000000pt" height="512.000000pt" viewBox="0 0 512.000000 512.000000"
 preserveAspectRatio="xMidYMid meet">

<g transform="translate(0.000000,512.000000) scale(0.100000,-0.100000)"
fill="#000000" stroke="none">
<path d="M2342 3728 c-7 -7 -12 -30 -12 -52 0 -39 -2 -42 -53 -66 -44 -21 -56
-33 -77 -77 l-25 -53 -71 0 c-79 0 -84 -4 -84 -66 l0 -33 -147 -3 -148 -3 -3
-227 -2 -228 -68 0 c-40 0 -73 -5 -80 -12 -7 -7 -12 -40 -12 -79 l0 -68 -47
-3 -48 -3 -3 -97 -3 -98 -70 0 c-55 0 -71 -3 -76 -16 -4 -11 23 -76 70 -171
l77 -153 0 -264 0 -265 -22 -3 c-15 -2 -23 -10 -23 -23 0 -13 8 -21 23 -23 22
-3 22 -5 22 -158 l0 -154 -45 0 c-30 0 -47 -5 -51 -14 -3 -8 17 -48 45 -90
l51 -75 0 -245 0 -245 -22 -3 c-13 -2 -23 -10 -23 -18 0 -8 10 -16 23 -18 20
-3 22 -9 22 -58 l0 -54 -110 0 c-92 0 -112 -3 -117 -16 -3 -9 0 -20 8 -25 18
-12 2620 -12 2638 0 8 5 11 16 8 25 -5 13 -25 16 -117 16 l-110 0 0 54 c0 49
2 55 23 58 12 2 22 10 22 18 0 8 -10 16 -22 18 l-23 3 0 242 0 241 51 78 c30
45 49 84 45 93 -4 10 -19 15 -51 15 l-45 0 0 154 c0 153 0 155 23 158 14 2 22
10 22 23 0 13 -8 21 -22 23 l-23 3 0 265 0 264 77 153 c47 95 74 160 70 171
-5 13 -21 16 -76 16 l-70 0 -3 98 -3 97 -47 3 -48 3 0 68 c0 39 -5 72 -12 79
-7 7 -40 12 -80 12 l-68 0 -2 228 -3 227 -147 3 -148 3 0 33 c0 62 -5 66 -84
66 l-71 0 -25 53 c-21 44 -33 56 -77 77 -51 24 -53 27 -53 65 0 23 -5 46 -12
53 -17 17 -419 17 -436 0z m398 -68 l0 -30 -180 0 -180 0 0 30 0 30 180 0 180
0 0 -30z m62 -80 c36 -10 88 -62 88 -88 0 -9 -87 -12 -330 -12 -243 0 -330 3
-330 12 0 23 52 78 83 87 44 13 443 13 489 1z m248 -175 l0 -25 -490 0 -490 0
0 25 0 25 490 0 490 0 0 -25z m308 -282 l2 -203 -800 0 -800 0 0 198 c0 109 3
202 7 205 3 4 362 6 797 5 l791 -3 3 -202z m152 -308 l0 -55 -950 0 -950 0 0
55 0 55 950 0 950 0 0 -55z m100 -175 l0 -80 -1050 0 -1050 0 0 80 0 80 1050
0 1050 0 0 -80z m128 -155 l-11 -25 -1167 0 -1167 0 -11 25 -12 25 1190 0
1190 0 -12 -25z m-2278 -112 l-1 -38 -14 25 c-19 33 -19 50 0 50 11 0 15 -11
15 -37z m155 -43 l0 -75 -52 -3 -53 -3 0 81 0 81 53 -3 52 -3 0 -75z m155 0
l0 -80 -55 0 -55 0 0 80 0 80 55 0 55 0 0 -80z m150 0 l0 -80 -50 0 -50 0 0
80 0 80 50 0 50 0 0 -80z m155 0 l0 -75 -52 -3 -53 -3 0 81 0 81 53 -3 52 -3
0 -75z m155 0 l0 -80 -55 0 -55 0 0 80 0 80 55 0 55 0 0 -80z m150 0 l0 -80
-50 0 -50 0 0 80 0 80 50 0 50 0 0 -80z m158 -2 l3 -78 -56 0 -55 0 0 81 0 80
53 -3 52 -3 3 -77z m152 2 l0 -80 -55 0 -55 0 0 73 c0 41 3 77 7 80 3 4 28 7
55 7 l48 0 0 -80z m150 0 l0 -80 -50 0 -50 0 0 80 0 80 50 0 50 0 0 -80z m160
0 l0 -80 -55 0 -55 0 0 80 0 80 55 0 55 0 0 -80z m150 -1 l0 -80 -52 3 -53 3
-3 64 c-4 87 -2 91 58 91 l50 0 0 -81z m150 1 l0 -80 -50 0 -50 0 0 80 0 80
50 0 50 0 0 -80z m160 0 l0 -80 -55 0 -55 0 0 80 0 80 55 0 55 0 0 -80z m150
-1 l0 -80 -52 3 -53 3 -1 70 c-1 39 0 73 3 78 2 4 26 7 54 7 l49 0 0 -81z m80
69 c-1 -7 -7 -24 -15 -38 l-14 -25 -1 38 c0 26 4 37 15 37 8 0 15 -6 15 -12z
m-1610 -453 l0 -255 -30 0 -29 0 -3 98 -3 97 -225 0 -225 0 -3 -97 c-3 -97 -3
-98 -27 -98 l-25 0 0 255 0 255 285 0 285 0 0 -255z m920 205 l0 -50 -202 -2
-203 -3 -3 -102 -3 -103 -29 0 -29 0 -3 103 -3 102 -202 3 -203 2 0 50 0 50
440 0 440 0 0 -50z m610 -205 l0 -255 -25 0 c-24 0 -24 1 -27 98 l-3 97 -225
0 -225 0 -3 -97 -3 -98 -29 0 -30 0 0 255 0 255 285 0 285 0 0 -255z m-1130
95 c0 -5 -8 -10 -17 -10 -28 -1 -101 -37 -145 -71 -57 -45 -105 -122 -125
-201 -16 -63 -19 -68 -45 -68 l-28 0 0 180 0 180 180 0 c113 0 180 -4 180 -10z
m520 -170 l0 -180 -28 0 c-26 0 -29 5 -45 68 -20 79 -68 156 -125 201 -44 34
-117 70 -144 71 -10 0 -18 5 -18 10 0 6 67 10 180 10 l180 0 0 -180z m-510 90
c0 -13 -16 -28 -49 -44 -66 -34 -128 -106 -147 -173 -13 -46 -19 -53 -41 -53
-24 0 -25 2 -19 41 15 93 88 187 180 230 63 30 76 30 76 -1z m238 -9 c73 -37
145 -137 158 -220 6 -39 5 -41 -20 -41 -15 0 -28 6 -30 13 -2 6 -9 30 -15 53
-14 54 -81 129 -142 160 -32 16 -49 31 -49 43 0 35 15 34 98 -8z m-238 -86 c0
-12 14 -15 70 -15 56 0 70 3 70 15 0 20 8 19 52 -8 42 -26 73 -62 93 -111 20
-47 19 -54 -7 -58 -15 -2 -23 -10 -23 -23 0 -13 8 -21 23 -23 22 -3 22 -5 22
-157 0 -152 0 -154 -22 -157 -15 -2 -23 -10 -23 -23 0 -13 8 -21 23 -23 l22
-3 0 -385 0 -384 -230 0 -230 0 0 384 0 385 23 3 c14 2 22 10 22 23 0 13 -8
21 -22 23 -23 3 -23 5 -23 157 0 152 0 154 23 157 14 2 22 10 22 23 0 13 -8
21 -22 23 -27 4 -28 11 -8 58 20 49 51 85 93 111 44 27 52 28 52 8z m-800 -45
c0 -28 -2 -30 -40 -30 -35 0 -40 3 -40 23 0 31 7 37 47 37 30 0 33 -3 33 -30z
m155 0 c0 -23 -4 -25 -52 -28 l-53 -3 0 31 0 31 53 -3 c48 -3 52 -5 52 -28z
m125 0 c0 -28 -2 -30 -40 -30 -35 0 -40 3 -40 23 0 31 7 37 47 37 30 0 33 -3
33 -30z m1258 -2 c3 -27 1 -28 -37 -28 -39 0 -41 1 -41 31 0 29 2 30 38 27 32
-3 37 -7 40 -30z m152 2 c0 -29 -1 -30 -50 -30 -36 0 -52 4 -56 15 -13 32 4
45 56 45 49 0 50 -1 50 -30z m128 -2 c3 -27 1 -28 -37 -28 -39 0 -41 1 -41 31
0 29 2 30 38 27 32 -3 37 -7 40 -30z m-1538 -103 l0 -25 -180 0 -180 0 0 25 0
25 180 0 180 0 0 -25z m1540 0 l0 -25 -180 0 -180 0 0 25 0 25 180 0 180 0 0
-25z m-1950 -99 c0 -15 -7 -26 -19 -29 -25 -6 -31 0 -31 30 0 18 5 23 25 23
20 0 25 -5 25 -24z m410 -1 l0 -25 -170 0 c-93 0 -173 0 -177 0 -5 0 -9 11
-11 25 l-3 25 180 0 181 0 0 -25z m108 -2 c-2 -22 -8 -28 -28 -28 -20 0 -26 6
-28 28 -3 24 0 27 28 27 28 0 31 -3 28 -27z m202 -128 l0 -155 -80 0 -80 0 0
155 0 155 80 0 80 0 0 -155z m720 0 l0 -155 -80 0 -80 0 0 155 0 155 80 0 80
0 0 -155z m98 128 c-2 -22 -8 -28 -28 -28 -20 0 -26 6 -28 28 -3 24 0 27 28
27 28 0 31 -3 28 -27z m410 0 c-2 -16 -6 -27 -10 -25 -5 1 -84 2 -178 2 l-170
0 0 25 0 25 181 0 180 0 -3 -27z m102 4 c0 -30 -6 -36 -31 -30 -12 3 -19 14
-19 29 0 19 5 24 25 24 20 0 25 -5 25 -23z m-2050 -182 l0 -105 -25 0 -25 0 0
105 0 105 25 0 25 0 0 -105z m108 30 c2 -40 8 -73 15 -77 20 -13 212 -9 225 4
7 7 12 40 12 80 0 66 1 68 25 68 l25 0 0 -105 0 -105 -180 0 -180 0 0 106 0
105 28 -3 c26 -3 27 -5 30 -73z m202 20 l0 -55 -80 0 -80 0 0 48 c0 27 3 52 7
55 3 4 39 7 80 7 l73 0 0 -55z m208 -52 l3 -103 -31 0 -30 0 0 106 0 105 28
-3 27 -3 3 -102z m1022 2 l0 -105 -30 0 -30 0 0 98 c0 54 3 102 7 105 3 4 17
7 30 7 23 0 23 -2 23 -105z m100 37 c0 -40 5 -73 12 -80 13 -13 205 -17 225
-4 7 4 13 37 15 77 3 68 4 70 31 73 l27 3 0 -105 0 -106 -180 0 -180 0 0 105
0 105 25 0 c24 0 25 -2 25 -68z m208 11 l3 -53 -80 0 -81 0 0 55 0 56 78 -3
77 -3 3 -52z m202 -48 l0 -105 -25 0 -25 0 0 105 0 105 25 0 25 0 0 -105z
m-1460 -161 c0 -3 -14 -25 -30 -50 l-31 -44 -297 0 -297 0 -33 50 -32 50 360
0 c198 0 360 -3 360 -6z m130 -379 l0 -385 -80 0 -80 0 0 315 0 315 46 70 c43
63 50 70 80 70 l34 0 0 -385z m675 318 l45 -68 0 -317 0 -318 -80 0 -80 0 0
385 0 385 35 0 c32 0 38 -6 80 -67z m721 42 c-9 -14 -23 -36 -32 -50 l-16 -25
-298 0 -298 0 -16 25 c-9 14 -23 36 -32 50 l-16 25 362 0 362 0 -16 -25z
m-2116 -360 l0 -235 -25 0 -25 0 0 235 0 235 25 0 25 0 0 -235z m410 0 l0
-235 -180 0 -180 0 0 235 0 235 180 0 180 0 0 -235z m105 0 l0 -230 -27 -3
-28 -3 0 236 0 236 28 -3 27 -3 0 -230z m1025 -1 l0 -235 -27 3 -28 3 -3 220
c-1 121 0 225 2 232 3 7 17 13 31 13 l25 0 0 -236z m410 1 l0 -235 -180 0
-180 0 0 235 0 235 180 0 180 0 0 -235z m100 0 l0 -235 -25 0 -25 0 0 235 0
235 25 0 25 0 0 -235z m-2050 -330 c0 -52 -1 -55 -25 -55 -24 0 -25 3 -25 55
0 52 1 55 25 55 24 0 25 -3 25 -55z m108 -2 l3 -53 -30 0 c-31 0 -31 0 -31 56
0 54 0 55 28 52 25 -3 27 -7 30 -55z m202 2 l0 -55 -80 0 -80 0 0 48 c0 27 3
52 7 55 3 4 39 7 80 7 l73 0 0 -55z m100 0 c0 -52 -1 -55 -25 -55 -24 0 -25 3
-25 55 0 52 1 55 25 55 24 0 25 -3 25 -55z m105 0 c0 -47 -2 -50 -27 -53 -28
-3 -28 -3 -28 53 0 56 0 56 28 53 25 -3 27 -6 27 -53z m1025 -1 c0 -54 0 -55
-27 -52 -25 3 -28 8 -31 42 -4 52 3 66 33 66 24 0 25 -3 25 -56z m100 1 c0
-52 -1 -55 -25 -55 -24 0 -25 3 -25 55 0 52 1 55 25 55 24 0 25 -3 25 -55z
m208 -2 l3 -53 -80 0 -81 0 0 55 0 56 78 -3 77 -3 3 -52z m102 2 c0 -54 0 -55
-30 -55 -29 0 -30 1 -30 48 0 55 4 62 37 62 21 0 23 -4 23 -55z m100 0 c0 -52
-1 -55 -25 -55 -24 0 -25 3 -25 55 0 52 1 55 25 55 24 0 25 -3 25 -55z"/>
<path d="M1994 3210 c-56 -22 -86 -103 -61 -163 21 -48 60 -72 120 -72 43 0
52 4 83 37 27 30 34 46 34 78 0 52 -23 96 -60 115 -32 16 -83 19 -116 5z m108
-57 c25 -22 30 -60 14 -92 -25 -48 -82 -56 -121 -16 -32 31 -33 75 -2 102 39
36 73 37 109 6z"/>
<path d="M2232 3123 l3 -98 47 -3 c39 -3 47 -6 50 -25 3 -22 4 -22 228 -22
224 0 225 0 228 22 3 19 11 22 50 25 l47 3 3 98 3 97 -331 0 -331 0 3 -97z
m608 3 l0 -55 -47 -3 c-41 -3 -48 -6 -51 -25 -3 -23 -4 -23 -182 -23 -178 0
-179 0 -182 23 -3 19 -10 22 -50 25 l-48 3 0 55 0 54 280 0 280 0 0 -54z"/>
<path d="M3008 3205 c-36 -20 -58 -64 -58 -115 0 -32 7 -48 34 -78 31 -33 40
-37 83 -37 60 0 99 24 120 72 19 47 10 95 -26 135 -22 25 -37 31 -77 34 -32 3
-58 -1 -76 -11z m120 -58 c62 -57 -21 -158 -97 -117 -31 16 -45 64 -29 96 26
55 79 64 126 21z"/>
<path d="M1760 2143 c-30 -11 -60 -47 -66 -79 -17 -93 99 -153 167 -85 73 74
-4 199 -101 164z m77 -72 c13 -28 4 -55 -25 -70 -27 -14 -66 9 -70 40 -7 57
70 80 95 30z"/>
<path d="M3285 2139 c-91 -53 -61 -189 42 -189 91 1 135 107 69 169 -28 26
-83 36 -111 20z m79 -55 c31 -30 18 -71 -27 -87 -25 -9 -69 35 -60 60 16 45
57 58 87 27z"/>
</g>
</svg>
