<svg width="115" height="119" viewBox="0 0 115 119" fill="none" xmlns="http://www.w3.org/2000/svg">
<path d="M15.7962 34.5329C13.9252 25.4865 25.2839 13.5411 29.5613 10.8407C40.5233 3.91998 59.5139 0.0845049 85.5859 13.8352C126.043 35.1728 108.401 85.9917 79.5341 82.3409C56.908 79.4793 66.6883 50.1254 54.6418 43.8547C39.0237 35.725 19.0749 50.382 15.7962 34.5329Z" fill="#F79D89"/>
<path d="M38.7129 51.7822C38.4543 53.6133 31.9023 60.8455 25.7072 64.0789C19.9685 67.0743 5.30026 69.9962 1.98954 59.3549C-2.07269 46.2989 9.21358 43.5268 20.056 48.8953C28.1879 52.9214 39.1167 48.9219 38.7129 51.7822Z" fill="#F79D89"/>
<g clip-path="url(#clip0)">
<path d="M67.3961 46.9018C66.5115 45.0385 66.6502 37.5631 66.7795 33.8498L67.3961 32.2628C67.3961 32.2628 71.5623 31.7309 71.3607 29.2293C71.0261 25.0743 67.2636 28.0421 67.2636 28.0421C67.2636 28.0421 65.4134 18.9421 57.2197 20.3931C49.026 21.8441 48.8935 26.0642 48.8935 26.0642C48.8935 26.0642 48.8923 41.3716 56.2008 42.3853C56.1279 44.6282 55.9973 47.1774 55.7657 49.144C55.237 53.6279 45.325 56.6615 45.325 56.6615C45.325 56.6615 39.5101 58.244 55.3689 62.3326C71.2283 66.4212 80.6111 55.2111 80.6111 55.2111C74.665 53.3642 68.5858 49.4078 67.3961 46.9018Z" fill="#F8B89C"/>
<path d="M55.0581 34.4358C54.37 34.4358 53.9475 34.2616 53.7711 33.9083C53.4785 33.3206 54.0743 32.5187 54.301 32.2468L54.1383 30.4311C54.1258 30.2933 54.2281 30.1718 54.3662 30.1592C54.5044 30.1467 54.6262 30.2488 54.6387 30.3867L54.8107 32.3082C54.817 32.3777 54.7938 32.4466 54.7467 32.4986C54.5119 32.7592 54.0743 33.392 54.2206 33.6865C54.2689 33.7836 54.4855 34.0003 55.4524 33.917C55.5911 33.9051 55.7123 34.0072 55.7242 34.1451C55.7361 34.2829 55.6338 34.4044 55.4957 34.4163C55.34 34.4289 55.1937 34.4358 55.0581 34.4358Z" fill="#223542"/>
<path d="M56.2023 42.356C56.2023 42.356 59.8562 42.2345 62.812 40.7578C62.812 40.7578 59.8926 44.0714 56.1094 44.6609L56.2023 42.356Z" fill="#FD906A"/>
<path d="M68.7107 29.7343C68.7101 29.7331 68.6762 29.6134 68.5739 29.562C68.4533 29.5013 68.2738 29.547 68.1438 29.5965C67.9818 29.6579 67.8004 29.5771 67.7388 29.4154C67.6773 29.2538 67.7583 29.0727 67.9203 29.0113C68.2882 28.8716 68.6084 28.871 68.8721 29.0107C69.2193 29.1949 69.3109 29.5458 69.3203 29.5852L68.7095 29.7287L68.7107 29.7343Z" fill="#223542"/>
<path d="M56.7669 30.8178C57.0928 30.7454 57.2411 30.1672 57.098 29.5265C56.9549 28.8858 56.5748 28.4252 56.2488 28.4977C55.9229 28.5702 55.7747 29.1483 55.9177 29.789C56.0608 30.4297 56.441 30.8903 56.7669 30.8178Z" fill="#223542"/>
<path d="M52.0062 31.3316C52.3278 31.2601 52.4704 30.6738 52.3249 30.0219C52.1793 29.3701 51.8007 28.8996 51.4792 28.9711C51.1576 29.0426 51.015 29.629 51.1605 30.2808C51.3061 30.9327 51.6847 31.4031 52.0062 31.3316Z" fill="#223542"/>
<path d="M55.7494 37.8708C55.276 37.8708 54.7474 37.7373 54.1685 37.4717C54.0423 37.4141 53.9877 37.2649 54.0455 37.139C54.1032 37.0131 54.2527 36.958 54.3788 37.0162C55.2113 37.3984 55.8994 37.4711 56.4243 37.2317C57.042 36.9498 57.2342 36.3101 57.236 36.3033C57.2743 36.1711 57.4137 36.094 57.5462 36.1316C57.6793 36.1692 57.7565 36.307 57.7195 36.4398C57.7094 36.4749 57.4696 37.3019 56.6409 37.6841C56.3703 37.8087 56.0727 37.8708 55.7494 37.8708Z" fill="#223542"/>
<path d="M93.9094 77.6342C91.6876 67.0519 86.1301 56.915 82.4153 54.1703C79.6127 52.1003 74.5117 50.1839 72.1749 49.3675C71.6513 49.1846 71.2664 49.0568 71.0775 48.9954H71.0768C70.9915 48.9666 70.9456 48.9521 70.9456 48.9521C70.8741 48.9966 70.8025 49.0405 70.7309 49.0837C70.7303 49.0837 70.7297 49.0843 70.729 49.085C70.5206 49.2128 70.3159 49.3381 70.1131 49.4596C70.1125 49.4609 70.1113 49.4615 70.11 49.4621C70.0234 49.5141 69.9373 49.5661 69.852 49.6169C69.4753 49.843 69.1074 50.0592 68.7489 50.2659C66.0712 51.8115 63.8845 52.8565 62.099 53.5269C62.0927 53.5288 62.0871 53.5313 62.0814 53.5338C62.0569 53.5426 62.0318 53.5519 62.008 53.5607H62.0073C61.8378 53.624 61.6721 53.6835 61.5101 53.7393C61.5095 53.7393 61.5095 53.7393 61.5088 53.7399C61.1843 53.8527 60.8735 53.9517 60.5772 54.0381C55.2011 55.6144 54.3247 53.1497 54.2067 51.9299V51.928C54.1847 51.7019 54.1884 51.5196 54.1947 51.4131V51.4106C54.1985 51.3466 54.2035 51.3116 54.2035 51.3116C54.2035 51.3116 53.921 51.3623 53.4307 51.4851C53.1519 51.5546 52.8066 51.6474 52.4073 51.7677L52.4042 51.7683C52.3577 51.7821 52.3106 51.7965 52.2623 51.8109C52.1706 51.8397 52.0765 51.8692 51.9798 51.8999C51.6847 51.9456 51.3451 52.0402 50.9545 52.1981L50.9533 52.1987C50.9282 52.2087 50.9031 52.2187 50.8779 52.2294C50.0141 52.5903 49.1709 52.9342 48.3177 53.2976L48.3171 53.2982C46.6025 54.0287 44.8515 54.8375 42.8268 56.0229C39.4855 57.9788 35.9954 63.2715 33.444 67.8369C31.1562 71.9292 29.6218 75.4376 29.6218 75.4376C29.6218 75.4376 22.1055 61.7184 20.6691 58.7676C20.6691 58.7676 19.9082 60.181 18.3549 61.4522C17.2242 62.3782 15.6729 63.2289 13.689 63.4025C12.8433 63.4764 11.9198 63.4275 10.9165 63.2095C10.9165 63.2095 17.4603 80.2749 20.8191 85.8188C22.9274 89.2984 25.971 93.1565 29.8698 93.6357C32.3277 93.939 35.1265 92.8983 38.2449 89.5735L38.238 89.675C38.2374 89.6756 38.2374 89.6756 38.2374 89.6756L37.2241 104.036L36.4425 118.309H37.155H50.2194H79.354C80.9518 118.224 83.6301 118.224 83.6301 118.224C82.4498 111.442 80.6612 101.865 80.0484 98.7035L80.0453 98.6879C79.8745 97.8058 79.7565 97.2006 79.7069 96.9481C79.6893 96.861 79.6805 96.8159 79.6805 96.8159C79.6805 96.8159 81.7969 96.7676 84.5449 96.3773C86.5476 96.0929 88.8856 95.6268 90.9838 94.8656C92.9106 94.1664 94.0168 92.6816 94.5994 90.8403C95.953 86.5669 94.4851 80.3751 93.9094 77.6342Z" fill="white"/>
<path d="M80.4505 83.8204C80.3488 83.8204 80.2528 83.7584 80.2151 83.6575C79.3041 81.2173 76.7979 71.279 76.6918 70.8574C76.6579 70.7233 76.7395 70.5868 76.8745 70.5536C77.0094 70.5197 77.1457 70.6012 77.1789 70.7359C77.2047 70.8386 79.7844 81.0688 80.686 83.4834C80.7343 83.6131 80.6684 83.7571 80.5384 83.8054C80.5095 83.8154 80.48 83.8204 80.4505 83.8204Z" fill="#BBD8E8"/>
<path d="M68.8261 50.1992C68.8261 50.1992 63.199 53.2284 61.5095 53.7396C59.8207 54.2508 55.0235 55.787 54.2061 51.9302L54.1923 51.3225L52.2623 51.8037L51.4022 72.0436L49.5332 105.069L53.1187 104.746C53.1187 104.746 52.3465 84.1357 58.8965 67.4099C60.9665 62.1247 63 57.6145 64.7849 54.7451C66.2602 52.3726 68.8261 50.1992 68.8261 50.1992Z" fill="#027E97" fill-opacity="0.81"/>
<path d="M57.6577 57.4235C54.8676 55.4531 52.6866 50.0476 51.3512 41.7909C51.0486 39.9202 50.822 38.0964 50.6512 36.4474C50.6035 36.3647 50.5639 36.2777 50.5338 36.1849C50.4748 36.0728 50.4327 35.9556 50.4064 35.8341C50.3894 35.7802 50.3737 35.7257 50.3611 35.6699C50.3185 35.5797 50.2802 35.4864 50.2488 35.3905C50.2255 35.3185 50.2092 35.2452 50.1979 35.1713C50.0912 34.942 50.0271 34.6895 50.0133 34.4251C49.9625 34.2772 49.9286 34.1212 49.9129 33.9608C49.852 33.8493 49.8005 33.7328 49.7622 33.6094C49.9349 35.8548 50.2299 38.7918 50.7284 41.8761C51.3311 45.6057 52.109 48.7883 53.0394 51.3357C54.2141 54.5503 55.6455 56.77 57.2942 57.9341C57.3494 57.9729 57.4128 57.9917 57.475 57.9917C57.5735 57.9917 57.6702 57.946 57.7311 57.8595C57.8328 57.7192 57.7995 57.5237 57.6577 57.4235Z" fill="#FF9413"/>
<path d="M67.046 87.2919C66.9418 87.2919 66.8445 87.2267 66.8087 87.1227C66.7635 86.9918 66.8332 86.8489 66.9644 86.8038C67.505 86.6178 80.2478 82.261 84.5641 83.3255C84.6984 83.3587 84.7807 83.4946 84.7474 83.6287C84.7141 83.7628 84.5779 83.8455 84.4435 83.8116C80.2698 82.7829 67.2595 87.2317 67.1283 87.2768C67.1006 87.2875 67.0736 87.2919 67.046 87.2919Z" fill="#BBD8E8"/>
<path d="M51.8866 62.2737C51.8747 62.2442 51.8628 62.2148 51.8508 62.1847C51.842 62.1634 51.8332 62.1421 51.8245 62.1202V62.1189C51.7303 61.8815 51.6367 61.6434 51.5451 61.4041C51.4578 64.073 51.3486 67.1836 51.218 70.5718C51.2443 70.5573 51.2695 70.5423 51.2946 70.5273C51.3542 70.4916 51.4132 70.4552 51.4716 70.4183C51.5156 70.3907 51.5595 70.3625 51.6035 70.3337C51.6462 70.3055 51.6888 70.2773 51.7315 70.2485C51.7322 70.2478 51.7328 70.2472 51.7334 70.2472C51.8395 67.4668 51.9312 64.88 52.009 62.5769V62.5763C51.9676 62.4754 51.9268 62.3746 51.8866 62.2737ZM51.8866 62.2737C51.8747 62.2442 51.8628 62.2148 51.8508 62.1847C51.842 62.1634 51.8332 62.1421 51.8245 62.1202V62.1189C51.7303 61.8815 51.6367 61.6434 51.5451 61.4041C51.4578 64.073 51.3486 67.1836 51.218 70.5718C51.2443 70.5573 51.2695 70.5423 51.2946 70.5273C51.3542 70.4916 51.4132 70.4552 51.4716 70.4183C51.5156 70.3907 51.5595 70.3625 51.6035 70.3337C51.6462 70.3055 51.6888 70.2773 51.7315 70.2485C51.7322 70.2478 51.7328 70.2472 51.7334 70.2472C51.8395 67.4668 51.9312 64.88 52.009 62.5769V62.5763C51.9676 62.4754 51.9268 62.3746 51.8866 62.2737ZM51.8866 62.2737C51.8747 62.2442 51.8628 62.2148 51.8508 62.1847C51.842 62.1634 51.8332 62.1421 51.8245 62.1202V62.1189C51.7303 61.8815 51.6367 61.6434 51.5451 61.4041C51.4578 64.073 51.3486 67.1836 51.218 70.5718C51.2443 70.5573 51.2695 70.5423 51.2946 70.5273C51.3542 70.4916 51.4132 70.4552 51.4716 70.4183C51.5156 70.3907 51.5595 70.3625 51.6035 70.3337C51.6462 70.3055 51.6888 70.2773 51.7315 70.2485C51.7322 70.2478 51.7328 70.2472 51.7334 70.2472C51.8395 67.4668 51.9312 64.88 52.009 62.5769V62.5763C51.9676 62.4754 51.9268 62.3746 51.8866 62.2737ZM51.8866 62.2737C51.8747 62.2442 51.8628 62.2148 51.8508 62.1847C51.842 62.1634 51.8332 62.1421 51.8245 62.1202V62.1189C51.7303 61.8815 51.6367 61.6434 51.5451 61.4041C51.4578 64.073 51.3486 67.1836 51.218 70.5718C51.2443 70.5573 51.2695 70.5423 51.2946 70.5273C51.3542 70.4916 51.4132 70.4552 51.4716 70.4183C51.5156 70.3907 51.5595 70.3625 51.6035 70.3337C51.6462 70.3055 51.6888 70.2773 51.7315 70.2485C51.7322 70.2478 51.7328 70.2472 51.7334 70.2472C51.8395 67.4668 51.9312 64.88 52.009 62.5769V62.5763C51.9676 62.4754 51.9268 62.3746 51.8866 62.2737ZM51.8866 62.2737C51.8747 62.2442 51.8628 62.2148 51.8508 62.1847C51.842 62.1634 51.8332 62.1421 51.8245 62.1202V62.1189C51.7303 61.8815 51.6367 61.6434 51.5451 61.4041C51.4578 64.073 51.3486 67.1836 51.218 70.5718C51.2443 70.5573 51.2695 70.5423 51.2946 70.5273C51.3542 70.4916 51.4132 70.4552 51.4716 70.4183C51.5156 70.3907 51.5595 70.3625 51.6035 70.3337C51.6462 70.3055 51.6888 70.2773 51.7315 70.2485C51.7322 70.2478 51.7328 70.2472 51.7334 70.2472C51.8395 67.4668 51.9312 64.88 52.009 62.5769V62.5763C51.9676 62.4754 51.9268 62.3746 51.8866 62.2737ZM52.2809 51.8054C52.2796 51.8035 52.2784 51.8017 52.2765 51.8004C52.2671 51.7879 52.2558 51.7753 52.2432 51.7647C52.1861 51.7158 52.1101 51.6952 52.036 51.7077C51.9299 51.7265 49.7388 52.1162 48.5843 52.7922C48.4085 52.8949 48.2572 53.0045 48.1404 53.1205C48.0883 53.1725 48.0613 53.2451 48.0676 53.3191C48.0694 53.3466 48.0763 53.3729 48.087 53.3974C48.1046 53.4393 48.1341 53.4757 48.1718 53.5026L49.0262 54.1091L49.8054 54.6617L49.3841 55.0601L49.3515 55.0914L48.1448 56.2329C48.087 56.2881 48.0588 56.367 48.0682 56.4459L48.5422 60.2864L49.8832 71.1588V71.1594L49.9623 71.8003L50.8658 79.1273C50.2624 92.7738 49.3678 108.389 48.1586 117.911C48.1467 118.006 48.1347 118.099 48.1228 118.192C48.1178 118.233 48.1228 118.273 48.136 118.31C48.1668 118.395 48.2434 118.461 48.34 118.473C48.3507 118.474 48.362 118.475 48.3727 118.475C48.4788 118.475 48.573 118.408 48.6081 118.31C48.6144 118.293 48.6188 118.275 48.6213 118.256C48.6357 118.142 48.6508 118.027 48.6652 117.911C49.1179 114.331 49.5266 109.897 49.8926 105.036C50.7025 94.2624 51.3021 81.3846 51.7039 71.0116C51.714 70.7553 51.7234 70.5003 51.7334 70.2472C51.8395 67.4668 51.9312 64.88 52.009 62.5769V62.5763C52.0222 62.1835 52.0348 61.7982 52.0473 61.4223C52.166 57.8368 52.2464 55.0476 52.2909 53.4531C52.316 52.5309 52.3292 52.0084 52.3305 51.9608C52.3317 51.9044 52.3142 51.8499 52.2809 51.8054ZM50.4464 71.6249L50.3667 70.979L49.0715 60.4762L48.5824 56.5098L49.5247 55.6177L50.3723 54.8151C50.4263 54.7638 50.4552 54.6905 50.4495 54.6159C50.4476 54.5896 50.442 54.5639 50.4319 54.5401C50.4144 54.4963 50.3842 54.4574 50.3447 54.4292L48.7569 53.3028L48.7563 53.3021L48.7349 53.2865C48.7393 53.2833 48.7444 53.2802 48.7488 53.2777C49.4852 52.8022 50.9869 52.4269 51.8201 52.259C51.8119 52.5616 51.7981 53.0766 51.7786 53.7789C51.734 55.3922 51.6581 57.9947 51.5495 61.275C51.5482 61.3176 51.547 61.3602 51.5451 61.4035V61.4041C51.4578 64.073 51.3486 67.1836 51.218 70.5718C51.2092 70.8123 51.1998 71.0542 51.1904 71.2972C51.1301 72.8447 51.0654 74.4461 50.9964 76.0869L50.4464 71.6249ZM51.8866 62.2737C51.8747 62.2442 51.8628 62.2148 51.8508 62.1847C51.842 62.1634 51.8332 62.1421 51.8245 62.1202V62.1189C51.7303 61.8815 51.6367 61.6434 51.5451 61.4041C51.4578 64.073 51.3486 67.1836 51.218 70.5718C51.2443 70.5573 51.2695 70.5423 51.2946 70.5273C51.3542 70.4916 51.4132 70.4552 51.4716 70.4183C51.5156 70.3907 51.5595 70.3625 51.6035 70.3337C51.6462 70.3055 51.6888 70.2773 51.7315 70.2485C51.7322 70.2478 51.7328 70.2472 51.7334 70.2472C51.8395 67.4668 51.9312 64.88 52.009 62.5769V62.5763C51.9676 62.4754 51.9268 62.3746 51.8866 62.2737ZM51.8866 62.2737C51.8747 62.2442 51.8628 62.2148 51.8508 62.1847C51.842 62.1634 51.8332 62.1421 51.8245 62.1202V62.1189C51.7303 61.8815 51.6367 61.6434 51.5451 61.4041C51.4578 64.073 51.3486 67.1836 51.218 70.5718C51.2443 70.5573 51.2695 70.5423 51.2946 70.5273C51.3542 70.4916 51.4132 70.4552 51.4716 70.4183C51.5156 70.3907 51.5595 70.3625 51.6035 70.3337C51.6462 70.3055 51.6888 70.2773 51.7315 70.2485C51.7322 70.2478 51.7328 70.2472 51.7334 70.2472C51.8395 67.4668 51.9312 64.88 52.009 62.5769V62.5763C51.9676 62.4754 51.9268 62.3746 51.8866 62.2737ZM51.8866 62.2737C51.8747 62.2442 51.8628 62.2148 51.8508 62.1847C51.842 62.1634 51.8332 62.1421 51.8245 62.1202V62.1189C51.7303 61.8815 51.6367 61.6434 51.5451 61.4041C51.4578 64.073 51.3486 67.1836 51.218 70.5718C51.2443 70.5573 51.2695 70.5423 51.2946 70.5273C51.3542 70.4916 51.4132 70.4552 51.4716 70.4183C51.5156 70.3907 51.5595 70.3625 51.6035 70.3337C51.6462 70.3055 51.6888 70.2773 51.7315 70.2485C51.7322 70.2478 51.7328 70.2472 51.7334 70.2472C51.8395 67.4668 51.9312 64.88 52.009 62.5769V62.5763C51.9676 62.4754 51.9268 62.3746 51.8866 62.2737ZM51.8866 62.2737C51.8747 62.2442 51.8628 62.2148 51.8508 62.1847C51.842 62.1634 51.8332 62.1421 51.8245 62.1202V62.1189C51.7303 61.8815 51.6367 61.6434 51.5451 61.4041C51.4578 64.073 51.3486 67.1836 51.218 70.5718C51.2443 70.5573 51.2695 70.5423 51.2946 70.5273C51.3542 70.4916 51.4132 70.4552 51.4716 70.4183C51.5156 70.3907 51.5595 70.3625 51.6035 70.3337C51.6462 70.3055 51.6888 70.2773 51.7315 70.2485C51.7322 70.2478 51.7328 70.2472 51.7334 70.2472C51.8395 67.4668 51.9312 64.88 52.009 62.5769V62.5763C51.9676 62.4754 51.9268 62.3746 51.8866 62.2737Z" fill="#BBD8E8"/>
<path d="M72.3943 49.1894C72.3824 49.1656 72.3661 49.1437 72.3473 49.1243C71.9467 48.7245 71.2756 48.5967 70.752 48.8204C70.7501 48.8217 70.7482 48.8223 70.7457 48.8235C70.3583 49.0015 69.9954 49.2145 69.6508 49.4513C69.2421 49.7313 68.8591 50.0458 68.4924 50.3773C68.4918 50.3779 68.4918 50.3779 68.4912 50.3785C68.456 50.4098 68.4209 50.4418 68.3863 50.4737L68.3857 50.4744C67.9594 50.8672 67.5532 51.2813 67.1527 51.6898C66.9693 51.8771 66.7797 52.0701 66.5926 52.2568C66.5192 52.3301 66.4903 52.4165 66.4696 52.4798C66.4652 52.4923 66.4595 52.5099 66.4552 52.5199C64.6477 54.464 63.4259 56.5158 62.4679 58.2681C61.6812 59.7454 61.0747 61.0147 60.5775 62.2345C60.4519 62.5421 60.3339 62.846 60.2209 63.1498C60.0771 63.5395 59.9421 63.9279 59.8147 64.3214C59.7915 64.3891 59.7544 64.4505 59.7117 64.5219C59.6609 64.6065 59.6031 64.7023 59.5648 64.8176C59.1624 65.949 58.748 66.9934 58.3468 68.004C57.9174 69.0853 57.498 70.1404 57.1 71.2781C56.5682 72.793 56.0741 74.4526 55.6409 76.5113C54.3363 82.7074 53.6815 85.8174 52.9783 96.0952C52.785 98.9277 52.7473 101.804 52.8678 104.769C52.979 107.503 53.2245 110.312 53.6055 113.232C53.6068 113.396 53.6231 113.542 53.6388 113.682C53.6539 113.82 53.6683 113.95 53.6683 114.093C53.6683 114.104 53.6689 114.114 53.6702 114.125C53.8429 115.442 54.0563 116.687 54.32 117.911C54.3489 118.044 54.3784 118.176 54.4085 118.309C54.4204 118.365 54.4336 118.421 54.4462 118.477C54.4512 118.498 54.4587 118.518 54.4688 118.537C54.5121 118.619 54.5975 118.671 54.691 118.671C54.7092 118.671 54.7281 118.669 54.7469 118.665C54.8216 118.648 54.88 118.6 54.9133 118.537C54.9403 118.487 54.9497 118.425 54.9359 118.364C54.9315 118.346 54.9277 118.327 54.9233 118.309C54.8932 118.176 54.8631 118.044 54.8348 117.911C54.563 116.671 54.3457 115.411 54.1706 114.076C54.1693 113.912 54.1536 113.767 54.1379 113.627C54.1222 113.489 54.1078 113.359 54.1078 113.216C54.1078 113.205 54.1072 113.194 54.1059 113.183C53.3136 107.124 53.1089 101.545 53.4793 96.1291C54.0255 88.148 54.5422 84.5043 55.3584 80.3643C55.4049 80.3418 55.4451 80.3054 55.4708 80.2572C56.6655 78.0494 57.9921 75.7351 59.352 73.4101C59.7582 72.7141 60.1675 72.018 60.5775 71.3232C61.0075 70.5933 61.4382 69.866 61.8658 69.1436C63.0618 67.1219 64.2848 65.055 65.4588 63.0214C66.0697 61.9639 66.6674 60.9151 67.2412 59.8864C67.2563 59.8582 67.2663 59.8275 67.2707 59.7961C67.2726 59.7911 67.2751 59.7867 67.2776 59.7824C67.3008 59.736 67.3354 59.6665 67.3354 59.5762C67.3354 59.5512 67.3316 59.5267 67.3241 59.5023C67.1684 58.9961 66.9015 58.5644 66.6441 58.1466C66.5179 57.9417 66.3961 57.7443 66.2888 57.5426C66.2938 57.5382 66.2982 57.5338 66.3026 57.5288C66.9103 57.3484 67.5155 57.1535 68.1038 56.9643C68.6582 56.7858 69.232 56.601 69.7933 56.4331C69.8674 56.4111 69.9276 56.3554 69.9553 56.2833C70.3006 55.3881 70.6138 54.4746 70.9171 53.5919C71.1695 52.8557 71.4313 52.0945 71.7144 51.3314C71.7489 51.2381 71.7847 51.1422 71.8205 51.0445C71.8255 51.0313 71.8299 51.0182 71.835 51.005C71.9844 50.5959 72.1394 50.1724 72.3316 49.7896C72.3749 49.7031 72.4314 49.5904 72.4439 49.4619C72.4527 49.3767 72.4421 49.2846 72.3943 49.1894ZM71.882 49.5653C71.6906 49.9494 71.5374 50.3578 71.3911 50.7569C71.3817 50.7826 71.3722 50.8077 71.3628 50.8334C71.3227 50.9424 71.2831 51.0508 71.2435 51.1566C70.9579 51.926 70.6955 52.6903 70.4418 53.4296C70.1398 54.3092 69.8542 55.1418 69.5308 55.9889C69.0022 56.1486 68.4679 56.3203 67.95 56.4869C67.2977 56.6968 66.624 56.9136 65.9523 57.1097C65.9152 57.1191 65.8807 57.1297 65.8531 57.1385C65.8443 57.141 65.8361 57.1441 65.828 57.1479H65.8273C65.8267 57.1485 65.8267 57.1485 65.8267 57.1485C65.8261 57.1485 65.8261 57.1485 65.8261 57.1485C65.8254 57.1492 65.8254 57.1492 65.8248 57.1492C65.8248 57.1492 65.8248 57.1492 65.8242 57.1492C65.8236 57.1498 65.8223 57.1504 65.8217 57.151C65.8211 57.151 65.8211 57.151 65.8211 57.151H65.8204C65.8198 57.1517 65.8198 57.1517 65.8192 57.1517C65.8192 57.1517 65.8192 57.1517 65.8185 57.1523C65.8185 57.1523 65.8185 57.1523 65.8179 57.1523C65.8179 57.1529 65.8173 57.1529 65.8173 57.1529H65.8167C65.816 57.1535 65.816 57.1535 65.816 57.1535H65.8154C65.8154 57.1535 65.8154 57.1535 65.8148 57.1535C65.8148 57.1542 65.8148 57.1542 65.8141 57.1542C65.8135 57.1548 65.8135 57.1548 65.8135 57.1548C65.8129 57.1548 65.8129 57.1548 65.8129 57.1548C65.7802 57.1717 65.752 57.1955 65.73 57.2237L65.7294 57.2243L65.7288 57.225C65.7288 57.2256 65.7288 57.2256 65.7281 57.2256C65.7281 57.2262 65.7281 57.2262 65.7281 57.2262H65.7275C65.7275 57.2268 65.7275 57.2268 65.7275 57.2268C65.7263 57.2287 65.725 57.2306 65.7237 57.2319C65.7237 57.2325 65.7231 57.2325 65.7231 57.2325V57.2331C65.7231 57.2331 65.7231 57.2331 65.7225 57.2337C65.7225 57.2337 65.7225 57.2337 65.7225 57.2344C65.7219 57.2344 65.7219 57.2344 65.7219 57.2344C65.7219 57.2344 65.7219 57.2344 65.7219 57.235C65.7219 57.235 65.7219 57.235 65.7212 57.235V57.2356C65.7212 57.2362 65.7206 57.2362 65.7206 57.2362C65.7206 57.2369 65.7206 57.2369 65.7206 57.2369C65.72 57.2369 65.72 57.2369 65.72 57.2375C65.72 57.2375 65.72 57.2381 65.7193 57.2381V57.2387H65.7187C65.7187 57.2394 65.7187 57.2394 65.7187 57.2394C65.7187 57.2394 65.7187 57.2394 65.7187 57.24C65.7181 57.24 65.7181 57.24 65.7181 57.24C65.7181 57.24 65.7181 57.24 65.7181 57.2406C65.7181 57.2406 65.7181 57.2406 65.7175 57.2406V57.2413C65.7175 57.2419 65.7175 57.2419 65.7168 57.2419C65.7168 57.2419 65.7168 57.2419 65.7168 57.2425C65.7162 57.2431 65.7156 57.2444 65.7143 57.2456V57.2463C65.7137 57.2469 65.7137 57.2469 65.7137 57.2469C65.7137 57.2475 65.7137 57.2475 65.7131 57.2475C65.7131 57.2475 65.7131 57.2475 65.7131 57.2481C65.7131 57.2488 65.7131 57.2488 65.7131 57.2488C65.7124 57.2488 65.7124 57.2488 65.7124 57.2494C65.7124 57.2494 65.7124 57.25 65.7118 57.25V57.2507C65.7112 57.2507 65.7112 57.2513 65.7112 57.2513C65.7112 57.2519 65.7106 57.2519 65.7106 57.2519C65.7106 57.2525 65.7106 57.2525 65.7106 57.2532C65.7087 57.2557 65.7074 57.2582 65.7062 57.2607C65.7055 57.2613 65.7055 57.2613 65.7055 57.2613C65.7055 57.2619 65.7055 57.2619 65.7049 57.2626C65.7049 57.2626 65.7049 57.2626 65.7049 57.2632C65.7049 57.2632 65.7043 57.2632 65.7043 57.2638V57.2644C65.7043 57.2644 65.7043 57.2644 65.7037 57.2644C65.7037 57.2651 65.7037 57.2651 65.7037 57.2651C65.7037 57.2651 65.7037 57.2651 65.7037 57.2657C65.7037 57.2657 65.7037 57.2657 65.703 57.2657V57.2663C65.703 57.2663 65.703 57.2663 65.703 57.2669L65.7024 57.2676V57.2682C65.7018 57.2688 65.7018 57.2688 65.7018 57.2688C65.7011 57.2701 65.7005 57.2713 65.6999 57.2726C65.6999 57.2732 65.6999 57.2732 65.6999 57.2732V57.2738H65.6993V57.2745C65.6993 57.2745 65.6993 57.2745 65.6993 57.2751H65.6986V57.2757C65.6986 57.2763 65.6986 57.2763 65.6986 57.2763C65.6986 57.2763 65.698 57.2763 65.698 57.277V57.2776C65.6974 57.2782 65.6974 57.2782 65.6974 57.2782V57.2788C65.6974 57.2788 65.6974 57.2788 65.6974 57.2795C65.6967 57.2795 65.6967 57.2801 65.6967 57.2801C65.6967 57.2807 65.6967 57.2807 65.6967 57.2807C65.6967 57.2807 65.6961 57.2807 65.6961 57.2814C65.6961 57.282 65.6961 57.282 65.6961 57.282C65.6961 57.282 65.6961 57.282 65.6961 57.2826C65.6955 57.2826 65.6955 57.2826 65.6955 57.2826V57.2832C65.6955 57.2839 65.6955 57.2839 65.6955 57.2839L65.6949 57.2845C65.6949 57.2851 65.6942 57.2857 65.6942 57.2864C65.6942 57.287 65.6936 57.2876 65.6936 57.2882C65.6936 57.2882 65.6936 57.2889 65.693 57.2889C65.693 57.2895 65.693 57.2895 65.693 57.2895C65.693 57.2901 65.693 57.2901 65.6924 57.2907C65.6924 57.2907 65.6924 57.2907 65.6924 57.2914C65.6697 57.3528 65.6723 57.4211 65.6993 57.4812C65.8474 57.8107 66.0351 58.1146 66.2166 58.4091C66.4545 58.795 66.6799 59.1609 66.8199 59.575C66.8061 59.6032 66.7898 59.6395 66.7797 59.6821C66.1557 60.8004 65.5034 61.9425 64.8366 63.0941V63.0947C63.721 65.0224 62.5652 66.9753 61.4332 68.8886C61.1488 69.3691 60.8631 69.8522 60.5775 70.3358C60.0369 71.2512 59.4945 72.1709 58.9577 73.0893C57.8182 75.0384 56.7001 76.9806 55.6623 78.8601C55.8092 78.1477 55.9655 77.4066 56.1325 76.614C56.5356 74.6976 56.9933 73.1288 57.4855 71.6985C57.9074 70.4699 58.3544 69.3441 58.8133 68.1882C59.2164 67.1739 59.6326 66.1251 60.0394 64.9805C60.0627 64.9128 60.0997 64.8514 60.1424 64.78C60.1933 64.6954 60.251 64.5996 60.2918 64.4774C60.3829 64.1961 60.4777 63.9167 60.5775 63.6379C60.6315 63.4875 60.6867 63.3365 60.7439 63.1855C61.2869 61.7427 61.9675 60.2754 62.9098 58.5062C64.2459 56.0622 65.4174 54.3725 66.8262 52.8576C66.8965 52.7855 66.9248 52.701 66.9455 52.6389C66.9499 52.6264 66.9555 52.6101 66.9593 52.5995C67.1445 52.4147 67.331 52.2242 67.5118 52.0406C68.3035 51.2324 69.1159 50.4029 70.0588 49.7815C70.3439 49.5929 70.6408 49.4237 70.9529 49.2803C71.263 49.1493 71.6818 49.217 71.9411 49.4325C71.931 49.4676 71.9015 49.5271 71.882 49.5653Z" fill="#BBD8E8"/>
<path d="M68.1392 97.0572C68.1392 97.0572 70.3102 89.6757 66.9332 86.9473C66.9332 86.9473 64.9236 95.0918 68.1392 97.0572Z" fill="#BBD8E8"/>
<path d="M68.3712 88.4892C68.3712 88.4892 64.836 88.6152 63.3845 88.1115C61.9329 87.6078 61.1751 86.1587 61.4275 84.6469C61.6799 83.1351 61.7979 82.2687 60.3985 83.2116C58.8309 84.2679 59.6602 87.797 59.6602 87.797C59.6602 87.797 57.0667 87.3496 55.1211 88.0864C54.1266 88.4629 55.1782 89.2461 55.052 89.6238C54.9258 90.0016 54.4838 90.6319 54.7362 91.0729C54.9886 91.514 55.1977 92.0578 55.0087 92.6248C54.8197 93.1918 55.0018 93.5915 55.5699 93.9693C56.1381 94.3471 55.5568 94.7261 55.7464 95.2931C55.936 95.8601 57.1351 96.1119 59.1548 96.1119C61.1745 96.1119 62.8163 95.5449 63.6996 95.4823C64.5836 95.419 68.3706 95.2931 68.3706 95.2931C68.3706 95.2931 68.9834 92.7131 68.9319 91.8404C68.8208 89.9346 68.3712 88.4892 68.3712 88.4892Z" fill="#F8B89C"/>
<path d="M75.7839 97.1559C72.4658 97.1559 68.4013 97.0713 68.1445 97.0656C68.0654 97.0638 67.992 97.0255 67.9461 96.9616C67.9003 96.8977 67.8865 96.8157 67.9104 96.7411C70.0462 89.8821 66.9203 87.2615 66.8889 87.2358C66.7809 87.1487 66.764 86.9908 66.8512 86.8831C66.9385 86.7753 67.0967 86.759 67.2047 86.8455C67.2405 86.8743 68.0949 87.5766 68.6644 89.1811C69.166 90.5951 69.5314 93.0115 68.4867 96.5707C70.1843 96.6033 77.8959 96.7411 79.6569 96.5657C79.795 96.5519 79.9181 96.6521 79.9319 96.79C79.9457 96.9278 79.8452 97.0506 79.7071 97.0644C79.0228 97.1333 77.5035 97.1559 75.7839 97.1559Z" fill="#BBD8E8"/>
<path d="M73.9118 20.2078C73.5112 17.5263 72.1865 15.3993 69.9735 13.8857C67.8514 12.4341 64.5441 12.0576 60.143 12.7668C56.8909 13.2911 54.2145 14.2484 54.1882 14.2578C54.1467 14.2729 54.1128 14.2979 54.0852 14.3293C54.0802 14.3305 54.077 14.3311 54.077 14.3311C51.0239 12.1822 45.6059 13.2836 44.9404 18.3489C44.9014 18.6465 44.8807 18.9397 44.8744 19.2285C44.8192 19.7573 44.7822 20.3907 44.7966 21.093C44.8343 22.9387 45.2536 25.6151 47.0411 27.8875C47.0907 27.9507 47.1641 27.9833 47.2388 27.9833C47.2928 27.9833 47.3474 27.9658 47.3939 27.9301C47.5031 27.8449 47.522 27.687 47.4366 27.578C46.0987 25.877 45.5657 23.9298 45.3817 22.3166C46.4785 25.4886 48.9678 27.6124 48.9678 27.6124C49.3527 23.9023 51.6398 22.3761 51.6398 22.3761C56.9236 30.9705 66.5343 28.4789 66.5343 28.4789C66.5343 28.4789 69.8623 26.3613 70.5699 27.7315C72.049 30.5965 67.4082 32.2567 67.4082 32.2567L66.6592 33.7515L66.7006 36.8239C67.8238 34.1256 71.5681 31.4679 72.5256 29.2263C72.906 28.3348 73.1829 27.484 73.365 26.6651C74.0116 24.2794 74.1962 22.1136 73.9118 20.2078ZM58.1717 13.6595C58.814 13.5154 59.5077 13.377 60.2316 13.2604C63.1635 12.7887 67.1847 12.5857 69.6897 14.2992C72.8188 16.44 73.6883 19.5925 73.5163 22.757C73.2375 20.9721 72.4772 19.305 71.3591 17.6428C68.5389 13.4522 62.3272 13.2498 58.1717 13.6595Z" fill="#223542"/>
<path d="M31.8224 80.0302C31.7251 80.0302 31.6328 79.9738 31.592 79.8785C30.659 77.7221 29.4172 75.5845 29.4046 75.5632C29.3349 75.4435 29.3757 75.29 29.4957 75.2205C29.6156 75.1509 29.7694 75.1917 29.8391 75.3113C29.8516 75.3326 31.1079 77.4953 32.0534 79.6799C32.1087 79.8071 32.0496 79.9544 31.9222 80.0095C31.8895 80.0239 31.8556 80.0302 31.8224 80.0302Z" fill="#BBD8E8"/>
<path d="M38.2372 89.9262C38.1631 89.9262 38.0897 89.8936 38.0401 89.8309C37.9541 89.7225 37.9723 89.5653 38.0809 89.4795C38.1123 89.4544 41.269 86.872 44.0458 78.5175C44.0898 78.386 44.2317 78.3152 44.3635 78.3584C44.4953 78.4022 44.5663 78.5438 44.523 78.6754C41.6902 87.1971 38.526 89.767 38.3929 89.8723C38.3471 89.9086 38.2918 89.9262 38.2372 89.9262Z" fill="#BBD8E8"/>
<path opacity="0.54" d="M80.1361 99.1947L79.7362 96.9487C79.7362 96.9487 71.1338 96.8491 68.1328 97.0483C68.1322 97.049 76.6492 98.6773 80.1361 99.1947Z" fill="#BBD8E8"/>
<path d="M10.9165 63.2095C10.9165 63.2095 11.5669 59.3164 20.6691 58.7676C20.6691 58.7676 19.0185 65.4054 10.9165 63.2095Z" fill="#BBD8E8"/>
<path d="M13.8551 63.6161C13.8551 63.6161 9.27637 57.8002 8.69626 55.5029C8.11552 53.2055 9.68571 52.3352 9.68571 52.3352C9.68571 52.3352 9.60346 50.5729 10.9156 50.2227C10.9156 50.2227 11.6734 48.7341 12.3671 48.7354C13.8739 48.7385 16.0681 49.9332 15.9181 51.1806C15.8427 51.8052 12.1669 51.0309 12.1669 51.0309C12.1669 51.0309 9.78553 55.4621 12.649 56.2271C15.5131 56.9914 16.3846 55.62 16.3846 55.62C16.3846 55.62 16.5107 52.9498 17.3872 53.2857C18.2636 53.6221 18.3616 61.8587 18.3616 61.8587C18.3616 61.8587 17.1442 63.6286 13.8551 63.6161Z" fill="#F8B89C"/>
<path d="M10.8584 54.1377C10.8584 54.1377 11.1384 58.2357 14.1237 58.0371C14.1237 58.0371 16.1139 57.8103 16.3694 56.0084L16.0976 55.9439C16.0976 55.9439 12.8668 56.8348 10.8584 54.1377Z" fill="#F79D89"/>
<path d="M13.9805 64.0408C12.3802 64.0408 11.1735 63.6267 11.1132 63.6054C10.9494 63.5484 10.8634 63.3692 10.9205 63.2063C10.9776 63.0434 11.1566 62.9569 11.3204 63.0139C11.3367 63.0196 13.0067 63.5897 14.9461 63.3579C17.5057 63.0522 19.3157 61.5542 20.3259 58.906C20.3874 58.7443 20.5688 58.6629 20.7308 58.7249C20.8928 58.7863 20.9744 58.9674 20.9123 59.129C19.5386 62.7308 16.9375 63.7564 14.9976 63.9825C14.6466 64.0239 14.3051 64.0408 13.9805 64.0408Z" fill="#BBD8E8"/>
<path d="M15.9198 51.1592C15.9192 51.1661 15.9186 51.1736 15.9179 51.1811C15.8457 51.7813 12.448 51.0897 12.1837 51.0352C12.1742 51.0414 12.1648 51.0483 12.1554 51.0546C11.3455 51.6241 10.8169 52.5638 10.8169 53.627C10.8169 55.3631 12.2276 56.7714 13.9679 56.7714C14.7897 56.7714 15.5369 56.4582 16.0981 55.9445C16.0994 55.9432 16.1 55.9426 16.1013 55.9419C16.1961 55.8542 16.2858 55.7609 16.37 55.6625C16.3806 55.5015 16.5169 53.6276 17.0681 53.3044C17.0794 53.2981 17.0901 53.2925 17.1014 53.2868C17.0072 52.4254 16.5659 51.6686 15.9198 51.1592Z" fill="#FF9413"/>
<path d="M44.8094 72.5819C44.0434 72.5819 43.2486 72.5343 42.4368 72.4297C39.2626 72.0206 34.8006 70.594 31.568 66.1214C27.9668 61.1376 23.6355 58.6015 20.6364 57.3516C17.3937 56.0002 14.986 55.8229 14.9621 55.8211C14.7895 55.8092 14.6583 55.66 14.6702 55.4871C14.6821 55.3148 14.8315 55.1845 15.0048 55.1958C15.1065 55.2027 17.5406 55.3819 20.8781 56.7727C22.8344 57.5878 24.6934 58.6535 26.4035 59.9391C28.54 61.5454 30.4492 63.502 32.0765 65.7543C37.8349 73.7228 48.1569 72.3959 51.2935 70.5258C54.3133 68.7252 55.7485 65.3358 56.4203 62.8097C57.1542 60.0506 57.1624 57.7018 57.1624 57.678C57.1624 57.5558 57.2333 57.445 57.3445 57.3936C59.4546 56.4175 61.3343 54.4089 62.9302 51.4236C64.221 49.0091 65.3278 45.9586 66.2193 42.3581C67.7405 36.2114 68.1078 30.5309 68.1116 30.4745C68.1223 30.3016 68.2698 30.1701 68.4443 30.1813C68.6176 30.192 68.7488 30.3405 68.7382 30.5134C68.7344 30.5704 68.364 36.3073 66.8289 42.5085C65.9249 46.1597 64.7998 49.2584 63.4845 51.7187C61.8666 54.7441 59.9512 56.8147 57.7871 57.8772C57.7701 58.5125 57.6659 60.5693 57.0274 62.9701C56.021 66.7542 54.1501 69.5528 51.6162 71.0633C50.2306 71.8909 47.7338 72.5819 44.8094 72.5819Z" fill="#FF9413"/>
<path d="M14.7142 54.4336C15.132 54.0167 15.132 53.3407 14.7142 52.9238C14.2964 52.5069 13.6191 52.5069 13.2013 52.9238C12.7835 53.3407 12.7835 54.0167 13.2013 54.4336C13.6191 54.8505 14.2964 54.8505 14.7142 54.4336Z" fill="#F26802"/>
<path d="M68.1461 29.0924C68.1461 29.0924 68.6333 28.9151 68.9039 29.3612C69.1744 29.8072 68.9039 30.6311 68.9039 30.6311H67.9433C67.9433 30.6305 67.5779 29.3349 68.1461 29.0924Z" fill="#5B768F"/>
<path d="M67.5212 31.202C67.5193 31.202 67.5168 31.202 67.5149 31.202C67.3762 31.1988 67.2669 31.0835 67.2701 30.9451C67.2713 30.905 67.3008 29.9583 67.8602 29.0894C68.5119 28.0776 69.507 28.1753 69.9427 28.3683C70.0695 28.4247 70.1267 28.5725 70.0702 28.6991C70.0143 28.825 69.8661 28.882 69.7399 28.8269C69.6495 28.788 68.8509 28.4785 68.2828 29.3607C67.7987 30.1125 67.7723 30.9488 67.7723 30.9576C67.7692 31.0936 67.6575 31.202 67.5212 31.202Z" fill="#223542"/>
<path d="M93.9252 118.538H13.4643C13.291 118.538 13.1504 118.397 13.1504 118.224C13.1504 118.051 13.291 117.911 13.4643 117.911H93.9246C94.0979 117.911 94.2385 118.051 94.2385 118.224C94.2392 118.397 94.0985 118.538 93.9252 118.538Z" fill="#027E97"/>
</g>
<defs>
<clipPath id="clip0">
<rect width="86.5891" height="106.253" fill="white" transform="translate(8.56738 12.4189)"/>
</clipPath>
</defs>
</svg>
