<svg height="512" viewBox="0 0 64 64" width="512" xmlns="http://www.w3.org/2000/svg"><g id="virus-covid19-file-data-coronavirus"><path d="m46 13h8l-10-10v8a2 2 0 0 0 2 2z" fill="#9bc9ff"/><circle cx="32" cy="16" fill="#9bc9ff" r="7"/><path d="m33.414 17.414a2 2 0 1 0 -1.414.586 1.994 1.994 0 0 0 1.414-.586z" fill="#9bc9ff"/><path d="m16 28h6v6h-6z" fill="#9bc9ff"/><path d="m16 39h6v6h-6z" fill="#9bc9ff"/><path d="m16 50h6v6h-6z" fill="#9bc9ff"/><g fill="#1e81ce"><path d="m54.707 12.293-10-10a1 1 0 0 0 -.707-.293h-34a1 1 0 0 0 -1 1v58a1 1 0 0 0 1 1h44a1 1 0 0 0 1-1v-48a1 1 0 0 0 -.293-.707zm-9.707-6.879 6.586 6.586h-5.586a1 1 0 0 1 -1-1zm-34 54.586v-56h32v7a3 3 0 0 0 3 3h7v46z"/><path d="m22 35h-6a1 1 0 0 1 -1-1v-6a1 1 0 0 1 1-1h5a1 1 0 0 1 0 2h-4v4h5a1 1 0 0 1 0 2z"/><path d="m39 30h-6a1 1 0 0 1 0-2h6a1 1 0 0 1 0 2z"/><path d="m39 34h-6a1 1 0 0 1 0-2h6a1 1 0 0 1 0 2z"/><path d="m48 41h-15a1 1 0 0 1 0-2h15a1 1 0 0 1 0 2z"/><path d="m48 45h-20a1 1 0 0 1 0-2h20a1 1 0 0 1 0 2z"/><path d="m20 34a1 1 0 0 1 -.707-.293l-2-2a1 1 0 0 1 1.414-1.414l1.226 1.226 4.3-5.159a1 1 0 0 1 1.538 1.28l-5 6a1 1 0 0 1 -.724.359z"/><path d="m22 46h-6a1 1 0 0 1 -1-1v-6a1 1 0 0 1 1-1h5a1 1 0 0 1 0 2h-4v4h5a1 1 0 0 1 0 2z"/><path d="m20 45a1 1 0 0 1 -.707-.293l-2-2a1 1 0 0 1 1.414-1.414l1.226 1.226 4.3-5.159a1 1 0 0 1 1.538 1.28l-5 6a1 1 0 0 1 -.724.359z"/><path d="m48 52h-15a1 1 0 0 1 0-2h15a1 1 0 0 1 0 2z"/><path d="m48 56h-20a1 1 0 0 1 0-2h20a1 1 0 0 1 0 2z"/><path d="m22 57h-6a1 1 0 0 1 -1-1v-6a1 1 0 0 1 1-1h5a1 1 0 0 1 0 2h-4v4h5a1 1 0 0 1 0 2z"/><path d="m20 56a1 1 0 0 1 -.707-.293l-2-2a1 1 0 0 1 1.414-1.414l1.226 1.226 4.3-5.159a1 1 0 0 1 1.538 1.28l-5 6a1 1 0 0 1 -.724.359z"/><path d="m36 15h-1.184a2.746 2.746 0 0 0 -.117-.285l.836-.837a1 1 0 1 0 -1.414-1.414l-.836.837a2.746 2.746 0 0 0 -.285-.117v-1.184a1 1 0 0 0 -2 0v1.184a2.746 2.746 0 0 0 -.285.117l-.836-.837a1 1 0 1 0 -1.414 1.414l.836.837a2.746 2.746 0 0 0 -.117.285h-1.184a1 1 0 0 0 0 2h1.184a2.746 2.746 0 0 0 .117.285l-.836.837a1 1 0 1 0 1.414 1.414l.836-.837a2.746 2.746 0 0 0 .285.117v1.184a1 1 0 0 0 2 0v-1.184a2.746 2.746 0 0 0 .285-.117l.836.837a1 1 0 1 0 1.414-1.414l-.836-.837a2.746 2.746 0 0 0 .117-.285h1.184a1 1 0 0 0 0-2zm-5 1a1 1 0 1 1 1 1 1 1 0 0 1 -1-1z"/><path d="m32 8a8 8 0 1 0 8 8 8.009 8.009 0 0 0 -8-8zm0 14a6 6 0 1 1 6-6 6.006 6.006 0 0 1 -6 6z"/><path d="m29 30h-1a1 1 0 0 1 0-2h1a1 1 0 0 1 0 2z"/><path d="m29 34h-1a1 1 0 0 1 0-2h1a1 1 0 0 1 0 2z"/><path d="m29 41h-1a1 1 0 0 1 0-2h1a1 1 0 0 1 0 2z"/><path d="m29 52h-1a1 1 0 0 1 0-2h1a1 1 0 0 1 0 2z"/></g></g></svg>