<svg xmlns="http://www.w3.org/2000/svg" width="38" height="46" viewBox="0 0 38 46">
  <g id="filter" transform="translate(-218 -166)">
    <rect id="Rectangle_31" data-name="Rectangle 31" width="7" height="2" transform="translate(249 188)" fill="#027E97"/>
    <rect id="Rectangle_33" data-name="Rectangle 33" width="21" height="2" transform="translate(235 172)" fill="#027E97"/>
    <rect id="Rectangle_35" data-name="Rectangle 35" width="21" height="2" transform="translate(235 204)" fill="#027E97"/>
    <rect id="Rectangle_32" data-name="Rectangle 32" width="21" height="2" transform="translate(218 188)" fill="#027E97"/>
    <rect id="Rectangle_34" data-name="Rectangle 34" width="7" height="2" transform="translate(218 172)" fill="#027E97"/>
    <rect id="Rectangle_36" data-name="Rectangle 36" width="7" height="2" transform="translate(218 204)" fill="#027E97"/>
    <g id="Subtraction_12" data-name="Subtraction 12" transform="translate(237 182)" fill="#027E97">
      <path d="M 7.000200271606445 13.00040054321289 C 4.715092182159424 13.00040054321289 2.724274635314941 11.71645927429199 1.7112717628479 9.832036018371582 C 2.724391937255859 11.71596717834473 4.715218067169189 12.99970054626465 7.000200271606445 12.99970054626465 C 10.30834007263184 12.99970054626465 12.99970054626465 10.30834007263184 12.99970054626465 7.000200271606445 C 12.99970054626465 4.715218067169189 11.71596717834473 2.724391937255859 9.832036018371582 1.7112717628479 C 11.71645927429199 2.724274635314941 13.00040054321289 4.715092182159424 13.00040054321289 7.000200271606445 C 13.00040054321289 10.30872058868408 10.30872058868408 13.00040054321289 7.000200271606445 13.00040054321289 Z" stroke="none"/>
      <path d="M 7.000200271606445 14.00040054321289 C 3.140280246734619 14.00040054321289 2.716064386731887e-07 10.86011981964111 2.716064386731887e-07 7.000200271606445 C 2.716064386731887e-07 3.140280246734619 3.140280246734619 2.716064386731887e-07 7.000200271606445 2.716064386731887e-07 C 10.86011981964111 2.716064386731887e-07 14.00040054321289 3.140280246734619 14.00040054321289 7.000200271606445 C 14.00040054321289 10.86011981964111 10.86011981964111 14.00040054321289 7.000200271606445 14.00040054321289 Z M 7.000200271606445 1.999800324440002 C 4.24297046661377 1.999800324440002 1.999800324440002 4.24297046661377 1.999800324440002 7.000200271606445 C 1.999800324440002 9.756930351257324 4.24297046661377 11.99970054626465 7.000200271606445 11.99970054626465 C 9.756930351257324 11.99970054626465 11.99970054626465 9.756930351257324 11.99970054626465 7.000200271606445 C 11.99970054626465 4.24297046661377 9.756930351257324 1.999800324440002 7.000200271606445 1.999800324440002 Z" stroke="none" fill="#027E97"/>
    </g>
    <g id="Subtraction_13" data-name="Subtraction 13" transform="translate(223 166)" fill="#027E97">
      <path d="M 7.000200271606445 13.00040054321289 C 4.715092182159424 13.00040054321289 2.724274635314941 11.71645927429199 1.7112717628479 9.832036018371582 C 2.724391937255859 11.71596717834473 4.715218067169189 12.99970054626465 7.000200271606445 12.99970054626465 C 10.30834007263184 12.99970054626465 12.99970054626465 10.30834007263184 12.99970054626465 7.000200271606445 C 12.99970054626465 4.715218067169189 11.71596717834473 2.724391937255859 9.832036018371582 1.7112717628479 C 11.71645927429199 2.724274635314941 13.00040054321289 4.715092182159424 13.00040054321289 7.000200271606445 C 13.00040054321289 10.30872058868408 10.30872058868408 13.00040054321289 7.000200271606445 13.00040054321289 Z" stroke="none"/>
      <path d="M 7.000200271606445 14.00040054321289 C 3.140280246734619 14.00040054321289 2.716064386731887e-07 10.86011981964111 2.716064386731887e-07 7.000200271606445 C 2.716064386731887e-07 3.140280246734619 3.140280246734619 2.716064386731887e-07 7.000200271606445 2.716064386731887e-07 C 10.86011981964111 2.716064386731887e-07 14.00040054321289 3.140280246734619 14.00040054321289 7.000200271606445 C 14.00040054321289 10.86011981964111 10.86011981964111 14.00040054321289 7.000200271606445 14.00040054321289 Z M 7.000200271606445 1.999800324440002 C 4.24297046661377 1.999800324440002 1.999800324440002 4.24297046661377 1.999800324440002 7.000200271606445 C 1.999800324440002 9.756930351257324 4.24297046661377 11.99970054626465 7.000200271606445 11.99970054626465 C 9.756930351257324 11.99970054626465 11.99970054626465 9.756930351257324 11.99970054626465 7.000200271606445 C 11.99970054626465 4.24297046661377 9.756930351257324 1.999800324440002 7.000200271606445 1.999800324440002 Z" stroke="none" fill="#027E97"/>
    </g>
    <g id="Subtraction_14" data-name="Subtraction 14" transform="translate(223 198)" fill="#027E97">
      <path d="M 7.000200271606445 13.00040054321289 C 4.715092182159424 13.00040054321289 2.724274635314941 11.71645927429199 1.7112717628479 9.832036018371582 C 2.724391937255859 11.71596717834473 4.715218067169189 12.99970054626465 7.000200271606445 12.99970054626465 C 10.30834007263184 12.99970054626465 12.99970054626465 10.30834007263184 12.99970054626465 7.000200271606445 C 12.99970054626465 4.715218067169189 11.71596717834473 2.724391937255859 9.832036018371582 1.7112717628479 C 11.71645927429199 2.724274635314941 13.00040054321289 4.715092182159424 13.00040054321289 7.000200271606445 C 13.00040054321289 10.30872058868408 10.30872058868408 13.00040054321289 7.000200271606445 13.00040054321289 Z" stroke="none"/>
      <path d="M 7.000200271606445 14.00040054321289 C 3.140280246734619 14.00040054321289 2.716064386731887e-07 10.86011981964111 2.716064386731887e-07 7.000200271606445 C 2.716064386731887e-07 3.140280246734619 3.140280246734619 2.716064386731887e-07 7.000200271606445 2.716064386731887e-07 C 10.86011981964111 2.716064386731887e-07 14.00040054321289 3.140280246734619 14.00040054321289 7.000200271606445 C 14.00040054321289 10.86011981964111 10.86011981964111 14.00040054321289 7.000200271606445 14.00040054321289 Z M 7.000200271606445 1.999800324440002 C 4.24297046661377 1.999800324440002 1.999800324440002 4.24297046661377 1.999800324440002 7.000200271606445 C 1.999800324440002 9.756930351257324 4.24297046661377 11.99970054626465 7.000200271606445 11.99970054626465 C 9.756930351257324 11.99970054626465 11.99970054626465 9.756930351257324 11.99970054626465 7.000200271606445 C 11.99970054626465 4.24297046661377 9.756930351257324 1.999800324440002 7.000200271606445 1.999800324440002 Z" stroke="none" fill="#027E97"/>
    </g>
  </g>
</svg>
