<svg width="163" height="109" viewBox="0 0 163 109" fill="none" xmlns="http://www.w3.org/2000/svg">
<path d="M163 13.6696V5.93959C163 3.08863 160.702 0.775879 157.87 0.775879H123.527C121.904 0.775879 120.362 1.5091 119.335 2.77663L112.102 11.6727C111.071 12.9402 109.533 13.6735 107.91 13.6735H30.7469C27.9147 13.6735 25.6172 15.9862 25.6172 18.8372V103.512C25.6172 106.363 27.9147 108.676 30.7469 108.676H156.7C160.179 108.676 163 105.836 163 102.334V13.6696Z" fill="#FAD265"/>
<path opacity="0.46" d="M32.873 30.0227V100.33C32.873 101.64 34.0509 102.697 35.4921 102.677L67.6381 102.26C69.0522 102.241 70.1835 101.195 70.1835 99.9122L71.2529 30.1241C71.3149 28.7863 70.1409 27.6748 68.6725 27.6748H35.4573C34.0315 27.6748 32.873 28.7278 32.873 30.0227Z" fill="#FAD265"/>
<path opacity="0.46" d="M52.877 28.1351V92.8531C52.877 94.5028 54.4383 95.8406 56.3639 95.8406H156.052C157.978 95.8406 159.539 94.5028 159.539 92.8531V49.1682L137.416 25.1476H56.3639C54.4383 25.1476 52.877 26.4853 52.877 28.1351Z" fill="#FAD265"/>
<path d="M44.7324 25.7794V101.808C44.7324 103.746 46.2938 105.318 48.2194 105.318H152.042C153.967 105.318 155.529 103.746 155.529 101.808V50.4864L129.272 22.2654H48.2194C46.2938 22.2693 44.7324 23.841 44.7324 25.7794Z" fill="white"/>
<path d="M129.271 22.2693V46.9763C129.271 48.9147 130.833 50.4864 132.758 50.4864H155.528L129.271 22.2693Z" fill="#FFF3BE"/>
<path d="M114.792 84.8462C113.688 84.8462 112.785 83.9375 112.785 82.826V45.0185C112.785 43.907 113.688 42.9983 114.792 42.9983C115.896 42.9983 116.799 43.907 116.799 45.0185V82.826C116.799 83.9375 115.896 84.8462 114.792 84.8462Z" fill="white"/>
<path d="M96.7882 84.8462C95.684 84.8462 94.7812 83.9375 94.7812 82.826V45.0185C94.7812 43.907 95.684 42.9983 96.7882 42.9983C97.8924 42.9983 98.7951 43.907 98.7951 45.0185V82.826C98.7951 83.9375 97.8924 84.8462 96.7882 84.8462Z" fill="white"/>
<path d="M78.7804 84.8462C77.6762 84.8462 76.7734 83.9375 76.7734 82.826V45.0185C76.7734 43.907 77.6762 42.9983 78.7804 42.9983C79.8846 42.9983 80.7873 43.907 80.7873 45.0185V82.826C80.7873 83.9375 79.8846 84.8462 78.7804 84.8462Z" fill="white"/>
<path d="M156.518 108.672H23.1685C20.8013 108.672 18.744 107.205 18.1861 105.123L0.146836 37.8111C-0.635793 34.8861 1.80895 32.0702 5.12932 32.0702H131.954C134.321 32.0702 136.379 33.5366 136.936 35.6193L156.518 108.672Z" fill="url(#paint0_linear)"/>
<defs>
<linearGradient id="paint0_linear" x1="80.9472" y1="25.9322" x2="74.6347" y2="134.105" gradientUnits="userSpaceOnUse">
<stop stop-color="#FFD874"/>
<stop offset="0.2508" stop-color="#FFDA7A"/>
<stop offset="0.6254" stop-color="#FFDF8B"/>
<stop offset="1" stop-color="#FEE6A1"/>
</linearGradient>
</defs>
</svg>
