<svg width="119" height="102" viewBox="0 0 119 102" fill="none" xmlns="http://www.w3.org/2000/svg">
<path d="M1.48897 49.4258L43.2705 100.291C44.336 101.59 46.2461 101.769 47.5324 100.696L116.997 42.8854C118.287 41.8129 118.465 39.8901 117.4 38.5953L89.1977 4.2589L56.1219 0L1.89191 45.1318C0.60561 46.2044 0.423513 48.1271 1.48897 49.4258Z" fill="#F9DD8F"/>
<path d="M56.1211 0L69.7009 16.5325C70.7663 17.8312 72.6764 18.0106 73.9666 16.9381L89.2008 4.2589L56.1211 0Z" fill="#FAD265"/>
<path d="M76.9116 44.7809L65.149 30.4246C64.3005 29.3872 64.4477 27.8389 65.4783 26.9848L66.2183 26.3725C67.2489 25.5183 68.787 25.6665 69.6355 26.704L81.3982 41.0602C82.2467 42.0976 82.0995 43.6459 81.0689 44.5001L80.3289 45.1124C79.2983 45.9665 77.7601 45.8183 76.9116 44.7809Z" fill="#FFF8E1"/>
<path d="M64.7356 63.1229L44.9412 38.9618C43.9223 37.7216 44.1005 35.8652 45.3326 34.8433C46.5646 33.8176 48.4088 33.997 49.4239 35.2373L69.2183 59.3983C70.2372 60.6385 70.059 62.495 68.827 63.5168C67.5949 64.5425 65.7546 64.3631 64.7356 63.1229Z" fill="#FFF8E1"/>
<path d="M53.2199 72.6821L33.4256 48.521C32.4067 47.2808 32.5849 45.4244 33.8169 44.4025C35.049 43.3768 36.8932 43.5562 37.9083 44.7965L57.7026 68.9575C58.7216 70.1977 58.5434 72.0542 57.3113 73.076C56.0793 74.1017 54.2389 73.9223 53.2199 72.6821Z" fill="#FFF8E1"/>
</svg>
