<svg width="219" height="124" viewBox="0 0 220 124" fill="none" xmlns="http://www.w3.org/2000/svg">
<g opacity="0.8">
<path d="M1 2.00537V123.104" stroke="#96CDE1" stroke-width="0.5" stroke-miterlimit="10"/>
<path d="M5.12109 122.196V0.914062" stroke="#96CDE1" stroke-width="0.5" stroke-miterlimit="10"/>
<path d="M9.89941 2.00537V122.193" stroke="#96CDE1" stroke-width="0.5" stroke-miterlimit="10"/>
<path d="M14.021 122.193V2.00537" stroke="#96CDE1" stroke-width="0.5" stroke-miterlimit="10"/>
<path d="M18.7939 2.00537V122.193" stroke="#96CDE1" stroke-width="0.5" stroke-miterlimit="10"/>
<path d="M23.3496 122.196V0.914062" stroke="#96CDE1" stroke-width="0.5" stroke-miterlimit="10"/>
<path d="M28.1274 0.914062V122.196" stroke="#96CDE1" stroke-width="0.5" stroke-miterlimit="10"/>
<path d="M32.0317 122.193V2.00537" stroke="#96CDE1" stroke-width="0.5" stroke-miterlimit="10"/>
<path d="M36.5879 2.00537V122.193" stroke="#96CDE1" stroke-width="0.5" stroke-miterlimit="10"/>
<path d="M40.9258 122.193V2.00537" stroke="#96CDE1" stroke-width="0.5" stroke-miterlimit="10"/>
<path d="M1 4.37891H45.2699" stroke="#96CDE1" stroke-width="0.5" stroke-miterlimit="10"/>
<path d="M45.2699 8.3833H1V12.0261H45.2699V15.8524H1V19.3118H45.2699V23.1316H1V26.9579H45.2699V30.4173H1V34.427H45.2699V38.0633H1V41.8896H45.2699V45.5324H1V49.5356H45.2699V53.1916H1V56.8213H45.2699V60.2807H1V63.7401H45.2699V67.7498H1V71.753H45.2699V75.2124H1V78.8553H45.2699V82.6815H1V86.3244H45.2699V89.9672H1V93.9704H45.2699V97.4298H1V101.44H45.2699V104.715H1V108.358H45.2699V112.185H1V116.004H45.2699V119.831H1" stroke="#96CDE1" stroke-width="0.5" stroke-miterlimit="10"/>
<path d="M45.2695 2.08643V123.185" stroke="#96CDE1" stroke-width="0.5" stroke-miterlimit="10"/>
<path d="M49.3911 122.273V0.998047" stroke="#96CDE1" stroke-width="0.5" stroke-miterlimit="10"/>
<path d="M54.1641 2.08643V122.274" stroke="#96CDE1" stroke-width="0.5" stroke-miterlimit="10"/>
<path d="M58.291 122.274V2.08643" stroke="#96CDE1" stroke-width="0.5" stroke-miterlimit="10"/>
<path d="M63.0635 2.08643V122.274" stroke="#96CDE1" stroke-width="0.5" stroke-miterlimit="10"/>
<path d="M67.6191 122.273V0.998047" stroke="#96CDE1" stroke-width="0.5" stroke-miterlimit="10"/>
<path d="M72.3921 0.998047V122.273" stroke="#96CDE1" stroke-width="0.5" stroke-miterlimit="10"/>
<path d="M76.2964 122.274V2.08643" stroke="#96CDE1" stroke-width="0.5" stroke-miterlimit="10"/>
<path d="M80.8574 2.08643V122.274" stroke="#96CDE1" stroke-width="0.5" stroke-miterlimit="10"/>
<path d="M85.1958 122.274V2.08643" stroke="#96CDE1" stroke-width="0.5" stroke-miterlimit="10"/>
<path d="M45.2695 4.45605H89.534" stroke="#96CDE1" stroke-width="0.5" stroke-miterlimit="10"/>
<path d="M89.534 8.45996H45.2695V12.1028H89.534V15.9291H45.2695V19.3885H89.534V23.2082H45.2695V27.0345H89.534V30.4939H45.2695V34.5037H89.534V38.1465H45.2695V41.9663H89.534V45.6091H45.2695V49.6188H89.534V53.2682H45.2695V56.898H89.534V60.3573H45.2695V63.8233H89.534V67.8265H45.2695V71.8362H89.534V75.2956H45.2695V78.9319H89.534V82.7582H45.2695V86.401H89.534V90.0439H45.2695V94.0471H89.534V97.5065H45.2695V101.516H89.534V104.792H45.2695V108.435H89.534V112.261H45.2695V116.081H89.534V119.907H45.2695" stroke="#96CDE1" stroke-width="0.5" stroke-miterlimit="10"/>
<path d="M85.1958 2.08447V123.183" stroke="#96CDE1" stroke-width="0.5" stroke-miterlimit="10"/>
<path d="M89.3174 122.272V0.99707" stroke="#96CDE1" stroke-width="0.5" stroke-miterlimit="10"/>
<path d="M94.0898 2.08447V122.272" stroke="#96CDE1" stroke-width="0.5" stroke-miterlimit="10"/>
<path d="M98.2168 122.272V2.08447" stroke="#96CDE1" stroke-width="0.5" stroke-miterlimit="10"/>
<path d="M102.99 2.08447V122.272" stroke="#96CDE1" stroke-width="0.5" stroke-miterlimit="10"/>
<path d="M107.545 122.272V0.99707" stroke="#96CDE1" stroke-width="0.5" stroke-miterlimit="10"/>
<path d="M112.318 0.99707V122.272" stroke="#96CDE1" stroke-width="0.5" stroke-miterlimit="10"/>
<path d="M116.228 122.272V2.08447" stroke="#96CDE1" stroke-width="0.5" stroke-miterlimit="10"/>
<path d="M120.784 2.08447V122.272" stroke="#96CDE1" stroke-width="0.5" stroke-miterlimit="10"/>
<path d="M125.122 122.272V2.08447" stroke="#96CDE1" stroke-width="0.5" stroke-miterlimit="10"/>
<path d="M85.1958 4.45605H129.466" stroke="#96CDE1" stroke-width="0.5" stroke-miterlimit="10"/>
<path d="M129.466 8.45898H85.1958V12.1018H129.466V15.9281H85.1958V19.3875H129.466V23.2073H85.1958V27.0336H129.466V30.4929H85.1958V34.5027H129.466V38.1455H85.1958V41.9653H129.466V45.6081H85.1958V49.6179H129.466V53.2673H85.1958V56.897H129.466V60.3564H85.1958V63.8223H129.466V67.8255H85.1958V71.8353H129.466V75.2947H85.1958V78.9309H129.466V82.7572H85.1958V86.4001H129.466V90.0429H85.1958V94.0461H129.466V97.5055H85.1958V101.515H129.466V104.791H85.1958V108.434H129.466V112.26H85.1958V116.08H129.466V119.906H85.1958" stroke="#96CDE1" stroke-width="0.5" stroke-miterlimit="10"/>
<path d="M129.466 2.08447V123.183" stroke="#96CDE1" stroke-width="0.5" stroke-miterlimit="10"/>
<path d="M133.588 122.272V0.99707" stroke="#96CDE1" stroke-width="0.5" stroke-miterlimit="10"/>
<path d="M138.361 2.08447V122.272" stroke="#96CDE1" stroke-width="0.5" stroke-miterlimit="10"/>
<path d="M142.482 122.272V2.08447" stroke="#96CDE1" stroke-width="0.5" stroke-miterlimit="10"/>
<path d="M147.261 2.08447V122.272" stroke="#96CDE1" stroke-width="0.5" stroke-miterlimit="10"/>
<path d="M151.816 122.272V0.99707" stroke="#96CDE1" stroke-width="0.5" stroke-miterlimit="10"/>
<path d="M156.589 0.99707V122.272" stroke="#96CDE1" stroke-width="0.5" stroke-miterlimit="10"/>
<path d="M160.493 122.272V2.08447" stroke="#96CDE1" stroke-width="0.5" stroke-miterlimit="10"/>
<path d="M165.055 2.08447V122.272" stroke="#96CDE1" stroke-width="0.5" stroke-miterlimit="10"/>
<path d="M169.393 122.272V2.08447" stroke="#96CDE1" stroke-width="0.5" stroke-miterlimit="10"/>
<path d="M129.466 4.45605H173.731" stroke="#96CDE1" stroke-width="0.5" stroke-miterlimit="10"/>
<path d="M173.731 8.45898H129.466V12.1018H173.731V15.9281H129.466V19.3875H173.731V23.2073H129.466V27.0336H173.731V30.4929H129.466V34.5027H173.731V38.1455H129.466V41.9653H173.731V45.6081H129.466V49.6179H173.731V53.2673H129.466V56.897H173.731V60.3564H129.466V63.8223H173.731V67.8255H129.466V71.8353H173.731V75.2947H129.466V78.9309H173.731V82.7572H129.466V86.4001H173.731V90.0429H129.466V94.0461H173.731V97.5055H129.466V101.515H173.731V104.791H129.466V108.434H173.731V112.26H129.466V116.08H173.731V119.906H129.466" stroke="#96CDE1" stroke-width="0.5" stroke-miterlimit="10"/>
<path d="M173.73 2.08643V123.185" stroke="#96CDE1" stroke-width="0.5" stroke-miterlimit="10"/>
<path d="M177.851 122.273V0.998047" stroke="#96CDE1" stroke-width="0.5" stroke-miterlimit="10"/>
<path d="M182.63 2.08643V122.274" stroke="#96CDE1" stroke-width="0.5" stroke-miterlimit="10"/>
<path d="M186.75 122.274V2.08643" stroke="#96CDE1" stroke-width="0.5" stroke-miterlimit="10"/>
<path d="M191.524 2.08643V122.274" stroke="#96CDE1" stroke-width="0.5" stroke-miterlimit="10"/>
<path d="M196.08 122.273V0.998047" stroke="#96CDE1" stroke-width="0.5" stroke-miterlimit="10"/>
<path d="M200.858 0.998047V122.273" stroke="#96CDE1" stroke-width="0.5" stroke-miterlimit="10"/>
<path d="M204.762 122.274V2.08643" stroke="#96CDE1" stroke-width="0.5" stroke-miterlimit="10"/>
<path d="M209.317 2.08643V122.274" stroke="#96CDE1" stroke-width="0.5" stroke-miterlimit="10"/>
<path d="M213.656 122.274V2.08643" stroke="#96CDE1" stroke-width="0.5" stroke-miterlimit="10"/>
<path d="M218 122.274V2.08643" stroke="#96CDE1" stroke-width="0.5" stroke-miterlimit="10"/>
<path d="M173.73 4.45605H218" stroke="#96CDE1" stroke-width="0.5" stroke-miterlimit="10"/>
<path d="M218 8.45996H173.73V12.1028H218V15.9291H173.73V19.3885H218V23.2082H173.73V27.0345H218V30.4939H173.73V34.5037H218V38.1465H173.73V41.9663H218V45.6091H173.73V49.6188H218V53.2682H173.73V56.898H218V60.3573H173.73V63.8233H218V67.8265H173.73V71.8362H218V75.2956H173.73V78.9319H218V82.7582H173.73V86.401H218V90.0439H173.73V94.0471H218V97.5065H173.73V101.516H218V104.792H173.73V108.435H218V112.261H173.73V116.081H218V119.907H173.73" stroke="#96CDE1" stroke-width="0.5" stroke-miterlimit="10"/>
</g>
</svg>
