<svg width="240" height="124" viewBox="0 0 240 124" fill="none" xmlns="http://www.w3.org/2000/svg">
<g opacity="0.8">
<path d="M22 2.00488V123.103" stroke="#96CDE1" stroke-width="0.5" stroke-miterlimit="10"/>
<path d="M26.1211 122.196V0.914062" stroke="#96CDE1" stroke-width="0.5" stroke-miterlimit="10"/>
<path d="M30.8994 2.00488V122.192" stroke="#96CDE1" stroke-width="0.5" stroke-miterlimit="10"/>
<path d="M35.021 122.192V2.00488" stroke="#96CDE1" stroke-width="0.5" stroke-miterlimit="10"/>
<path d="M39.7939 2.00488V122.192" stroke="#96CDE1" stroke-width="0.5" stroke-miterlimit="10"/>
<path d="M44.3494 122.196V0.914062" stroke="#96CDE1" stroke-width="0.5" stroke-miterlimit="10"/>
<path d="M49.1274 0.914062V122.196" stroke="#96CDE1" stroke-width="0.5" stroke-miterlimit="10"/>
<path d="M53.0317 122.192V2.00488" stroke="#96CDE1" stroke-width="0.5" stroke-miterlimit="10"/>
<path d="M57.5879 2.00488V122.192" stroke="#96CDE1" stroke-width="0.5" stroke-miterlimit="10"/>
<path d="M61.9258 122.192V2.00488" stroke="#96CDE1" stroke-width="0.5" stroke-miterlimit="10"/>
<path d="M22 4.37891H66.2699" stroke="#96CDE1" stroke-width="0.5" stroke-miterlimit="10"/>
<path d="M66.2699 8.38379H22V12.0266H66.2699V15.8529H22V19.3123H66.2699V23.1321H22V26.9584H66.2699V30.4177H22V34.4275H66.2699V38.0638H22V41.8901H66.2699V45.5329H22V49.5361H66.2699V53.1921H22V56.8218H66.2699V60.2812H22V63.7406H66.2699V67.7503H22V71.7535H66.2699V75.2129H22V78.8557H66.2699V82.682H22V86.3249H66.2699V89.9677H22V93.9709H66.2699V97.4303H22V101.44H66.2699V104.716H22V108.359H66.2699V112.185H22V116.005H66.2699V119.831H22" stroke="#96CDE1" stroke-width="0.5" stroke-miterlimit="10"/>
<path d="M66.2695 2.08691V123.185" stroke="#96CDE1" stroke-width="0.5" stroke-miterlimit="10"/>
<path d="M70.3911 122.273V0.998047" stroke="#96CDE1" stroke-width="0.5" stroke-miterlimit="10"/>
<path d="M75.1641 2.08691V122.274" stroke="#96CDE1" stroke-width="0.5" stroke-miterlimit="10"/>
<path d="M79.2908 122.274V2.08691" stroke="#96CDE1" stroke-width="0.5" stroke-miterlimit="10"/>
<path d="M84.0632 2.08691V122.274" stroke="#96CDE1" stroke-width="0.5" stroke-miterlimit="10"/>
<path d="M88.6194 122.273V0.998047" stroke="#96CDE1" stroke-width="0.5" stroke-miterlimit="10"/>
<path d="M93.3923 0.998047V122.273" stroke="#96CDE1" stroke-width="0.5" stroke-miterlimit="10"/>
<path d="M97.2964 122.274V2.08691" stroke="#96CDE1" stroke-width="0.5" stroke-miterlimit="10"/>
<path d="M101.857 2.08691V122.274" stroke="#96CDE1" stroke-width="0.5" stroke-miterlimit="10"/>
<path d="M106.196 122.274V2.08691" stroke="#96CDE1" stroke-width="0.5" stroke-miterlimit="10"/>
<path d="M66.2695 4.45605H110.534" stroke="#96CDE1" stroke-width="0.5" stroke-miterlimit="10"/>
<path d="M110.534 8.45996H66.2695V12.1028H110.534V15.9291H66.2695V19.3885H110.534V23.2082H66.2695V27.0345H110.534V30.4939H66.2695V34.5037H110.534V38.1465H66.2695V41.9663H110.534V45.6091H66.2695V49.6188H110.534V53.2682H66.2695V56.898H110.534V60.3573H66.2695V63.8233H110.534V67.8265H66.2695V71.8362H110.534V75.2956H66.2695V78.9319H110.534V82.7582H66.2695V86.401H110.534V90.0439H66.2695V94.0471H110.534V97.5065H66.2695V101.516H110.534V104.792H66.2695V108.435H110.534V112.261H66.2695V116.081H110.534V119.907H66.2695" stroke="#96CDE1" stroke-width="0.5" stroke-miterlimit="10"/>
<path d="M106.196 2.08496V123.183" stroke="#96CDE1" stroke-width="0.5" stroke-miterlimit="10"/>
<path d="M110.317 122.272V0.99707" stroke="#96CDE1" stroke-width="0.5" stroke-miterlimit="10"/>
<path d="M115.09 2.08496V122.273" stroke="#96CDE1" stroke-width="0.5" stroke-miterlimit="10"/>
<path d="M119.217 122.273V2.08496" stroke="#96CDE1" stroke-width="0.5" stroke-miterlimit="10"/>
<path d="M123.99 2.08496V122.273" stroke="#96CDE1" stroke-width="0.5" stroke-miterlimit="10"/>
<path d="M128.545 122.272V0.99707" stroke="#96CDE1" stroke-width="0.5" stroke-miterlimit="10"/>
<path d="M133.318 0.99707V122.272" stroke="#96CDE1" stroke-width="0.5" stroke-miterlimit="10"/>
<path d="M137.228 122.273V2.08496" stroke="#96CDE1" stroke-width="0.5" stroke-miterlimit="10"/>
<path d="M141.784 2.08496V122.273" stroke="#96CDE1" stroke-width="0.5" stroke-miterlimit="10"/>
<path d="M146.122 122.273V2.08496" stroke="#96CDE1" stroke-width="0.5" stroke-miterlimit="10"/>
<path d="M106.196 4.45605H150.466" stroke="#96CDE1" stroke-width="0.5" stroke-miterlimit="10"/>
<path d="M150.466 8.45898H106.196V12.1018H150.466V15.9281H106.196V19.3875H150.466V23.2073H106.196V27.0336H150.466V30.4929H106.196V34.5027H150.466V38.1455H106.196V41.9653H150.466V45.6081H106.196V49.6179H150.466V53.2673H106.196V56.897H150.466V60.3564H106.196V63.8223H150.466V67.8255H106.196V71.8353H150.466V75.2947H106.196V78.9309H150.466V82.7572H106.196V86.4001H150.466V90.0429H106.196V94.0461H150.466V97.5055H106.196V101.515H150.466V104.791H106.196V108.434H150.466V112.26H106.196V116.08H150.466V119.906H106.196" stroke="#96CDE1" stroke-width="0.5" stroke-miterlimit="10"/>
<path d="M150.466 2.08496V123.183" stroke="#96CDE1" stroke-width="0.5" stroke-miterlimit="10"/>
<path d="M154.588 122.272V0.99707" stroke="#96CDE1" stroke-width="0.5" stroke-miterlimit="10"/>
<path d="M159.361 2.08496V122.273" stroke="#96CDE1" stroke-width="0.5" stroke-miterlimit="10"/>
<path d="M163.482 122.273V2.08496" stroke="#96CDE1" stroke-width="0.5" stroke-miterlimit="10"/>
<path d="M168.26 2.08496V122.273" stroke="#96CDE1" stroke-width="0.5" stroke-miterlimit="10"/>
<path d="M172.816 122.272V0.99707" stroke="#96CDE1" stroke-width="0.5" stroke-miterlimit="10"/>
<path d="M177.589 0.99707V122.272" stroke="#96CDE1" stroke-width="0.5" stroke-miterlimit="10"/>
<path d="M181.492 122.273V2.08496" stroke="#96CDE1" stroke-width="0.5" stroke-miterlimit="10"/>
<path d="M186.054 2.08496V122.273" stroke="#96CDE1" stroke-width="0.5" stroke-miterlimit="10"/>
<path d="M190.392 122.273V2.08496" stroke="#96CDE1" stroke-width="0.5" stroke-miterlimit="10"/>
<path d="M150.466 4.45605H194.731" stroke="#96CDE1" stroke-width="0.5" stroke-miterlimit="10"/>
<path d="M194.731 8.45898H150.466V12.1018H194.731V15.9281H150.466V19.3875H194.731V23.2073H150.466V27.0336H194.731V30.4929H150.466V34.5027H194.731V38.1455H150.466V41.9653H194.731V45.6081H150.466V49.6179H194.731V53.2673H150.466V56.897H194.731V60.3564H150.466V63.8223H194.731V67.8255H150.466V71.8353H194.731V75.2947H150.466V78.9309H194.731V82.7572H150.466V86.4001H194.731V90.0429H150.466V94.0461H194.731V97.5055H150.466V101.515H194.731V104.791H150.466V108.434H194.731V112.26H150.466V116.08H194.731V119.906H150.466" stroke="#96CDE1" stroke-width="0.5" stroke-miterlimit="10"/>
<path d="M194.73 2.08691V123.185" stroke="#96CDE1" stroke-width="0.5" stroke-miterlimit="10"/>
<path d="M198.851 122.273V0.998047" stroke="#96CDE1" stroke-width="0.5" stroke-miterlimit="10"/>
<path d="M203.63 2.08691V122.274" stroke="#96CDE1" stroke-width="0.5" stroke-miterlimit="10"/>
<path d="M207.75 122.274V2.08691" stroke="#96CDE1" stroke-width="0.5" stroke-miterlimit="10"/>
<path d="M212.524 2.08691V122.274" stroke="#96CDE1" stroke-width="0.5" stroke-miterlimit="10"/>
<path d="M217.08 122.273V0.998047" stroke="#96CDE1" stroke-width="0.5" stroke-miterlimit="10"/>
<path d="M221.858 0.998047V122.273" stroke="#96CDE1" stroke-width="0.5" stroke-miterlimit="10"/>
<path d="M225.762 122.274V2.08691" stroke="#96CDE1" stroke-width="0.5" stroke-miterlimit="10"/>
<path d="M230.318 2.08691V122.274" stroke="#96CDE1" stroke-width="0.5" stroke-miterlimit="10"/>
<path d="M234.656 122.274V2.08691" stroke="#96CDE1" stroke-width="0.5" stroke-miterlimit="10"/>
<path d="M239 122.274V2.08691" stroke="#96CDE1" stroke-width="0.5" stroke-miterlimit="10"/>
<path d="M194.73 4.45605H239" stroke="#96CDE1" stroke-width="0.5" stroke-miterlimit="10"/>
<path d="M239 8.45996H194.73V12.1028H239V15.9291H194.73V19.3885H239V23.2082H194.73V27.0345H239V30.4939H194.73V34.5037H239V38.1465H194.73V41.9663H239V45.6091H194.73V49.6188H239V53.2682H194.73V56.898H239V60.3573H194.73V63.8233H239V67.8265H194.73V71.8362H239V75.2956H194.73V78.9319H239V82.7582H194.73V86.401H239V90.0439H194.73V94.0471H239V97.5065H194.73V101.516H239V104.792H194.73V108.435H239V112.261H194.73V116.081H239V119.907H194.73" stroke="#96CDE1" stroke-width="0.5" stroke-miterlimit="10"/>
</g>
<path d="M54.9972 52.4808L54.9975 52.481C55.1315 52.5989 55.2673 52.7195 55.4048 52.8417C56.1736 53.525 56.9992 54.2588 57.9119 54.8542C58.9839 55.5537 60.1527 56.0456 61.4495 56.0307L61.4495 56.0307C64.1116 56.0004 66.458 54.2649 68.3891 52.7495C70.0728 51.4218 71.5864 49.95 73.1074 48.4711C73.4099 48.177 73.7127 47.8826 74.0172 47.5889C74.9955 46.6421 75.9737 45.6939 76.9521 44.7457L76.9535 44.7443L76.9541 44.7437C77.9328 43.7951 78.9116 42.8464 79.8904 41.8991L79.8906 41.8989C80.386 41.4201 80.8799 40.9413 81.374 40.4622L81.3751 40.4612C81.8687 39.9826 82.3626 39.5038 82.858 39.025L82.8583 39.0247C82.8942 38.9901 82.9307 38.9547 82.9678 38.9187C83.5635 38.3406 84.321 37.6056 85.436 37.6886C86.5414 37.7676 87.5904 38.4427 88.3528 38.9854C89.138 39.5429 89.8904 40.1442 90.6358 40.7401C90.9532 40.9938 91.2693 41.2465 91.5862 41.4944L91.5866 41.4947C92.7092 42.3767 93.8333 43.2573 94.9575 44.1381C96.0818 45.0188 97.2061 45.8997 98.329 46.7819C100.54 48.5137 102.749 50.2454 104.958 51.9772L104.961 51.9799C107.171 53.7126 109.382 55.4453 111.593 57.1779L111.593 57.1781C112.19 57.6461 112.78 58.1189 113.37 58.5911C114.907 59.8215 116.44 61.0484 118.061 62.1794C120.065 63.5707 122.287 64.8341 124.849 65.1304L124.849 65.1304C127.575 65.4481 129.704 64.5283 131.482 63.091C133.172 61.7259 134.535 59.9033 135.787 58.2298C135.86 58.1316 135.933 58.0339 136.006 57.9368C137.456 56.0002 138.62 53.9725 139.486 51.7963C139.81 50.9802 140.102 50.1562 140.397 49.3274C140.454 49.1675 140.511 49.0073 140.568 48.847C140.921 47.8584 141.284 46.866 141.71 45.8892L141.71 45.8889C142.107 44.9821 142.572 44.1048 143.139 43.2635L143.139 43.2628C143.43 42.8339 143.749 42.3996 144.109 42.0004L144.11 41.9991C144.138 41.9688 144.168 41.9336 144.201 41.8956C144.317 41.7611 144.465 41.5905 144.635 41.4676C144.637 41.4646 144.638 41.4616 144.639 41.4586C144.674 41.3898 144.729 41.3546 144.767 41.3382C144.8 41.324 144.829 41.3199 144.84 41.3185C144.854 41.3167 144.866 41.3161 144.874 41.3158C144.89 41.3153 144.916 41.3154 144.947 41.3155C144.963 41.3156 144.98 41.3157 144.998 41.3157V41.3359C145.015 41.3408 145.039 41.3485 145.064 41.3589C145.098 41.3729 145.16 41.402 145.212 41.4582C145.246 41.4937 145.292 41.5324 145.357 41.586C145.366 41.5935 145.376 41.6013 145.386 41.6094C145.458 41.6695 145.548 41.7459 145.622 41.8322M54.9972 52.4808L157.322 60.5423C156.965 61.0651 156.216 61.19 155.527 60.9213L155.527 60.9213C154.494 60.5196 153.663 59.8709 152.98 59.0989L152.98 59.0986C151.739 57.6996 151.113 55.9864 150.486 54.2728C150.422 54.0964 150.358 53.9201 150.292 53.7441L150.292 53.7438C149.843 52.5331 149.398 51.3318 148.953 50.1304C148.507 48.9286 148.062 47.7267 147.613 46.5153C147.478 46.1476 147.347 45.7745 147.215 45.3993C146.922 44.5666 146.626 43.7237 146.274 42.9063L146.273 42.9053C146.114 42.5404 145.901 42.1554 145.622 41.8322M54.9972 52.4808C53.088 50.8056 51.3728 48.9792 49.8334 47.0478L49.6379 47.2035L49.8334 47.0477C49.6024 46.7578 49.5847 46.5044 49.6601 46.2988C49.7409 46.0784 49.9458 45.8689 50.2376 45.7243C50.829 45.4312 51.627 45.469 52.0853 46.0452L52.0858 46.0458C52.8054 46.9456 53.563 47.8258 54.3771 48.6701M54.9972 52.4808L61.4524 56.2807C58.9298 56.3097 56.9092 54.5136 55.2359 53.0261C55.0991 52.9045 54.9646 52.785 54.8323 52.6687C52.9112 50.9831 51.1858 49.1457 49.6379 47.2036C48.5244 45.8059 51.1736 44.4972 52.281 45.8896C52.9969 46.7848 53.7494 47.659 54.557 48.4965M145.622 41.8322C145.622 41.8321 145.622 41.8319 145.622 41.8318L145.432 41.9949L145.623 41.8326C145.622 41.8324 145.622 41.8323 145.622 41.8322ZM145.029 41.6285L145.112 41.55C145.111 41.544 145.11 41.5397 145.11 41.5391L145.111 41.5423C145.111 41.5443 145.111 41.5468 145.112 41.5499L144.998 41.3376V41.5657V41.6043C145.01 41.6111 145.02 41.6191 145.029 41.6285ZM145.029 41.6285C145.046 41.6466 145.065 41.665 145.086 41.6837C145.086 41.6831 145.087 41.6824 145.087 41.6818C145.102 41.6516 145.108 41.6234 145.111 41.6016C145.113 41.5807 145.113 41.5641 145.112 41.5553C145.112 41.5547 145.112 41.5542 145.112 41.5537L145.029 41.6285ZM54.557 48.4965L54.377 48.67C54.377 48.67 54.377 48.6701 54.3771 48.6701M54.557 48.4965L54.3771 48.6701M54.557 48.4965L54.3771 48.6701M54.3771 48.6701C55.2453 49.5709 56.1624 50.4346 57.1223 51.2612M54.3771 48.6701L57.1223 51.2612M57.1223 51.2612C57.2042 51.3323 57.2866 51.4041 57.3696 51.4765C58.1416 52.1493 58.9636 52.8658 59.8787 53.4215L59.8788 53.4216C60.4204 53.7502 60.9598 53.898 61.5113 53.893C62.0592 53.888 62.6041 53.7323 63.1598 53.4769C64.2925 52.9575 65.3011 52.2532 66.2362 51.5321C68.042 50.1472 69.6459 48.5856 71.2338 47.0397C71.423 46.8555 71.612 46.6715 71.8011 46.488C72.7984 45.5247 73.7942 44.5602 74.7899 43.5958C75.7857 42.6312 76.7813 41.6668 77.7784 40.7038L77.7788 40.7034C78.2589 40.2377 78.7405 39.7721 79.2222 39.3062L79.2225 39.306L79.2254 39.3032C79.7062 38.8382 80.1872 38.3731 80.6667 37.908L80.6669 37.9078L80.6838 37.8914C81.4914 37.1061 82.2726 36.3466 83.3472 35.9363L83.348 35.936C85.8789 34.9603 88.4166 36.2242 90.4156 37.6894C91.9075 38.7841 93.3455 39.9325 94.7873 41.0842C95.4583 41.6201 96.1301 42.1567 96.8087 42.6888C97.9308 43.5705 99.0545 44.4508 100.178 45.331L100.18 45.3326C101.304 46.2134 102.429 47.094 103.551 47.976L103.551 47.9762C105.76 49.7068 107.968 51.4374 110.176 53.1681L110.184 53.1743C112.394 54.907 114.604 56.6397 116.816 58.3725C117.002 58.5185 117.196 58.6728 117.398 58.833C118.787 59.9371 120.528 61.3204 122.391 62.2034C124.532 63.218 126.894 63.599 129.102 62.0992L129.102 62.0992C130.711 61.0066 131.891 59.4252 132.98 57.9662C133.167 57.7155 133.352 57.4685 133.535 57.2281C134.964 55.3575 136.158 53.4268 137.001 51.2952C137.329 50.4695 137.625 49.6353 137.92 48.8062C137.977 48.647 138.033 48.488 138.09 48.3293C138.442 47.3419 138.8 46.3635 139.219 45.4035C140.056 43.4908 141.108 41.4289 142.797 40.0086L142.798 40.0083C143.666 39.2755 144.876 38.9965 146.002 39.4033L146.003 39.4036C147.002 39.7599 147.751 40.5417 148.252 41.3792C148.698 42.1307 148.986 42.9434 149.28 43.7766C149.368 44.0235 149.455 44.2722 149.548 44.5216L149.548 44.522C150.007 45.7464 150.46 46.9708 150.912 48.1958L150.913 48.1961C151.185 48.9295 151.452 49.6663 151.719 50.404C152.291 51.9807 152.865 53.5616 153.491 55.1227L153.491 55.1227C154.11 56.6657 154.951 58.3723 156.887 59.1258L156.888 59.126C157.476 59.3534 157.629 60.0917 157.322 60.5422L57.1223 51.2612ZM145.145 41.5185C145.145 41.52 145.146 41.5216 145.146 41.5231L145.145 41.5185ZM144.67 41.4428C144.671 41.4425 144.67 41.4431 144.668 41.4445C144.669 41.4435 144.67 41.4429 144.67 41.4428Z" fill="#007E96" stroke="#007E96" stroke-width="0.5"/>
<path d="M156.677 60.9411L156.677 60.941C161.023 58.3299 165.13 55.427 168.906 52.2379L168.906 52.2379C170.748 50.6825 172.511 49.0592 174.195 47.3784C174.733 46.8406 175.251 46.294 175.771 45.7451C176.091 45.408 176.411 45.0701 176.737 44.7327C177.549 43.8933 178.37 43.2973 179.62 42.9738C181.856 42.3917 184.145 41.928 186.417 41.4681C186.932 41.3637 187.447 41.2596 187.959 41.1543L187.96 41.1543C188.297 41.0855 188.641 41.0112 188.99 40.9358C189.915 40.736 190.875 40.5288 191.835 40.3971C193.161 40.215 194.514 40.1723 195.832 40.4914L195.833 40.4914C197.945 41.004 199.623 42.3068 201.083 43.5765M156.677 60.9411L200.919 43.7653M156.677 60.9411C156.409 61.1026 156.054 61.1315 155.709 61.0462C155.363 60.9603 155.067 60.769 154.914 60.5436L154.914 60.543C154.739 60.288 154.718 60.0239 154.802 59.7798C154.888 59.5288 155.091 59.2854 155.387 59.1084L155.387 59.1083M156.677 60.9411L155.387 59.1083M201.083 43.5765C201.083 43.5766 201.083 43.5767 201.083 43.5767L200.919 43.7653M201.083 43.5765C201.083 43.5765 201.083 43.5765 201.083 43.5765L200.919 43.7653M201.083 43.5765C201.698 44.1103 202.295 44.6502 202.889 45.1879C204 46.194 205.103 47.1923 206.304 48.1276M200.919 43.7653C201.526 44.2917 202.119 44.828 202.711 45.3643C203.827 46.3746 204.943 47.3844 206.15 48.3249M206.304 48.1276C206.304 48.1275 206.304 48.1275 206.304 48.1274L206.15 48.3249M206.304 48.1276L206.15 48.3249M206.304 48.1276L206.15 48.3249M155.387 59.1083C160.393 56.1057 165.025 52.6726 169.229 48.8768L155.387 59.1083ZM221.417 59.3473C221.417 59.3472 221.417 59.3472 221.417 59.3471L221.269 59.5482L221.417 59.3473ZM223.272 59.3582C223.272 59.3582 223.272 59.3582 223.272 59.3583L223.435 59.5482L223.273 59.3575C223.273 59.3577 223.272 59.3579 223.272 59.3582ZM209.261 47.5039C209.261 47.5039 209.261 47.504 209.261 47.504L209.411 47.3041L209.261 47.5039Z" fill="#007E96" stroke="#007E96" stroke-width="0.5"/>
<path d="M63.1216 89.6781C62.6532 89.8508 62.2649 90.1664 61.934 90.5003C61.7179 90.7184 61.5117 90.9605 61.3242 91.1809C61.2304 91.2911 61.1412 91.3958 61.0577 91.4894L61.0572 91.49C59.3835 93.3793 57.7083 95.2699 56.0331 97.1605L56.0249 97.1697L56.0201 97.1751C54.3439 99.0669 52.6677 100.959 50.993 102.849M63.1216 89.6781C63.1217 89.6781 63.1218 89.6781 63.1219 89.678L63.2083 89.9126L63.1215 89.6782C63.1215 89.6781 63.1216 89.6781 63.1216 89.6781ZM63.1216 89.6781C63.6016 89.5004 64.0767 89.5539 64.5007 89.7006C64.9218 89.8462 65.3071 90.0887 65.622 90.3101L65.6222 90.3103C66.0674 90.6241 66.4789 90.9698 66.8775 91.3167C66.9858 91.411 67.0929 91.5051 67.1993 91.5987C67.4874 91.8519 67.7712 92.1013 68.0653 92.3416M68.0653 92.3416C68.0652 92.3416 68.0651 92.3415 68.0651 92.3414L67.9072 92.5352M68.0653 92.3416C68.9527 93.0645 69.8765 93.7508 70.8428 94.4008L70.8431 94.401C72.7727 95.703 74.804 96.8736 76.9737 97.8564L76.974 97.8565C79.202 98.8701 81.5149 99.8629 84.0243 99.5685M68.0653 92.3416L67.9072 92.5352M67.9072 92.5352C67.6093 92.2919 67.3204 92.038 67.0313 91.7838C66.5305 91.3437 66.0289 90.9029 65.4782 90.5146C64.8602 90.0801 64.0281 89.609 63.2083 89.9126C62.5137 90.1685 61.9872 90.7874 61.5243 91.3316C61.4286 91.4441 61.3355 91.5535 61.2443 91.6558C59.5679 93.5482 57.8899 95.4418 56.212 97.3355C54.534 99.2292 52.8561 101.123 51.1797 103.015M67.9072 92.5352C68.8004 93.2629 69.7304 93.9539 70.7032 94.6082L108.362 91.5144M51.1797 103.015L50.9934 102.848C50.9933 102.849 50.9931 102.849 50.993 102.849M51.1797 103.015L50.9925 102.85C50.9927 102.849 50.9928 102.849 50.993 102.849M51.1797 103.015L50.993 102.849M50.993 102.849C50.547 103.347 49.8586 103.587 49.1891 103.243L49.186 103.241C48.9189 103.109 48.6994 102.854 48.6018 102.578C48.5056 102.305 48.5349 102.04 48.7113 101.841L50.993 102.849ZM146.124 96.6288C146.229 96.7544 146.334 96.8798 146.438 97.005C147.701 98.5182 148.934 99.9941 150.578 101.251C152.334 102.597 154.488 103.963 156.972 103.827L162.031 97.5711M146.124 96.6288L146.316 96.4686C146.316 96.4685 146.316 96.4684 146.315 96.4683M146.124 96.6288L146.315 96.4683M146.124 96.6288C145.665 96.0792 145.084 95.4091 144.325 95.1422C143.621 94.8961 142.961 95.2783 142.434 95.718C141.776 96.2701 141.195 96.8941 140.616 97.5157C140.399 97.7487 140.183 97.9814 139.963 98.2098M146.315 96.4683C146.42 96.593 146.524 96.7174 146.627 96.8414C147.894 98.3581 149.109 99.8132 150.73 101.053L150.73 101.053C152.483 102.395 154.572 103.708 156.958 103.577L156.958 103.577C159.131 103.461 160.962 102.369 162.417 101.001L162.417 101.001C163.17 100.295 163.835 99.525 164.481 98.7323L164.481 98.7316C164.655 98.52 164.685 98.2505 164.594 97.9833C164.502 97.7123 164.29 97.4617 164.013 97.3238L164.012 97.3236C163.366 97.0006 162.638 97.2262 162.225 97.7296M146.315 96.4683C145.863 95.9265 145.241 95.1995 144.408 94.9063L144.408 94.9062C143.567 94.6121 142.807 95.0808 142.274 95.5262L142.274 95.5264C141.602 96.0892 141.006 96.7304 140.424 97.3557C140.209 97.5863 139.996 97.8147 139.783 98.0362M162.225 97.7296L162.031 97.5711M162.225 97.7296C162.225 97.7297 162.225 97.7297 162.225 97.7298L162.031 97.5711M162.225 97.7296C161.167 99.0201 159.847 100.591 157.997 101.241C156.941 101.612 155.931 101.463 155.018 101.093C154.111 100.725 153.285 100.132 152.586 99.5966L152.585 99.5963C151.677 98.8981 150.814 98.129 150.062 97.2936C150.062 97.2936 150.062 97.2935 150.062 97.2935L150.248 97.1261C149.916 96.7582 149.611 96.3721 149.307 95.9859L162.031 97.5711M139.783 98.0362C139.783 98.0361 139.783 98.036 139.783 98.0359L139.963 98.2098M139.783 98.0362C139.355 98.4784 138.928 98.9219 138.502 99.365L138.501 99.3661L138.498 99.3687C138.072 99.8115 137.647 100.254 137.219 100.695L137.219 100.696C136.966 100.959 136.714 101.223 136.463 101.486C135.848 102.129 135.234 102.771 134.614 103.406L134.614 103.406C133.881 104.157 133.078 104.855 132.074 105.265L132.073 105.265C129.764 106.209 127.465 105.723 125.311 104.667C123.428 103.745 121.689 102.404 120.182 101.243C119.961 101.072 119.744 100.905 119.532 100.744L119.381 100.942M139.783 98.0362L139.963 98.2098M139.963 98.2098C139.534 98.6522 139.107 99.096 138.68 99.5398C138.254 99.9833 137.827 100.427 137.399 100.869C137.147 101.131 136.896 101.394 136.645 101.657C136.029 102.301 135.414 102.945 134.793 103.581C134.052 104.34 133.22 105.067 132.168 105.497C127.673 107.334 123.258 103.93 120.028 101.439C119.806 101.269 119.591 101.102 119.381 100.942M119.381 100.942C115.502 97.9847 111.818 94.8333 108.362 91.5144M119.381 100.942L119.532 100.744C115.661 97.7915 111.985 94.6464 108.535 91.3343M108.362 91.5144C108.1 91.2621 107.842 91.0032 107.585 90.7438C107.078 90.2336 106.57 89.7215 106.018 89.253C105.351 88.6877 104.782 88.4835 103.914 88.8971C103.122 89.277 102.381 89.7488 101.646 90.2174C101.357 90.4009 101.07 90.5839 100.781 90.7606C100.209 91.1113 99.637 91.4606 99.0651 91.81C98.4929 92.1595 97.9207 92.509 97.3485 92.8598M108.362 91.5144L108.535 91.3341C108.535 91.3342 108.535 91.3342 108.535 91.3343M108.362 91.5144L108.535 91.3344C108.535 91.3344 108.535 91.3343 108.535 91.3343M108.362 91.5144L84.0534 99.8168M108.535 91.3343C108.281 91.0902 108.029 90.8356 107.773 90.5782C107.262 90.0633 106.739 89.5374 106.18 89.0625L106.18 89.0623C105.834 88.7693 105.487 88.5458 105.093 88.4633C104.691 88.3792 104.276 88.4478 103.806 88.6713L103.805 88.6717C102.999 89.0585 102.239 89.5429 101.499 90.0144C101.213 90.196 100.931 90.3758 100.651 90.5473L100.65 90.5475C100.078 90.8981 99.5065 91.2474 98.9344 91.5969C98.3624 91.9463 97.7901 92.2958 97.2179 92.6467M97.2179 92.6467C96.0952 93.3324 94.9725 94.0195 93.8499 94.7064L93.845 94.7094C92.7239 95.3955 91.6029 96.0815 90.482 96.7662L90.4814 96.7665C90.4132 96.8085 90.3449 96.8504 90.2766 96.8924C88.3377 98.0846 86.373 99.2927 84.0243 99.5685M97.2179 92.6467L97.3485 92.8598M97.2179 92.6467C97.218 92.6466 97.2181 92.6465 97.2182 92.6464L97.3485 92.8598M84.0243 99.5685L84.0534 99.8168M84.0243 99.5685C84.0243 99.5685 84.0243 99.5685 84.0243 99.5685L84.0534 99.8168M84.0534 99.8168C86.4582 99.5344 88.4655 98.2998 90.3926 97.1146C90.4659 97.0695 90.5392 97.0245 90.6123 96.9796C91.735 96.2938 92.8577 95.6067 93.9804 94.9197C95.1031 94.2326 96.2258 93.5456 97.3485 92.8598M137.598 96.9225L137.597 96.9228C137.039 97.5024 136.484 98.0897 135.928 98.6785C134.799 99.8737 133.664 101.075 132.477 102.231C132.477 102.231 132.477 102.231 132.477 102.231L132.303 102.052L137.598 96.9225ZM137.598 96.9225C137.873 96.6365 138.144 96.3345 138.42 96.0273C138.895 95.4982 139.384 94.9536 139.93 94.449C140.782 93.6628 141.725 93.0239 142.851 92.796L142.802 92.5509L137.598 96.9225ZM56.3104 93.2716C56.7233 92.8059 57.1346 92.3415 57.5458 91.8771L57.5463 91.8765C57.9577 91.412 58.369 90.9476 58.7819 90.4818C58.8604 90.3939 58.938 90.3063 59.0153 90.2191C59.6877 89.4606 60.3273 88.7389 61.1949 88.1867C63.2152 86.9026 65.5352 87.4819 67.3962 88.7875C67.9485 89.1768 68.4404 89.6049 68.9433 90.0425C69.2247 90.2875 69.5097 90.5354 69.8105 90.7812C70.7035 91.5189 71.6396 92.2196 72.6125 92.8782C74.4927 94.1546 76.5374 95.2556 78.6533 96.1976L78.6534 96.1977C80.6577 97.089 82.734 97.9589 85.0843 97.137L85.0845 97.137C86.1777 96.7536 87.1713 96.1524 88.1033 95.5886C88.1508 95.5598 88.1981 95.5312 88.2453 95.5027C88.9582 95.0733 89.6695 94.6367 90.3789 94.2013C90.7597 93.9676 91.1399 93.7342 91.5196 93.5024L91.5196 93.5024C92.6424 92.8166 93.7652 92.1295 94.8879 91.4424L94.8952 91.4379C96.0155 90.7523 97.1357 90.0668 98.2558 89.3826C98.6634 89.1338 99.0683 88.8843 99.4725 88.6353C100.195 88.1904 100.914 87.7468 101.643 87.3109C102.646 86.7115 103.78 86.214 104.983 86.278C106.16 86.3423 107.115 86.8547 107.971 87.5443C108.546 88.0067 109.057 88.5307 109.563 89.0487C109.823 89.316 110.083 89.5816 110.348 89.8364L56.3104 93.2716ZM110.348 89.8365C113.781 93.1358 117.435 96.2617 121.284 99.2038L110.348 89.8365Z" fill="#FF7A59" stroke="#FF7A59" stroke-width="0.5"/>
<path d="M165.418 98.5996C167.186 97.0816 169.027 95.6368 170.948 94.2652C172.79 92.9565 174.699 91.6112 176.81 90.6166C178.749 89.7005 180.787 89.3288 182.812 90.2816C184.739 91.1872 186.379 92.5063 187.89 93.8569C189.45 95.2546 190.894 96.7465 192.412 98.1756C194.027 99.6937 195.715 101.468 198.383 100.987C199.631 100.762 200.769 100.112 201.864 99.5838C202.978 99.0498 204.085 98.5159 205.193 97.9819C207.457 96.8879 209.708 95.7886 211.953 94.6736C217.032 92.1451 222.049 89.5225 226.907 86.6905C228.522 85.7482 226.998 83.4816 225.365 84.4291C221.033 86.9522 216.579 89.3131 212.064 91.585C209.824 92.7105 207.573 93.815 205.315 94.9143C203.051 96.0137 200.806 97.2491 198.456 98.2018C198.102 98.3431 197.612 98.5421 197.208 98.4635C196.829 98.3902 196.499 98.05 196.242 97.8301C195.422 97.1391 194.651 96.4063 193.886 95.6734C192.357 94.2024 190.882 92.6896 189.242 91.3076C187.645 89.957 185.828 88.5907 183.779 87.7689C181.435 86.8318 179.006 86.9261 176.651 87.7793C174.069 88.7164 171.83 90.3025 169.664 91.7944C167.424 93.3387 165.289 94.9981 163.252 96.7413C161.863 97.9453 164.029 99.7984 165.418 98.5996Z" fill="#FF7A59"/>
<path d="M3.55063 12.9014V6.29137H2.89063C2.44063 6.72137 1.80063 7.09137 1.29063 7.23137V7.94137C1.66063 7.87137 2.33063 7.60137 2.65063 7.37137V12.9014H3.55063ZM8.8232 12.9014V11.2114H9.5832L9.6732 10.4514H8.8232V6.32137H7.8832L4.8932 10.4114V11.2114H7.9832V12.9014H8.8232ZM7.9832 10.4514H5.7532C6.4632 9.47137 7.7432 7.71137 8.0032 7.20137C7.9932 7.63137 7.9832 8.28137 7.9832 8.79137V10.4514ZM12.7438 6.20137C10.9638 6.20137 10.4138 7.92137 10.4138 9.61137C10.4138 11.3114 10.9138 13.0214 12.7138 13.0214C14.5538 13.0214 15.0138 11.1914 15.0138 9.56137C15.0138 7.88137 14.5138 6.20137 12.7438 6.20137ZM12.7538 6.95137C13.8738 6.95137 14.0938 8.30137 14.0938 9.57137C14.0938 10.9314 13.8838 12.2714 12.7238 12.2714C11.5638 12.2714 11.3438 10.8614 11.3438 9.61137C11.3438 8.16137 11.6038 6.95137 12.7538 6.95137Z" fill="#9D9D9D"/>
<path d="M3.55063 25.5332V18.9232H2.89063C2.44063 19.3532 1.80063 19.7232 1.29063 19.8632V20.5732C1.66063 20.5032 2.33063 20.2332 2.65063 20.0032V25.5332H3.55063ZM6.0132 20.5232C6.1432 19.9932 6.4332 19.5732 7.2232 19.5732C7.9532 19.5732 8.3432 19.9732 8.3432 20.5732C8.3432 21.2632 7.9732 21.5932 7.1032 21.5932H6.7132V22.3132H7.1832C8.0732 22.3132 8.6132 22.7132 8.6132 23.5932C8.6132 24.3032 8.2132 24.9232 7.2732 24.9232C6.4232 24.9232 5.9832 24.4132 5.8532 23.8332H4.9832C5.0832 24.7032 5.7232 25.6532 7.2332 25.6532C8.8632 25.6532 9.5132 24.6332 9.5132 23.5832C9.5132 22.6032 8.9532 22.1132 8.3632 21.9232V21.9032C8.7632 21.7532 9.2332 21.3432 9.2332 20.5432C9.2332 19.6632 8.6132 18.8332 7.2532 18.8332C5.8432 18.8332 5.2732 19.7132 5.1632 20.5232H6.0132ZM12.8513 18.8332C11.0713 18.8332 10.5213 20.5532 10.5213 22.2432C10.5213 23.9432 11.0213 25.6532 12.8213 25.6532C14.6613 25.6532 15.1213 23.8232 15.1213 22.1932C15.1213 20.5132 14.6213 18.8332 12.8513 18.8332ZM12.8613 19.5832C13.9813 19.5832 14.2013 20.9332 14.2013 22.2032C14.2013 23.5632 13.9913 24.9032 12.8313 24.9032C11.6713 24.9032 11.4513 23.4932 11.4513 22.2432C11.4513 20.7932 11.7113 19.5832 12.8613 19.5832Z" fill="#9D9D9D"/>
<path d="M3.55063 39.0645V32.4545H2.89063C2.44063 32.8845 1.80063 33.2545 1.29063 33.3945V34.1045C1.66063 34.0345 2.33063 33.7645 2.65063 33.5345V39.0645H3.55063ZM9.3432 39.0645L9.4732 38.2945H6.0232C6.1832 37.7845 6.6632 37.2645 7.5732 36.5645C8.7932 35.6245 9.2132 35.2345 9.2132 34.2345C9.2132 33.3145 8.6432 32.3645 7.1632 32.3645C5.8232 32.3645 5.1132 33.2045 4.9932 34.3245H5.8532C5.9932 33.5145 6.3632 33.1045 7.1632 33.1045C7.9532 33.1045 8.3032 33.5945 8.3032 34.2545C8.3032 34.9845 8.0232 35.2445 6.9632 36.0445C5.6032 37.0745 4.9832 38.0545 4.9832 39.0145V39.0645H9.3432ZM12.6071 32.3645C10.8271 32.3645 10.2771 34.0845 10.2771 35.7745C10.2771 37.4745 10.7771 39.1845 12.5771 39.1845C14.4171 39.1845 14.8771 37.3545 14.8771 35.7245C14.8771 34.0445 14.3771 32.3645 12.6071 32.3645ZM12.6171 33.1145C13.7371 33.1145 13.9571 34.4645 13.9571 35.7345C13.9571 37.0945 13.7471 38.4345 12.5871 38.4345C11.4271 38.4345 11.2071 37.0245 11.2071 35.7745C11.2071 34.3245 11.4671 33.1145 12.6171 33.1145Z" fill="#9D9D9D"/>
<path d="M4.44101 52.5967V45.9867H3.78101C3.33101 46.4167 2.69101 46.7867 2.18101 46.9267V47.6367C2.55101 47.5667 3.22101 47.2967 3.54101 47.0667V52.5967H4.44101ZM8.08358 52.5967V45.9867H7.42358C6.97358 46.4167 6.33358 46.7867 5.82358 46.9267V47.6367C6.19358 47.5667 6.86358 47.2967 7.18358 47.0667V52.5967H8.08358ZM11.8862 45.8967C10.1062 45.8967 9.55616 47.6167 9.55616 49.3067C9.55616 51.0067 10.0562 52.7167 11.8562 52.7167C13.6962 52.7167 14.1562 50.8867 14.1562 49.2567C14.1562 47.5767 13.6562 45.8967 11.8862 45.8967ZM11.8962 46.6467C13.0162 46.6467 13.2362 47.9967 13.2362 49.2667C13.2362 50.6267 13.0262 51.9667 11.8662 51.9667C10.7062 51.9667 10.4862 50.5567 10.4862 49.3067C10.4862 47.8567 10.7462 46.6467 11.8962 46.6467Z" fill="#9D9D9D"/>
<path d="M2.66024 65.2266V58.6166H2.00024C1.55024 59.0466 0.910244 59.4166 0.400244 59.5566V60.2666C0.770244 60.1966 1.44024 59.9266 1.76024 59.6966V65.2266H2.66024ZM6.46282 58.5266C4.68282 58.5266 4.13282 60.2466 4.13282 61.9366C4.13282 63.6366 4.63282 65.3466 6.43282 65.3466C8.27282 65.3466 8.73282 63.5166 8.73282 61.8866C8.73282 60.2066 8.23282 58.5266 6.46282 58.5266ZM6.47282 59.2766C7.59282 59.2766 7.81282 60.6266 7.81282 61.8966C7.81282 63.2566 7.60282 64.5966 6.44282 64.5966C5.28282 64.5966 5.06282 63.1866 5.06282 61.9366C5.06282 60.4866 5.32282 59.2766 6.47282 59.2766ZM12.0488 58.5266C10.2688 58.5266 9.71876 60.2466 9.71876 61.9366C9.71876 63.6366 10.2188 65.3466 12.0188 65.3466C13.8588 65.3466 14.3188 63.5166 14.3188 61.8866C14.3188 60.2066 13.8188 58.5266 12.0488 58.5266ZM12.0588 59.2766C13.1788 59.2766 13.3988 60.6266 13.3988 61.8966C13.3988 63.2566 13.1888 64.5966 12.0288 64.5966C10.8688 64.5966 10.6488 63.1866 10.6488 61.9366C10.6488 60.4866 10.9088 59.2766 12.0588 59.2766Z" fill="#9D9D9D"/>
<path d="M4.09177 76.4164C4.25177 77.1864 4.81177 77.9664 6.13177 77.9664C8.09177 77.9664 8.46177 75.9164 8.46177 74.1864C8.46177 72.4464 7.84177 71.1564 6.21177 71.1564C4.80177 71.1564 3.99177 72.1564 3.99177 73.3664C3.99177 74.5764 4.77177 75.4564 6.01177 75.4564C6.70177 75.4564 7.27177 75.2264 7.58177 74.6764C7.55177 75.5064 7.44177 77.2364 6.16177 77.2364C5.52177 77.2364 5.18177 76.9464 4.99177 76.4164H4.09177ZM6.19177 71.8964C7.33177 71.8964 7.48177 72.9664 7.48177 73.3664C7.48177 74.2464 7.07177 74.7264 6.16177 74.7264C5.38177 74.7264 4.90177 74.1764 4.90177 73.3264C4.90177 72.5264 5.29177 71.8964 6.19177 71.8964ZM11.7919 71.1564C10.0119 71.1564 9.46192 72.8764 9.46192 74.5664C9.46192 76.2664 9.96192 77.9764 11.7619 77.9764C13.6019 77.9764 14.0619 76.1464 14.0619 74.5164C14.0619 72.8364 13.5619 71.1564 11.7919 71.1564ZM11.8019 71.9064C12.9219 71.9064 13.1419 73.2564 13.1419 74.5264C13.1419 75.8864 12.9319 77.2264 11.7719 77.2264C10.6119 77.2264 10.3919 75.8164 10.3919 74.5664C10.3919 73.1164 10.6519 71.9064 11.8019 71.9064Z" fill="#9D9D9D"/>
<path d="M6.28177 90.6063C7.64177 90.6063 8.62177 89.8563 8.62177 88.5963C8.62177 87.7163 8.07177 87.0963 7.45177 86.8963C7.98177 86.6963 8.36177 86.2363 8.36177 85.5263C8.36177 84.5163 7.60177 83.7863 6.37177 83.7863C5.01177 83.7863 4.29177 84.5263 4.29177 85.5463C4.29177 86.1963 4.63177 86.6563 5.21177 86.9363C4.64177 87.1563 4.01177 87.6963 4.01177 88.6263C4.01177 89.8463 5.00177 90.6063 6.28177 90.6063ZM6.32177 89.8763C5.43177 89.8763 4.92177 89.3163 4.92177 88.5863C4.92177 87.8663 5.36177 87.3163 6.32177 87.3163C7.19177 87.3163 7.72177 87.7563 7.72177 88.5863C7.72177 89.4363 7.15177 89.8763 6.32177 89.8763ZM6.34177 84.5163C7.13177 84.5163 7.49177 84.9963 7.49177 85.5763C7.49177 86.1863 7.14177 86.5663 6.35177 86.5663C5.52177 86.5663 5.16177 86.0963 5.16177 85.5463C5.16177 84.9363 5.50177 84.5163 6.34177 84.5163ZM11.8896 83.7863C10.1096 83.7863 9.55958 85.5063 9.55958 87.1963C9.55958 88.8963 10.0596 90.6063 11.8596 90.6063C13.6996 90.6063 14.1596 88.7763 14.1596 87.1463C14.1596 85.4663 13.6596 83.7863 11.8896 83.7863ZM11.8996 84.5363C13.0196 84.5363 13.2396 85.8863 13.2396 87.1563C13.2396 88.5163 13.0296 89.8563 11.8696 89.8563C10.7096 89.8563 10.4896 88.4463 10.4896 87.1963C10.4896 85.7463 10.7496 84.5363 11.8996 84.5363Z" fill="#9D9D9D"/>
<path d="M4.66239 96.5362V97.3062H8.05239C6.99239 98.7062 5.82239 101.246 5.52239 103.116H6.43239C6.76239 101.176 7.83239 98.7962 8.98239 97.2562V96.5362H4.66239ZM12.0283 96.4162C10.2483 96.4162 9.69825 98.1362 9.69825 99.8262C9.69825 101.526 10.1983 103.236 11.9983 103.236C13.8383 103.236 14.2983 101.406 14.2983 99.7762C14.2983 98.0962 13.7983 96.4162 12.0283 96.4162ZM12.0383 97.1662C13.1583 97.1662 13.3783 98.5162 13.3783 99.7862C13.3783 101.146 13.1683 102.486 12.0083 102.486C10.8483 102.486 10.6283 101.076 10.6283 99.8262C10.6283 98.3762 10.8883 97.1662 12.0383 97.1662Z" fill="#9D9D9D"/>
<path d="M8.41177 110.596C8.33177 109.916 7.81177 109.046 6.47177 109.046C4.64177 109.046 4.05177 110.726 4.05177 112.546C4.05177 114.396 4.58177 115.866 6.40177 115.866C7.85177 115.866 8.62177 114.766 8.62177 113.466C8.62177 112.206 7.87177 111.276 6.60177 111.276C5.69177 111.276 5.20177 111.726 4.93177 112.196C4.96177 110.806 5.32177 109.766 6.43177 109.766C7.10177 109.766 7.41177 110.126 7.54177 110.596H8.41177ZM6.39177 115.126C5.30177 115.126 5.03177 114.066 5.03177 113.526C5.03177 112.536 5.60177 112.016 6.42177 112.016C7.43177 112.016 7.71177 112.796 7.71177 113.536C7.71177 114.356 7.34177 115.126 6.39177 115.126ZM11.87 109.046C10.09 109.046 9.54005 110.766 9.54005 112.456C9.54005 114.156 10.04 115.866 11.84 115.866C13.68 115.866 14.14 114.036 14.14 112.406C14.14 110.726 13.64 109.046 11.87 109.046ZM11.88 109.796C13 109.796 13.22 111.146 13.22 112.416C13.22 113.776 13.01 115.116 11.85 115.116C10.69 115.116 10.47 113.706 10.47 112.456C10.47 111.006 10.73 109.796 11.88 109.796Z" fill="#9D9D9D"/>
<path d="M179.822 12.1839C179.975 12.8724 180.456 13.2037 181.258 13.2037C182.08 13.2037 182.423 12.8465 182.423 12.3289C182.423 11.7646 182.116 11.4903 180.962 11.2108C179.311 10.8122 178.851 10.2169 178.851 9.33175C178.851 8.26542 179.638 7.49414 181.11 7.49414C182.74 7.49414 183.393 8.40518 183.485 9.31105H182.28C182.198 8.85553 181.932 8.41036 181.074 8.41036C180.44 8.41036 180.073 8.68471 180.073 9.19717C180.073 9.69927 180.374 9.90115 181.432 10.1548C183.271 10.6 183.644 11.3039 183.644 12.1839C183.644 13.3124 182.806 14.1251 181.166 14.1251C179.557 14.1251 178.76 13.2917 178.616 12.1787H179.822V12.1839Z" fill="#007E96"/>
<path d="M184.819 7.59082H187.481C188.952 7.59082 189.55 8.37245 189.55 9.22655C189.55 9.96159 189.156 10.4378 188.707 10.6242C189.141 10.7795 189.744 11.235 189.744 12.1201C189.744 13.2641 188.87 14.0354 187.568 14.0354H184.824V7.59082H184.819ZM187.322 10.1842C188.068 10.1842 188.37 9.86325 188.37 9.35079C188.37 8.8435 187.997 8.54327 187.394 8.54327H185.989V10.1842H187.322ZM185.989 13.0881H187.343C188.104 13.0881 188.518 12.7517 188.518 12.0891C188.518 11.5093 188.15 11.1314 187.281 11.1314H185.989V13.0881Z" fill="#007E96"/>
<path d="M190.935 7.59082H193.494C194.807 7.59082 195.701 8.33622 195.701 9.54748C195.701 10.8985 194.705 11.5507 193.458 11.5507H192.135V14.0406H190.94V7.59082H190.935ZM192.13 10.5724H193.326C194.041 10.5724 194.491 10.2618 194.491 9.57337C194.491 8.86938 194 8.56915 193.356 8.56915H192.13V10.5724Z" fill="#007E96"/>
<path d="M209.394 8.03711H211.831C213.66 8.03711 214.871 9.27426 214.871 11.1843C214.871 13.0737 213.696 14.4817 211.78 14.4817H209.389V8.03711H209.394ZM210.59 13.4982H211.724C213.037 13.4982 213.64 12.5198 213.64 11.1947C213.64 10.0662 213.083 9.0258 211.734 9.0258H210.595V13.4982H210.59Z" fill="#007E96"/>
<path d="M216.118 8.03613H218.78C220.251 8.03613 220.849 8.81776 220.849 9.67186C220.849 10.4069 220.455 10.8831 220.006 11.0695C220.44 11.2248 221.043 11.6803 221.043 12.5654C221.043 13.7094 220.169 14.4807 218.866 14.4807H216.123V8.03613H216.118ZM218.621 10.6295C219.367 10.6295 219.669 10.3086 219.669 9.7961C219.669 9.28882 219.296 8.98858 218.693 8.98858H217.288V10.6295H218.621ZM217.288 13.5334H218.642C219.403 13.5334 219.817 13.197 219.817 12.5344C219.817 11.9546 219.449 11.5768 218.58 11.5768H217.288V13.5334Z" fill="#007E96"/>
<path d="M222.233 8.03613H224.793C226.106 8.03613 227 8.78153 227 9.9928C227 11.3438 226.004 11.9961 224.757 11.9961H223.434V14.4859H222.238V8.03613H222.233ZM223.429 11.0177H224.624C225.34 11.0177 225.789 10.7071 225.789 10.0187C225.789 9.31469 225.299 9.01446 224.655 9.01446H223.429V11.0177Z" fill="#007E96"/>
<path d="M171.03 14.9375C172.869 14.9375 174.361 13.4264 174.361 11.5625C174.361 9.69853 172.869 8.1875 171.03 8.1875C169.19 8.1875 167.698 9.69853 167.698 11.5625C167.698 13.4264 169.19 14.9375 171.03 14.9375Z" fill="#007E96"/>
<path d="M203.682 14.9375C205.522 14.9375 207.013 13.4264 207.013 11.5625C207.013 9.69853 205.522 8.1875 203.682 8.1875C201.842 8.1875 200.351 9.69853 200.351 11.5625C200.351 13.4264 201.842 14.9375 203.682 14.9375Z" fill="#FF7A59"/>
</svg>
