<?xml version="1.0" encoding="utf-8"?>
<!-- Generator: Adobe Illustrator 24.0.2, SVG Export Plug-In . SVG Version: 6.00 Build 0)  -->
<svg version="1.1" id="Layer_1" xmlns="http://www.w3.org/2000/svg" xmlns:xlink="http://www.w3.org/1999/xlink" x="0px" y="0px"
	 viewBox="0 0 792 612" style="enable-background:new 0 0 792 612;" xml:space="preserve">
<style type="text/css">
	.st0{opacity:0.5;}
	.st1{fill:none;stroke:#9F9F9F;stroke-width:0.5;stroke-miterlimit:10;}
	.st2{fill:none;stroke:#BEBFBF;stroke-width:0.25;stroke-miterlimit:10;}
	.st3{fill:none;stroke:#848484;stroke-width:0.5;stroke-miterlimit:10;}
	.st4{fill:#6FCCDD;}
	.st5{fill:#B0B0B0;}
	.st6{fill:none;stroke:#101010;stroke-width:2;stroke-miterlimit:10;}
	.st7{fill:none;}
	.st8{fill:#BCBEC0;}
	.st9{font-family:'MyriadPro-Regular';}
	.st10{font-size:14.0764px;}
	.st11{fill:#A7A9AC;}
</style>
<g class="st0">
	<line class="st1" x1="153.99" y1="226.66" x2="153.99" y2="367.65"/>
	<line class="st1" x1="160.93" y1="366.59" x2="160.93" y2="225.39"/>
	<line class="st1" x1="168.97" y1="226.66" x2="168.97" y2="366.59"/>
	<line class="st1" x1="175.92" y1="366.59" x2="175.92" y2="226.66"/>
	<line class="st1" x1="183.96" y1="226.66" x2="183.96" y2="366.59"/>
	<line class="st1" x1="191.64" y1="366.59" x2="191.64" y2="225.39"/>
	<line class="st1" x1="199.68" y1="225.39" x2="199.68" y2="366.59"/>
	<line class="st1" x1="206.26" y1="366.59" x2="206.26" y2="226.66"/>
	<line class="st1" x1="213.93" y1="226.66" x2="213.93" y2="366.59"/>
	<line class="st1" x1="221.25" y1="366.59" x2="221.25" y2="226.66"/>
	<line class="st1" x1="153.99" y1="229.42" x2="228.56" y2="229.42"/>
	<polyline class="st1" points="228.56,234.08 153.99,234.08 153.99,238.32 228.56,238.32 228.56,242.77 153.99,242.77 153.99,246.8 
		228.56,246.8 228.56,251.25 153.99,251.25 153.99,255.71 228.56,255.71 228.56,259.74 153.99,259.74 153.99,264.4 228.56,264.4 
		228.56,268.64 153.99,268.64 153.99,273.09 228.56,273.09 228.56,277.33 153.99,277.33 153.99,282 228.56,282 228.56,286.25 
		153.99,286.25 153.99,290.48 228.56,290.48 228.56,294.51 153.99,294.51 153.99,298.53 228.56,298.53 228.56,303.2 153.99,303.2 
		153.99,307.86 228.56,307.86 228.56,311.89 153.99,311.89 153.99,316.13 228.56,316.13 228.56,320.58 153.99,320.58 153.99,324.83 
		228.56,324.83 228.56,329.07 153.99,329.07 153.99,333.73 228.56,333.73 228.56,337.76 153.99,337.76 153.99,342.42 228.56,342.42 
		228.56,346.24 153.99,346.24 153.99,350.48 228.56,350.48 228.56,354.93 153.99,354.93 153.99,359.38 228.56,359.38 228.56,363.84 
		153.99,363.84 	"/>
	<line class="st1" x1="228.56" y1="226.75" x2="228.56" y2="367.75"/>
	<line class="st1" x1="235.5" y1="366.69" x2="235.5" y2="225.48"/>
	<line class="st1" x1="243.54" y1="226.75" x2="243.54" y2="366.69"/>
	<line class="st1" x1="250.49" y1="366.69" x2="250.49" y2="226.75"/>
	<line class="st1" x1="258.53" y1="226.75" x2="258.53" y2="366.69"/>
	<line class="st1" x1="266.21" y1="366.69" x2="266.21" y2="225.48"/>
	<line class="st1" x1="274.25" y1="225.48" x2="274.25" y2="366.69"/>
	<line class="st1" x1="280.83" y1="366.69" x2="280.83" y2="226.75"/>
	<line class="st1" x1="288.51" y1="226.75" x2="288.51" y2="366.69"/>
	<line class="st1" x1="295.82" y1="366.69" x2="295.82" y2="226.75"/>
	<line class="st1" x1="228.56" y1="229.51" x2="303.13" y2="229.51"/>
	<polyline class="st1" points="303.13,234.17 228.56,234.17 228.56,238.41 303.13,238.41 303.13,242.87 228.56,242.87 228.56,246.9 
		303.13,246.9 303.13,251.35 228.56,251.35 228.56,255.8 303.13,255.8 303.13,259.83 228.56,259.83 228.56,264.49 303.13,264.49 
		303.13,268.73 228.56,268.73 228.56,273.19 303.13,273.19 303.13,277.43 228.56,277.43 228.56,282.09 303.13,282.09 303.13,286.34 
		228.56,286.34 228.56,290.57 303.13,290.57 303.13,294.6 228.56,294.6 228.56,298.63 303.13,298.63 303.13,303.29 228.56,303.29 
		228.56,307.96 303.13,307.96 303.13,311.98 228.56,311.98 228.56,316.23 303.13,316.23 303.13,320.68 228.56,320.68 228.56,324.92 
		303.13,324.92 303.13,329.16 228.56,329.16 228.56,333.82 303.13,333.82 303.13,337.85 228.56,337.85 228.56,342.52 303.13,342.52 
		303.13,346.33 228.56,346.33 228.56,350.57 303.13,350.57 303.13,355.02 228.56,355.02 228.56,359.48 303.13,359.48 303.13,363.93 
		228.56,363.93 	"/>
	<g>
		<line class="st1" x1="295.82" y1="226.75" x2="295.82" y2="367.75"/>
		<line class="st1" x1="302.76" y1="366.69" x2="302.76" y2="225.48"/>
		<line class="st1" x1="310.8" y1="226.75" x2="310.8" y2="366.69"/>
		<line class="st1" x1="317.75" y1="366.69" x2="317.75" y2="226.75"/>
		<line class="st1" x1="325.79" y1="226.75" x2="325.79" y2="366.69"/>
		<line class="st1" x1="333.47" y1="366.69" x2="333.47" y2="225.48"/>
		<line class="st1" x1="341.51" y1="225.48" x2="341.51" y2="366.69"/>
		<line class="st1" x1="348.09" y1="366.69" x2="348.09" y2="226.75"/>
		<line class="st1" x1="355.77" y1="226.75" x2="355.77" y2="366.69"/>
		<line class="st1" x1="363.08" y1="366.69" x2="363.08" y2="226.75"/>
		<line class="st1" x1="295.82" y1="229.51" x2="370.39" y2="229.51"/>
		<polyline class="st1" points="370.39,234.17 295.82,234.17 295.82,238.41 370.39,238.41 370.39,242.87 295.82,242.87 
			295.82,246.9 370.39,246.9 370.39,251.35 295.82,251.35 295.82,255.8 370.39,255.8 370.39,259.83 295.82,259.83 295.82,264.49 
			370.39,264.49 370.39,268.73 295.82,268.73 295.82,273.19 370.39,273.19 370.39,277.43 295.82,277.43 295.82,282.09 
			370.39,282.09 370.39,286.34 295.82,286.34 295.82,290.57 370.39,290.57 370.39,294.6 295.82,294.6 295.82,298.63 370.39,298.63 
			370.39,303.29 295.82,303.29 295.82,307.96 370.39,307.96 370.39,311.98 295.82,311.98 295.82,316.23 370.39,316.23 
			370.39,320.68 295.82,320.68 295.82,324.92 370.39,324.92 370.39,329.16 295.82,329.16 295.82,333.82 370.39,333.82 
			370.39,337.85 295.82,337.85 295.82,342.52 370.39,342.52 370.39,346.33 295.82,346.33 295.82,350.57 370.39,350.57 
			370.39,355.02 295.82,355.02 295.82,359.48 370.39,359.48 370.39,363.93 295.82,363.93 		"/>
	</g>
	<g>
		<line class="st1" x1="370.39" y1="226.75" x2="370.39" y2="367.75"/>
		<line class="st1" x1="377.33" y1="366.69" x2="377.33" y2="225.48"/>
		<line class="st1" x1="385.38" y1="226.75" x2="385.38" y2="366.69"/>
		<line class="st1" x1="392.32" y1="366.69" x2="392.32" y2="226.75"/>
		<line class="st1" x1="400.36" y1="226.75" x2="400.36" y2="366.69"/>
		<line class="st1" x1="408.04" y1="366.69" x2="408.04" y2="225.48"/>
		<line class="st1" x1="416.08" y1="225.48" x2="416.08" y2="366.69"/>
		<line class="st1" x1="422.66" y1="366.69" x2="422.66" y2="226.75"/>
		<line class="st1" x1="430.34" y1="226.75" x2="430.34" y2="366.69"/>
		<line class="st1" x1="437.65" y1="366.69" x2="437.65" y2="226.75"/>
		<line class="st1" x1="370.39" y1="229.51" x2="444.96" y2="229.51"/>
		<polyline class="st1" points="444.96,234.17 370.39,234.17 370.39,238.41 444.96,238.41 444.96,242.87 370.39,242.87 
			370.39,246.9 444.96,246.9 444.96,251.35 370.39,251.35 370.39,255.8 444.96,255.8 444.96,259.83 370.39,259.83 370.39,264.49 
			444.96,264.49 444.96,268.73 370.39,268.73 370.39,273.19 444.96,273.19 444.96,277.43 370.39,277.43 370.39,282.09 
			444.96,282.09 444.96,286.34 370.39,286.34 370.39,290.57 444.96,290.57 444.96,294.6 370.39,294.6 370.39,298.63 444.96,298.63 
			444.96,303.29 370.39,303.29 370.39,307.96 444.96,307.96 444.96,311.98 370.39,311.98 370.39,316.23 444.96,316.23 
			444.96,320.68 370.39,320.68 370.39,324.92 444.96,324.92 444.96,329.16 370.39,329.16 370.39,333.82 444.96,333.82 
			444.96,337.85 370.39,337.85 370.39,342.52 444.96,342.52 444.96,346.33 370.39,346.33 370.39,350.57 444.96,350.57 
			444.96,355.02 370.39,355.02 370.39,359.48 444.96,359.48 444.96,363.93 370.39,363.93 		"/>
	</g>
	<line class="st1" x1="444.96" y1="226.75" x2="444.96" y2="367.75"/>
	<line class="st1" x1="451.91" y1="366.69" x2="451.91" y2="225.48"/>
	<line class="st1" x1="459.95" y1="226.75" x2="459.95" y2="366.69"/>
	<line class="st1" x1="466.89" y1="366.69" x2="466.89" y2="226.75"/>
	<line class="st1" x1="474.93" y1="226.75" x2="474.93" y2="366.69"/>
	<line class="st1" x1="482.61" y1="366.69" x2="482.61" y2="225.48"/>
	<line class="st1" x1="490.65" y1="225.48" x2="490.65" y2="366.69"/>
	<line class="st1" x1="497.23" y1="366.69" x2="497.23" y2="226.75"/>
	<line class="st1" x1="504.91" y1="226.75" x2="504.91" y2="366.69"/>
	<line class="st1" x1="512.22" y1="366.69" x2="512.22" y2="226.75"/>
	<line class="st1" x1="444.96" y1="229.51" x2="519.53" y2="229.51"/>
	<polyline class="st1" points="519.53,234.17 444.96,234.17 444.96,238.41 519.53,238.41 519.53,242.87 444.96,242.87 444.96,246.9 
		519.53,246.9 519.53,251.35 444.96,251.35 444.96,255.8 519.53,255.8 519.53,259.83 444.96,259.83 444.96,264.49 519.53,264.49 
		519.53,268.73 444.96,268.73 444.96,273.19 519.53,273.19 519.53,277.43 444.96,277.43 444.96,282.09 519.53,282.09 519.53,286.34 
		444.96,286.34 444.96,290.57 519.53,290.57 519.53,294.6 444.96,294.6 444.96,298.63 519.53,298.63 519.53,303.29 444.96,303.29 
		444.96,307.96 519.53,307.96 519.53,311.98 444.96,311.98 444.96,316.23 519.53,316.23 519.53,320.68 444.96,320.68 444.96,324.92 
		519.53,324.92 519.53,329.16 444.96,329.16 444.96,333.82 519.53,333.82 519.53,337.85 444.96,337.85 444.96,342.52 519.53,342.52 
		519.53,346.33 444.96,346.33 444.96,350.57 519.53,350.57 519.53,355.02 444.96,355.02 444.96,359.48 519.53,359.48 519.53,363.93 
		444.96,363.93 	"/>
</g>
<line class="st2" x1="153.45" y1="283.88" x2="511.65" y2="283.88"/>
<line class="st2" x1="153.45" y1="327.11" x2="511.65" y2="327.11"/>
<polyline class="st3" points="153.45,237.66 153.45,367.84 516.84,367.84 "/>
<g>
	<g>
		<path class="st4" d="M163.62,301.95c2.56,7.37,5.12,14.73,7.67,22.1c0.6,1.72,1.2,3.45,1.8,5.17c0.49,1.4,0.96,2.87,1.84,4.09
			c1.67,2.33,4.59,3.04,7.26,2.13c2.89-0.98,4.77-3.42,6.1-6.05c0.97-1.92,1.98-6.22,4.86-4.45c2.18,1.34,3.9,3.39,6.72,2.99
			c2.6-0.37,4.48-2.65,5.6-4.86c1.58-3.1,2.5-11.71,7.78-10.2c3.92,1.12,5.98,5.68,10.13,6.43c2.27,0.41,4.41-0.68,5.66-2.58
			c1.59-2.43,1.68-5.59,2.08-8.37c1.07-7.32,2.66-14.57,4.74-21.67c1.03-3.5,1.91-7.58,4.26-10.48c2.01-2.48,5.98-3.93,8.34-1.07
			c2.13,2.57,2.54,6.7,3.3,9.82c1.02,4.17,2.05,8.33,3.07,12.5c0.38,1.56,2.8,0.9,2.41-0.66c-0.94-3.85-1.89-7.69-2.83-11.54
			c-0.76-3.09-1.3-6.37-2.59-9.29c-1.07-2.44-2.97-4.48-5.72-4.85c-2.8-0.38-5.65,0.96-7.5,3.03c-2.08,2.32-3.11,5.32-4.04,8.23
			c-1.12,3.49-2.11,7.01-2.98,10.57c-0.89,3.63-1.65,7.3-2.28,10.98c-0.55,3.2-0.66,6.63-1.62,9.73c-0.64,2.08-2.23,3.89-4.54,3
			c-1.86-0.71-3.33-2.33-4.83-3.56c-1.59-1.31-3.35-2.6-5.46-2.84c-2.34-0.27-4.4,0.88-5.79,2.72c-1.52,2.02-2.18,4.48-2.94,6.86
			c-0.67,2.09-2.26,5.56-4.87,5.65c-2.47,0.09-4.15-2.86-6.48-3.44c-2.82-0.7-4.58,1.58-5.61,3.85c-1.36,2.99-3.01,6.9-6.72,7.4
			c-4.07,0.55-4.93-4.71-5.93-7.56c-2.83-8.15-5.66-16.3-8.49-24.45C165.5,299.78,163.09,300.43,163.62,301.95L163.62,301.95z"/>
	</g>
</g>
<g>
	<g>
		<path class="st4" d="M254.58,297.07c2.08,7.22,3.34,14.64,5.5,21.84c1.04,3.46,2.23,7.02,4.02,10.18c1,1.77,2.56,3.73,4.81,3.6
			c1.91-0.11,3.42-1.69,4.57-3.06c1.42-1.68,2.62-3.55,4.13-5.15c1.34-1.42,3.18-2.37,5.19-2.08c1.92,0.28,3.38,1.8,4.47,3.29
			c2.55,3.48,3.88,7.99,7.01,11.04c1.53,1.49,3.57,2.38,5.71,1.96c2.14-0.42,3.93-2.02,5.32-3.62c3.19-3.69,5.17-8.16,7.6-12.33
			c1-1.71,2.12-3.4,3.56-4.77c0.49-0.46,1-0.86,1.59-1.18c0.36-0.2,1.07-0.4,1.29-0.42c0.97-0.07,1.69,0.2,2.61,0.87
			c0.85,0.61,1.84,1.75,2.54,2.73c2.08,2.88,3.65,6.12,5.23,9.29c1.69,3.39,3.32,6.82,5.33,10.03c1.55,2.46,3.45,5.18,6.13,6.5
			c6.54,3.2,10.08-5.51,11.84-10.22c3.31-8.83,5.12-18.24,6.9-27.47c0.71-3.7,1.37-7.41,2.12-11.09c1.04-5.07,2.57-10.08,4.12-15.01
			c1.16-3.69,2.47-7.35,4.12-10.86c1.32-2.81,2.78-5.75,4.94-8.02c2.82-2.96,7.81-6.08,12.04-4.4c2.25,0.9,3.45,3.11,4.11,5.31
			c0.46,1.54,2.88,0.88,2.41-0.66c-0.74-2.47-2.01-4.82-4.22-6.26c-1.86-1.22-4.14-1.5-6.31-1.19c-4.72,0.69-9.08,3.93-11.72,7.81
			c-4.2,6.17-6.63,13.57-8.72,20.66c-1.29,4.37-2.57,8.75-3.45,13.22c-1.71,8.68-3.21,17.4-5.37,25.99
			c-1.09,4.35-2.3,8.7-4.01,12.86c-1.02,2.49-2.5,5.86-4.7,7.18c-0.77,0.46-1.36,0.49-2.37,0.17c-0.98-0.31-1.97-1.08-2.79-1.93
			c-2.33-2.37-3.94-5.43-5.46-8.35c-1.78-3.41-3.39-6.9-5.23-10.28c-1.47-2.7-3.11-5.61-5.5-7.61c-2.1-1.75-4.67-2.34-7.16-1.01
			c-3.3,1.76-5.35,5.51-7.06,8.67c-1.18,2.19-2.34,4.39-3.66,6.49c-1.26,2-2.69,4.13-4.63,5.53c-3.94,2.83-6.61-1.55-8.33-4.64
			c-2.03-3.64-4.04-8.41-8.12-10.19c-2.13-0.93-4.51-0.7-6.59,0.27c-1.82,0.85-3.13,2.55-4.33,4.1c-1.26,1.62-2.44,3.56-4.11,4.81
			c-1.53,1.14-2.56,0.08-3.45-1.39c-1.9-3.1-3.05-6.75-4.08-10.22c-1.09-3.66-1.95-7.38-2.81-11.09c-0.82-3.53-1.63-7.06-2.63-10.55
			C256.55,294.86,254.14,295.52,254.58,297.07L254.58,297.07z"/>
	</g>
</g>
<g>
	<g>
		<path class="st5" d="M444.64,302.64c3.96,6.09,8.38,11.88,13.24,17.29c0.82,0.91,1.68,2.1,3.01,2.24
			c1.15,0.12,2.09-0.61,2.75-1.48c0.77-1.03,1.15-2.24,1.53-3.45c0.64-2.02,1.27-4.04,1.91-6.06c0.53-1.68,1.05-3.37,1.59-5.05
			c0.58-1.81,1.21-3.73,2.55-5.13c1.06-1.12,2.69-1.95,4.27-1.59c1.32,0.3,2.27,1.4,3.05,2.44c1.2,1.59,2.29,3.61,4.27,4.33
			c2.67,0.98,4.92-1.09,6.49-3c4.44-5.41,9.22-11.26,16.44-12.75c0.79-0.16,0.45-1.37-0.33-1.21c-5.82,1.2-10.36,5.26-14.14,9.62
			c-0.98,1.13-1.9,2.3-2.85,3.45c-1.02,1.24-2.32,2.8-4.06,2.88c-2.36,0.11-3.69-2.61-4.91-4.19c-1.29-1.68-2.93-3.11-5.2-2.88
			c-2.74,0.27-4.67,2.47-5.73,4.83c-1.4,3.1-2.21,6.54-3.23,9.78c-0.54,1.71-1.04,3.43-1.62,5.13c-0.39,1.15-1.32,3.48-2.91,3.04
			c-0.85-0.24-1.57-1.36-2.15-2c-0.71-0.79-1.41-1.59-2.1-2.4c-1.28-1.5-2.53-3.03-3.75-4.58c-2.49-3.19-4.84-6.49-7.04-9.88
			C445.28,301.34,444.2,301.96,444.64,302.64L444.64,302.64z"/>
	</g>
</g>
<g>
	<g>
		<path class="st4" d="M392.19,265.72c0.74,5.37,1.86,10.73,2.99,16.02c1.14,5.34,2.48,10.65,4.28,15.81
			c1.63,4.67,3.47,9.79,6.53,13.74c2.96,3.84,7.41,5.1,11.9,3.15c5.41-2.34,8.19-7.78,12.62-11.36c1.25-1.01-0.53-2.77-1.77-1.77
			c-3.64,2.93-6.03,7.28-9.98,9.83c-1.84,1.19-4.09,2.09-6.32,1.69c-2.13-0.39-3.75-1.94-4.93-3.67c-2.69-3.91-4.42-8.66-5.93-13.13
			c-1.6-4.75-2.83-9.61-3.89-14.51c-1.17-5.44-2.33-10.95-3.09-16.47C394.39,263.46,391.98,264.14,392.19,265.72L392.19,265.72z"/>
	</g>
</g>
<circle class="st6" cx="437.82" cy="297.61" r="6.83"/>
<rect x="135.08" y="240.85" class="st7" width="79.47" height="61.28"/>
<text transform="matrix(1 0 0 1 135.0831 250.8445)" class="st8 st9 st10">3K</text>
<rect x="135.08" y="278.39" class="st7" width="79.47" height="61.28"/>
<text transform="matrix(1 0 0 1 135.0831 288.3865)" class="st8 st9 st10">2K</text>
<rect x="136.75" y="321.56" class="st7" width="79.47" height="61.28"/>
<text transform="matrix(1 0 0 1 136.7531 331.5545)"><tspan x="0" y="0" class="st8 st9 st10">1K</tspan><tspan x="0" y="16.89" class="st8 st9 st10">`</tspan></text>
<rect x="144.34" y="360.69" class="st7" width="79.47" height="61.28"/>
<text transform="matrix(1 0 0 1 144.3429 370.6883)" class="st8 st9 st10">0</text>
<rect x="215.29" y="385.05" class="st7" width="79.47" height="61.28"/>
<text transform="matrix(1 0 0 1 215.297 395.0476)" class="st11 st9 st10">Jun</text>
<rect x="287.7" y="385.05" class="st7" width="79.47" height="61.28"/>
<text transform="matrix(1 0 0 1 287.7023 395.0476)" class="st11 st9 st10">Jul</text>
<rect x="354.79" y="385.05" class="st7" width="79.47" height="61.28"/>
<text transform="matrix(1 0 0 1 354.7892 395.0476)" class="st11 st9 st10">Jun</text>
<rect x="428.63" y="385.05" class="st7" width="79.47" height="61.28"/>
<text transform="matrix(1 0 0 1 428.6281 395.0476)" class="st9 st10">Sep</text>
<line class="st2" x1="153.45" y1="246.04" x2="511.65" y2="246.04"/>
</svg>
