<?xml version="1.0" encoding="utf-8"?>
<!-- Generator: Adobe Illustrator 24.0.2, SVG Export Plug-In . SVG Version: 6.00 Build 0)  -->
<svg version="1.1" id="Layer_1" xmlns="http://www.w3.org/2000/svg" xmlns:xlink="http://www.w3.org/1999/xlink" x="0px" y="0px"
	 viewBox="0 0 792 612" style="enable-background:new 0 0 792 612;" xml:space="preserve">
<style type="text/css">
	.st0{fill:#2F62AE;}
	.st1{fill:#FFFFFF;}
	.st2{fill:#429688;}
	.st3{fill:none;stroke:#9F9F9F;stroke-width:0.5;stroke-miterlimit:10;}
	.st4{fill:#95D9F3;}
</style>
<rect x="111.65" y="150.81" class="st0" width="599.74" height="311.79"/>
<g>
	<g>
		<path class="st1" d="M366.95,487.9c-0.29,0-0.59,0-0.88,0c-0.34-0.01-0.67,0.06-0.96,0.22c-0.31,0.1-0.58,0.27-0.8,0.52
			c-0.24,0.23-0.42,0.49-0.52,0.8c-0.16,0.3-0.23,0.62-0.22,0.96c0.03,0.22,0.06,0.44,0.09,0.66c0.12,0.42,0.33,0.79,0.64,1.1
			c0.17,0.13,0.34,0.26,0.51,0.39c0.39,0.23,0.81,0.34,1.26,0.34c0.29,0,0.59,0,0.88,0c0.34,0.01,0.67-0.06,0.96-0.22
			c0.31-0.1,0.58-0.27,0.8-0.52c0.24-0.23,0.42-0.49,0.52-0.8c0.16-0.3,0.23-0.62,0.22-0.96c-0.03-0.22-0.06-0.44-0.09-0.66
			c-0.12-0.42-0.33-0.79-0.64-1.1c-0.17-0.13-0.34-0.26-0.51-0.39C367.82,488.02,367.4,487.9,366.95,487.9L366.95,487.9z"/>
	</g>
</g>
<g>
	<g>
		<path class="st2" d="M278.6,183.49c0.34-0.34,0.68-0.68,1.02-1.02c0.24-0.23,0.42-0.49,0.52-0.8c0.16-0.3,0.23-0.62,0.22-0.96
			c0.01-0.34-0.06-0.67-0.22-0.96c-0.1-0.31-0.27-0.58-0.52-0.8c-0.17-0.13-0.34-0.26-0.51-0.39c-0.39-0.23-0.81-0.34-1.26-0.34
			c-0.22,0.03-0.44,0.06-0.66,0.09c-0.42,0.12-0.79,0.33-1.1,0.64c-0.34,0.34-0.68,0.68-1.02,1.02c-0.24,0.23-0.42,0.49-0.52,0.8
			c-0.16,0.3-0.23,0.62-0.22,0.96c-0.01,0.34,0.06,0.67,0.22,0.96c0.1,0.31,0.27,0.58,0.52,0.8c0.17,0.13,0.34,0.26,0.51,0.39
			c0.39,0.23,0.81,0.34,1.26,0.34c0.22-0.03,0.44-0.06,0.66-0.09C277.92,184.02,278.29,183.8,278.6,183.49L278.6,183.49z"/>
	</g>
</g>
<g>
	<line class="st3" x1="211.7" y1="247.8" x2="211.7" y2="432.63"/>
	<line class="st3" x1="219.29" y1="431.24" x2="219.29" y2="246.13"/>
	<line class="st3" x1="228.09" y1="247.8" x2="228.09" y2="431.24"/>
	<line class="st3" x1="235.68" y1="431.24" x2="235.68" y2="247.8"/>
	<line class="st3" x1="244.47" y1="247.8" x2="244.47" y2="431.24"/>
	<line class="st3" x1="252.86" y1="431.24" x2="252.86" y2="246.13"/>
	<line class="st3" x1="261.66" y1="246.13" x2="261.66" y2="431.24"/>
	<line class="st3" x1="268.85" y1="431.24" x2="268.85" y2="247.8"/>
	<line class="st3" x1="277.24" y1="247.8" x2="277.24" y2="431.24"/>
	<line class="st3" x1="285.23" y1="431.24" x2="285.23" y2="247.8"/>
	<line class="st3" x1="211.7" y1="251.42" x2="293.23" y2="251.42"/>
	<polyline class="st3" points="293.23,257.53 211.7,257.53 211.7,263.09 293.23,263.09 293.23,268.93 211.7,268.93 211.7,274.21 
		293.23,274.21 293.23,280.04 211.7,280.04 211.7,285.88 293.23,285.88 293.23,291.16 211.7,291.16 211.7,297.28 293.23,297.28 
		293.23,302.83 211.7,302.83 211.7,308.67 293.23,308.67 293.23,314.23 211.7,314.23 211.7,320.34 293.23,320.34 293.23,325.92 
		211.7,325.92 211.7,331.46 293.23,331.46 293.23,336.74 211.7,336.74 211.7,342.02 293.23,342.02 293.23,348.14 211.7,348.14 
		211.7,354.25 293.23,354.25 293.23,359.53 211.7,359.53 211.7,365.09 293.23,365.09 293.23,370.93 211.7,370.93 211.7,376.49 
		293.23,376.49 293.23,382.05 211.7,382.05 211.7,388.16 293.23,388.16 293.23,393.44 211.7,393.44 211.7,399.56 293.23,399.56 
		293.23,404.56 211.7,404.56 211.7,410.12 293.23,410.12 293.23,415.96 211.7,415.96 211.7,421.79 293.23,421.79 293.23,427.63 
		211.7,427.63 	"/>
	<line class="st3" x1="293.23" y1="247.92" x2="293.23" y2="432.75"/>
	<line class="st3" x1="300.82" y1="431.36" x2="300.82" y2="246.26"/>
	<line class="st3" x1="309.61" y1="247.92" x2="309.61" y2="431.36"/>
	<line class="st3" x1="317.21" y1="431.36" x2="317.21" y2="247.92"/>
	<line class="st3" x1="326" y1="247.92" x2="326" y2="431.36"/>
	<line class="st3" x1="334.39" y1="431.36" x2="334.39" y2="246.26"/>
	<line class="st3" x1="343.18" y1="246.26" x2="343.18" y2="431.36"/>
	<line class="st3" x1="350.37" y1="431.36" x2="350.37" y2="247.92"/>
	<line class="st3" x1="358.77" y1="247.92" x2="358.77" y2="431.36"/>
	<line class="st3" x1="366.76" y1="431.36" x2="366.76" y2="247.92"/>
	<line class="st3" x1="293.23" y1="251.54" x2="374.75" y2="251.54"/>
	<polyline class="st3" points="374.75,257.65 293.23,257.65 293.23,263.21 374.75,263.21 374.75,269.05 293.23,269.05 
		293.23,274.33 374.75,274.33 374.75,280.16 293.23,280.16 293.23,286 374.75,286 374.75,291.28 293.23,291.28 293.23,297.4 
		374.75,297.4 374.75,302.96 293.23,302.96 293.23,308.79 374.75,308.79 374.75,314.35 293.23,314.35 293.23,320.47 374.75,320.47 
		374.75,326.04 293.23,326.04 293.23,331.58 374.75,331.58 374.75,336.86 293.23,336.86 293.23,342.15 374.75,342.15 374.75,348.26 
		293.23,348.26 293.23,354.38 374.75,354.38 374.75,359.66 293.23,359.66 293.23,365.21 374.75,365.21 374.75,371.05 293.23,371.05 
		293.23,376.61 374.75,376.61 374.75,382.17 293.23,382.17 293.23,388.28 374.75,388.28 374.75,393.56 293.23,393.56 293.23,399.68 
		374.75,399.68 374.75,404.68 293.23,404.68 293.23,410.24 374.75,410.24 374.75,416.08 293.23,416.08 293.23,421.91 374.75,421.91 
		374.75,427.75 293.23,427.75 	"/>
	<g>
		<line class="st3" x1="366.76" y1="247.92" x2="366.76" y2="432.75"/>
		<line class="st3" x1="374.35" y1="431.36" x2="374.35" y2="246.26"/>
		<line class="st3" x1="383.14" y1="247.92" x2="383.14" y2="431.36"/>
		<line class="st3" x1="390.74" y1="431.36" x2="390.74" y2="247.92"/>
		<line class="st3" x1="399.53" y1="247.92" x2="399.53" y2="431.36"/>
		<line class="st3" x1="407.92" y1="431.36" x2="407.92" y2="246.26"/>
		<line class="st3" x1="416.71" y1="246.26" x2="416.71" y2="431.36"/>
		<line class="st3" x1="423.91" y1="431.36" x2="423.91" y2="247.92"/>
		<line class="st3" x1="432.3" y1="247.92" x2="432.3" y2="431.36"/>
		<line class="st3" x1="440.29" y1="431.36" x2="440.29" y2="247.92"/>
		<line class="st3" x1="366.76" y1="251.54" x2="448.29" y2="251.54"/>
		<polyline class="st3" points="448.29,257.65 366.76,257.65 366.76,263.21 448.29,263.21 448.29,269.05 366.76,269.05 
			366.76,274.33 448.29,274.33 448.29,280.16 366.76,280.16 366.76,286 448.29,286 448.29,291.28 366.76,291.28 366.76,297.4 
			448.29,297.4 448.29,302.96 366.76,302.96 366.76,308.79 448.29,308.79 448.29,314.35 366.76,314.35 366.76,320.47 448.29,320.47 
			448.29,326.04 366.76,326.04 366.76,331.58 448.29,331.58 448.29,336.86 366.76,336.86 366.76,342.15 448.29,342.15 
			448.29,348.26 366.76,348.26 366.76,354.38 448.29,354.38 448.29,359.66 366.76,359.66 366.76,365.21 448.29,365.21 
			448.29,371.05 366.76,371.05 366.76,376.61 448.29,376.61 448.29,382.17 366.76,382.17 366.76,388.28 448.29,388.28 
			448.29,393.56 366.76,393.56 366.76,399.68 448.29,399.68 448.29,404.68 366.76,404.68 366.76,410.24 448.29,410.24 
			448.29,416.08 366.76,416.08 366.76,421.91 448.29,421.91 448.29,427.75 366.76,427.75 		"/>
	</g>
	<g>
		<line class="st3" x1="448.29" y1="247.92" x2="448.29" y2="432.75"/>
		<line class="st3" x1="455.88" y1="431.36" x2="455.88" y2="246.26"/>
		<line class="st3" x1="464.67" y1="247.92" x2="464.67" y2="431.36"/>
		<line class="st3" x1="472.26" y1="431.36" x2="472.26" y2="247.92"/>
		<line class="st3" x1="481.06" y1="247.92" x2="481.06" y2="431.36"/>
		<line class="st3" x1="489.45" y1="431.36" x2="489.45" y2="246.26"/>
		<line class="st3" x1="498.24" y1="246.26" x2="498.24" y2="431.36"/>
		<line class="st3" x1="505.43" y1="431.36" x2="505.43" y2="247.92"/>
		<line class="st3" x1="513.83" y1="247.92" x2="513.83" y2="431.36"/>
		<line class="st3" x1="521.82" y1="431.36" x2="521.82" y2="247.92"/>
		<line class="st3" x1="448.29" y1="251.54" x2="529.81" y2="251.54"/>
		<polyline class="st3" points="529.81,257.65 448.29,257.65 448.29,263.21 529.81,263.21 529.81,269.05 448.29,269.05 
			448.29,274.33 529.81,274.33 529.81,280.16 448.29,280.16 448.29,286 529.81,286 529.81,291.28 448.29,291.28 448.29,297.4 
			529.81,297.4 529.81,302.96 448.29,302.96 448.29,308.79 529.81,308.79 529.81,314.35 448.29,314.35 448.29,320.47 529.81,320.47 
			529.81,326.04 448.29,326.04 448.29,331.58 529.81,331.58 529.81,336.86 448.29,336.86 448.29,342.15 529.81,342.15 
			529.81,348.26 448.29,348.26 448.29,354.38 529.81,354.38 529.81,359.66 448.29,359.66 448.29,365.21 529.81,365.21 
			529.81,371.05 448.29,371.05 448.29,376.61 529.81,376.61 529.81,382.17 448.29,382.17 448.29,388.28 529.81,388.28 
			529.81,393.56 448.29,393.56 448.29,399.68 529.81,399.68 529.81,404.68 448.29,404.68 448.29,410.24 529.81,410.24 
			529.81,416.08 448.29,416.08 448.29,421.91 529.81,421.91 529.81,427.75 448.29,427.75 		"/>
	</g>
	<line class="st3" x1="529.81" y1="247.92" x2="529.81" y2="432.75"/>
	<line class="st3" x1="537.4" y1="431.36" x2="537.4" y2="246.26"/>
	<line class="st3" x1="546.2" y1="247.92" x2="546.2" y2="431.36"/>
	<line class="st3" x1="553.79" y1="431.36" x2="553.79" y2="247.92"/>
	<line class="st3" x1="562.58" y1="247.92" x2="562.58" y2="431.36"/>
	<line class="st3" x1="570.97" y1="431.36" x2="570.97" y2="246.26"/>
	<line class="st3" x1="579.77" y1="246.26" x2="579.77" y2="431.36"/>
	<line class="st3" x1="586.96" y1="431.36" x2="586.96" y2="247.92"/>
	<line class="st3" x1="595.35" y1="247.92" x2="595.35" y2="431.36"/>
	<line class="st3" x1="603.34" y1="431.36" x2="603.34" y2="247.92"/>
	<line class="st3" x1="529.81" y1="251.54" x2="611.34" y2="251.54"/>
	<polyline class="st3" points="611.34,257.65 529.81,257.65 529.81,263.21 611.34,263.21 611.34,269.05 529.81,269.05 
		529.81,274.33 611.34,274.33 611.34,280.16 529.81,280.16 529.81,286 611.34,286 611.34,291.28 529.81,291.28 529.81,297.4 
		611.34,297.4 611.34,302.96 529.81,302.96 529.81,308.79 611.34,308.79 611.34,314.35 529.81,314.35 529.81,320.47 611.34,320.47 
		611.34,326.04 529.81,326.04 529.81,331.58 611.34,331.58 611.34,336.86 529.81,336.86 529.81,342.15 611.34,342.15 611.34,348.26 
		529.81,348.26 529.81,354.38 611.34,354.38 611.34,359.66 529.81,359.66 529.81,365.21 611.34,365.21 611.34,371.05 529.81,371.05 
		529.81,376.61 611.34,376.61 611.34,382.17 529.81,382.17 529.81,388.28 611.34,388.28 611.34,393.56 529.81,393.56 529.81,399.68 
		611.34,399.68 611.34,404.68 529.81,404.68 529.81,410.24 611.34,410.24 611.34,416.08 529.81,416.08 529.81,421.91 611.34,421.91 
		611.34,427.75 529.81,427.75 	"/>
</g>
<g>
	<g>
		<path d="M147.93,187.76h2.98v8.92h9.61v-8.92h3v21.45h-3v-9.98h-9.61v9.98h-2.98V187.76z"/>
		<path d="M170.15,201.87c-0.02,2.93,1.22,5.26,3.93,5.26c2.42,0,3.17-1.67,3.45-2.47h2.85c-0.57,2.1-2.17,4.84-6.42,4.84
			c-4.98,0-6.74-3.81-6.74-8.25c0-3.89,1.92-8.19,6.89-8.19c5.03,0,6.51,3.86,6.51,7.59c0,0.11-0.01,1.09-0.03,1.22H170.15z
			 M177.76,199.82c-0.08-2.52-1.09-4.46-3.72-4.46c-2.99,0-3.7,2.66-3.83,4.46H177.76z"/>
		<path d="M195.35,205.58c0,1.09,0.1,2.74,0.24,3.63h-2.61c-0.11-0.53-0.22-1.41-0.23-2.34c-0.62,1.53-2.2,2.62-4.72,2.62
			c-3.88,0-5.1-2.58-5.1-4.81c0-2.47,1.62-5.06,7.26-5.06c0.86,0,1.57,0,2.32,0v-1.46c0-1.46-0.42-2.91-2.95-2.91
			c-2.21,0-2.94,1.04-3.19,2.67h-2.82c0.22-2.62,1.75-4.86,6.09-4.86c3.39,0,5.72,1.32,5.72,4.99V205.58z M192.59,201.64
			c-0.61,0-1.46,0-2.4,0c-3.64,0-4.33,1.48-4.33,2.85c0,1.45,0.88,2.66,2.79,2.66c2.99,0,3.93-2.01,3.93-5.19V201.64z"/>
		<path d="M199.77,198.75c0-2.54-0.02-4.53-0.06-5.37h2.83c0.06,0.74,0.07,1.75,0.07,3.13c0.7-1.84,2.38-3.38,5.06-3.41v2.99
			c-3.5,0.09-5.01,2-5.01,5.46v7.68h-2.89V198.75z"/>
		<path d="M208.12,193.37h2.48v-4.54h2.88v4.54h3.12v2.34h-3.12v9.57c0,1.28,0.32,1.82,1.66,1.82c0.42,0,0.81-0.03,1.17-0.1v2.12
			c-0.65,0.23-1.61,0.28-2.16,0.28c-2.45,0-3.54-0.95-3.54-3.64v-10.05h-2.48V193.37z"/>
		<path d="M230.2,199.62v9.59h-2.96v-21.45h7.81c3.84,0,6.54,1.9,6.54,5.58c0,3.07-1.79,4.45-3.49,5.01
			c2.22,0.74,3.14,2.49,3.14,5.36v0.42c0,1.97,0.06,3.83,0.3,5.08h-2.93c-0.29-0.87-0.37-2.75-0.37-5.07v-0.46
			c0-2.93-1.06-4.06-4.46-4.06H230.2z M230.2,197.18h3.83c2.66,0,4.55-0.75,4.55-3.64c0-2.24-1.52-3.33-3.92-3.33h-4.45V197.18z"/>
		<path d="M256.89,205.58c0,1.09,0.1,2.74,0.24,3.63h-2.61c-0.11-0.53-0.22-1.41-0.23-2.34c-0.62,1.53-2.2,2.62-4.72,2.62
			c-3.88,0-5.1-2.58-5.1-4.81c0-2.47,1.62-5.06,7.26-5.06c0.86,0,1.57,0,2.32,0v-1.46c0-1.46-0.42-2.91-2.95-2.91
			c-2.21,0-2.94,1.04-3.19,2.67h-2.82c0.22-2.62,1.75-4.86,6.09-4.86c3.39,0,5.72,1.32,5.72,4.99V205.58z M254.13,201.64
			c-0.61,0-1.46,0-2.4,0c-3.64,0-4.33,1.48-4.33,2.85c0,1.45,0.88,2.66,2.79,2.66c2.99,0,3.93-2.01,3.93-5.19V201.64z"/>
		<path d="M259.14,193.37h2.48v-4.54h2.88v4.54h3.12v2.34h-3.12v9.57c0,1.28,0.32,1.82,1.66,1.82c0.42,0,0.81-0.03,1.17-0.1v2.12
			c-0.65,0.23-1.61,0.28-2.16,0.28c-2.45,0-3.54-0.95-3.54-3.64v-10.05h-2.48V193.37z"/>
		<path d="M272.23,201.87c-0.02,2.93,1.22,5.26,3.93,5.26c2.42,0,3.17-1.67,3.45-2.47h2.85c-0.57,2.1-2.17,4.84-6.42,4.84
			c-4.98,0-6.74-3.81-6.74-8.25c0-3.89,1.92-8.19,6.89-8.19c5.03,0,6.51,3.86,6.51,7.59c0,0.11-0.01,1.09-0.03,1.22H272.23z
			 M279.84,199.82c-0.08-2.52-1.09-4.46-3.72-4.46c-2.99,0-3.7,2.66-3.83,4.46H279.84z"/>
	</g>
</g>
<g>
	<g>
		<path d="M521.62,217.84v-22.58c-1.55,0.77-4.7,1.4-6.09,1.44v-5.54c4.01-0.87,6.72-3.14,7.97-4.6h5.59v31.28H521.62z"/>
		<path d="M562.46,201.9c0,9.43-3.89,16.59-13.58,16.59c-9.12,0-13.62-7.16-13.62-16.31c0-8.89,4.43-16.28,13.71-16.28
			C557.93,185.91,562.46,193.23,562.46,201.9z M543.03,202.1c0,4.96,1.16,10.45,5.93,10.45c4.84,0,5.77-5.13,5.77-10.62
			c0-4.65-0.93-10.14-5.71-10.14C544.34,191.8,543.03,196.61,543.03,202.1z"/>
		<path d="M572.59,217.84v-22.58c-1.55,0.77-4.7,1.4-6.09,1.44v-5.54c4.01-0.87,6.72-3.14,7.97-4.6h5.59v31.28H572.59z"/>
	</g>
</g>
<g>
	<g>
		<path d="M540.45,219.84h2.41v7.43c0.57-1.02,1.75-2.02,3.9-2.02c3.24,0,5.07,2.69,5.07,6.45c0,4.06-1.73,7.25-5.49,7.25
			c-2,0-3.02-0.86-3.5-1.83c0,0.51-0.04,1.07-0.09,1.6h-2.35c0.03-0.76,0.05-2.23,0.05-3.79V219.84z M549.36,231.8
			c0-2.67-1.05-4.48-3.25-4.48c-2.51,0-3.38,1.63-3.38,4.65c0,3.12,0.73,4.94,3.33,4.94C548.32,236.91,549.36,234.82,549.36,231.8z"
			/>
		<path d="M557.04,237.21v6.7h-2.4v-14.52c0-1.8,0.01-3.05-0.04-3.87h2.36c0.04,0.44,0.06,1.33,0.08,2.05
			c0.61-1.27,1.87-2.31,4.05-2.31c2.84,0,4.94,2.24,4.94,6.66c0,4.41-2.38,7.02-5.49,7.02
			C558.67,238.93,557.59,238.21,557.04,237.21z M563.56,231.98c0-3.11-1.24-4.67-3.26-4.67c-2.59,0-3.37,1.73-3.37,4.85
			c0,2.84,0.57,4.75,3.24,4.75C562.31,236.91,563.56,235.15,563.56,231.98z"/>
		<path d="M568.85,229.62c0-2.4-0.03-3.51-0.05-4.1h2.35c0.05,0.38,0.09,1.35,0.09,1.81c0.63-1.12,1.78-2.07,3.69-2.07
			c1.75,0,2.86,0.81,3.36,2.23c0.58-1.16,1.92-2.23,3.92-2.23c2.05,0,4,1.06,4,4.52v8.94h-2.37v-8.53c0-1.52-0.5-2.87-2.31-2.87
			c-1.97,0-2.79,1.6-2.79,3.69v7.71h-2.36v-8.64c0-1.54-0.64-2.74-2.28-2.74c-1.79,0-2.86,1.32-2.86,3.89v7.49h-2.38V229.62z"/>
	</g>
</g>
<g>
	<g>
		<path class="st4" d="M222.11,346.53c16.34,1.36,32.74,0.46,49.08-0.45c3.2-0.18,3.22-5.18,0-5c-16.34,0.92-32.74,1.81-49.08,0.45
			c-1.35-0.11-2.5,1.23-2.5,2.5C219.61,345.48,220.76,346.42,222.11,346.53L222.11,346.53z"/>
	</g>
</g>
<g>
	<g>
		<path class="st4" d="M273.15,344.91c6.21-6.75,9.4-15.36,11.6-24.13c1.12-4.45,2.02-8.95,3.05-13.42
			c0.45-1.93,0.69-4.54,1.74-6.25c0.84-1.36,1.94-0.38,2.76,0.52c1.48,1.6,2.16,3.62,2.81,5.66c0.86,2.71,1.72,5.42,2.59,8.12
			c1.76,5.52,3.51,11.04,5.27,16.56c3.55,11.14,7.09,22.29,10.64,33.43c1.76,5.52,3.4,11.08,5.27,16.56
			c0.72,2.11,2.13,4.05,4.59,3.96c2.19-0.08,3.93-1.95,4.86-3.78c1.14-2.25,1.38-4.85,1.86-7.3c0.56-2.89,1.12-5.78,1.67-8.67
			c1.08-5.68,2.15-11.36,3.2-17.04c4.21-22.73,8.17-45.51,11.89-68.32c0.93-5.7,1.84-11.41,2.74-17.12c0.16-1.05,0.3-2.1,0.64-3.11
			c0.12-0.35,0.48-1.53,0.87-1.63c0.72-0.18,1.42,3.35,1.59,3.99c2.91,11.29,5.81,22.57,8.72,33.86c0.71,2.74,1.41,5.48,2.12,8.23
			c0.46,1.78,2.9,2.48,4.18,1.1c5.52-5.94,9.79-12.78,12.78-20.32c-1.61,0-3.21,0-4.82,0c4.95,21.33,10.45,43.6,25.33,60.43
			c1.32,1.49,3.62,0.57,4.18-1.1c2.99-8.91,5.95-17.83,8.96-26.73c0.24-0.7,0.59-1.2,0.88-1.86c0.1-0.1,0.2-0.2,0.3-0.3
			c-0.35,0.19-0.68,0.15-1.01-0.13c0.04-0.06,0.19,1.01,0.19,0.54c-0.01,0.91,0.5,2.01,0.72,2.91c0.31,1.26,0.62,2.51,0.94,3.76
			c1.13,4.49,2.31,8.98,3.51,13.45c4.79,17.8,10.11,35.45,15.54,53.06c3.05,9.89,6.13,19.77,9.2,29.66
			c0.39,1.24,1.76,2.18,3.08,1.75c6.92-2.28,6.26-11.57,6.63-17.39c0.53-8.27,0.97-16.55,1.39-24.83
			c0.84-16.34,1.64-32.68,3.18-48.97c1.52-16.2,3.79-32.34,7.53-48.18c0.48-2.03,0.98-4.06,1.51-6.09c0.21-0.79,0.62-3.38,1.66-3.68
			c-0.56,0.16-0.09,0.37,0.17,0.92c0.31,0.66,0.53,1.38,0.76,2.07c0.66,1.98,1.15,4.02,1.56,6.07c1.54,7.7,2.48,15.4,4.77,22.94
			c2.5,8.26,5.94,16.31,10.27,23.78c0.92,1.59,1.98,3.06,3.89,3.42c2,0.38,3.68-0.82,4.83-2.35c1.33-1.77,2.35-3.84,3.47-5.75
			c1.25-2.13,2.49-4.26,3.74-6.39c-1.44,0-2.88,0-4.32,0c5.29,10.3,10.92,20.42,16.9,30.33c1.47,2.43,2.96,4.85,4.46,7.26
			c1.29,2.06,2.5,4.77,5.14,5.24c5.54,0.99,6.43-7.66,7.36-11.21c1.7-6.46,3.39-12.92,5.09-19.38c-0.8,0.61-1.61,1.22-2.41,1.84
			c-0.07-0.01,0.22,0.2,0.12,0.05c-0.13-0.2,0.28,0.25,0.33,0.32c0.15,0.21,0.48,0.92,0.65,1.36c0.58,1.51,1,3.08,1.68,4.55
			c0.67,1.45,1.7,2.84,3.11,3.64c2.15,1.23,4.85,1.1,7.24,1.25c11.23,0.71,22.47,1.42,33.7,2.13c6.43,0.41,12.87,0.82,19.3,1.22
			c3.21,0.2,3.2-4.8,0-5c-11.34-0.72-22.68-1.44-34.03-2.16c-5.56-0.35-11.12-0.7-16.69-1.06c-1.42-0.09-2.84-0.18-4.25-0.27
			c-0.92-0.06-2.08,0.01-2.89-0.53c-0.86-0.58-1.28-1.97-1.62-2.97c-1.21-3.53-2.38-7.16-6.66-7.56c-1.07-0.1-2.15,0.85-2.41,1.84
			c-1.7,6.46-3.39,12.92-5.09,19.38c-0.44,1.67-0.88,3.33-1.31,5c-0.07,0.27-1.02,2.7-1,2.74c0.27-0.14,0.55-0.16,0.83-0.05
			c-0.15-0.16-0.27-0.33-0.37-0.52c-0.27-0.73-0.93-1.48-1.35-2.14c-0.84-1.34-1.67-2.68-2.5-4.02
			c-6.77-11.03-13.12-22.32-19.03-33.84c-0.87-1.7-3.41-1.55-4.32,0c-2.12,3.61-4.21,7.24-6.35,10.83c-0.14,0.24-0.87,1.08-0.88,1.3
			c0.19,0,0.38,0,0.56,0.01c-0.08-0.12-0.16-0.24-0.24-0.37c-0.09-0.38-0.51-0.87-0.7-1.2c-0.97-1.71-1.89-3.44-2.77-5.19
			c-3.37-6.74-6-13.84-7.9-21.14c-1.92-7.41-2.46-15.1-4.45-22.47c-0.8-2.97-1.82-7.63-5.2-8.68c-3.53-1.1-6.07,2.1-7.12,5.05
			c-1.28,3.58-1.97,7.49-2.8,11.19c-0.87,3.87-1.65,7.76-2.36,11.66c-1.46,8.02-2.61,16.1-3.54,24.2
			c-1.86,16.03-2.85,32.14-3.7,48.25c-0.48,9.02-0.91,18.03-1.42,27.05c-0.26,4.6-0.55,9.21-0.87,13.81
			c-0.15,2.17-0.01,6.99-2.65,7.86c1.03,0.58,2.05,1.16,3.08,1.75c-5.95-19.15-11.97-38.28-17.62-57.52
			c-2.86-9.72-5.61-19.47-8.2-29.26c-1.27-4.79-2.49-9.59-3.67-14.41c-0.44-1.8-0.84-3.78-2.49-4.89c-1.75-1.18-3.96-0.8-5.46,0.61
			c-1.75,1.65-2.35,4.03-3.09,6.23c-0.9,2.69-1.81,5.39-2.71,8.08c-1.88,5.6-3.75,11.19-5.63,16.79c1.39-0.37,2.79-0.74,4.18-1.1
			c-14.25-16.11-19.31-37.82-24.04-58.22c-0.61-2.63-3.99-2.1-4.82,0c-2.66,6.69-6.6,12.84-11.5,18.11c1.39,0.37,2.79,0.74,4.18,1.1
			c-2.96-11.5-5.92-22.99-8.88-34.49c-0.76-2.95-1.51-5.91-2.28-8.86c-0.54-2.08-1.35-4.38-3.26-5.6c-4.41-2.82-8.01,1.77-8.84,5.73
			c-1.19,5.62-1.82,11.41-2.74,17.07c-0.96,5.92-1.94,11.84-2.93,17.75c-1.97,11.72-4.01,23.43-6.11,35.13s-4.26,23.39-6.49,35.06
			c-0.57,3-1.15,6-1.73,8.99c-0.26,1.35-0.46,2.73-0.8,4.06c-0.09,0.38-0.2,0.73-0.37,1.08c-0.09,0.19-0.8,1-0.79,1.2
			c0.01,0.12,0.48,0.43,0.64,0.27c0.09-0.1-0.5-1.54-0.55-1.71c-0.46-1.46-0.93-2.92-1.39-4.37c-0.93-2.92-1.86-5.83-2.78-8.75
			c-3.61-11.35-7.23-22.71-10.84-34.06c-1.82-5.73-3.65-11.46-5.47-17.19c-0.9-2.81-1.79-5.62-2.69-8.44
			c-0.72-2.27-1.43-4.53-2.77-6.53c-2.37-3.53-6.87-6.54-10.75-3.17c-1.72,1.5-2.32,3.77-2.86,5.9c-0.59,2.34-1.12,4.69-1.64,7.04
			c-1.97,8.95-3.73,18.3-8.53,26.24c-1.15,1.91-2.47,3.67-3.98,5.31C267.44,343.74,270.96,347.29,273.15,344.91L273.15,344.91z"/>
	</g>
</g>
</svg>
