<svg width="18" height="20" viewBox="0 0 18 20" fill="none" xmlns="http://www.w3.org/2000/svg">
<path d="M4 0C5.78 0 6.67 2.16 5.42 3.42C4.16 4.67 2 3.78 2 2C2 1.46957 2.21071 0.960859 2.58579 0.585786C2.96086 0.210714 3.46957 0 4 0ZM2.5 5H5.5C6.03043 5 6.53914 5.21071 6.91421 5.58579C7.28929 5.96086 7.5 6.46957 7.5 7V12.5H6V20H2V12.5H0.5V7C0.5 6.46957 0.710714 5.96086 1.08579 5.58579C1.46086 5.21071 1.96957 5 2.5 5ZM18 6H12V8H18V6ZM18 9H15V11H18V9ZM18 0H12V2H18V0ZM18 3H15V5H18V3ZM18 12H12V14H18V12ZM18 18H12V20H18V18ZM18 15H15V17H18" fill="#FF7A59"/>
</svg>
