<?xml version="1.0" standalone="no"?>
<!DOCTYPE svg PUBLIC "-//W3C//DTD SVG 20010904//EN"
 "http://www.w3.org/TR/2001/REC-SVG-20010904/DTD/svg10.dtd">
<svg version="1.0" xmlns="http://www.w3.org/2000/svg"
 width="512.000000pt" height="512.000000pt" viewBox="0 0 512.000000 512.000000"
 preserveAspectRatio="xMidYMid meet">

<g transform="translate(0.000000,512.000000) scale(0.100000,-0.100000)"
fill="#000000" stroke="none">
<path d="M1517 4164 c-4 -4 -7 -29 -7 -55 0 -42 -4 -50 -30 -69 -53 -38 -70
-86 -70 -199 0 -97 0 -99 -25 -105 -24 -6 -25 -8 -25 -101 0 -93 1 -95 25
-101 24 -6 25 -9 25 -95 l0 -89 -50 0 -51 0 3 -122 3 -123 48 -3 47 -3 0 -179
0 -179 -72 -3 -73 -3 -3 -327 -2 -327 47 -3 48 -3 3 -562 2 -563 -34 0 c-47 0
-66 -9 -66 -31 0 -19 31 -19 1301 -19 l1300 0 -3 23 c-3 19 -10 22 -51 25
l-47 3 2 562 3 562 48 3 47 3 -2 327 -3 327 -72 3 -73 3 0 179 0 179 48 3 47
3 3 123 3 122 -51 0 -50 0 0 89 c0 86 1 89 25 95 24 6 25 8 25 101 0 93 -1 95
-25 101 -25 6 -25 8 -25 108 0 116 -15 158 -67 191 -28 18 -32 26 -35 75 -3
47 -6 55 -23 55 -17 0 -20 -8 -23 -52 -3 -46 -7 -54 -39 -79 -50 -38 -63 -77
-63 -193 0 -96 -1 -100 -22 -103 -22 -3 -23 -8 -26 -100 -3 -97 -3 -97 23
-104 24 -6 25 -8 25 -95 l0 -89 -50 0 -50 0 0 -125 0 -125 51 0 c49 0 50 -1
47 -27 l-3 -28 -895 0 -895 0 -3 28 c-3 26 -2 27 47 27 l51 0 0 125 0 125 -50
0 -50 0 0 89 c0 87 1 89 25 95 26 7 26 7 23 104 -3 92 -4 97 -25 100 -22 3
-23 7 -23 108 0 119 -10 148 -64 189 -31 23 -35 33 -38 78 -2 37 -7 53 -18 55
-9 1 -19 0 -23 -4z m64 -183 c16 -16 29 -36 29 -44 0 -16 -41 -27 -106 -27
-38 0 -44 3 -44 21 0 25 52 79 75 79 9 0 30 -13 46 -29z m2030 19 c18 -10 49
-59 49 -77 0 -5 -34 -9 -75 -10 -68 -1 -75 1 -75 19 0 21 51 78 70 78 6 0 20
-5 31 -10z m-2001 -195 c0 -62 -1 -65 -24 -65 -21 0 -25 6 -28 33 -2 24 -8 32
-23 32 -15 0 -21 -8 -23 -32 -3 -27 -7 -33 -28 -33 -23 0 -24 3 -24 65 l0 65
75 0 75 0 0 -65z m2050 0 c0 -62 -1 -65 -24 -65 -21 0 -25 6 -28 33 -2 24 -8
32 -23 32 -15 0 -21 -8 -23 -32 -3 -27 -7 -33 -28 -33 -23 0 -24 3 -24 65 l0
65 75 0 75 0 0 -65z m-1995 -170 c0 -47 -2 -50 -27 -53 -24 -3 -28 0 -28 23 0
22 -4 26 -22 23 -15 -2 -24 -11 -26 -25 -2 -17 -10 -23 -27 -23 -17 0 -25 6
-27 23 -2 14 -10 22 -23 22 -13 0 -21 -8 -23 -22 -3 -17 -10 -23 -28 -23 -23
0 -24 3 -24 55 l0 56 128 -3 127 -3 0 -50z m2045 0 c0 -52 -2 -55 -24 -55 -18
0 -25 6 -28 23 -2 14 -10 22 -23 22 -13 0 -21 -8 -23 -22 -2 -17 -10 -23 -27
-23 -17 0 -25 6 -27 23 -2 14 -11 23 -25 25 -19 3 -23 -1 -23 -23 0 -23 -4
-26 -27 -23 -25 3 -28 8 -31 42 -6 66 -6 66 133 66 l125 0 0 -55z m-2100 -195
l0 -90 -75 0 -75 0 0 90 0 90 75 0 75 0 0 -90z m2050 0 l0 -90 -75 0 -75 0 0
90 0 90 75 0 75 0 0 -90z m-1940 -215 l0 -75 -30 0 c-29 0 -30 2 -30 45 0 33
-5 47 -16 52 -21 8 -34 -14 -34 -59 0 -34 -3 -38 -24 -38 -23 0 -25 5 -28 48
-3 39 -6 47 -23 47 -17 0 -20 -8 -23 -47 -3 -43 -6 -48 -27 -48 -21 0 -24 5
-27 48 -3 39 -6 47 -23 47 -17 0 -20 -8 -23 -47 -3 -46 -5 -48 -33 -48 l-29 0
0 75 0 75 185 0 185 0 0 -75z m2044 44 c3 -17 6 -51 6 -75 0 -42 -1 -44 -29
-44 -28 0 -30 2 -33 48 -3 39 -6 47 -23 47 -17 0 -20 -8 -23 -47 -3 -43 -6
-48 -27 -48 -21 0 -24 5 -27 48 -3 39 -6 47 -23 47 -17 0 -20 -8 -23 -47 -3
-43 -5 -48 -28 -48 -21 0 -24 4 -24 38 0 45 -13 67 -34 59 -11 -5 -16 -19 -16
-52 0 -43 -1 -45 -30 -45 l-30 0 0 75 0 75 179 0 179 0 6 -31z m-2154 -349 l0
-180 -75 0 -75 0 0 180 0 180 75 0 75 0 0 -180z m2050 0 l0 -180 -75 0 -75 0
0 180 0 180 75 0 75 0 0 -180z m-202 48 l3 -28 -900 0 -901 0 0 23 c0 13 3 27
7 30 3 4 407 6 897 5 l891 -3 3 -27z m2 -153 l0 -75 -55 0 c-52 0 -55 1 -55
25 0 33 -42 75 -75 75 -33 0 -75 -42 -75 -75 0 -20 -5 -25 -24 -25 -18 0 -25
7 -29 30 -8 38 -40 70 -71 70 -37 0 -76 -37 -76 -71 0 -26 -3 -29 -30 -29 -27
0 -30 3 -30 29 0 34 -39 71 -74 71 -34 0 -65 -28 -72 -65 -5 -28 -11 -35 -29
-35 -17 0 -24 7 -28 30 -8 38 -40 70 -71 70 -37 0 -76 -37 -76 -71 0 -26 -3
-29 -30 -29 -27 0 -30 3 -30 29 0 34 -39 71 -74 71 -34 0 -65 -28 -72 -65 -5
-28 -11 -35 -29 -35 -18 0 -24 7 -29 35 -7 37 -38 65 -72 65 -35 0 -74 -37
-74 -71 0 -26 -3 -29 -30 -29 -27 0 -30 3 -30 29 0 34 -39 71 -76 71 -31 0
-63 -32 -71 -70 -4 -23 -11 -30 -28 -30 -18 0 -24 7 -29 35 -7 38 -38 65 -74
65 -31 0 -72 -43 -72 -75 0 -24 -3 -25 -55 -25 l-55 0 0 75 0 75 900 0 900 0
0 -75z m-1592 -52 c3 -19 -1 -23 -22 -23 -21 0 -26 5 -26 26 0 21 4 25 23 22
14 -2 23 -11 25 -25z m206 11 c11 -28 7 -34 -24 -34 -22 0 -30 5 -30 18 0 10
3 22 7 25 12 13 41 7 47 -9z m204 -11 c3 -19 -1 -23 -22 -23 -21 0 -26 5 -26
26 0 21 4 25 23 22 14 -2 23 -11 25 -25z m206 11 c11 -28 7 -34 -24 -34 -22 0
-30 5 -30 18 0 10 3 22 7 25 12 13 41 7 47 -9z m204 -11 c3 -20 -1 -23 -28
-23 -25 0 -31 3 -26 16 3 9 6 20 6 26 0 21 45 3 48 -19z m202 2 c0 -20 -5 -25
-25 -25 -18 0 -25 5 -25 18 0 10 3 22 7 25 3 4 15 7 25 7 13 0 18 -7 18 -25z
m208 -2 c3 -20 -1 -23 -27 -23 -32 0 -36 6 -25 35 10 24 48 15 52 -12z m202 2
c0 -20 -5 -25 -25 -25 -18 0 -25 5 -25 18 0 10 3 22 7 25 3 4 15 7 25 7 13 0
18 -7 18 -25z m-1530 -360 l0 -285 -232 2 -233 3 -3 283 -2 282 235 0 235 0 0
-285z m102 263 c2 -15 10 -23 23 -23 13 0 21 8 23 23 2 16 10 22 27 22 17 0
25 -6 27 -22 4 -32 42 -31 46 0 5 32 55 28 60 -5 5 -33 42 -31 42 2 0 21 5 25
30 25 25 0 30 -4 30 -25 0 -18 5 -25 20 -25 13 0 22 9 26 25 8 34 51 35 56 3
2 -15 10 -23 23 -23 13 0 21 8 23 23 2 16 10 22 27 22 17 0 25 -6 27 -22 4
-32 42 -31 46 0 5 32 55 28 60 -5 5 -33 42 -31 42 2 0 21 5 25 30 25 25 0 30
-4 30 -25 0 -33 37 -35 42 -2 5 33 55 37 60 5 4 -31 42 -32 46 0 2 16 10 22
27 22 17 0 25 -6 27 -22 2 -15 10 -23 23 -23 13 0 21 8 23 23 5 32 48 31 56
-3 4 -16 13 -25 26 -25 15 0 20 7 20 25 0 21 5 25 30 25 25 0 30 -4 30 -25 0
-18 5 -25 20 -25 15 0 20 7 20 25 0 21 5 25 29 25 23 0 30 -5 33 -22 2 -15 10
-23 23 -23 13 0 21 8 23 23 2 16 10 22 27 22 17 0 25 -6 27 -22 2 -15 10 -23
23 -23 13 0 21 8 23 23 3 16 10 22 28 22 l24 0 0 -285 0 -285 -25 0 -25 0 0
138 c0 157 -13 201 -72 246 -45 34 -69 33 -113 -5 -56 -50 -60 -62 -65 -224
l-5 -150 -27 -3 -28 -3 0 141 c0 160 -8 188 -64 238 -45 39 -68 40 -114 6 -59
-45 -72 -89 -72 -246 l0 -138 -130 0 -130 0 0 138 c0 157 -13 201 -72 246 -46
34 -69 33 -114 -6 -56 -50 -64 -78 -64 -238 l0 -141 -27 3 -28 3 -5 150 c-5
162 -9 174 -65 224 -44 38 -68 39 -113 5 -59 -45 -72 -89 -72 -246 l0 -138
-25 0 -25 0 0 285 0 285 24 0 c18 0 25 -6 28 -22z m1946 -260 l-3 -283 -232
-3 -233 -2 0 285 0 285 235 0 235 0 -2 -282z m-1783 48 c35 -35 46 -92 43
-218 l-3 -113 -77 -3 -78 -3 0 136 c0 139 5 160 43 203 26 28 42 28 72 -2z
m311 -7 l29 -30 3 -150 3 -149 -75 0 -76 0 0 145 0 144 31 36 c17 19 37 35 43
35 7 0 25 -14 42 -31z m496 19 c43 -35 48 -58 48 -205 l0 -143 -75 0 -75 0 0
136 c0 138 5 159 43 202 23 25 37 27 59 10z m324 -19 l29 -30 3 -150 3 -150
-78 3 -78 3 -3 100 c-4 137 3 179 40 220 16 19 36 35 42 35 7 0 25 -14 42 -31z
m-1498 -936 l2 -563 -130 0 -130 0 0 565 0 566 128 -3 127 -3 3 -562z m101
542 c7 -41 51 -36 51 6 0 14 7 19 25 19 20 0 25 -5 25 -24 0 -27 22 -40 39
-23 6 6 11 19 11 29 0 13 8 18 25 18 l25 0 0 -565 0 -565 -130 0 -130 0 0 558
c0 307 3 562 7 566 14 13 48 1 52 -19z m306 10 c3 -8 7 -22 10 -30 6 -21 33
-8 37 18 2 16 10 22 28 22 18 0 26 -6 28 -22 5 -35 32 -37 45 -3 15 39 57 43
57 6 0 -27 22 -40 39 -23 6 6 11 19 11 29 0 13 8 18 25 18 17 0 25 -5 25 -18
0 -10 5 -23 11 -29 17 -17 39 -4 39 23 0 19 5 24 25 24 14 0 27 -6 29 -12 13
-42 16 -47 30 -42 8 3 16 15 18 27 4 31 52 31 56 0 4 -26 31 -39 37 -18 3 8 7
22 10 30 2 8 16 15 30 15 20 0 25 -5 25 -24 0 -27 22 -40 39 -23 6 6 11 19 11
29 0 13 8 18 25 18 17 0 25 -5 25 -18 0 -10 5 -23 11 -29 17 -17 39 -4 39 23
0 19 5 24 25 24 18 0 25 -5 25 -19 0 -42 44 -47 51 -6 6 30 53 28 57 -2 2 -15
10 -23 22 -23 12 0 20 8 22 23 2 16 10 22 28 22 l25 0 3 -562 2 -563 -55 0
-55 0 0 289 c0 256 -2 296 -19 350 -41 132 -127 224 -301 321 l-111 61 -116
-63 c-140 -76 -223 -152 -270 -249 -47 -98 -53 -144 -53 -439 l0 -270 -50 0
-50 0 0 565 0 565 25 0 c14 0 28 -7 30 -15z m1125 -3 c0 -10 5 -23 11 -29 17
-17 39 -4 39 23 0 19 5 24 25 24 18 0 25 -5 25 -19 0 -42 44 -47 51 -6 3 14
12 20 29 20 l25 0 3 -562 2 -563 -130 0 -130 0 0 565 0 565 25 0 c17 0 25 -5
25 -18z m510 -547 l0 -565 -130 0 -130 0 0 558 c0 307 3 562 7 565 3 4 62 7
130 7 l123 0 0 -565z m-1034 336 c160 -94 241 -199 264 -341 5 -36 10 -176 10
-312 l0 -248 -390 0 -390 0 0 253 c0 138 5 279 10 312 14 84 62 177 125 238
50 50 224 156 255 157 8 0 60 -27 116 -59z"/>
<path d="M1380 2610 c-16 -16 -20 -33 -20 -94 0 -83 3 -86 75 -86 72 0 75 4
75 80 0 53 -4 73 -21 94 -26 33 -79 36 -109 6z m78 -78 c3 -50 2 -52 -22 -52
-24 0 -26 3 -26 48 0 53 6 64 30 60 11 -2 16 -18 18 -56z"/>
<path d="M1584 2609 c-13 -14 -20 -40 -22 -88 -5 -84 4 -93 85 -89 l58 3 3 77
c2 67 0 80 -18 98 -27 27 -81 27 -106 -1z m75 -33 c7 -8 11 -32 9 -53 -3 -33
-7 -38 -30 -41 -27 -3 -28 -2 -28 47 0 45 6 57 31 60 4 1 12 -5 18 -13z"/>
<path d="M1385 2355 c-22 -21 -25 -33 -25 -100 l0 -76 73 3 72 3 3 73 c3 66 1
74 -22 97 -32 32 -70 32 -101 0z m73 -78 c3 -45 2 -47 -22 -47 -24 0 -26 4
-26 43 0 48 6 59 30 55 10 -2 16 -17 18 -51z"/>
<path d="M1603 2368 c-31 -15 -45 -56 -41 -124 l3 -59 73 -3 72 -3 0 80 c0 74
-2 81 -26 100 -29 23 -48 25 -81 9z m61 -54 c3 -9 6 -31 6 -50 0 -31 -3 -34
-30 -34 -29 0 -30 2 -30 43 0 24 3 47 7 50 12 13 41 7 47 -9z"/>
<path d="M2510 2460 c-33 -33 -30 -75 6 -107 31 -28 54 -29 88 -2 52 41 23
129 -44 129 -17 0 -39 -9 -50 -20z m74 -39 c10 -16 -5 -41 -24 -41 -23 0 -34
16 -26 35 6 16 42 20 50 6z"/>
<path d="M3430 2610 c-18 -18 -20 -31 -18 -98 l3 -77 58 -3 c81 -4 90 5 85 89
-2 48 -9 74 -22 88 -25 28 -79 28 -106 1z m68 -32 c7 -7 12 -32 12 -56 0 -41
-1 -43 -27 -40 -24 3 -28 8 -31 41 -4 53 20 81 46 55z"/>
<path d="M3631 2604 c-17 -21 -21 -41 -21 -94 0 -76 3 -80 75 -80 72 0 75 3
75 86 0 61 -4 78 -20 94 -30 30 -83 27 -109 -6z m77 -72 c3 -50 2 -52 -22 -52
-24 0 -26 3 -26 48 0 53 6 64 30 60 11 -2 16 -18 18 -56z"/>
<path d="M3436 2359 c-24 -19 -26 -26 -26 -100 l0 -80 73 3 72 3 3 59 c4 70
-10 109 -44 125 -35 16 -48 14 -78 -10z m72 -81 c3 -47 3 -48 -27 -48 -29 0
-31 3 -31 34 0 50 9 68 34 64 17 -2 22 -11 24 -50z"/>
<path d="M3634 2355 c-23 -23 -25 -31 -22 -97 l3 -73 73 -3 72 -3 0 76 c0 67
-3 79 -25 100 -31 32 -69 32 -101 0z m74 -78 c3 -45 2 -47 -22 -47 -24 0 -26
4 -26 43 0 48 6 59 30 55 10 -2 16 -17 18 -51z"/>
<path d="M1796 1949 c-24 -19 -26 -26 -26 -100 l0 -80 73 3 72 3 0 78 c0 71
-2 81 -24 98 -30 25 -62 24 -95 -2z m72 -81 c3 -46 2 -48 -22 -48 -24 0 -26 3
-26 51 0 47 2 50 23 47 19 -3 22 -10 25 -50z"/>
<path d="M1790 1690 c-18 -18 -20 -31 -18 -98 l3 -77 70 0 70 0 3 71 c2 59 -1
75 -18 97 -27 34 -80 37 -110 7z m80 -81 c0 -46 -2 -49 -25 -49 -23 0 -25 3
-25 49 0 31 5 51 13 54 27 9 37 -6 37 -54z"/>
<path d="M1813 1450 c-33 -13 -43 -42 -43 -120 l0 -71 73 3 72 3 3 59 c4 70
-10 109 -44 125 -29 13 -31 13 -61 1z m55 -98 c3 -50 2 -52 -22 -52 -24 0 -26
3 -26 48 0 53 6 64 30 60 11 -2 16 -18 18 -56z"/>
<path d="M1791 1176 c-19 -20 -22 -32 -19 -97 l3 -74 70 0 70 0 3 73 c3 66 1
74 -22 97 -32 32 -75 33 -105 1z m77 -78 c3 -46 2 -48 -22 -48 -24 0 -26 3
-26 51 0 47 2 50 23 47 19 -3 22 -10 25 -50z"/>
<path d="M2106 1949 c-51 -40 -22 -129 43 -129 75 1 102 108 35 139 -35 16
-47 14 -78 -10z m69 -54 c0 -22 -31 -33 -47 -17 -17 17 -1 44 24 40 15 -2 23
-10 23 -23z"/>
<path d="M2933 1958 c-46 -22 -45 -114 2 -132 80 -30 145 71 79 123 -29 23
-48 25 -81 9z m61 -54 c8 -21 -1 -34 -24 -34 -22 0 -34 15 -26 35 7 20 42 19
50 -1z"/>
<path d="M3224 1945 c-23 -23 -25 -31 -22 -97 l3 -73 73 -3 72 -3 0 76 c0 67
-3 79 -25 100 -31 32 -69 32 -101 0z m76 -75 c0 -47 -2 -50 -25 -50 -23 0 -25
4 -25 43 0 48 5 57 32 57 15 0 18 -8 18 -50z"/>
<path d="M3220 1683 c-17 -22 -20 -38 -18 -97 l3 -71 70 0 70 0 3 75 c2 65 0
79 -18 98 -30 32 -82 30 -110 -5z m80 -74 c0 -46 -2 -49 -25 -49 -23 0 -25 3
-25 49 0 31 5 51 13 54 27 9 37 -6 37 -54z"/>
<path d="M3243 1448 c-31 -15 -45 -56 -41 -124 l3 -59 73 -3 72 -3 0 74 c0 57
-4 80 -17 95 -22 26 -61 35 -90 20z m55 -96 c3 -50 2 -52 -22 -52 -24 0 -26 3
-26 48 0 53 6 64 30 60 11 -2 16 -18 18 -56z"/>
<path d="M3224 1175 c-23 -23 -25 -31 -22 -97 l3 -73 70 0 70 0 3 74 c3 65 0
77 -19 97 -30 32 -73 31 -105 -1z m76 -75 c0 -47 -2 -50 -25 -50 -23 0 -25 4
-25 43 0 48 5 57 32 57 15 0 18 -8 18 -50z"/>
</g>
</svg>
