<svg width="182" height="182" viewBox="0 0 182 182" fill="none" xmlns="http://www.w3.org/2000/svg">
<rect width="182" height="182" rx="14" fill="white"/>
<rect x="13" y="13" width="156" height="156" rx="14" fill="#F8F7FF"/>
<path d="M82.1462 79.5063L80.2695 92.2345L91.7624 100.484C91.7624 100.484 97.7063 95.8528 101.439 94.2664C101.439 94.2664 102.408 80.178 102.901 73.1709L82.1462 79.5063Z" fill="#E7E3FE"/>
<path d="M115.814 50.2188C115.814 55.3999 114.35 64.2026 110.222 73.1741C108.625 76.6473 101.301 85.6323 101.301 85.6323C101.301 85.6323 94.8944 86.8305 90.8508 86.8305C83.2632 86.8305 81.6633 84.3666 81.6633 84.3666C81.6633 84.3666 74.4571 76.8295 73.1137 72.0535C72.2597 69.0158 69.7485 52.9832 69.7485 50.2188C69.7485 36.4679 79.5605 25.4543 93.3114 25.4543C107.062 25.4543 115.814 36.4679 115.814 50.2188Z" fill="#E7E3FE"/>
<path d="M111.021 21.4275C110.788 21.0798 102.073 16.9721 93.858 20.2866C86.6585 23.1894 98.9783 15.9966 97.5742 16C88.7478 16.0371 72.3102 20.9583 70.9331 23.0273C67.9392 27.5198 65.8938 41.8209 70.5685 55.7338L114.228 57.7219C114.225 57.7286 122.703 38.8034 111.021 21.4275Z" fill="#E7E3FE"/>
<path d="M73.1173 43.9303C73.1173 50.5661 72.054 55.7404 68.5708 55.7404C65.0875 55.7404 60.4971 50.5695 60.4971 43.9303C60.4971 37.2911 60.4971 31.9143 66.8055 31.9143C70.2922 31.9143 73.1173 37.2911 73.1173 43.9303Z" fill="#E7E3FE"/>
<path d="M113.519 43.9303C113.519 50.5661 114.582 55.7404 118.066 55.7404C121.549 55.7404 126.139 50.5695 126.139 43.9303C126.139 37.2911 126.139 31.9143 119.831 31.9143C116.344 31.9143 113.519 37.2911 113.519 43.9303Z" fill="#E7E3FE"/>
<path d="M19.7031 168.526L28.4789 131.493C29.6163 125.447 32.9241 116.267 38.3415 113.911L41.8551 112.382C77.0324 97.0815 107.103 97.5945 141.875 113.796C147.103 116.233 150.705 121.225 153.243 128.11L161.3 168.523H19.7031V168.526Z" fill="#E7E3FE"/>
<path d="M90.8707 102.026C100.676 102.026 108.625 99.3605 108.625 96.0722C108.625 92.7839 100.676 90.1182 90.8707 90.1182C81.0654 90.1182 73.1167 92.7839 73.1167 96.0722C73.1167 99.3605 81.0654 102.026 90.8707 102.026Z" fill="#E7E3FE"/>
<path d="M108.534 96.0718H73.1167V131.489H108.534V96.0718Z" fill="#E7E3FE"/>
<path d="M85.5415 66.5044H99.5219C99.5219 66.5044 95.3129 73.4946 90.8272 72.2964C86.3414 71.0948 85.5415 66.5044 85.5415 66.5044Z" fill="white"/>
<path d="M73.1167 108.341C73.1167 108.341 91.2319 117.326 106.809 108.341" stroke="white" stroke-width="2" stroke-miterlimit="10" stroke-linecap="round" stroke-linejoin="round"/>
<path d="M47.4985 144.953C47.4985 144.953 105.013 158.798 132.87 144.953" stroke="white" stroke-width="2" stroke-miterlimit="10" stroke-linecap="round" stroke-linejoin="round"/>
</svg>
