<svg width="333" height="408" viewBox="0 0 333 408" fill="none" xmlns="http://www.w3.org/2000/svg">
<path d="M293 179.705C286.88 180.562 282.143 188.738 284.836 193.678C287.053 197.747 294.198 199.449 298.83 196.008C302.548 193.252 304.091 187.591 301.553 183.583C299.688 180.642 296.057 179.279 293 179.705Z" fill="#A5D3E3"/>
<path d="M67.8214 189.743C64.8447 190.163 62.535 194.14 63.8442 196.545C64.925 198.524 68.4019 199.351 70.656 197.679C72.4655 196.335 73.2189 193.585 71.9838 191.63C71.076 190.2 69.3097 189.534 67.8214 189.743Z" fill="#A5D3E3"/>
<path d="M65.6662 345.344C51.5794 327.524 47.9851 301.502 69.0319 236.829C89.9614 172.515 59.2496 182.066 69.9151 139.519C73.04 127.026 82.0874 90.9284 112.515 80.2422C135.643 72.115 146.92 87.1731 179.114 81.0993C215.192 74.2855 221.041 51.5874 244.082 54.43C270.582 57.7043 286.886 90.6756 288.807 94.696C304.598 127.661 263.005 137.256 281.223 226.359C291.462 276.454 306.451 332.154 243.378 366.464C185.611 397.881 96.2482 384.025 65.6662 345.344Z" fill="#A5D3E3"/>
<path d="M115.696 321.073C140.519 321.073 160.643 318.106 160.643 314.445C160.643 310.784 140.519 307.816 115.696 307.816C90.8724 307.816 70.749 310.784 70.749 314.445C70.749 318.106 90.8724 321.073 115.696 321.073Z" fill="#4EBACC"/>
<path d="M197.95 334.041C222.773 334.041 242.896 331.073 242.896 327.412C242.896 323.751 222.773 320.784 197.95 320.784C173.126 320.784 153.003 323.751 153.003 327.412C153.003 331.073 173.126 334.041 197.95 334.041Z" fill="#4EBACC"/>
<path d="M164.107 234.166C164.107 234.166 175.087 234.764 174.568 217.671C174.568 217.671 172.277 224.54 167.917 227.605C167.917 227.605 165.391 228.647 167.151 225.644C168.912 222.641 171.209 219.169 172.148 216.635C173.086 214.094 172.37 211.77 170.925 210.031C169.486 208.292 165.453 204.42 165.453 204.42C165.453 204.42 165.083 215.124 160.797 215.624C160.797 215.624 158.802 215.913 160.457 210.456C162.112 204.999 161.309 201.632 160.099 200.973C158.895 200.313 150.693 196.847 149.909 197.162C149.909 197.162 151.144 202.841 149.001 202.459C146.858 202.076 147.05 198.703 147.05 198.703C147.05 198.703 146.679 196.021 144.042 195.953C141.405 195.885 138.447 195.324 138.447 195.324C138.447 195.324 139.151 198.568 139.25 201.947C139.348 205.326 142.183 206.979 144.894 208.021C147.605 209.063 146.488 210.789 145.481 210.728C144.474 210.666 139.991 209.297 139.169 208.125L138.928 214.199C138.928 214.199 138.157 216.209 141.034 217.356C143.912 218.503 147.976 218.614 147.976 218.614C147.976 218.614 151.292 219.527 149.211 221.038C147.13 222.548 140.658 220.834 139.163 219.175C139.163 219.175 138.262 223.196 141.701 228.894C141.701 228.894 144.604 231.169 151.002 230.565C157.394 229.96 154.677 233.45 154.677 233.45C154.677 233.45 150.885 235.898 145.209 233.944C145.209 233.944 153.194 244.254 162.711 235.183L164.107 234.166Z" fill="#8BC53F"/>
<path d="M164.422 234.295C164.453 234.221 164.453 234.135 164.422 234.055C161.149 224.959 154.806 211.64 143.202 199.807C143.066 199.671 142.844 199.665 142.708 199.801C142.572 199.937 142.566 200.159 142.702 200.294C154.22 212.035 160.513 225.262 163.767 234.289C163.835 234.468 164.033 234.567 164.212 234.499C164.317 234.462 164.391 234.388 164.422 234.295Z" fill="white"/>
<path d="M143.807 99.5983L146.117 103.372C146.117 103.372 160.074 69.9137 162.581 59.3569L169.677 60.8492C169.677 60.8492 162.507 116.605 146.796 122.58C146.796 122.58 137.841 122.377 129.85 106.406L143.807 99.5983Z" fill="#F2915C"/>
<path d="M64.5546 122.543L64.7769 126.964C64.7769 126.964 34.374 107.158 26.3517 99.8384L21.3247 105.061C21.3247 105.061 58.6877 147.115 75.041 143.225C75.041 143.225 82.3283 138.02 79.9259 120.329L64.5546 122.543Z" fill="#F2915C"/>
<path d="M86.2685 69.4261C86.1759 73.3849 81.7417 77.0785 81.7417 77.0785C81.7417 77.0785 94.7292 86.9385 104.549 70.9862C104.549 70.9862 97.6071 70.6286 96.2052 66.7068C95.2788 64.1046 86.3241 67.0768 86.2685 69.4261Z" fill="#F2915C"/>
<path opacity="0.3" d="M83.335 69.044C83.335 69.044 86.8181 73.4714 91.4004 72.4355C96.4583 71.2947 97.817 62.4707 97.817 62.4707L83.335 69.044Z" fill="#D87239"/>
<path d="M72.7682 54.3435C72.7682 54.3435 69.5198 44.2061 69.4025 40.9503C69.2851 37.6945 72.1198 38.379 72.1198 38.379C72.1198 38.379 69.5692 32.8971 73.781 32.188C85.9842 30.1346 91.3324 28.3957 93.6544 27.3536C94.5623 26.9466 95.6121 27.4707 95.8159 28.4389L96.6003 32.2435L100.052 47.2523L72.7682 54.3435Z" fill="#231F20"/>
<path d="M75.7265 58.179C77.468 62.8284 82.9953 73.4468 90.6902 71.2516C98.3852 69.0564 100.034 58.8573 98.7742 50.6746C97.5144 42.492 93.6916 35.7522 86.6884 36.4428C86.6884 36.449 67.8525 37.1458 75.7265 58.179Z" fill="#F2915C"/>
<path d="M97.0327 49.0592C97.0327 49.0592 98.8113 44.897 100.503 45.2669C102.196 45.6369 103.357 51.1928 99.3733 55.9716C99.3733 55.9716 98.4964 58.0312 97.0327 49.0592Z" fill="#F2915C"/>
<path d="M75.8869 54.356C75.8869 54.356 72.3482 51.5257 71.0389 52.6479C69.7235 53.7764 71.3292 59.2151 77.0973 61.5521C77.0973 61.5521 78.8512 62.958 75.8869 54.356Z" fill="#F2915C"/>
<path d="M74.2752 53.2643L75.5782 56.7421L77.1963 56.3351C77.1963 56.3351 75.535 50.2613 75.7203 48.8862C75.9056 47.5111 79.2775 46.6293 78.9934 41.8073C78.9934 41.8073 85.7373 41.9244 93.0123 38.2801L96.5818 51.4699L97.959 51.1246L98.0454 47.1596L95.3096 36.2699L85.4038 34.5063L73.3673 39.5134L72.8671 43.3427C72.8609 43.3488 72.6324 49.9838 74.2752 53.2643Z" fill="#231F20"/>
<path d="M144.592 299.997H129.992L119.068 184.015L101.813 299.997H86.9849L93.2594 164.215H143.542L144.592 299.997Z" fill="#014976"/>
<path d="M88.7155 299.534C87.0234 300.564 83.2006 305.004 75.6045 307.97C71.93 309.407 71.405 314.457 74.7584 316.529C74.8078 316.56 76.2344 317.053 76.29 317.065C82.1755 318.28 96.0399 312.015 100.209 310.042C100.95 309.69 101.419 308.95 101.431 308.136L101.53 299.362L88.7155 299.534Z" fill="#404041"/>
<path d="M79.29 306.108C79.29 306.108 81.4083 306.126 82.4952 308.883" stroke="white" stroke-width="0.5" stroke-miterlimit="10" stroke-linecap="round" stroke-linejoin="round"/>
<path d="M81.5195 304.88C81.5195 304.88 83.2302 304.88 84.3542 307.335" stroke="white" stroke-width="0.5" stroke-miterlimit="10" stroke-linecap="round" stroke-linejoin="round"/>
<path d="M83.2549 303.919C83.2549 303.919 85.262 304.277 86.0093 306.108" stroke="white" stroke-width="0.5" stroke-miterlimit="10" stroke-linecap="round" stroke-linejoin="round"/>
<path d="M100.497 307.335C99.7253 307.211 84.2551 314.401 79.2899 314.481C74.3246 314.561 72.5151 312.317 72.5151 312.317" stroke="white" stroke-width="0.5" stroke-miterlimit="10" stroke-linecap="round" stroke-linejoin="round"/>
<path d="M142.9 299.534C144.592 300.564 148.414 305.004 156.011 307.97C159.685 309.407 160.21 314.457 156.857 316.529C156.807 316.56 155.381 317.053 155.325 317.065C149.44 318.28 135.575 312.015 131.407 310.042C130.665 309.69 130.196 308.95 130.184 308.136L130.085 299.362L142.9 299.534Z" fill="#404041"/>
<path d="M152.324 306.108C152.324 306.108 150.206 306.126 149.119 308.883" stroke="white" stroke-width="0.5" stroke-miterlimit="10" stroke-linecap="round" stroke-linejoin="round"/>
<path d="M150.1 304.88C150.1 304.88 148.39 304.88 147.266 307.335" stroke="white" stroke-width="0.5" stroke-miterlimit="10" stroke-linecap="round" stroke-linejoin="round"/>
<path d="M148.359 303.919C148.359 303.919 146.352 304.277 145.604 306.108" stroke="white" stroke-width="0.5" stroke-miterlimit="10" stroke-linecap="round" stroke-linejoin="round"/>
<path d="M131.123 307.335C131.895 307.211 147.365 314.401 152.33 314.481C157.295 314.561 159.105 312.317 159.105 312.317" stroke="white" stroke-width="0.5" stroke-miterlimit="10" stroke-linecap="round" stroke-linejoin="round"/>
<path opacity="0.3" d="M133.432 299.997H129.992L119.043 184.188C119.043 184.188 122.619 183.133 123.928 177.688L133.432 299.997Z" fill="#808184"/>
<path d="M145.901 102.736C143.733 108.157 131.555 111.234 131.555 111.234L146.278 165.935C146.278 165.935 129.43 174.71 117.332 177.41C112.391 178.514 108.105 179.143 104.542 179.47H104.536C96.489 180.228 92.1475 179.501 92.1475 179.501L88.1518 159.602C88.1086 159.393 88.0777 159.245 88.0592 159.158C88.053 159.097 88.0468 159.066 88.0468 159.066L81.3709 125.829C81.3709 125.829 65.24 129.942 62.3312 127.599C61.9792 122.58 62.0409 104.556 62.0409 104.556C61.7136 99.6657 63.6899 94.8991 67.4015 91.6864L81.7476 77.0723C93.0059 83.5839 104.554 70.98 104.554 70.98C118.857 72.4229 120.76 75.2409 125.638 76.4495C129.115 77.3128 132.178 79.36 134.328 82.2212L145.901 102.736Z" fill="#007E96"/>
<path d="M131.4 111.221C131.4 111.221 127.837 104.87 126.454 100.634C126.398 100.473 126.157 100.523 126.182 100.695C126.793 105.412 128.831 116.894 134.599 122.561L131.4 111.221Z" fill="#0070AF"/>
<path d="M116.412 177.743C109.143 179.877 92.413 179.988 92.1412 179.507L79.6602 116.296C89.0719 141.676 104.202 174.216 116.412 177.743Z" fill="#014976"/>
<path d="M84.9775 60.6455L92.1228 59.0176C92.1228 59.0176 92.129 63.4697 89.6711 64.2466C87.2193 65.0174 84.9775 60.6455 84.9775 60.6455Z" fill="#F1F1F2" stroke="#AA5917" stroke-miterlimit="10" stroke-linecap="round" stroke-linejoin="round"/>
<path d="M82.5073 51.1245L82.989 52.8449" stroke="#231F20" stroke-width="2" stroke-miterlimit="10" stroke-linecap="round" stroke-linejoin="round"/>
<path d="M89.708 49.0283L90.1897 50.7426" stroke="#231F20" stroke-width="2" stroke-miterlimit="10" stroke-linecap="round" stroke-linejoin="round"/>
<path d="M158.963 40.9872L167.602 39.2668C168.56 39.0695 169.504 39.6738 169.714 40.6296L174.735 63.3647C174.927 64.2219 174.464 65.0913 173.642 65.412L165.324 67.8107C164.329 68.2053 163.211 67.6442 162.934 66.6082L157.592 43.1947C157.332 42.2081 157.956 41.1969 158.963 40.9872Z" fill="#231F20"/>
<path d="M170.462 44.9647C170.462 44.9647 164.502 44.6194 164.582 45.3347C164.669 46.0499 170.344 47.5669 170.344 47.5669C170.344 47.5669 164.959 47.7087 165.132 48.5905C165.305 49.4722 170.443 49.6326 170.443 49.6326C170.443 49.6326 166.645 50.9028 166.787 51.5071C166.929 52.1114 170.795 51.4578 170.795 51.4578C170.795 51.4578 168.782 52.5924 169.177 53.0302C169.572 53.468 173.475 54.2573 174.087 52.3889C174.698 50.5205 174.488 45.0818 170.462 44.9647Z" fill="#F9AF80"/>
<path d="M26.3455 99.8386C26.3455 99.8386 28.4452 90.5521 26.5678 88.6961C24.6904 86.84 23.9246 94.5356 23.9246 94.5356C23.9246 94.5356 2.13056 92.0382 7.02172 100.375C10.1343 105.684 21.3246 105.061 21.3246 105.061" fill="#F2915C"/>
<path d="M79.9072 79.687C79.9072 79.687 97.508 88.474 107.408 71.9976" stroke="#F1F1F2" stroke-miterlimit="10" stroke-linecap="round" stroke-linejoin="round"/>
<path d="M62.4302 123.005C62.4302 123.005 68.0501 125.811 80.1544 122.642" stroke="#F1F1F2" stroke-miterlimit="10" stroke-linecap="round" stroke-linejoin="round"/>
<path d="M144.653 101.497C144.196 101.497 136.773 106.806 132.555 107.355" stroke="#F1F1F2" stroke-miterlimit="10" stroke-linecap="round" stroke-linejoin="round"/>
<path d="M93.4072 176.091C93.4072 176.091 122.804 177.861 145.536 162.667" stroke="#F1F1F2" stroke-miterlimit="10" stroke-linecap="round" stroke-linejoin="round"/>
<path d="M117.82 184.458L100.683 296.297" stroke="#F1F1F2" stroke-width="0.5" stroke-miterlimit="10"/>
<path d="M141.627 169.012L142.362 298.616" stroke="#F1F1F2" stroke-width="0.5" stroke-miterlimit="10"/>
<path d="M74.386 56.1689L75.5285 58.6478C75.5285 58.6478 74.5837 57.47 73.7129 57.2295" stroke="#BA5511" stroke-width="0.75" stroke-miterlimit="10" stroke-linecap="round" stroke-linejoin="round"/>
<path d="M99.2621 48.6089C99.2621 48.6089 99.4227 50.6561 99.2065 52.4937C99.2065 52.4937 99.3115 50.7116 100.361 50.1875" stroke="#BA5511" stroke-width="0.75" stroke-miterlimit="10" stroke-linecap="round" stroke-linejoin="round"/>
<path d="M88.6953 65.9792C88.6953 65.9792 89.4302 64.7213 91.3756 65.0851" stroke="#BA5511" stroke-width="0.75" stroke-miterlimit="10" stroke-linecap="round" stroke-linejoin="round"/>
<path d="M310.681 72.6513C310.681 72.6513 310.298 73.2063 309.693 74.1682C308.414 76.1846 306.142 79.983 304.326 84.0898C301.652 90.1513 295.279 91.0577 289.585 90.9529C283.897 90.8419 284.644 94.8007 286.521 95.4296C288.399 96.0524 297.545 96.8787 299.898 95.3618L295.841 106.566C295.841 106.566 295.754 110.778 289.69 110.741C283.625 110.704 276.159 107.91 276.159 107.91C276.159 107.91 269.458 107.115 272.12 111.394C274.781 115.68 287.8 117.339 291.746 115.433C291.746 115.433 290.406 123.388 279.951 131.207C279.951 131.207 272.99 133.192 261.831 127.377C250.672 121.562 253.024 129.905 253.024 129.905C253.024 129.905 258.101 137.151 269.847 137.78C269.847 137.78 247.726 150.606 237.153 127.118L235.343 124.239C235.343 124.239 232.521 123.264 229.68 120.471C224.888 115.748 220.028 105.82 228.563 86.5687C228.563 86.5687 227.642 100.733 233.281 109.514C233.281 109.514 237.097 113.275 236.122 106.523C235.146 99.7769 233.546 91.7854 233.725 86.4823C233.898 81.1793 236.924 77.4918 240.827 75.3953C244.737 73.2926 254.92 69.2413 254.92 69.2413C254.92 69.2413 247.676 88.9427 255.087 93.0186C255.087 93.0186 258.49 95.0165 259.527 83.8925C260.565 72.7684 264.511 67.2496 267.192 66.9413C269.872 66.633 287.318 66.3925 288.51 67.5332C288.51 67.5332 282.069 76.9369 286.244 77.8187C290.412 78.6943 292.561 72.4355 292.561 72.4355C292.561 72.4355 295.217 67.8416 300.052 69.6668C304.894 71.492 310.681 72.6513 310.681 72.6513Z" fill="#37B34A"/>
<path d="M234.677 124.232C234.683 124.078 234.738 123.918 234.85 123.795C247.522 109.705 268.89 90.1944 298.712 77.2822C299.058 77.1342 299.46 77.2884 299.608 77.6337C299.756 77.979 299.602 78.3798 299.256 78.5278C269.656 91.3475 248.448 110.71 235.862 124.701C235.609 124.979 235.177 125.003 234.899 124.75C234.745 124.621 234.67 124.424 234.677 124.232Z" fill="white"/>
<path opacity="0.3" d="M310.681 72.6513C310.681 72.6513 310.298 73.2063 309.693 74.1682C277.653 77.5412 241.964 108.829 229.68 120.471C224.888 115.748 220.028 105.82 228.563 86.5687C228.563 86.5687 227.642 100.733 233.281 109.514C233.281 109.514 237.097 113.275 236.122 106.523C235.146 99.7769 233.546 91.7854 233.725 86.4823C233.898 81.1793 236.924 77.4918 240.827 75.3953C244.737 73.2926 254.92 69.2413 254.92 69.2413C254.92 69.2413 247.676 88.9427 255.087 93.0186C255.087 93.0186 258.49 95.0165 259.527 83.8925C260.565 72.7685 264.511 67.2496 267.192 66.9413C269.872 66.633 287.318 66.3925 288.51 67.5332C288.51 67.5332 282.069 76.9369 286.244 77.8187C290.412 78.6943 292.561 72.4355 292.561 72.4355C292.561 72.4355 295.217 67.8416 300.052 69.6668C304.894 71.492 310.681 72.6513 310.681 72.6513Z" fill="#37B34A"/>
<path d="M264.209 325.859H182.214C172.808 325.859 165.188 318.243 165.188 308.858V114.262C165.188 104.87 172.814 97.2612 182.214 97.2612H264.209C273.614 97.2612 281.235 104.877 281.235 114.262V308.852C281.235 318.243 273.614 325.859 264.209 325.859Z" fill="#E6E7E8"/>
<path d="M264.722 301.927H181.708C177.459 301.927 174.019 298.493 174.019 294.25V122.327C174.019 118.085 177.459 114.65 181.708 114.65H264.722C268.971 114.65 272.41 118.085 272.41 122.327V294.25C272.41 298.487 268.964 301.927 264.722 301.927Z" fill="#5CB6E0"/>
<path opacity="0.3" d="M272.182 234.832H220.676V246.165H272.182V234.832Z" fill="white"/>
<path opacity="0.3" d="M272.182 267.575H254.89V278.908H272.182V267.575Z" fill="white"/>
<path opacity="0.3" d="M272.392 201.534H208.689V212.867H272.392V201.534Z" fill="white"/>
<path opacity="0.3" d="M204.589 201.534H174.21V212.867H204.589V201.534Z" fill="white"/>
<path opacity="0.3" d="M217.675 234.832H174.21V246.165H217.675V234.832Z" fill="white"/>
<path opacity="0.3" d="M250.159 267.575H174.42V278.908H250.159V267.575Z" fill="white"/>
<path d="M255.835 143.44C255.835 145.876 253.858 147.849 251.419 147.849C248.98 147.849 247.003 145.876 247.003 143.44" fill="white"/>
<path opacity="0.3" d="M238.962 143.385C238.962 136.516 244.539 130.948 251.419 130.948C258.299 130.948 263.875 136.516 263.875 143.385H238.962Z" fill="white"/>
<path opacity="0.3" d="M251.265 109.224V130.948" stroke="white" stroke-miterlimit="10"/>
<path d="M205.206 298.881L202.365 300.762C202.365 300.762 201.284 304.153 197.919 307.323C193.009 311.935 183.227 316.06 164.823 308.457C164.823 308.457 179.021 309.025 187.679 303.179C187.679 303.179 191.342 299.282 184.616 300.416C177.885 301.557 169.918 303.352 164.607 303.302C159.29 303.259 155.523 300.33 153.33 296.482C151.132 292.634 146.821 282.571 146.821 282.571C146.821 282.571 166.725 289.317 170.628 281.819C170.628 281.819 172.543 278.372 161.377 277.607C150.218 276.849 144.592 273.044 144.221 270.374C143.844 267.71 143.171 250.297 144.289 249.082C144.289 249.082 153.861 255.279 154.639 251.092C155.411 246.911 149.094 244.92 149.094 244.92C149.094 244.92 145.839 243.15 145.771 239.721C145.753 239.049 145.858 238.309 146.142 237.508C146.191 237.366 146.24 237.224 146.29 237.082C147.902 232.303 148.871 226.828 148.871 226.828C148.871 226.828 149.612 227.309 150.86 228.042C152.997 229.3 156.603 231.298 160.475 232.889C166.608 235.405 167.67 241.75 167.707 247.429C167.738 253.115 171.684 252.27 172.265 250.383C172.845 248.496 173.444 239.345 171.87 237.033L183.183 240.8C183.221 240.8 187.401 240.813 187.519 246.843C187.63 252.899 185.011 260.422 185.011 260.422C185.011 260.422 184.382 267.124 188.606 264.362C192.83 261.599 194.17 248.564 192.163 244.679C192.163 244.679 200.167 245.82 208.244 256.062C208.244 256.062 210.406 262.962 204.854 274.24C199.308 285.525 207.602 282.972 207.602 282.972C207.602 282.972 214.735 277.731 215.075 265.984C215.075 265.984 228.464 287.751 205.206 298.881Z" fill="#37B34A"/>
<path opacity="0.3" d="M201.988 301.614C197.079 306.226 194.812 318.935 164.823 308.464C164.823 308.464 179.021 309.032 187.679 303.186C187.679 303.186 191.342 299.289 184.616 300.424C177.885 301.564 169.918 303.359 164.607 303.309C159.29 303.266 155.523 300.337 153.33 296.489C151.132 292.642 146.821 282.578 146.821 282.578C146.821 282.578 166.725 289.324 170.628 281.826C170.628 281.826 172.543 278.379 161.377 277.614C150.218 276.856 144.592 273.051 144.221 270.381C143.844 267.717 143.171 250.304 144.289 249.089C144.289 249.089 153.861 255.286 154.639 251.099C155.411 246.918 149.094 244.927 149.094 244.927C149.094 244.927 145.839 243.157 145.771 239.728L146.29 237.089L148.877 227.094C148.877 227.094 148.97 226.835 150.193 229.77C156.128 244.051 172.74 280.093 201.988 301.614Z" fill="#37B34A"/>
<path d="M202.377 301.427C202.223 301.427 202.063 301.372 201.933 301.261C187.513 288.959 167.46 268.111 153.793 238.661C153.633 238.321 153.781 237.914 154.127 237.754C154.466 237.594 154.874 237.742 155.035 238.087C168.596 267.315 188.507 288.01 202.822 300.225C203.106 300.472 203.143 300.897 202.896 301.187C202.76 301.347 202.569 301.427 202.377 301.427Z" fill="white"/>
<path d="M210.178 105.863H236.245" stroke="white" stroke-width="2" stroke-miterlimit="10" stroke-linecap="round" stroke-linejoin="round"/>
<path d="M162.168 124.393C159.277 122.086 154.392 114.545 148.89 108.798C143.387 103.051 140.497 98.8457 140.411 94.9239C140.621 89.6394 150.304 101.029 150.304 101.029L154.084 105.758C154.084 105.758 169.646 116.278 172.568 120.434L162.168 124.393Z" fill="#F9AF80"/>
<path d="M208.053 97.6678C208.053 97.6678 204.342 96.1693 186.339 112.529L175.433 122.29L159.333 108.897C159.333 108.897 154.485 108.798 152.793 113.478C152.793 113.478 172.524 137.403 173.605 137.81C174.686 138.217 191.076 134.024 201.766 122.13L208.053 97.6678Z" fill="#F1F1F2"/>
<path d="M212.259 61.7432C212.259 61.7432 196.924 68.9393 208.905 100.264H222.208L212.259 61.7432Z" fill="#231F20"/>
<path opacity="0.3" d="M202.365 108.502C202.365 108.502 192.997 112.27 190.162 122.636C189.211 126.126 188.316 132.237 189.415 131.83C191.885 130.917 194.948 128.58 194.948 128.58L202.365 108.502Z" fill="#D0D2D3"/>
<path d="M237.931 99.7523L241.056 169.906C241.056 169.906 211.326 185.452 197.517 169.906C197.517 169.906 192.015 107.614 207.806 98.445C223.597 89.2757 237.931 99.7523 237.931 99.7523Z" fill="#F4795B"/>
<path d="M228.649 174.648C228.501 175.135 221.93 188.726 215.773 207.274C215.409 208.366 214.834 209.414 214.606 210.579C214.562 210.826 214.513 211.066 214.458 211.313C211.944 223.88 207.164 238.143 203.347 246.917C196.122 263.486 190.471 282.805 188.896 291.753C185.611 310.449 182.85 319.822 182.85 319.822L180.405 319.631L172.895 319.045C173.185 298.092 171.505 267.513 179.534 239.9C190.28 202.933 198.339 174.143 198.339 174.143C209.523 176.344 228.322 174.747 228.649 174.648Z" fill="#014976"/>
<path opacity="0.3" d="M214.457 211.313C211.944 223.88 207.164 238.143 203.347 246.917C196.121 263.486 190.471 282.805 188.896 291.753C185.61 310.449 182.85 319.822 182.85 319.822L180.404 319.631C180.719 314.278 183.239 274.857 192.348 255.365C196.634 246.196 212.654 209.876 212.654 209.876L214.457 211.313Z" fill="#014976"/>
<path d="M235.035 293.911C235.01 294.231 234.998 294.546 234.973 294.867H234.843L232.435 294.873L225.086 294.904L215.989 294.817L207.226 175.172C207.226 175.172 221.251 174.278 232.614 169.69C234.862 168.79 236.992 167.736 238.907 166.521C238.901 166.521 241.982 182.486 235.035 293.911Z" fill="#014976"/>
<path opacity="0.3" d="M234.973 294.817C233.133 294.867 232.435 294.879 232.435 294.879L230.267 294.873C234.695 216.635 234.176 183.565 232.608 169.697C234.856 168.797 236.986 167.742 238.901 166.527C238.901 166.521 241.921 183.398 234.973 294.817Z" fill="#014976"/>
<path d="M214.167 86.5746V96.1016C214.167 96.1016 215.995 101.374 224.727 96.1016L223.813 82.7207L214.167 86.5746Z" fill="#F9AF79"/>
<path d="M226.352 87.5861C226.352 87.5861 221.985 95.7195 213.271 90.9097L222.294 81.9131L226.352 87.5861Z" fill="#EA8A54"/>
<path d="M210.443 64.4688C210.443 64.4688 203.335 84.1331 212.475 90.4227C221.615 96.7062 231.088 78.6636 231.088 78.6636L210.443 64.4688Z" fill="#F9AF80"/>
<path d="M207.806 62.0391C207.806 62.0391 215.791 77.1774 225.407 77.3131C225.407 77.3131 219.441 94.7514 226.21 97.0453C232.978 99.3453 247.065 129.622 247.065 129.622L267.914 111.376L264.394 105.697C264.394 105.697 268.859 108.262 269.539 109.076C270.218 109.89 270.218 108.94 270.218 108.94C270.218 108.94 264.258 96.5458 244.496 86.9079C244.496 86.9079 237.592 84.207 238.407 74.3347C239.222 64.4625 233.306 57.3589 228.526 55.8173C224.098 54.3867 214.445 54.2017 207.806 62.0391Z" fill="#231F20"/>
<path d="M224.851 96.1016C224.851 96.1016 213.581 117.696 214.192 123.375C214.803 129.054 222.517 188.559 228.205 200.189C228.205 200.189 246.479 206.004 255.415 195.188C255.415 195.188 237.678 148.928 242.421 118.818C242.421 118.818 250.104 97.4088 232.54 96.1078C227.519 95.7316 224.851 96.1016 224.851 96.1016Z" fill="#F1F1F2"/>
<path d="M227.618 96.0278C227.618 96.0278 231.261 97.1994 232.564 98.63L225.277 101.75C225.277 101.75 216.816 112.794 214.605 123.197C214.605 123.197 222.282 167.384 228.921 193.505" stroke="#F4795B" stroke-width="0.5" stroke-miterlimit="10" stroke-linecap="round" stroke-linejoin="round"/>
<path opacity="0.3" d="M228.05 134.956C228.816 149.761 231.329 171.466 239.222 183.528C239.222 183.528 231.675 119.065 235.578 105.814C237.042 100.844 236.313 101.503 234.825 104.266C229.761 113.663 227.494 124.3 228.05 134.956Z" fill="#D0D2D3"/>
<path d="M222.801 148.793L219.349 150.415L219.546 174.587L262.887 177.707L260.744 158.018L222.801 148.793Z" fill="#8A5D3B"/>
<path d="M222.801 148.793L261.325 155.551V186.481L221.757 181.801L222.801 148.793Z" fill="#A87C4F"/>
<path d="M236.992 184.632C236.992 184.632 228.112 195.256 229.705 197.63C229.705 197.63 230.767 199.184 233.515 193.912C233.67 193.61 234.127 193.709 234.133 194.048C234.182 195.67 234.114 198.629 233.244 201.25C232.54 203.371 233.886 205.671 236.103 205.955C237.709 206.165 239.228 205.862 239.722 204.228C239.722 204.228 243.137 195.75 242.063 187.074L236.992 184.632Z" fill="#F9AF80"/>
<path d="M239.283 98.439C243.619 101.004 248.022 106.233 248.102 115.162C248.201 125.959 244.916 185.569 243.884 185.569C238.579 185.569 236.208 185.211 236.208 185.211C236.208 185.211 230.495 134.136 230.434 121.649C230.378 109.804 232.595 94.4802 239.283 98.439Z" fill="#F1F1F2"/>
<path d="M213.266 95.9355C213.266 95.9355 205.855 113.164 205.04 123.98C204.224 134.796 204.329 198.968 204.329 198.968C204.329 198.968 193.769 200.048 188.625 197.618C188.625 197.618 193.491 164.659 193.769 129.628C193.775 129.622 194.856 97.5265 213.266 95.9355Z" fill="#F1F1F2"/>
<path d="M172.963 318.262C171.474 318.7 167.695 321.271 161.359 321.974C158.296 322.313 156.875 326.019 158.981 328.263C159.012 328.294 159.988 328.96 160.031 328.979C164.224 331.088 177.07 329.466 180.615 328.818C181.244 328.701 181.751 328.245 181.924 327.628L182.807 319.365L172.963 318.262Z" fill="#404041"/>
<path d="M164.515 321.314C164.515 321.314 166.108 321.758 166.374 324.058" stroke="white" stroke-width="0.5" stroke-miterlimit="10" stroke-linecap="round" stroke-linejoin="round"/>
<path d="M166.441 320.839C166.441 320.839 167.732 321.191 168.084 323.269" stroke="white" stroke-width="0.5" stroke-miterlimit="10" stroke-linecap="round" stroke-linejoin="round"/>
<path d="M167.948 320.463C167.948 320.463 169.387 321.141 169.585 322.677" stroke="white" stroke-width="0.5" stroke-miterlimit="10" stroke-linecap="round" stroke-linejoin="round"/>
<path d="M181.041 326.919C180.479 326.672 166.577 328.584 162.816 327.634C159.055 326.685 158.147 324.631 158.147 324.631" stroke="white" stroke-width="0.5" stroke-miterlimit="10" stroke-linecap="round" stroke-linejoin="round"/>
<path d="M213.154 86.4887C210.993 85.9214 210.548 82.5361 210.548 82.5361C210.548 82.5361 214.519 83.4981 216.601 83.3994C216.668 83.3686 215.477 87.0992 213.154 86.4887Z" fill="#F1F1F2" stroke="#F4795B" stroke-miterlimit="10" stroke-linecap="round" stroke-linejoin="round"/>
<path d="M209.362 96.8726C203.638 98.8889 202.106 101.614 202.106 101.614L206.268 106.813C206.268 106.813 201.81 117.147 203.273 127.864C203.273 127.864 202.946 192.974 202.168 196.613" stroke="#F4795B" stroke-width="0.5" stroke-miterlimit="10" stroke-linecap="round" stroke-linejoin="round"/>
<path d="M211.085 74.4336V76.1972" stroke="#231F20" stroke-miterlimit="10" stroke-linecap="round" stroke-linejoin="round"/>
<path d="M215.254 74.8525V76.6161" stroke="#231F20" stroke-miterlimit="10" stroke-linecap="round" stroke-linejoin="round"/>
<path d="M221.628 320.297C225.809 320.297 229.199 316.912 229.199 312.737C229.199 308.561 225.809 305.177 221.628 305.177C217.446 305.177 214.056 308.561 214.056 312.737C214.056 316.912 217.446 320.297 221.628 320.297Z" fill="#4EBACC"/>
<path d="M118.882 135.696H146.574C148.198 135.696 149.52 134.382 149.52 132.755V90.6757C149.52 89.054 148.205 87.7344 146.574 87.7344H118.882C117.258 87.7344 115.937 89.0478 115.937 90.6757V132.755C115.943 134.382 117.258 135.696 118.882 135.696Z" fill="white"/>
<path d="M121.081 115.779H144.382" stroke="#008CCF" stroke-miterlimit="10" stroke-linecap="round" stroke-linejoin="round"/>
<path d="M121.081 118.51H144.382" stroke="#008CCF" stroke-miterlimit="10" stroke-linecap="round" stroke-linejoin="round"/>
<path d="M121.081 121.242H144.382" stroke="#008CCF" stroke-miterlimit="10" stroke-linecap="round" stroke-linejoin="round"/>
<path d="M121.081 123.968H144.382" stroke="#008CCF" stroke-miterlimit="10" stroke-linecap="round" stroke-linejoin="round"/>
<path d="M121.081 126.699H144.382" stroke="#008CCF" stroke-miterlimit="10" stroke-linecap="round" stroke-linejoin="round"/>
<path d="M121.081 129.425H144.382" stroke="#008CCF" stroke-miterlimit="10" stroke-linecap="round" stroke-linejoin="round"/>
<path d="M133.173 99.062H144.382" stroke="#008CCF" stroke-miterlimit="10" stroke-linecap="round" stroke-linejoin="round"/>
<path d="M133.173 101.793H144.382" stroke="#008CCF" stroke-miterlimit="10" stroke-linecap="round" stroke-linejoin="round"/>
<path d="M121.081 107.251H144.382" stroke="#008CCF" stroke-miterlimit="10" stroke-linecap="round" stroke-linejoin="round"/>
<path d="M121.081 109.976H144.382" stroke="#008CCF" stroke-miterlimit="10" stroke-linecap="round" stroke-linejoin="round"/>
<path d="M121.081 112.708H144.382" stroke="#008CCF" stroke-miterlimit="10" stroke-linecap="round" stroke-linejoin="round"/>
<path d="M126.664 103.89C129.549 103.89 131.888 101.554 131.888 98.6732C131.888 95.7921 129.549 93.4565 126.664 93.4565C123.778 93.4565 121.439 95.7921 121.439 98.6732C121.439 101.554 123.778 103.89 126.664 103.89Z" fill="#EF4351"/>
<path d="M124.138 98.1802C124.138 97.989 124.23 97.8903 124.428 97.8903H125.626V96.6262C125.626 96.4351 125.731 96.3364 125.941 96.3364H127.405C127.596 96.3364 127.695 96.4351 127.695 96.6262V97.8903H128.893C128.973 97.8903 129.041 97.915 129.097 97.9643C129.152 98.0137 129.183 98.0877 129.183 98.174V99.4997C129.183 99.5676 129.159 99.6354 129.103 99.7032C129.054 99.7772 128.979 99.8081 128.893 99.8081H127.695V101.078C127.695 101.158 127.67 101.226 127.621 101.282C127.571 101.337 127.503 101.368 127.405 101.368H125.941C125.873 101.368 125.805 101.343 125.737 101.288C125.663 101.239 125.632 101.165 125.632 101.078V99.8081H124.434C124.243 99.8081 124.144 99.7032 124.144 99.4936V98.1802H124.138Z" fill="white"/>
<path d="M203.174 19.0107C193.25 20.3981 185.561 33.6619 189.927 41.6842C193.522 48.2822 205.113 51.0447 212.635 45.4642C218.663 40.9874 221.17 31.812 217.051 25.3127C214.025 20.5338 208.133 18.3139 203.174 19.0107Z" fill="#4EBACC"/>
<path d="M54.908 344.228C48.7879 345.085 44.0512 353.262 46.7438 358.201C48.9608 362.271 56.1061 363.973 60.7379 360.532C64.4557 357.776 65.9996 352.115 63.4614 348.107C61.5963 345.165 57.965 343.803 54.908 344.228Z" fill="#4EBACC"/>
<path d="M145.679 96.355C145.679 96.355 149.65 97.6561 150.953 98.0446C152.256 98.433 151.082 102.595 150.885 102.595C150.687 102.595 149.193 99.4135 149.193 99.4135C149.193 99.4135 145.876 99.0805 145.679 96.355Z" fill="#F9AF80"/>
<path d="M281.655 281.159C281.408 282.904 277.721 285.402 270.397 285.901C263.073 286.401 264.333 288.664 264.333 288.664C266.889 293.584 279.945 289.157 279.945 289.157C279.945 289.157 277.116 295.761 275.677 298.283C274.238 300.805 271.768 302.723 268.279 302.754C264.796 302.785 259.571 301.607 255.155 300.861C250.74 300.115 253.148 302.674 253.148 302.674C258.824 306.509 268.137 306.133 268.137 306.133C247.788 314.544 243.508 301.089 243.508 301.089L241.649 299.856C241.229 299.652 240.822 299.449 240.439 299.233C226.865 291.778 235.171 278.28 235.171 278.28C235.393 285.981 240.074 289.422 240.074 289.422C240.074 289.422 245.515 291.093 241.878 283.694C238.24 276.294 239.654 271.768 239.654 271.768C244.953 265.047 250.203 264.301 250.203 264.301C248.887 266.847 249.764 275.4 252.537 277.213C255.31 279.026 254.89 274.623 254.89 274.623C254.89 274.623 253.173 269.69 253.253 265.719C253.327 261.772 256.057 261.76 256.094 261.76L263.517 259.287C262.48 260.804 262.875 266.804 263.258 268.044C263.382 268.444 263.734 268.771 264.153 268.913C265 269.178 266.13 268.673 266.235 266.416C266.241 266.317 266.247 266.212 266.247 266.107C266.272 262.383 266.963 258.221 270.99 256.568C275.017 254.916 278.605 252.591 278.605 252.591C278.605 252.591 278.611 252.64 278.629 252.726C278.759 253.429 279.395 256.753 280.396 259.596C281.513 262.796 278.45 264.461 278.45 264.461C278.45 264.461 274.306 265.762 274.819 268.512C275.325 271.256 281.606 267.186 281.606 267.186C282.341 267.988 281.896 279.408 281.655 281.159Z" fill="#8BC53F"/>
<path d="M243.508 301.527C243.613 301.527 243.712 301.49 243.798 301.422C253.26 293.35 266.414 279.673 275.375 260.354C275.48 260.132 275.381 259.867 275.159 259.762C274.936 259.657 274.671 259.756 274.566 259.978C265.673 279.149 252.611 292.727 243.218 300.737C243.033 300.898 243.008 301.181 243.168 301.366C243.255 301.477 243.378 301.527 243.508 301.527Z" fill="white"/>
<path opacity="0.3" d="M264.153 268.913C254.328 280.765 254.204 290.483 240.439 299.233C226.865 291.778 235.171 278.28 235.171 278.28C235.393 285.982 240.074 289.422 240.074 289.422C240.074 289.422 245.515 291.093 241.878 283.694C238.24 276.294 239.654 271.768 239.654 271.768C244.953 265.047 250.203 264.301 250.203 264.301C248.887 266.848 249.764 275.4 252.537 277.213C255.31 279.026 254.89 274.623 254.89 274.623C254.89 274.623 253.173 269.69 253.253 265.719C253.327 261.773 256.057 261.76 256.094 261.76L263.517 259.288C262.48 260.805 262.875 266.804 263.258 268.044C263.382 268.445 263.734 268.771 264.153 268.913Z" fill="#37B34A"/>
<path opacity="0.3" d="M278.629 252.726C275.029 256.254 270.7 261.119 266.235 266.416C266.241 266.317 266.247 266.212 266.247 266.107C266.272 262.383 266.964 258.221 270.99 256.568C275.017 254.916 278.605 252.591 278.605 252.591C278.605 252.591 278.611 252.64 278.629 252.726Z" fill="#37B34A"/>
<path d="M221.627 318.873C225.021 318.873 227.772 316.126 227.772 312.737C227.772 309.349 225.021 306.602 221.627 306.602C218.234 306.602 215.482 309.349 215.482 312.737C215.482 316.126 218.234 318.873 221.627 318.873Z" stroke="#FFFEF9" stroke-miterlimit="10"/>
<path d="M212.753 265.121C209.597 265.299 210.993 264.097 204.576 270.713C194.559 281.042 195.708 296.606 203.668 301.403C210.449 305.485 223.708 303.913 233.874 289.083" fill="#006838"/>
<path d="M211.085 302.914C211.085 302.914 204.805 286.363 209.572 276.386" stroke="white" stroke-miterlimit="10" stroke-linecap="round" stroke-linejoin="round"/>
<path d="M235.875 293.923C234.565 304.973 230.878 313.532 227.513 318.928C224.573 323.639 221.874 325.933 221.226 325.347C220.009 324.243 225.11 316.06 220.238 306.768C216.606 299.849 211.536 300.657 205.984 294.713C199.333 287.584 197.53 279.556 197.869 274.95C198.153 271.188 201.945 267.735 206.88 265.565C211.9 263.345 218.113 262.451 223.01 263.881C234.102 267.125 237.085 283.718 235.875 293.923Z" fill="#37B34A"/>
<path opacity="0.3" d="M227.513 318.928C224.573 323.639 221.874 325.933 221.226 325.347C220.009 324.243 225.11 316.06 220.238 306.768C216.606 299.849 211.536 300.657 205.984 294.713C199.333 287.584 197.53 279.556 197.869 274.95C198.153 271.188 201.945 267.735 206.88 265.564C206.027 270.214 205.786 282.701 220.25 302.34C225.413 309.351 227.377 314.765 227.513 318.928Z" fill="#37B34A"/>
<path d="M208.46 265.071C208.46 265.071 228.748 257.166 226.771 310.326" stroke="white" stroke-miterlimit="10" stroke-linecap="round" stroke-linejoin="round"/>
<path d="M214.828 265.534C214.828 265.534 204.403 266.588 204.008 280.555" stroke="white" stroke-miterlimit="10" stroke-linecap="round" stroke-linejoin="round"/>
<path d="M222.813 275.745C222.813 275.745 212.123 279.106 212.716 296.297" stroke="white" stroke-miterlimit="10" stroke-linecap="round" stroke-linejoin="round"/>
<path d="M226.592 289.163C226.592 289.163 232.793 288.109 233.324 297.728" stroke="white" stroke-miterlimit="10" stroke-linecap="round" stroke-linejoin="round"/>
<path d="M220.355 269.598C220.355 269.598 227.364 268.167 232.311 277.225" stroke="white" stroke-miterlimit="10" stroke-linecap="round" stroke-linejoin="round"/>
<path d="M91.851 35.5427C84.9157 40.8951 76.0845 39.1623 76.0845 39.1623C76.0845 39.1623 76.7144 42.9423 74.979 44.3605" stroke="#F1F1F2" stroke-width="0.5" stroke-miterlimit="10" stroke-linecap="round" stroke-linejoin="round"/>
<path d="M210.165 61.5708C210.165 61.5708 213.321 71.6466 228.247 77.1037C228.247 77.1037 222.992 84.6636 226.148 94.5297" stroke="#F1F1F2" stroke-width="0.5" stroke-miterlimit="10" stroke-linecap="round" stroke-linejoin="round"/>
<path d="M237.283 80.8833C237.283 80.8833 237.703 87.1791 245.694 90.1204C253.685 93.0618 261.671 103.347 261.671 103.347" stroke="#F1F1F2" stroke-width="0.5" stroke-miterlimit="10" stroke-linecap="round" stroke-linejoin="round"/>
</svg>
