<svg width="133" height="134" viewBox="0 0 133 134" fill="none" xmlns="http://www.w3.org/2000/svg">
<mask id="mask0" mask-type="alpha" maskUnits="userSpaceOnUse" x="0" y="0" width="133" height="134">
<rect width="133" height="134" rx="11" fill="white"/>
</mask>
<g mask="url(#mask0)">
<path d="M-1 79C-11.8474 98.0278 -16.9585 123.155 -7.88433 131C27.4403 183.301 107.611 163.901 129 142C150.389 120.099 121.546 95.6708 129 79C136.454 62.3292 127.695 48.835 117 50.7963C108.444 52.3653 105.111 41.9705 105.543 38.3748C106.321 16.4086 70.8669 13.3142 59.5242 17.1277C11.042 -12.9451 7.02341 40.0093 10.5883 50.7963C14.1531 61.5833 6.45389 65.9249 -1 79Z" fill="#FDD7C7" stroke="#FFD3C8"/>
<mask id="mask1" mask-type="alpha" maskUnits="userSpaceOnUse" x="-1" y="-2" width="136" height="136">
<rect x="-1" y="-2" width="136" height="136" fill="#C4C4C4"/>
</mask>
<g mask="url(#mask1)">
<path d="M59.1393 60.2725C59.1393 60.2725 64.6549 66.8973 73.8787 62.2914C83.1025 57.6855 86.7292 150.401 86.7292 150.401L53.4727 150.289L55.4794 60.2695H59.1393V60.2725Z" fill="white"/>
<path d="M70.5995 63.9179C70.5995 63.9179 69.3906 148.114 68.6441 149.226C67.8976 150.338 70.5995 150.402 70.5995 150.402L74.1475 79.8753L74.7973 71.6971L73.8725 62.292L70.5995 63.9179Z" fill="#D1D3D1"/>
<path d="M73.6943 50.5527C73.6943 50.5527 81.2559 51.3234 82.6461 48.3918C84.0364 45.4602 84.0364 42.0633 84.0364 42.0633L86.8138 34.0393C86.8138 34.0393 87.5845 30.7994 82.1838 24.9333C81.404 19.2243 78.9439 9.65598 71.8447 7.80336C64.7455 5.95073 60.4238 10.7349 60.4238 10.7349C60.4238 10.7349 55.023 16.598 47.3073 11.5056C39.5916 6.41313 35.8863 11.968 35.8863 11.968C35.8863 11.968 30.1774 15.5161 32.027 28.1731C31.6582 32.0325 27.3969 35.2723 27.3969 35.2723C27.3969 35.2723 13.9692 42.6949 16.2842 52.3328C18.5992 61.9706 20.4518 59.1932 19.8323 63.8233C19.2127 68.4533 15.0481 76.1691 13.5038 77.251C11.9594 78.333 7.32935 85.1209 15.2022 94.381C23.0751 103.641 19.8323 107.189 19.8323 107.189L33.4142 76.0149C33.4142 76.0149 39.1231 59.0754 53.1674 57.2832C55.1742 53.4842 54.5062 51.7162 57.1809 51.1692C59.8556 50.6222 59.8556 50.6222 59.8556 50.6222L59.9614 35.7347L76.6289 37.2791L72.0865 48.3072L73.6943 50.5527Z" fill="#14253E"/>
<path d="M53.7809 29.4043C53.7809 29.4043 51.7742 32.0276 58.8734 28.4795C61.1884 29.4103 61.4393 31.266 66.5589 29.4103C71.6785 27.5547 73.3801 32.0306 73.3801 32.0306C73.3801 32.0306 75.0785 34.3456 77.856 31.2599C80.6334 28.1742 81.5612 31.8765 81.5612 31.8765C81.5612 31.8765 82.5404 37.123 79.4275 37.5854C76.3146 38.0478 76.9312 37.5854 76.9312 37.5854C76.9312 37.5854 76.6229 42.832 75.0785 45.3012C73.5342 47.7703 69.5237 51.4756 69.5237 51.4756C69.5237 51.4756 62.1162 55.335 58.7223 49.0064C55.3283 42.6779 55.017 39.5922 55.017 39.5922C55.017 39.5922 48.6885 39.4381 49.6163 35.7328C50.5411 32.0276 53.1644 31.5652 53.1644 31.5652L53.7809 29.4043Z" fill="#F8B89C"/>
<path d="M79.4243 54.567C79.4243 54.567 94.2121 53.4881 101.465 68.9195C108.719 84.351 117.208 105.34 117.208 105.34C117.208 105.34 124.461 122.47 109.647 124.477C106.407 124.477 103.472 124.785 97.7632 121.546C92.0542 118.306 80.3249 111.052 80.3249 111.052L89.585 96.3915L96.9925 101.33C96.9925 101.33 81.561 78.0255 83.2565 74.015C84.955 70.0015 82.9482 56.5768 82.9482 56.5768L79.4243 54.567Z" fill="#A6D3E2"/>
<path d="M73.9966 50.5537L77.7018 51.6326L79.4245 54.5642C79.4245 54.5642 83.2839 54.7365 84.6348 55.0689C85.9857 55.4013 102.856 150.402 102.856 150.402H70.5996V109.2L71.9898 89.5192L74.1507 79.8783C74.1507 79.8783 75.2297 72.625 74.6131 69.3852C73.9966 66.1454 73.0688 50.5567 73.0688 50.5567H73.9966V50.5537Z" fill="#A6D3E2"/>
<path d="M72.3856 48.3115L73.8785 62.2953C73.8785 62.2953 66.6584 67.0614 59.1392 60.2765C59.8796 53.2801 60.1576 50.6296 60.1576 50.6296C60.1576 50.6296 68.3418 55.58 72.3856 48.3115Z" fill="#FFA47C"/>
<path d="M79.4243 55.4922L83.9092 66.9162C83.9092 66.9162 74.7035 74.7226 74.6643 75.2031C74.625 75.6837 74.625 75.6837 74.625 75.6837L79.2671 79.8755L73.2227 91.1423L81.703 79.4131L77.082 75.2454L85.4143 67.2214L79.4243 55.4922Z" fill="#189DD3"/>
<path d="M59.9521 50.5537L55.7845 51.3848L42.5139 81.0147L34.1816 149.226H59.9552C59.9552 149.226 61.0341 145.367 59.9552 134.257C58.8762 123.144 59.0304 112.497 59.0304 112.497L58.1056 92.1274L57.7973 77.7749C57.7973 77.7749 57.3349 72.3742 58.4138 68.0524C59.4897 63.7306 59.9521 50.5537 59.9521 50.5537Z" fill="#A6D3E2"/>
<path d="M60.1093 50.5573C60.1093 50.5573 55.4793 50.4606 54.7086 52.6215C53.9379 54.7824 53.3184 55.8613 53.3184 55.8613C53.3184 55.8613 40.6643 60.3372 35.5719 71.2928C30.4794 82.2513 17.9795 111.108 17.9795 111.108C17.9795 111.108 9.8014 132.559 32.3321 127.775C54.8627 122.991 64.4311 110.799 64.4311 110.799L55.171 93.7449L40.48 102.464C40.48 102.464 50.8492 88.2656 52.0823 72.9882C53.3154 57.7109 60.1093 50.5573 60.1093 50.5573Z" fill="#A6D3E2"/>
<path d="M53.0281 56.1143L46.7026 67.3811L55.189 74.4803L51.6409 79.9143L58.2747 95.6207L53.8018 79.9143L57.5041 74.3262L49.3259 66.3777L53.0281 56.1143Z" fill="#189DD3"/>
<path d="M46.4099 89.7578L39.7731 100.71L31.2837 107.193L44.5543 100.094C44.5573 100.094 47.646 96.7059 46.4099 89.7578Z" fill="#189DD3"/>
<path d="M36.938 126.65L40.48 125.571C40.48 125.571 44.004 147.277 40.48 149.226C36.938 149.226 34.1787 149.226 34.1787 149.226L36.938 126.65Z" fill="#189DD3"/>
<path d="M93.4413 98.4734L92.858 95.3364L86.9375 84.5742L91.2804 97.9324L93.4413 98.4734Z" fill="#189DD3"/>
<path d="M97.7634 121.545L102.856 150.404H96.219C96.219 150.404 96.0649 120.774 93.4416 118.305C90.8183 115.833 97.7634 121.545 97.7634 121.545Z" fill="#189DD3"/>
<path d="M108.824 85.3428C108.824 85.3428 123.999 130.694 102.855 123.804C107.794 125.575 113.225 123.553 113.225 123.553C113.225 123.553 120.572 121.28 118.196 108.372C112.886 94.6935 108.824 85.3428 108.824 85.3428Z" fill="#189DD3"/>
<path d="M63.4004 51.9321C63.4004 51.9321 71.2189 58.7654 70.6024 63.9213C73.8784 62.2953 73.8784 62.2953 73.8784 62.2953L72.3855 48.3115C72.3855 48.3115 68.2359 52.999 63.4004 51.9321Z" fill="#F2795B"/>
<path d="M84.8916 103.817C84.8916 103.817 77.1094 97.7635 74.9364 98.0808C72.7604 98.3982 71.5243 96.1043 71.5243 96.1043C71.5243 96.1043 64.7364 96.2373 63.9627 95.3125C63.1921 94.3877 68.901 94.0764 68.901 94.0764C68.901 94.0764 61.7263 94.1036 60.1033 93.3148C58.4804 92.529 67.9732 91.1418 67.9732 91.1418H61.0161C61.0161 91.1418 57.1748 90.0538 61.6507 89.5159C66.1266 88.9809 67.5138 89.5159 67.5138 89.5159L62.1131 87.5907C62.1131 87.5907 62.8838 86.4967 67.668 86.9742C72.4521 87.4517 76.4657 88.5185 76.4657 88.5185C76.4657 88.5185 79.8838 90.2714 80.325 91.1418C80.7663 92.0122 80.7663 92.0122 80.7663 92.0122L88.2342 98.5311L84.8916 103.817Z" fill="#F8B89C"/>
<path d="M61.0161 105.663L66.6979 102.723C66.6979 102.723 68.5958 101.644 68.75 100.87C68.9041 100.096 68.6865 94.0368 70.1009 95.0069C71.5153 95.9741 71.2917 99.1353 71.2917 99.1353C71.2917 99.1353 71.6846 101.952 75.695 96.8596C79.7086 91.7671 79.7085 91.7671 79.7085 91.7671C79.7085 91.7671 82.0236 91.1717 80.7875 93.0123C79.5514 94.8528 78.1642 97.9385 78.1642 97.9385L83.1025 90.2228C83.1025 90.2228 84.3386 89.1438 83.1025 92.2295C81.8664 95.3152 81.7062 97.8509 81.7062 97.8509L85.5717 91.7641C85.5717 91.7641 87.5784 91.6341 86.7292 93.0092C85.8799 94.3874 83.8732 97.8478 83.8732 97.8478L86.9377 95.0039C86.9377 95.0039 87.113 97.4731 82.3288 102.72C80.1679 105.032 79.5514 107.966 75.0755 108.429C70.5996 108.891 68.9011 109.045 68.9011 109.045L63.9628 111.206L61.0161 105.663Z" fill="#F2795B"/>
<path d="M56.3492 68.385C56.3492 65.6862 56.4218 62.9873 56.5759 60.2915C56.724 57.6803 56.8751 55.0358 57.2529 52.4488C57.4251 51.2732 57.7243 50.0643 58.5857 49.1969C58.9272 48.8524 58.3953 48.3174 58.0507 48.662C56.4127 50.3151 56.4127 52.9656 56.2102 55.1325C55.9473 57.9432 55.7689 60.7629 55.6753 63.5857C55.6209 65.1845 55.5967 66.7832 55.5967 68.382C55.5967 68.8685 56.3522 68.8716 56.3492 68.385Z" fill="white"/>
<path d="M73.3557 48.4316C74.7671 48.5706 76.1301 49.163 76.8282 50.4565C77.4901 51.6865 77.5112 53.1705 77.5505 54.5335C77.6563 57.9516 77.5203 61.3788 77.1455 64.7788C76.934 66.7009 76.6439 68.617 76.2782 70.515C76.1875 70.9895 76.9158 71.195 77.0065 70.7145C77.6956 67.1029 78.1247 63.446 78.2759 59.771C78.3514 57.9516 78.3575 56.1292 78.297 54.3098C78.2487 52.8441 78.167 51.2785 77.4236 49.976C76.5774 48.4981 74.9847 47.8362 73.3557 47.6761C72.8721 47.6277 72.8751 48.3833 73.3557 48.4316Z" fill="white"/>
<path d="M75.9604 71.6186C75.1172 75.2574 72.2249 78.2705 68.5771 79.144C64.7631 80.0537 60.5833 78.6181 58.2471 75.4478C56.9808 73.7282 56.2495 71.6549 56.2223 69.5152C56.2132 68.7868 55.0799 68.7838 55.0889 69.5152C55.1403 73.7493 57.7031 77.8353 61.6048 79.558C65.6063 81.323 70.336 80.6581 73.6061 77.7265C75.3076 76.2003 76.5407 74.1482 77.0544 71.9209C77.2176 71.2106 76.1266 70.9084 75.9604 71.6186Z" fill="#0D0D0D"/>
<path d="M69.3574 109.23C69.4844 112.373 69.4058 116.362 66.5105 118.357C65.767 118.871 64.9661 119.07 64.1199 118.671C63.4036 118.333 62.7055 117.822 62.1373 117.275C61.5329 116.695 61.1642 116.009 61.0342 115.181C60.8952 114.313 60.9466 113.406 60.9556 112.53C61.001 108.737 61.3485 104.959 61.7444 101.191C61.9409 99.3199 62.086 97.425 62.4365 95.5754C62.7508 93.9192 63.2767 92.3144 63.8207 90.7247C65.0175 87.2341 66.3564 83.6497 65.7821 79.8961C65.7096 79.4156 64.9812 79.6211 65.0538 80.0956C65.5948 83.6406 64.265 87.1011 63.1347 90.3953C62.5574 92.0757 62.0013 93.7681 61.681 95.518C61.3274 97.4371 61.1732 99.3985 60.9708 101.339C60.5567 105.307 60.2001 109.287 60.194 113.277C60.194 114.144 60.1789 115.038 60.4116 115.882C60.6292 116.67 61.0947 117.338 61.69 117.891C62.8838 118.992 64.5188 120.122 66.178 119.406C67.804 118.704 68.9041 117.072 69.4904 115.459C70.2127 113.473 70.1946 111.312 70.11 109.23C70.0948 108.746 69.3393 108.743 69.3574 109.23Z" fill="#0D0D0D"/>
<path d="M67.692 96.276C68.097 97.7509 68.2874 99.265 68.2663 100.791C68.2602 101.278 69.0158 101.278 69.0218 100.791C69.043 99.2015 68.8405 97.6088 68.4204 96.0735C68.2935 95.6051 67.5651 95.8045 67.692 96.276Z" fill="#0D0D0D"/>
<path d="M73.4671 88.6422C75.1195 88.6422 76.4591 87.3026 76.4591 85.6502C76.4591 83.9978 75.1195 82.6582 73.4671 82.6582C71.8147 82.6582 70.4751 83.9978 70.4751 85.6502C70.4751 87.3026 71.8147 88.6422 73.4671 88.6422Z" fill="white" stroke="#0D0D0D" stroke-miterlimit="10"/>
<path d="M65.9604 39.2111C66.1599 39.9697 66.5558 40.6708 67.1059 41.2299C67.2449 41.369 67.4051 41.4868 67.5411 41.6259C67.5955 41.6803 67.6952 41.783 67.6861 41.8676C67.674 41.9946 67.4987 41.9855 67.402 41.9946C66.9154 42.0278 66.4289 42.0611 65.9423 42.0943C65.7972 42.1034 65.7972 42.33 65.9423 42.321C66.4742 42.2847 67.0212 42.2787 67.5501 42.2091C67.7224 42.185 67.8916 42.0943 67.9098 41.9039C67.9279 41.7135 67.7828 41.5412 67.6498 41.4203C67.3083 41.1121 66.991 40.8068 66.7371 40.42C66.4803 40.0301 66.2929 39.604 66.175 39.1537C66.1448 39.0086 65.9242 39.0691 65.9604 39.2111Z" fill="#B96A28"/>
<path d="M65.19 45.285C64.3982 44.9012 63.6064 44.5174 62.8145 44.1336C62.6846 44.0701 62.5697 44.2665 62.6997 44.33C63.4915 44.7138 64.2834 45.0976 65.0752 45.4815C65.2051 45.5449 65.32 45.3485 65.19 45.285Z" fill="#B96A28"/>
<g opacity="0.15">
<g opacity="0.15">
<path opacity="0.15" d="M58.5408 41.2144C61.5402 41.2144 63.9717 38.7829 63.9717 35.7835C63.9717 32.7841 61.5402 30.3525 58.5408 30.3525C55.5414 30.3525 53.1099 32.7841 53.1099 35.7835C53.1099 38.7829 55.5414 41.2144 58.5408 41.2144Z" fill="#4184A1" stroke="#183319" stroke-miterlimit="10"/>
<path opacity="0.15" d="M71.1707 41.2144C74.1701 41.2144 76.6016 38.7829 76.6016 35.7835C76.6016 32.7841 74.1701 30.3525 71.1707 30.3525C68.1713 30.3525 65.7397 32.7841 65.7397 35.7835C65.7397 38.7829 68.1713 41.2144 71.1707 41.2144Z" fill="#4184A1" stroke="#183319" stroke-miterlimit="10"/>
<g opacity="0.15">
<path d="M63.9717 35.7842C63.9717 35.7842 64.7242 36.4068 65.7397 35.7842H63.9717Z" fill="#4184A1"/>
<path d="M63.9717 35.7842C63.9717 35.7842 64.7242 36.4068 65.7397 35.7842" stroke="#183319" stroke-miterlimit="10"/>
</g>
</g>
</g>
<path d="M58.5408 41.2144C61.5402 41.2144 63.9717 38.7829 63.9717 35.7835C63.9717 32.7841 61.5402 30.3525 58.5408 30.3525C55.5414 30.3525 53.1099 32.7841 53.1099 35.7835C53.1099 38.7829 55.5414 41.2144 58.5408 41.2144Z" stroke="#1E4721" stroke-miterlimit="10"/>
<path d="M71.1707 41.2144C74.1701 41.2144 76.6016 38.7829 76.6016 35.7835C76.6016 32.7841 74.1701 30.3525 71.1707 30.3525C68.1713 30.3525 65.7397 32.7841 65.7397 35.7835C65.7397 38.7829 68.1713 41.2144 71.1707 41.2144Z" stroke="#1E4721" stroke-miterlimit="10"/>
<path d="M63.9717 35.7842C63.9717 35.7842 64.7242 36.4068 65.7397 35.7842" stroke="#1E4721" stroke-miterlimit="10"/>
<path d="M60.109 38.4709C60.3744 38.4709 60.5895 38.0122 60.5895 37.4464C60.5895 36.8806 60.3744 36.4219 60.109 36.4219C59.8436 36.4219 59.6284 36.8806 59.6284 37.4464C59.6284 38.0122 59.8436 38.4709 60.109 38.4709Z" fill="black"/>
<path d="M70.0709 39.0608C70.3363 39.0608 70.5514 38.6021 70.5514 38.0363C70.5514 37.4704 70.3363 37.0117 70.0709 37.0117C69.8055 37.0117 69.5903 37.4704 69.5903 38.0363C69.5903 38.6021 69.8055 39.0608 70.0709 39.0608Z" fill="black"/>
<path d="M60.2756 38.186C60.3674 38.186 60.4418 38.1115 60.4418 38.0197C60.4418 37.9279 60.3674 37.8535 60.2756 37.8535C60.1838 37.8535 60.1094 37.9279 60.1094 38.0197C60.1094 38.1115 60.1838 38.186 60.2756 38.186Z" fill="white"/>
<path d="M70.1613 38.8031C70.2531 38.8031 70.3276 38.7287 70.3276 38.6369C70.3276 38.5451 70.2531 38.4707 70.1613 38.4707C70.0695 38.4707 69.9951 38.5451 69.9951 38.6369C69.9951 38.7287 70.0695 38.8031 70.1613 38.8031Z" fill="white"/>
<path d="M58.7793 35.8413C58.9455 35.4847 59.2538 35.2096 59.6255 35.0948C59.7645 35.0525 59.7041 34.8319 59.5651 34.8772C59.1389 35.0102 58.7702 35.3215 58.5828 35.7295C58.5556 35.7839 58.5677 35.8504 58.6221 35.8836C58.6735 35.9108 58.7521 35.8957 58.7793 35.8413Z" fill="#050606"/>
<path d="M69.8531 35.5326C70.1251 35.6444 70.394 35.7562 70.666 35.8681C70.7235 35.8922 70.79 35.8439 70.8051 35.7895C70.8232 35.723 70.7839 35.6746 70.7265 35.6505C70.4545 35.5386 70.1855 35.4268 69.9135 35.315C69.8561 35.2908 69.7896 35.3392 69.7745 35.3936C69.7563 35.457 69.7956 35.5084 69.8531 35.5326Z" fill="#050606"/>
</g>
</g>
</svg>
