<svg width="133" height="134" viewBox="0 0 133 134" fill="none" xmlns="http://www.w3.org/2000/svg">
<mask id="mask0" mask-type="alpha" maskUnits="userSpaceOnUse" x="0" y="0" width="133" height="134">
<rect width="133" height="134" rx="11" fill="#C4C4C4"/>
</mask>
<g mask="url(#mask0)">
<path d="M4.9446 85.8958C-15.2255 105.667 -4.96804 134.551 2.68194 146.521C51.8142 149.482 148.139 153.626 140.382 146.521C132.624 139.416 135.21 120.649 137.472 112.154C147.493 87.4405 130.684 67.7468 117.432 65.4299C106.829 63.5764 96.6366 52.5583 92.8655 47.2809C37.5271 -15.1209 22.8305 16.9038 22.3995 40.7163C24.9854 47.5383 25.1147 66.125 4.9446 85.8958Z" fill="#FDD7C7"/>
<path d="M53.4114 57.0321C53.4114 57.0321 40.1655 59.5017 35.1857 67.1385C30.2059 74.7752 22.2826 89.0627 21 94.7333C25.5276 96.9246 41.3742 103.729 43.7888 103.729C43.7119 106.679 42.7337 147.655 44.0902 150C48.9193 150 99.5505 150 99.5505 150L98.4954 103.516C98.4954 103.516 113.813 103.504 116 102.897C115.32 96.5455 112.604 83.0131 110.793 78.4026C108.981 73.7921 107.397 68.5568 101.965 62.4036C96.5301 56.2504 82.5719 57.0321 82.5719 57.0321H53.4114Z" fill="#007E96"/>
<path d="M61.3957 49.2842L61 52.5838L68.2728 66L75 52.5838V48L61.3957 49.2842Z" fill="#F1895E"/>
<path d="M54.787 32.4465C54.787 32.4465 52.1738 29.3298 53.8571 24.6675C54.0396 22.7814 50.8967 22.2147 51.0026 21.4678C51.1086 20.7208 51.0997 20.3344 51.0997 20.3344C51.0997 20.3344 54.3544 19.9108 54.1043 18.8003C53.8542 17.6899 53.8041 16.8284 53.8041 16.8284C53.8041 16.8284 55.2373 17.5353 57.1177 17.4266C58.9981 17.3178 72.9292 12.667 76.0338 16.5336C79.1384 20.4002 78.9795 21.1043 78.9795 21.1043C78.9795 21.1043 81.3838 21.5937 81.3838 23.723C81.3838 25.8524 82.5991 30.3057 81.6162 32.209C80.6334 34.1093 79.574 35.4631 79.574 35.4631L74.9891 37L58.9187 36.4219L54.787 32.4465Z" fill="#413F40"/>
<path d="M57.1649 40.3211C57.1649 40.3211 50.2092 39.1632 54.2757 32.1047C55.3449 30.9118 56.6514 31.7314 56.6514 31.7314L56.8826 34.4877C56.8826 34.4877 57.6965 36.0569 58.3633 34.5373C59.03 33.0176 58.09 32.268 58.2462 30.1155C58.4023 27.963 59.03 26 59.03 26C59.03 26 67.8028 29.608 70.4518 28.5813C73.2209 28.0738 73.9057 27.7879 73.9057 27.7879C73.9057 27.7879 72.1247 27.4613 72.0196 26.8896C71.9114 26.3179 74.194 26.0817 75.2782 27.4146C76.3624 28.7476 78.8192 33.4289 77.9722 35.8294C79.7352 36.1473 80.0415 35.8294 80.0415 35.8294C80.0415 35.8294 80.3479 31.8276 81.1918 31.7518C82.0358 31.6759 84.03 37.0311 82.3421 38.5623C80.6542 40.0936 80.0175 39.5774 80.0175 39.5774C80.0175 39.5774 80.1347 46.4812 74.1069 50.0659C68.0792 53.6476 68.0041 52.9768 65.244 52.9039C62.4839 52.831 59.2252 46.7437 59.2252 46.7437C59.2252 46.7437 56.9878 41.2195 57.1649 40.3211Z" fill="#FFB79F"/>
<path d="M110.388 150C110.388 150 117.88 117.418 113.766 103C100.102 103.012 99 103.015 99 103.015L100.027 149.682L110.388 150Z" fill="#FFB79F"/>
<path d="M8.38038 68.9132C8.38038 68.9132 6.37294 63.2127 6.44578 59.7601C6.52153 56.3104 6 53.9097 6 53.9097C6 53.9097 6.14859 53.1604 6.59437 53.9097C7.04014 54.659 8.00745 57.7355 8.00745 57.7355L8.38038 50.8332C8.38038 50.8332 8.60473 48.9585 9.27193 50.8332C9.94205 52.7079 10.5364 56.6101 10.5364 56.6101L11.2794 50.7597C11.2794 50.7597 11.5766 49.1848 11.9495 50.6099C12.3224 52.035 12.7682 57.1302 12.7682 57.1302L13.8841 53.3867C13.8841 53.3867 14.6271 52.1114 14.4785 53.4631C14.3299 54.8147 14.4989 60.6651 14.4989 60.6651L16.0401 58.2644C16.0401 58.2644 17.0803 57.0626 17.0803 58.4907C17.0803 59.9158 16.7831 61.4173 16.4859 63.2186C16.1887 65.0198 13.8084 68.1698 13.8084 68.1698L20.428 98.403L21.4681 94.5772C21.4681 94.5772 41.2745 103.272 42 103.278C40.5869 105.831 35.7504 115.734 28.3121 123.012C27.4205 124.137 24.5915 128.19 21.4681 128.789C18.3448 129.388 16.5588 128.865 14.2512 125.187C11.9524 121.505 6.37294 111.526 8.38038 68.9132Z" fill="#FFB79F"/>
<path d="M54 57.2438C54 57.2438 58.3362 52.7903 60.7739 53.0077C64.2817 59.2531 68 65.8813 68 65.8813C68 65.8813 62.7819 69.2128 62.8522 71.3583C62.9252 73.5039 60.9986 69.581 60.9986 69.581L54 57.2438Z" fill="#009587"/>
<path d="M75.3126 53C75.3126 53 78.1362 53.7831 83 57.2374C80.8032 61.6546 73.8992 72 73.8992 72C73.8992 72 72.959 71.1357 72.8023 70.0249C72.6456 68.9141 68 65.8774 68 65.8774L75.3126 53Z" fill="#009587"/>
<path d="M40 102.472C40 102.472 47.4613 87.3316 47.6819 83.2633C47.9026 79.1949 46.8052 123.534 47.6819 129.499C48.5587 135.464 49 150 49 150H44.3181L44.0258 103.9L40 102.472Z" fill="#009587"/>
<path d="M103 103.442C103 103.442 101.458 100.404 98.3718 87.3232C95.2853 74.2422 98.3718 104 98.3718 104L103 103.442Z" fill="#009587"/>
<path d="M21.2522 95C21.2522 95 19.2176 104.354 19.0059 107.522C18.7942 110.689 24.3509 97.0653 26.5863 97.7891C28.8244 98.516 21.2522 95 21.2522 95Z" fill="#F1895E"/>
<path d="M99 103.544L103 103C103 103 100.904 143.517 103 150L99.89 149.89L99 103.544Z" fill="#F1895E"/>
<path d="M68 66L69 95" stroke="#136944" stroke-width="2" stroke-miterlimit="10"/>
<path d="M63.3313 32.1692C62.0705 32.364 60.9367 33.1228 60.234 34.1799C60.1248 34.3452 60.2015 34.5873 60.3669 34.6848C60.547 34.7911 60.7625 34.7202 60.8718 34.5519C61.4712 33.6484 62.4455 33.0461 63.5262 32.8807C63.724 32.8512 63.8332 32.6032 63.783 32.426C63.7269 32.2164 63.5291 32.1396 63.3313 32.1692Z" fill="#0E0D0C"/>
<path d="M72.3282 32.8447C73.276 32.8624 74.206 33.0632 75.08 33.4263C75.2631 33.5031 75.4845 33.3437 75.5347 33.1694C75.5938 32.9569 75.4609 32.7915 75.2778 32.7148C74.3448 32.328 73.338 32.1272 72.3282 32.1065C71.8528 32.0977 71.8528 32.8358 72.3282 32.8447Z" fill="#0E0D0C"/>
<path d="M62.3533 38.2067C63.3041 38.2067 63.3041 36.7305 62.3533 36.7305C61.4026 36.7305 61.3996 38.2067 62.3533 38.2067Z" fill="#0E0D0C"/>
<path d="M73.1574 37.613C74.1081 37.613 74.1081 36.1367 73.1574 36.1367C72.2067 36.1367 72.2067 37.613 73.1574 37.613Z" fill="#0E0D0C"/>
<path d="M66 46H71C71 46 68.6425 48.25 66 46Z" fill="#FEF4F3" stroke="white" stroke-width="0.25" stroke-miterlimit="10"/>
</g>
</svg>
