<?xml version="1.0" encoding="utf-8"?>
<!-- Generator: Adobe Illustrator 24.0.2, SVG Export Plug-In . SVG Version: 6.00 Build 0)  -->
<svg version="1.1" id="Layer_1" xmlns="http://www.w3.org/2000/svg" xmlns:xlink="http://www.w3.org/1999/xlink" x="0px" y="0px"
	 viewBox="0 0 792 612" style="enable-background:new 0 0 792 612;" xml:space="preserve">
<style type="text/css">
	.st0{fill:#EDF3CA;stroke:#1D783C;stroke-miterlimit:10;}
	.st1{fill:#4F6536;}
	.st2{fill:none;stroke:#D1E288;stroke-miterlimit:10;}
	.st3{fill:#B5B5B6;}
	.st4{fill:#353D4A;}
	.st5{fill:#3F4E5D;}
	.st6{fill:#B17766;}
	.st7{fill:#EEB09F;}
	.st8{fill:#D0ADD2;}
	.st9{fill:#3C312F;}
	.st10{fill:#9D1D56;}
	.st11{fill:#7D1544;}
	.st12{fill:#534944;}
	.st13{fill:#645248;}
	.st14{fill:#E5B45B;stroke:#494948;stroke-miterlimit:10;}
	.st15{fill:#262523;}
	.st16{fill:#CA89BB;}
	.st17{fill:none;stroke:#494948;stroke-width:0.5;stroke-miterlimit:10;}
</style>
<path class="st0" d="M467.7,158.03c20.41-4.71,20.41-4.71,20.41-4.71s31.3,10.36,26.19,59.94c-16.33,10.04-19.73,10.98-19.73,10.98
	s-4.76-35.15-10.89-48.02c-6.12-12.87-15.99-16.95-15.99-16.95"/>
<ellipse class="st1" cx="499.25" cy="185.32" rx="9.69" ry="9.78"/>
<line class="st2" x1="495.43" y1="182.54" x2="502.56" y2="181.63"/>
<line class="st2" x1="496.82" y1="184.78" x2="503.65" y2="183.78"/>
<path class="st2" d="M498.16,182.09c0,0,4.14,2.2,0.83,4.56c5.74,1.91,6.98,2.58,6.98,2.58"/>
<ellipse class="st3" cx="228.76" cy="501.09" rx="86.16" ry="6.08"/>
<ellipse class="st3" cx="541.97" cy="496.2" rx="106.63" ry="13.44"/>
<path class="st4" d="M429.88,367.05l28.36,56.02l19.82,2.97l20.87-19.99v-9.51l-37.13-67.19l-33.54-13.06
	c0,0-19.66,10.45-27.49,22.77c-7.84,12.32-22.39,34.34-27.99,40.31c-5.6,5.97-15.3,13.81-19.78,23.14
	c-4.48,9.33-17.17,21.32-17.17,21.32l19.78,10.41c0,0,11.57,34.34,28.37,4.48c16.8-29.86,7.84-21.65,16.8-29.86
	c8.96-8.21,23.51-31.35,23.51-31.35L429.88,367.05z"/>
<path class="st5" d="M223.1,492.46c0,0,29.86,1.49,41.43-4.11c11.57-5.6,25.01-4.11,25.01-4.11l25.01-6.72
	c0,0,27.25-5.97,32.85-10.08c5.97,0,20.16,0,27.99-8.58c7.84-8.58,73.9,16.89,73.9,16.89s26.79,5.88,29.08,8.12
	c2.28,2.24,39.23,3.73,39.23,3.73l15.3-21.65l9.7-37.7l-25.01-15.68l-15.3-6.53c0,0-22.77,17.06-27.62,17.77s-55.61-4.15-55.61-4.15
	h-3.73c0,0-4.48-2.9-5.23-2.19s-10.82-3.03-10.82-3.03s-21.65-6.72-48.89,7.09s-54.87,19.78-54.87,19.78s-10.45,0.37-11.2,2.99
	c-0.75,2.61-16.42,0.75-16.42,0.75l-14.56,4.29c0,0-8.21-0.18-11.57-3.17c-3.36-2.99-10.45,5.6-10.45,5.6l-10.82-2.43L223.1,492.46z
	"/>
<path class="st6" d="M552.74,288.42l-6.41-11.2l24.39-28.29l10.45,4.65c0,0,2.49,12.94,6.47,14.43S552.74,288.42,552.74,288.42z"/>
<path class="st7" d="M528.17,218.25c0,0-2.49,13.93-2.24,16.67s3.98,4.23,3.98,5.47c0,1.24-7.71,13.69-6.72,16.42
	s6.72,1.99,6.72,1.99s-1.99,5.72,0,6.22c1.99,0.5-1.24,1.99,0,2.99c1.24,1,2.49,4.23,1.74,7.46c-0.75,3.23,3.73,4.98,3.73,4.98
	s13.38,2.99,23.36-7.46s10.23-16.92,10.23-16.92s1-5.47,3.48-1.49c2.49,3.98,8.71-0.25,8.71-1c0-0.75,2.74-11.45,0-14.43
	c-2.74-2.99-12.69-4.98-12.94-2.99c-0.25,1.99-9.49-13.19-9.49-13.19l-17.39-5.97L528.17,218.25z"/>
<path class="st8" d="M548.68,281.34l-0.91-0.01l-11.15,10.7c0,0-9.58,10.33-11.2,10.82c-1.62,0.5-8.34,37.7-8.34,37.7L514.85,351
	c0,0,1.37,9.21,1.37,11.32s-19.53,29.11-19.53,29.11s-3.98,7.96-9.7,12.81c-5.72,4.85-8.93,16.8-8.93,16.8s4.07-5.47,12.16-5.47
	c8.09,0,14.81-5.85,14.81-5.85s4.73-3.67,5.6,0.87c0.87,4.54,5.6,8.58,5.6,8.58s8.96,7.46,11.32,14.31s0.75,6.97,0.75,6.97
	s-1.37,6.47-1.62,7.09c-0.25,0.62-1.62,24.26-1.62,24.26s-2.86,11.07-6.84,19.41c7.59,6.35,51.88,2.61,51.88,2.61
	s31.48-13.06,30.36-20.28c-1.12-7.22,4.6-22.15,4.6-22.15l8.09-6.72c0,0,0,0,1.24-1.99s-1.62-23.27-1.62-23.27l4.73-3.36l-3.23-4.48
	l1.49-51.76l-2.61-42.55l-2.36-16.67l-13-14.06c0,0,1.3-2.49,1.3-3.73s-5.6-7.09-5.6-7.09s-1.74-1.99-2.74-8.71
	c-37.68,13.12-41.95,23.37-42.39,26.13c-0.08,0.49-0.03,0.74-0.03,0.74"/>
<path class="st9" d="M523.69,224.72c0,0,26.38-3.48,28.86,0s-8.46,9.46,4.48,11.45c3.48,6.97,8.46,8.96,8.46,8.96s-1.99,4.48,0,3.48
	c1.99-1,1.49,8.46,1.99-1s0.5-9.46,0.5-9.46s4.98-1.29,8.46-0.64c3.48,0.64,5.97,9.13,2.49,14.34c-3.48,5.22,6.97,16.16,6.97,16.16
	h3.98c0,0-3.48-7.46,0-18.41c3.48-10.95,12.94-28.86,4.48-37.82c-8.46-8.96-13.44-17.42-27.87-16.42c-14.43,1-31.85,0-46.78,19.41
	C519.71,223.23,523.69,224.72,523.69,224.72z"/>
<path class="st6" d="M449.29,302.98c0,0,0.25,2.39,0,3c-0.25,0.61,6.97,4.84,7.09,0.74c0.12-4.11,0.81,1.6,0.81,1.6
	s4.42,2.14,4.6,0.33s-4.17-6.66-4.79-7.15C456.38,300.99,452.27,298.75,449.29,302.98z"/>
<path class="st6" d="M429.5,298c0,0,6.1-0.75,8.34,0s2.36,0,2.36,0s0.79,4.35-1.69,5.72c-2.48,1.37,2.93,10.7,2.93,10.7l-1.49,4.48
	l3.86,7.59l4.48,12.07l-1.99,2.55c0,0-7.22-6.78-8.46-7.9c-1.24-1.12-5.97-6.72-5.97-6.72s-1.37-7.96-0.25-8.34
	c1.12-0.37-3.36-4.98-3.36-4.98s-0.12-2.74,1.62-5.72c1.74-2.99-0.87-6.35-0.87-6.35S429.13,298.62,429.5,298z"/>
<path class="st10" d="M554.17,309.36c0,0,15.68-21.02,32.1-8.91s19.41,29.65,19.41,29.65l1.87,11.01c0,0-10.45,6.16-12.69,8.77
	c-2.24,2.61-44.42,68.3-44.42,68.3s-15.85,14.07-27.34-2.24c12.03-20.16,18.75-33.75,17.26-34.98c-1.49-1.23-7.84-5.34-7.84-5.34
	s15.81-46.28,20.22-51.51C557.15,318.9,554.17,309.36,554.17,309.36z"/>
<path class="st10" d="M478.06,325.25c0,0,7.43,2.99,10.05,2.99s4.48,5.97,5.6,4.11s3.73-9.33,3.73-9.33l25.67-16.05l-7.71,47.83
	l-4.89,1.81l-6.42,3.19l-24.65-26.41L478.06,325.25z"/>
<path class="st11" d="M540.36,380.97c0,0-11.94-10.93-14.56-7.57c-2.61,3.36-12.04,8.05-16.1,35.38c10,13.66,13.4,7.17,13.4,7.17
	l17.26-33.05V380.97z"/>
<polygon class="st12" points="430.62,285.31 439.96,285.31 446.3,303.52 438.52,303.73 432.12,296.69 "/>
<path class="st13" d="M369.41,471l-2.61-9.52l-36.68,12.21c0,0,39.29,2.69,39.29,0C369.41,471,369.41,471,369.41,471z"/>
<path class="st14" d="M528.4,234.03c0,0,3.8-4.35,10.64-1.29c6.84,3.06,0,18.06,0,18.06s-5.51,5-7.79-0.97
	C528.97,243.87,528.4,234.03,528.4,234.03z"/>
<path class="st14" d="M525.66,234.98c0,0,2.24,8.21,1,12.94c-1.24,4.73-1.68,1.49-2.33-3.23
	C523.67,239.96,525.66,234.98,525.66,234.98z"/>
<path class="st7" d="M451.71,306.4c0,0,7.84,3.36,10.08,2.24c2.24-1.12,8.96,6.91,8.96,6.91s7.71,10.08,7.31,11.76
	c-0.4,1.68,0,4.67,0,4.67s17.14,17.54,19,20.53s13.62,13.81,18.29,15.68c4.67,1.87,7.75,5.04,7.75,5.04s-5.7,5.23-13.35,32.85
	c-8.21-8.4-35.83-38.82-38.82-47.78c-4.85-5.6-10.08-6.53-10.08-6.53s-13.06-6.53-14.56-10.64s-1.68-7.09-1.68-7.09l-6.91-7.09
	c0,0-1.49-4.67,0-4.67s-4.11-4.29-4.11-4.29s1.12-7.65,3.92-6.72c2.8,0.93-2.99-4.85-2.99-4.85s3.73-3.92,6.35-2.61
	C443.5,305.09,451.71,306.4,451.71,306.4z"/>
<path class="st7" d="M188.39,415.73c0,0-7.46,5.07-6.72,8.81s20.16,69.8,17.92,74.28c-2.24,4.48,8.58,2.28,8.58,2.28L188.39,415.73z
	"/>
<path class="st15" d="M223.1,492.46c0,0-17.92,19.41-20.9,0c-2.99-19.41-17.92-68.64-17.92-68.64s2.99-12.64,8.96-6.34
	s27.25,31.86,27.25,31.86L223.1,492.46z"/>
<path class="st4" d="M222.69,485.75c0,0,19.82,3.36,29.89,0c10.08-3.36,22.02-9.33,30.61-8.59c8.58,0.75,44.97-5.63,46.93-8.97
	s21-6.7,21-6.7s25.38-12.32,37.32-12.13c11.94,0.19,117.34,30.36,135.75,25.54c-3.6,10.72-4.24,12.35-4.24,12.35
	s-20.67-0.61-23.26-0.81c-2.6-0.2-15.99-1.75-15.99-1.75s-13.79-4.79-20.06-6.28s-57.35-17.68-57.35-17.68s-15.58-5.36-21.74-3.6
	s-11.43,5.9-11.43,5.9s-24.66,9.08-30.56,9.29c-5.9,0.21-25.01,5.23-25.01,5.23l-21.97,5.9c0,0-21.75,0.08-25.46,3.81
	s-13.73,4.09-13.73,4.09s-14.6,1.34-16.48,1.32c-1.87-0.03-13.81-0.18-13.81-0.18L222.69,485.75z"/>
<path class="st11" d="M527.21,408.07c0,0,6.05,8.54,13.14,0c7.09-8.54,57.61-95.49,57.61-95.49s9.95,17.15,9.58,28.53
	c-8.96,2.8-10.82,4.67-10.82,4.67l-14.34,22.91l-31.95,49.5c0,0-14.73,13.44-27.34-2.24L527.21,408.07z"/>
<path class="st16" d="M546.55,282.39c-0.53,11.07-0.53,0.62-0.53,11.07s5.26-3.23,5.26-3.23l-0.58-11.83L546.55,282.39z"/>
<path class="st16" d="M593.48,275.73c8.2,2.3-3.61-7.71-3.61-7.71s-32.96,9.46-37.13,20.4s-4.39,15.1-4.39,15.1
	S580.17,272,593.48,275.73z"/>
<path class="st0" d="M451.34,141.93l26.78,13.84c0,0-15.35,36.91-12.74,52.29s2.61,15.38,2.61,15.38h-24.82c0,0-8.16,0,0-40.75
	S451.34,141.93,451.34,141.93z"/>
<path class="st0" d="M454,238.96l17.3,8.94c0,0-9.91,23.84-8.23,33.77c1.69,9.93,1.69,9.93,1.69,9.93h-16.03c0,0-5.27,0,0-26.32
	S454,238.96,454,238.96z"/>
<path class="st0" d="M399.74,219.93c16.08-4.73,16.08-4.73,16.08-4.73s24.65,10.41,20.63,60.26c-12.86,10.1-15.54,11.04-15.54,11.04
	s-3.75-35.33-8.57-48.27c-4.82-12.93-12.59-17.04-12.59-17.04"/>
<ellipse class="st1" cx="424.59" cy="247.37" rx="7.64" ry="9.83"/>
<line class="st2" x1="421.58" y1="244.57" x2="427.2" y2="243.66"/>
<line class="st2" x1="422.68" y1="246.83" x2="428.06" y2="245.82"/>
<path class="st2" d="M423.73,244.12c0,0,3.26,2.22,0.65,4.58c4.52,1.92,5.5,2.59,5.5,2.59"/>
<ellipse class="st1" cx="455.35" cy="184.39" rx="7.64" ry="9.83"/>
<line class="st2" x1="452.34" y1="181.59" x2="457.96" y2="180.68"/>
<line class="st2" x1="453.44" y1="183.84" x2="458.82" y2="182.83"/>
<path class="st2" d="M454.5,181.13c0,0,3.26,2.22,0.65,4.58c4.52,1.92,5.5,2.59,5.5,2.59"/>
<ellipse class="st1" cx="457.96" cy="265.28" rx="4.42" ry="5.69"/>
<line class="st2" x1="456.22" y1="263.66" x2="459.47" y2="263.13"/>
<line class="st2" x1="456.85" y1="264.97" x2="459.97" y2="264.38"/>
<path class="st2" d="M457.46,263.4c0,0,1.89,1.28,0.38,2.65c2.62,1.11,3.18,1.5,3.18,1.5"/>
<path class="st17" d="M542.08,242.2c23.41,2.92,23.41,2.92,23.41,2.92"/>
<path class="st0" d="M391.05,160.67c0,0,17.97-36.38,19.66-48.3c1.69-11.92,39.72,0,39.72,0s-24.63,56.78-11.07,61.18
	C452.91,177.94,398.4,181.15,391.05,160.67z"/>
<path class="st0" d="M457.46,147.64c0,0-4.3-34.47-7.04-35.27s-37.12-8.5-38.93-2.05c-1.8,6.45,8.91,31.86,4.27,37.32
	C411.13,153.1,453.16,157.08,457.46,147.64z"/>
<ellipse class="st1" cx="435.34" cy="110.88" rx="9.92" ry="3.12"/>
<path class="st0" d="M465.31,154.43c0,0,26.67-18.57,29.18-24.65c2.51-6.09,58.95,0,58.95,0S516.88,158.76,537,161
	C557.12,163.25,476.22,164.89,465.31,154.43z"/>
<path class="st0" d="M563.88,147.78c0,0-6.38-17.59-10.45-18c-4.07-0.41-55.1-4.34-57.77-1.04c-2.67,3.29,13.23,16.26,6.34,19.05
	C495.11,150.57,557.49,152.6,563.88,147.78z"/>
<ellipse class="st1" cx="523.93" cy="130.29" rx="16.42" ry="1.78"/>
<path class="st0" d="M449.94,235.98c0,0,27.33-20.16,32.94-28.85c5.6-8.69,31.72,19.64,31.72,19.64s-39.93,33.16-30.67,43.38
	C493.18,280.37,448.5,255.97,449.94,235.98z"/>
<path class="st0" d="M507.63,258.42c0,0,8.87-29.65,6.97-31.65c-1.9-2-26.61-25.15-30.35-20.89c-3.74,4.26-4.25,29.85-9.91,31.92
	S500.82,263.83,507.63,258.42z"/>
<ellipse transform="matrix(0.5371 -0.8435 0.8435 0.5371 47.0427 521.1904)" class="st1" cx="498.37" cy="217.74" rx="3.01" ry="10.4"/>
</svg>
