<svg width="20" height="20" viewBox="0 0 20 20" fill="none" xmlns="http://www.w3.org/2000/svg">
<path d="M11.8286 16.1155L6.99609 13.3245L7.47484 12.4961L12.3064 15.287L11.8286 16.1155Z" fill="#FF7A59"/>
<path d="M16.7596 17.7051C18.1552 16.387 19.0396 14.5351 19.0396 12.4682C19.0396 9.92168 17.7021 7.6248 15.6224 6.3348L17.9524 2.30168L17.5864 2.09074L18.1611 1.09137L16.6546 0.22168L16.0786 1.21949L15.6933 0.996992L9.9652 10.9195L10.4655 11.2082L9.7552 12.437L11.0139 13.1639L11.7246 11.9345L12.2243 12.2232L14.633 8.05168C15.3756 8.52499 15.987 9.17775 16.4108 9.9497C16.8346 10.7217 17.0571 11.5879 17.0577 12.4686C17.0577 15.3561 14.7071 17.7054 11.8193 17.7054H7.59863V19.6882H19.4793V17.7054H16.7602L16.7596 17.7051Z" fill="#FF7A59"/>
<path d="M6.21344 2.45742V0.883359H6.40719L6.40438 0.505859H4.63906L4.64188 0.883359H4.85V2.45742H3.53281V0.883359H3.72594L3.72375 0.505859H1.95688L1.96031 0.883359H2.16844V2.45742H0.234375V10.3421H8.13094V2.45742H6.21406H6.21344ZM7.46219 9.67461H0.902188V3.12492H2.16813V8.16242C2.16813 8.54367 2.47969 8.85336 2.85562 8.85336C3.23219 8.8518 3.5325 8.54305 3.5325 8.16242V3.12492H4.84969V8.16242C4.84969 8.54367 5.16156 8.85336 5.5375 8.85336C5.91406 8.8518 6.21438 8.54305 6.21375 8.16242V3.12492H7.46219V9.67461Z" fill="#FF7A59"/>
</svg>
