<?xml version="1.0" standalone="no"?>
<!DOCTYPE svg PUBLIC "-//W3C//DTD SVG 20010904//EN"
 "http://www.w3.org/TR/2001/REC-SVG-20010904/DTD/svg10.dtd">
<svg version="1.0" xmlns="http://www.w3.org/2000/svg"
 width="512.000000pt" height="512.000000pt" viewBox="0 0 512.000000 512.000000"
 preserveAspectRatio="xMidYMid meet">

<g transform="translate(0.000000,512.000000) scale(0.100000,-0.100000)"
fill="#000000" stroke="none">
<path d="M1950 3350 c0 -44 -3 -52 -26 -62 -48 -22 -54 -50 -54 -257 0 -189 0
-190 -22 -193 -22 -3 -23 -9 -28 -103 l-5 -100 -371 -1 c-204 0 -376 -4 -382
-8 -8 -5 -12 -39 -12 -96 0 -87 1 -90 25 -96 25 -6 25 -8 25 -105 l0 -99 -59
0 c-71 0 -91 -6 -91 -29 0 -29 49 -164 63 -173 6 -4 29 -8 50 -8 l37 0 0 -535
0 -535 -59 0 c-72 0 -91 -6 -91 -31 0 -19 37 -19 1610 -19 1573 0 1610 0 1610
19 0 25 -19 31 -91 31 l-59 0 0 535 0 535 38 0 c20 0 43 4 49 8 14 9 63 144
63 173 0 23 -20 29 -91 29 l-59 0 0 99 c0 97 0 99 25 105 24 6 25 9 25 96 0
54 -4 91 -11 96 -6 3 -162 6 -348 6 -185 -1 -353 1 -373 4 l-37 6 -3 96 c-3
92 -4 97 -25 100 -23 3 -23 4 -23 193 0 207 -6 235 -54 257 -23 10 -26 18 -26
62 0 43 -3 50 -20 50 -17 0 -20 -7 -20 -50 0 -45 -3 -51 -29 -65 -17 -8 -33
-21 -38 -27 -4 -7 -10 -69 -13 -138 l-5 -125 -485 0 -485 0 -5 125 c-3 69 -9
131 -13 138 -5 6 -21 19 -38 27 -26 14 -29 20 -29 65 0 43 -3 50 -20 50 -17 0
-20 -7 -20 -50z m58 -112 c7 -7 12 -29 12 -50 l0 -38 -50 0 -50 0 0 38 c0 45
14 62 50 62 14 0 31 -5 38 -12z m1180 0 c7 -7 12 -29 12 -50 l0 -38 -50 0 -50
0 0 38 c0 45 14 62 50 62 14 0 31 -5 38 -12z m-1168 -268 l0 -130 -50 0 -50 0
0 130 0 130 50 0 50 0 0 -130z m1180 0 l0 -130 -50 0 -50 0 0 130 0 130 50 0
50 0 0 -130z m-152 -77 l3 -53 -490 0 -491 0 0 48 c0 27 3 52 7 55 3 4 223 6
487 5 l481 -3 3 -52z m-970 -255 l-3 -153 -102 -3 -103 -3 0 156 0 155 105 0
106 0 -3 -152z m922 -3 l0 -155 -440 0 -440 0 0 155 0 155 440 0 440 0 0 -155z
m250 0 l0 -156 -102 3 -103 3 -3 153 -3 152 106 0 105 0 0 -155z m-1430 -100
l0 -55 -360 0 -360 0 0 55 0 55 360 0 360 0 0 -55z m2200 0 l0 -55 -360 0
-360 0 0 55 0 55 360 0 360 0 0 -55z m-2200 -205 l0 -100 -335 0 -335 0 0 100
0 100 335 0 335 0 0 -100z m260 0 l0 -100 -105 0 -105 0 0 100 0 100 105 0
105 0 0 -100z m150 0 l0 -100 -55 0 -55 0 0 100 0 100 55 0 55 0 0 -100z m150
0 l0 -100 -50 0 -50 0 0 100 0 100 50 0 50 0 0 -100z m160 0 l0 -100 -55 0
-55 0 0 100 0 100 55 0 55 0 0 -100z m150 0 l0 -100 -55 0 -55 0 0 100 0 100
55 0 55 0 0 -100z m150 0 l0 -100 -50 0 -50 0 0 100 0 100 50 0 50 0 0 -100z
m160 0 l0 -100 -55 0 -55 0 0 100 0 100 55 0 55 0 0 -100z m250 0 l0 -100
-105 0 -105 0 0 100 0 100 105 0 105 0 0 -100z m720 0 l0 -100 -335 0 -335 0
0 100 0 100 335 0 335 0 0 -100z m-2150 -205 l0 -55 -389 0 -389 0 -16 47 c-9
26 -16 50 -16 55 0 4 182 8 405 8 l405 0 0 -55z m255 0 l0 -50 -102 -3 -103
-3 0 56 0 56 103 -3 102 -3 0 -50z m925 -560 l0 -615 -30 0 -30 0 0 313 c0
341 -5 384 -58 480 -43 80 -105 141 -216 211 -56 36 -106 66 -110 66 -3 0 -50
-29 -104 -63 -109 -72 -178 -140 -216 -216 -51 -100 -56 -140 -56 -478 l0
-313 -30 0 -30 0 0 615 0 615 440 0 440 0 0 -615z m250 560 l0 -56 -102 3
-103 3 -3 39 c-6 65 -4 66 108 66 l100 0 0 -55z m860 48 c0 -5 -8 -29 -17 -55
l-17 -48 -388 0 -388 0 0 55 0 55 405 0 c223 0 405 -3 405 -7z m-2290 -688 l0
-535 -39 0 -40 0 -3 333 -3 332 -27 57 c-32 70 -94 138 -152 169 -43 23 -45
23 -84 5 -53 -24 -124 -98 -159 -166 l-28 -55 -3 -337 -3 -338 -68 0 -68 0 0
535 -1 535 339 0 339 0 0 -535z m260 0 l0 -535 -105 0 -105 0 0 535 0 535 105
0 105 0 0 -535z m1170 0 l0 -535 -105 0 -105 0 0 535 0 535 105 0 105 0 0
-535z m710 0 l0 -535 -59 0 -60 0 -3 333 -3 332 -26 55 c-44 95 -144 190 -199
190 -33 0 -106 -46 -143 -90 -16 -18 -40 -56 -55 -84 l-27 -51 -3 -342 -3
-343 -39 0 -40 0 0 535 0 535 330 0 330 0 0 -535z m-1314 429 c125 -78 185
-148 224 -263 18 -56 20 -85 20 -386 l0 -325 -330 0 -331 0 3 343 3 343 37 75
c20 40 54 91 76 112 46 45 191 146 211 146 7 1 46 -20 87 -45z m-1108 -108
c64 -34 133 -131 147 -209 l7 -37 -182 0 -182 0 7 37 c14 77 84 175 150 211
25 14 21 14 53 -2z m2119 -15 c65 -47 115 -122 128 -194 l7 -37 -182 0 -182 0
7 37 c14 77 84 175 150 211 27 16 27 16 72 -17z m-1967 -561 l0 -280 -24 0
-24 0 -4 193 c-4 205 -8 227 -60 273 -40 37 -65 46 -90 33 -34 -17 -68 -50
-86 -84 -13 -24 -17 -68 -20 -222 l-4 -193 -24 0 -24 0 0 280 0 280 180 0 180
0 0 -280z m2100 0 l0 -280 -24 0 -24 0 -4 193 c-4 205 -9 227 -60 273 -55 51
-81 51 -136 0 -52 -46 -56 -68 -60 -273 l-4 -193 -24 0 -24 0 0 280 0 280 180
0 180 0 0 -280z m-2248 153 c43 -45 48 -73 48 -259 l0 -174 -80 0 -80 0 0 174
c0 99 5 187 11 203 10 27 56 83 69 83 3 0 18 -12 32 -27z m2100 0 c43 -45 48
-73 48 -259 l0 -174 -80 0 -80 0 0 181 c0 114 4 188 11 202 13 25 60 77 69 77
3 0 18 -12 32 -27z"/>
</g>
</svg>
