<svg width="25" height="23" viewBox="0 0 25 23" fill="none" xmlns="http://www.w3.org/2000/svg">
<g clip-path="url(#clip0)">
<path d="M19.7761 4.56464H18.3261C18.2067 4.19996 18.0202 3.8608 17.7761 3.56464C17.4932 3.24828 17.1463 2.99556 16.7584 2.82318C16.3706 2.65079 15.9506 2.56268 15.5261 2.56464H10.0461C9.61833 2.55983 9.19445 2.64657 8.80293 2.81904C8.41141 2.99152 8.06131 3.24574 7.77612 3.56464C7.52497 3.8592 7.3316 4.19845 7.20612 4.56464H5.77612C4.98047 4.56464 4.21741 4.88071 3.6548 5.44332C3.09219 6.00593 2.77612 6.76899 2.77612 7.56464V19.5646C2.77612 20.3603 3.09219 21.1234 3.6548 21.686C4.21741 22.2486 4.98047 22.5646 5.77612 22.5646H19.7761C20.5718 22.5646 21.3348 22.2486 21.8974 21.686C22.4601 21.1234 22.7761 20.3603 22.7761 19.5646V7.56464C22.7761 6.76899 22.4601 6.00593 21.8974 5.44332C21.3348 4.88071 20.5718 4.56464 19.7761 4.56464ZM9.29612 4.90464C9.38983 4.79797 9.50518 4.71248 9.6345 4.65386C9.76382 4.59524 9.90414 4.56482 10.0461 4.56464H15.5061C15.6481 4.56482 15.7884 4.59524 15.9177 4.65386C16.0471 4.71248 16.1624 4.79797 16.2561 4.90464C16.3505 5.00964 16.4216 5.13343 16.4646 5.26787C16.5077 5.40231 16.5219 5.54435 16.5061 5.68464L16.0061 9.68464C15.9766 9.92855 15.8584 10.1531 15.674 10.3154C15.4895 10.4777 15.2518 10.5664 15.0061 10.5646H13.3661L14.5061 8.16464C14.5986 7.92929 14.5984 7.66766 14.5057 7.43241C14.413 7.19717 14.2346 7.00578 14.0064 6.89678C13.7783 6.78777 13.5173 6.76924 13.276 6.84492C13.0348 6.9206 12.8311 7.08486 12.7061 7.30464L11.1461 10.5646H10.5461C10.3004 10.5664 10.0627 10.4777 9.87827 10.3154C9.69383 10.1531 9.5756 9.92855 9.54612 9.68464L9.04612 5.68464C9.03038 5.54435 9.04451 5.40231 9.0876 5.26787C9.13069 5.13343 9.20176 5.00964 9.29612 4.90464ZM20.7761 19.5646C20.7761 19.8299 20.6708 20.0842 20.4832 20.2718C20.2957 20.4593 20.0413 20.5646 19.7761 20.5646H5.77612C5.51091 20.5646 5.25655 20.4593 5.06902 20.2718C4.88148 20.0842 4.77612 19.8299 4.77612 19.5646V7.56464C4.77612 7.29943 4.88148 7.04507 5.06902 6.85754C5.25655 6.67 5.51091 6.56464 5.77612 6.56464H7.14612L7.56612 9.93464C7.65682 10.6646 8.0125 11.3357 8.56559 11.8206C9.11867 12.3055 9.83061 12.5703 10.5661 12.5646H15.0261C15.7616 12.5703 16.4736 12.3055 17.0267 11.8206C17.5797 11.3357 17.9354 10.6646 18.0261 9.93464L18.4061 6.56464H19.7761C20.0413 6.56464 20.2957 6.67 20.4832 6.85754C20.6708 7.04507 20.7761 7.29943 20.7761 7.56464V19.5646ZM14.7761 16.5646H10.7761C10.5109 16.5646 10.2566 16.67 10.069 16.8575C9.88148 17.0451 9.77612 17.2994 9.77612 17.5646C9.77612 17.8299 9.88148 18.0842 10.069 18.2718C10.2566 18.4593 10.5109 18.5646 10.7761 18.5646H14.7761C15.0413 18.5646 15.2957 18.4593 15.4832 18.2718C15.6708 18.0842 15.7761 17.8299 15.7761 17.5646C15.7761 17.2994 15.6708 17.0451 15.4832 16.8575C15.2957 16.67 15.0413 16.5646 14.7761 16.5646Z" fill="#FF7A59"/>
</g>
<defs>
<clipPath id="clip0">
<rect width="23.4965" height="21.5385" fill="white" transform="translate(0.776123 0.564453)"/>
</clipPath>
</defs>
</svg>
