<svg xmlns="http://www.w3.org/2000/svg" width="150.815" height="189.651" viewBox="0 0 150.815 189.651">
  <path id="Subtraction_8" data-name="Subtraction 8" d="M155.5,261.15c-24.8-.8-44.779-3.112-59.394-6.878-8.348-2.152-15.062-4.815-19.953-7.914a27.687,27.687,0,0,1-6.342-5.346,16.77,16.77,0,0,1-3.462-6.376c-1.669-6.051-2.083-11.133-1.266-15.535a18.832,18.832,0,0,1,5.144-9.995c5.073-5.22,12.972-7.969,20.61-10.627,6.047-2.1,11.758-4.093,16.1-7.2,4.912-3.515,7.2-7.862,7.2-13.681,0-6.146-1.664-10.418-5.087-13.059-2.839-2.192-6.958-3.258-12.59-3.258a116.243,116.243,0,0,0-15.876,1.584l-.021,0-.254.037a110.373,110.373,0,0,1-15.192,1.549,24.7,24.7,0,0,1-6.478-.729c-1.817-.5-3.881-.995-6.066-1.524l-.089-.022H52.48l-.028-.007c-4.625-1.119-9.867-2.386-15.2-4.168a67.414,67.414,0,0,1-15.567-7.22,42.008,42.008,0,0,1-6.727-5.392,33.606,33.606,0,0,1-8.973-15.627,42.763,42.763,0,0,1-1.3-10.747,28.413,28.413,0,0,1,3.752-13.359A62.431,62.431,0,0,1,18.329,92.5c6.408-6.732,15.088-13.8,25.8-21H155.5v189.65h0Z" transform="translate(-4.685 -71.5)" fill="#6418c3"/>
</svg>
