<svg width="58" height="58" viewBox="0 0 58 58" fill="none" xmlns="http://www.w3.org/2000/svg">
<path d="M45 32L39 25.5L26 37.5L39 52.5L43.5 51.5L46 50.5L50 48L51 42.5L50 37.5L45 32Z" fill="#AAA4C5" stroke="#AAA4C5"/>
<path d="M48.9711 48.9725C45.157 52.7867 38.9729 52.7867 35.1587 48.9725L23.7911 37.6048L37.6035 23.7924L48.9711 35.1601C52.7853 38.9743 52.7853 45.1583 48.9711 48.9725Z" stroke="#AAA4C5" stroke-width="3"/>
<path d="M9.02752 9.02739C5.21333 12.8416 5.21333 19.0256 9.02752 22.8398L20.3952 34.2074L34.2076 20.395L22.8399 9.02739C19.0257 5.2132 12.8417 5.2132 9.02752 9.02739Z" stroke="#AAA4C5" stroke-width="3"/>
</svg>
