<svg width="20" height="23" viewBox="0 0 20 23" fill="none" xmlns="http://www.w3.org/2000/svg">
<path d="M10 10.9937C9.14286 10.9937 8.57143 11.5723 8.57143 12.4403C8.57143 13.0189 9 13.4528 9.42857 13.5975L9 15.6226H10.8571L10.4286 13.5975C11 13.4528 11.2857 13.0189 11.2857 12.4403C11.4286 11.5723 10.8571 10.9937 10 10.9937ZM10.1429 4.77359C9.14286 4.77359 8.14286 5.49686 8.14286 6.50943V8.67925H12V6.50943C11.8571 5.49686 11.1429 4.77359 10.1429 4.77359ZM10 0L0 4.33962V8.67925C0.142857 15.044 4.14286 20.6855 10 23C15.8571 20.6855 19.8571 15.044 20 8.67925V4.33962L10 0ZM15.7143 15.912C15.7143 16.7799 15.1429 17.3585 14.2857 17.3585H5.71429C4.85714 17.3585 4.28571 16.7799 4.28571 15.912V10.1258C4.28571 9.25786 4.85714 8.67925 5.71429 8.67925H6.14286V6.50943C6.28571 4.48428 8 2.89308 10 2.89308C12 2.89308 13.7143 4.48428 13.8571 6.50943V8.67925H14.2857C15.1429 8.67925 15.7143 9.25786 15.7143 10.1258V15.912Z" fill="#AAA4C5"/>
</svg>
