<svg width="244" height="246" viewBox="0 0 244 246" fill="none" xmlns="http://www.w3.org/2000/svg">
<path d="M122.863 245.751C183.649 245.751 232.927 226.163 232.927 201.999C232.927 177.835 183.649 158.246 122.863 158.246C62.0761 158.246 12.7988 177.835 12.7988 201.999C12.7988 226.163 62.0761 245.751 122.863 245.751Z" fill="#6859A2"/>
<path d="M36.2504 96.1396L0 83.3855L87.3989 64.0498L121.783 76.8039L36.2504 96.1396Z" fill="#7D71D5"/>
<path d="M207.089 96.5488L243.339 83.3855L155.94 64.0498L121.55 76.8039L207.089 96.5488Z" fill="#B11F5C"/>
<path d="M36.0176 96.5486L121.55 76.7764V158.273L36.0176 186.891V96.5486Z" fill="#9E95DF"/>
<path d="M207.089 96.5486L121.55 76.7764V158.273L207.089 186.891V96.5486Z" fill="#EC297B"/>
<path d="M36.0176 121.525L121.55 99.9795L207.089 121.177L121.55 156.704L36.0176 121.525Z" fill="#FFDD15"/>
<path d="M36.0176 96.5488L121.55 135.213V225.556L36.0176 186.891V96.5488Z" fill="#EC297B"/>
<path d="M121.55 135.213L207.089 96.5488V186.891L121.55 225.556V135.213Z" fill="#9E95DF"/>
<path d="M121.55 135.214L97.5786 103.417L10.1797 64.7529L36.0172 96.5494L121.55 135.214Z" fill="#B11F5C"/>
<path d="M121.55 135.214L145.528 103.417L232.926 64.7529L207.089 96.5494L121.55 135.214Z" fill="#7D71D5"/>
<path d="M121.782 82.786C125.109 82.786 127.806 80.0958 127.806 76.7773C127.806 73.4588 125.109 70.7686 121.782 70.7686C118.456 70.7686 115.759 73.4588 115.759 76.7773C115.759 80.0958 118.456 82.786 121.782 82.786Z" fill="#FFDD15"/>
<path d="M107.295 98.4452C110.622 98.4452 113.318 95.755 113.318 92.4365C113.318 89.1179 110.622 86.4277 107.295 86.4277C103.968 86.4277 101.271 89.1179 101.271 92.4365C101.271 95.755 103.968 98.4452 107.295 98.4452Z" fill="#FFDD15"/>
<path d="M118.814 12.0175C122.141 12.0175 124.838 9.32726 124.838 6.00873C124.838 2.6902 122.141 0 118.814 0C115.488 0 112.791 2.6902 112.791 6.00873C112.791 9.32726 115.488 12.0175 118.814 12.0175Z" fill="#FFDD15"/>
<path d="M106.078 58.7987C109.405 58.7987 112.102 56.1085 112.102 52.79C112.102 49.4714 109.405 46.7812 106.078 46.7812C102.751 46.7812 100.055 49.4714 100.055 52.79C100.055 56.1085 102.751 58.7987 106.078 58.7987Z" fill="#FFDD15"/>
<path d="M106.078 70.9526C107.682 70.9526 108.983 69.6548 108.983 68.0539C108.983 66.453 107.682 65.1553 106.078 65.1553C104.473 65.1553 103.172 66.453 103.172 68.0539C103.172 69.6548 104.473 70.9526 106.078 70.9526Z" fill="#FFDD15"/>
<path d="M134.24 24.6625C135.845 24.6625 137.146 23.3648 137.146 21.7639C137.146 20.163 135.845 18.8652 134.24 18.8652C132.635 18.8652 131.334 20.163 131.334 21.7639C131.334 23.3648 132.635 24.6625 134.24 24.6625Z" fill="#FFDD15"/>
<path d="M125.687 59.767C127.292 59.767 128.593 58.4693 128.593 56.8684C128.593 55.2675 127.292 53.9697 125.687 53.9697C124.082 53.9697 122.781 55.2675 122.781 56.8684C122.781 58.4693 124.082 59.767 125.687 59.767Z" fill="#FFDD15"/>
<path d="M121.55 47.4013C124.877 47.4013 127.573 44.7111 127.573 41.3925C127.573 38.074 124.877 35.3838 121.55 35.3838C118.223 35.3838 115.526 38.074 115.526 41.3925C115.526 44.7111 118.223 47.4013 121.55 47.4013Z" fill="#FFDD15"/>
<path d="M66.9277 110.518L84.2803 118.361V208.71L66.9277 200.867V110.518Z" fill="white"/>
<path d="M66.9277 110.518L84.2803 118.361V208.71L66.9277 200.867V110.518Z" fill="#FFDD15"/>
<path d="M36.0176 133.065L121.55 170.714V190.431L36.0176 152.121V133.065Z" fill="#FFDD15"/>
<path d="M176.179 110.518L158.826 118.361V208.71L176.179 200.867V110.518Z" fill="#FFDD15"/>
<path d="M207.089 133.065L121.55 170.714V190.431L207.089 152.121V133.065Z" fill="#FFDD15"/>
</svg>
