<svg width="98" height="102" viewBox="0 0 98 102" fill="none" xmlns="http://www.w3.org/2000/svg">
<path d="M69.6427 17.3477L96.011 23.7715C96.011 23.7715 97.8093 23.4516 97.2099 25.6516C96.6104 27.8516 84.7949 80.0333 84.7949 80.0333C84.7949 80.0333 84.7227 82.2369 82.1624 81.6869C79.6021 81.1369 68.3716 78.013 68.3716 78.013L69.6427 17.3477Z" fill="#007E96"/>
<g filter="url(#filter0_d)">
<path d="M4.00361 0H62.2725C62.2725 0 69.8341 2.02026 70.2025 5.69052C70.2855 6.51013 70.2747 11.1258 70.2097 17.8049C69.9858 41.0774 69.0939 89.3948 69.0939 89.3948L4 90.4948V0H4.00361Z" fill="white"/>
<path d="M70.0781 5.70301L70.0781 5.70313C70.1188 6.1049 70.1371 7.45531 70.1366 9.55038C70.1362 11.641 70.1172 14.4643 70.0847 17.8037C69.9728 29.4395 69.6938 47.3365 69.4428 62.325C69.3173 69.8191 69.1989 76.586 69.1117 81.4793C69.0682 83.926 69.0325 85.9043 69.0076 87.2709L68.979 88.8442L68.9714 89.2532L68.9711 89.2718L4.125 90.3676V0.125H62.2558L62.2611 0.12644L62.3235 0.143864C62.3783 0.159382 62.4591 0.182684 62.5621 0.213679C62.7682 0.275674 63.0634 0.368415 63.4189 0.49117C64.1303 0.736792 65.0817 1.10203 66.0436 1.58082C67.0065 2.06006 67.9745 2.65045 68.723 3.34464C69.4722 4.03951 69.9903 4.82778 70.0781 5.70301Z" stroke="#96CDE1" stroke-width="0.25"/>
</g>
<path d="M96.2167 24.2321L69.4873 17.8047V76.5469L83.679 80.0338L96.2167 24.2321Z" fill="white"/>
<path d="M70.7511 17.9877C70.7511 17.5599 70.7511 17.1322 70.7511 16.7044C70.7511 16.4743 70.65 16.2335 70.4875 16.0681C70.4045 15.9818 70.3106 15.9171 70.1986 15.8812C70.0903 15.8237 69.9748 15.7985 69.852 15.8021C69.6173 15.8129 69.3753 15.8884 69.2128 16.0645C69.0503 16.2407 68.9492 16.4563 68.9492 16.7008C68.9492 17.1286 68.9492 17.5563 68.9492 17.9841C68.9492 18.2142 69.0503 18.455 69.2128 18.6204C69.2959 18.7067 69.3898 18.7714 69.5017 18.8073C69.61 18.8648 69.7256 18.89 69.8484 18.8864C70.0831 18.8756 70.325 18.8001 70.4875 18.624C70.65 18.4478 70.7511 18.2322 70.7511 17.9877Z" fill="#007E96"/>
<path d="M73.1492 18.3587C73.1492 18.0531 73.1492 17.7476 73.1492 17.442C73.1529 17.3198 73.1276 17.2011 73.0698 17.0969C73.0337 16.9855 72.9723 16.8884 72.882 16.8093C72.799 16.723 72.7051 16.6583 72.5931 16.6224C72.4848 16.5649 72.3692 16.5397 72.2465 16.5433C72.167 16.5541 72.0876 16.5649 72.0081 16.5757C71.8564 16.6188 71.7228 16.6943 71.6109 16.8057C71.4484 16.9819 71.3473 17.1976 71.3473 17.442C71.3473 17.7476 71.3473 18.0531 71.3473 18.3587C71.3437 18.4809 71.3689 18.5995 71.4267 18.7038C71.4628 18.8152 71.5242 18.9123 71.6145 18.9913C71.6976 19.0776 71.7914 19.1423 71.9034 19.1783C72.0117 19.2358 72.1273 19.261 72.2501 19.2574C72.3295 19.2466 72.4089 19.2358 72.4884 19.225C72.6401 19.1819 72.7737 19.1064 72.8856 18.9949C73.0445 18.8152 73.1492 18.5995 73.1492 18.3587Z" fill="#007E96"/>
<path d="M75.695 18.9151C75.7564 18.5484 75.7961 18.1782 75.7744 17.8043C75.778 17.6821 75.7528 17.5635 75.695 17.4592C75.6589 17.3478 75.5975 17.2507 75.5072 17.1716C75.4242 17.0854 75.3303 17.0206 75.2183 16.9847C75.11 16.9272 74.9944 16.902 74.8717 16.9056C74.7922 16.9164 74.7128 16.9272 74.6333 16.938C74.4817 16.9811 74.348 17.0566 74.2361 17.168C74.1892 17.2291 74.1422 17.2903 74.0953 17.3514C74.0122 17.4916 73.9725 17.6425 73.9725 17.8043C73.9869 18.0523 73.9797 18.2968 73.9472 18.5412C73.9581 18.4622 73.9689 18.3831 73.9797 18.304C73.9725 18.3471 73.9653 18.3939 73.9581 18.437C73.9219 18.5556 73.9147 18.6742 73.9436 18.7965C73.9508 18.9151 73.9833 19.0265 74.0519 19.1308C74.1097 19.235 74.1856 19.3213 74.2831 19.3824C74.3697 19.4615 74.4708 19.5154 74.59 19.5442C74.6694 19.555 74.7489 19.5658 74.8283 19.5765C74.9908 19.5765 75.1425 19.5334 75.2833 19.4543C75.3447 19.4076 75.4061 19.3608 75.4675 19.3141C75.5758 19.1991 75.6517 19.0697 75.695 18.9151Z" fill="#007E96"/>
<path d="M78.1396 19.4659C78.201 19.0992 78.2407 18.7289 78.219 18.3551C78.2226 18.2329 78.1973 18.1142 78.1396 18.01C78.1035 17.8986 78.0421 17.8015 77.9518 17.7224C77.8687 17.6361 77.7749 17.5714 77.6629 17.5355C77.5546 17.478 77.439 17.4528 77.3162 17.4564C77.2368 17.4672 77.1573 17.478 77.0779 17.4887C76.9262 17.5319 76.7926 17.6074 76.6807 17.7188C76.6337 17.7799 76.5868 17.841 76.5399 17.9021C76.4568 18.0423 76.4171 18.1933 76.4171 18.3551C76.4315 18.6031 76.4243 18.8476 76.3918 19.092C76.4026 19.0129 76.4135 18.9338 76.4243 18.8548C76.4171 18.8979 76.4098 18.9446 76.4026 18.9878C76.3665 19.1064 76.3593 19.225 76.3882 19.3472C76.3954 19.4659 76.4279 19.5773 76.4965 19.6816C76.5543 19.7858 76.6301 19.8721 76.7276 19.9332C76.8143 20.0123 76.9154 20.0662 77.0346 20.095C77.114 20.1057 77.1935 20.1165 77.2729 20.1273C77.4354 20.1273 77.5871 20.0842 77.7279 20.0051C77.7893 19.9584 77.8507 19.9116 77.9121 19.8649C78.0204 19.7535 78.0962 19.6205 78.1396 19.4659Z" fill="#007E96"/>
<path d="M80.5807 20.3389C80.6421 19.9722 80.6818 19.602 80.6602 19.2281C80.6638 19.1059 80.6385 18.9873 80.5807 18.883C80.5446 18.7716 80.4832 18.6745 80.3929 18.5954C80.3099 18.5092 80.216 18.4445 80.1041 18.4085C79.9957 18.351 79.8802 18.3258 79.7574 18.3294C79.678 18.3402 79.5985 18.351 79.5191 18.3618C79.3674 18.4049 79.2338 18.4804 79.1218 18.5919C79.0749 18.653 79.028 18.7141 78.981 18.7752C78.898 18.9154 78.8582 19.0664 78.8582 19.2281C78.8727 19.4762 78.8655 19.7206 78.833 19.9651C78.8438 19.886 78.8546 19.8069 78.8655 19.7278C78.8582 19.7709 78.851 19.8177 78.8438 19.8608C78.8077 19.9794 78.8005 20.0981 78.8293 20.2203C78.8366 20.3389 78.8691 20.4504 78.9377 20.5546C78.9955 20.6589 79.0713 20.7451 79.1688 20.8062C79.2555 20.8853 79.3566 20.9392 79.4757 20.968C79.5552 20.9788 79.6346 20.9896 79.7141 21.0004C79.8766 21.0004 80.0282 20.9572 80.1691 20.8781C80.2305 20.8314 80.2918 20.7847 80.3532 20.7379C80.4579 20.6229 80.5374 20.4899 80.5807 20.3389Z" fill="#007E96"/>
<path d="M83.2384 20.9248C83.2998 20.5582 83.3395 20.1879 83.3179 19.8141C83.3215 19.6918 83.2962 19.5732 83.2384 19.469C83.2023 19.3575 83.1409 19.2605 83.0507 19.1814C82.9676 19.0951 82.8737 19.0304 82.7618 18.9945C82.6534 18.9369 82.5379 18.9118 82.4151 18.9154C82.3357 18.9262 82.2562 18.9369 82.1768 18.9477C82.0251 18.9909 81.8915 19.0664 81.7796 19.1778C81.7326 19.2389 81.6857 19.3 81.6387 19.3611C81.5557 19.5013 81.516 19.6523 81.516 19.8141C81.5304 20.0621 81.5232 20.3065 81.4907 20.551C81.5015 20.4719 81.5123 20.3928 81.5232 20.3137C81.516 20.3569 81.5087 20.4036 81.5015 20.4467C81.4654 20.5654 81.4582 20.684 81.4871 20.8062C81.4943 20.9248 81.5268 21.0363 81.5954 21.1405C81.6532 21.2448 81.729 21.3311 81.8265 21.3922C81.9132 21.4712 82.0143 21.5252 82.1334 21.5539C82.2129 21.5647 82.2923 21.5755 82.3718 21.5863C82.5343 21.5863 82.6859 21.5431 82.8268 21.4641C82.8882 21.4173 82.9496 21.3706 83.0109 21.3239C83.1157 21.2088 83.1951 21.0794 83.2384 20.9248Z" fill="#007E96"/>
<path d="M85.871 21.7989C85.9324 21.4322 85.9722 21.062 85.9505 20.6881C85.9541 20.5659 85.9288 20.4472 85.871 20.343C85.8349 20.2316 85.7735 20.1345 85.6833 20.0554C85.6002 19.9691 85.5063 19.9044 85.3944 19.8685C85.286 19.811 85.1705 19.7858 85.0477 19.7894C84.9683 19.8002 84.8888 19.811 84.8094 19.8218C84.6577 19.8649 84.5241 19.9404 84.4121 20.0518C84.3652 20.1129 84.3183 20.174 84.2713 20.2352C84.1882 20.3754 84.1485 20.5263 84.1485 20.6881C84.163 20.9361 84.1557 21.1806 84.1232 21.425C84.1341 21.3459 84.1449 21.2669 84.1557 21.1878C84.1485 21.2309 84.1413 21.2776 84.1341 21.3208C84.098 21.4394 84.0907 21.558 84.1196 21.6803C84.1269 21.7989 84.1594 21.9103 84.228 22.0146C84.2858 22.1188 84.3616 22.2051 84.4591 22.2662C84.5457 22.3453 84.6469 22.3992 84.766 22.428C84.8455 22.4388 84.9249 22.4495 85.0044 22.4603C85.1669 22.4603 85.3185 22.4172 85.4594 22.3381C85.5208 22.2914 85.5822 22.2446 85.6435 22.1979C85.7519 22.0829 85.8277 21.9499 85.871 21.7989Z" fill="#007E96"/>
<path d="M88.5107 22.4522C88.572 22.0855 88.6118 21.7153 88.5901 21.3414C88.5937 21.2192 88.5684 21.1006 88.5107 20.9963C88.4745 20.8849 88.4132 20.7878 88.3229 20.7087C88.2398 20.6225 88.1459 20.5577 88.034 20.5218C87.9257 20.4643 87.8101 20.4391 87.6873 20.4427C87.6079 20.4535 87.5284 20.4643 87.449 20.4751C87.2973 20.5182 87.1637 20.5937 87.0518 20.7051C87.0048 20.7662 86.9579 20.8274 86.9109 20.8885C86.8279 21.0287 86.7882 21.1796 86.7882 21.3414C86.8026 21.5895 86.7954 21.8339 86.7629 22.0783C86.7737 21.9993 86.7846 21.9202 86.7954 21.8411C86.7882 21.8842 86.7809 21.931 86.7737 21.9741C86.7376 22.0927 86.7304 22.2113 86.7593 22.3336C86.7665 22.4522 86.799 22.5636 86.8676 22.6679C86.9254 22.7721 87.0012 22.8584 87.0987 22.9195C87.1854 22.9986 87.2865 23.0525 87.4057 23.0813C87.4851 23.0921 87.5645 23.1029 87.644 23.1136C87.8065 23.1136 87.9582 23.0705 88.099 22.9914C88.1604 22.9447 88.2218 22.898 88.2832 22.8512C88.3879 22.7362 88.4673 22.6032 88.5107 22.4522Z" fill="#007E96"/>
<path d="M91.0023 22.9629C91.0637 22.5963 91.1034 22.226 91.0818 21.8522C91.0854 21.7299 91.0601 21.6113 91.0023 21.5071C90.9662 21.3956 90.9048 21.2986 90.8146 21.2195C90.7315 21.1332 90.6376 21.0685 90.5257 21.0325C90.4174 20.975 90.3018 20.9499 90.179 20.9535C90.0996 20.9642 90.0201 20.975 89.9407 20.9858C89.789 21.029 89.6554 21.1044 89.5435 21.2159C89.4965 21.277 89.4496 21.3381 89.4026 21.3992C89.3196 21.5394 89.2799 21.6904 89.2799 21.8522C89.2943 22.1002 89.2871 22.3446 89.2546 22.5891C89.2654 22.51 89.2763 22.4309 89.2871 22.3518C89.2799 22.395 89.2726 22.4417 89.2654 22.4848C89.2293 22.6035 89.2221 22.7221 89.251 22.8443C89.2582 22.9629 89.2907 23.0744 89.3593 23.1786C89.4171 23.2829 89.4929 23.3692 89.5904 23.4303C89.6771 23.5094 89.7782 23.5633 89.8974 23.592C89.9768 23.6028 90.0562 23.6136 90.1357 23.6244C90.2982 23.6244 90.4498 23.5813 90.5907 23.5022C90.6521 23.4554 90.7135 23.4087 90.7748 23.362C90.8796 23.2469 90.959 23.1139 91.0023 22.9629Z" fill="#007E96"/>
<path d="M93.7179 23.7578C93.7793 23.3912 93.819 23.0209 93.7973 22.6471C93.801 22.5249 93.7757 22.4062 93.7179 22.302C93.6818 22.1905 93.6204 22.0935 93.5301 22.0144C93.4471 21.9281 93.3532 21.8634 93.2412 21.8275C93.1329 21.77 93.0174 21.7448 92.8946 21.7484C92.8151 21.7592 92.7357 21.77 92.6563 21.7807C92.5046 21.8239 92.371 21.8994 92.259 22.0108C92.2121 22.0719 92.1652 22.133 92.1182 22.1941C92.0352 22.3343 91.9954 22.4853 91.9954 22.6471C92.0099 22.8951 92.0027 23.1396 91.9702 23.384C91.981 23.3049 91.9918 23.2258 92.0027 23.1467C91.9954 23.1899 91.9882 23.2366 91.981 23.2798C91.9449 23.3984 91.9377 23.517 91.9666 23.6392C91.9738 23.7579 92.0063 23.8693 92.0749 23.9735C92.1327 24.0778 92.2085 24.1641 92.306 24.2252C92.3927 24.3043 92.4938 24.3582 92.6129 24.3869C92.6924 24.3977 92.7718 24.4085 92.8513 24.4193C93.0138 24.4193 93.1654 24.3761 93.3062 24.2971C93.3676 24.2503 93.429 24.2036 93.4904 24.1569C93.5987 24.0418 93.6746 23.9088 93.7179 23.7578Z" fill="#007E96"/>
<path d="M61.55 0C61.55 0 64.1934 3.42582 63.1498 6.05719C63.1498 6.05719 67.0209 4.65163 69.4801 5.69052C68.5773 3.76373 68.1259 1.34804 61.55 0Z" fill="#97D7DE"/>
<path d="M23.0305 32.3784C28.9318 32.3784 33.7158 27.616 33.7158 21.7414C33.7158 15.8668 28.9318 11.1045 23.0305 11.1045C17.1292 11.1045 12.3452 15.8668 12.3452 21.7414C12.3452 27.616 17.1292 32.3784 23.0305 32.3784Z" fill="#FF7A59"/>
<path d="M23.0305 17.4385V27.3529" stroke="white" stroke-width="2" stroke-miterlimit="10"/>
<path d="M18.0327 22.3955H27.436" stroke="white" stroke-width="2" stroke-miterlimit="10"/>
<path d="M69.4802 29.7393L80.3569 32.3778" stroke="#BAB9B9" stroke-miterlimit="10"/>
<path d="M69.5381 38.5498L78.8836 40.5665" stroke="#BAB9B9" stroke-miterlimit="10"/>
<path d="M69.8484 47.1777C77.132 49.0147 77.132 49.0147 77.132 49.0147L69.8484 47.1777Z" fill="#EC3150"/>
<path d="M69.8484 47.1777C77.132 49.0147 77.132 49.0147 77.132 49.0147" stroke="#BAB9B9" stroke-miterlimit="10"/>
<path d="M69.5381 55.6221L74.8248 56.9054" stroke="#BAB9B9" stroke-miterlimit="10"/>
<path d="M69.5381 64.7988C73.0733 65.6256 73.0733 65.6256 73.0733 65.6256L69.5381 64.7988Z" fill="#EC3150"/>
<path d="M69.5381 64.7988C73.0733 65.6256 73.0733 65.6256 73.0733 65.6256" stroke="#BAB9B9" stroke-miterlimit="10"/>
<path d="M37.8541 13.6558C45.2605 13.6558 52.6669 13.6558 60.0733 13.6558C61.2361 13.6558 61.2361 11.8584 60.0733 11.8584C52.6669 11.8584 45.2605 11.8584 37.8541 11.8584C36.695 11.8584 36.6914 13.6558 37.8541 13.6558Z" fill="#BAB9B9"/>
<path d="M38.2223 18.52C45.5059 18.52 52.7895 18.52 60.0731 18.52C61.2359 18.52 61.2359 16.7227 60.0731 16.7227C52.7895 16.7227 45.5059 16.7227 38.2223 16.7227C37.0631 16.7227 37.0595 18.52 38.2223 18.52Z" fill="#BAB9B9"/>
<path d="M38.4066 27.0581C45.535 27.0581 52.6669 27.0581 59.7953 27.0581C60.958 27.0581 60.958 25.2607 59.7953 25.2607C52.6669 25.2607 45.535 25.2607 38.4066 25.2607C37.2475 25.2607 37.2438 27.0581 38.4066 27.0581Z" fill="#BAB9B9"/>
<path d="M37.948 31.8277C45.3869 31.8277 52.8222 31.8277 60.2611 31.8277C61.4239 31.8277 61.4239 30.0303 60.2611 30.0303C52.8222 30.0303 45.3869 30.0303 37.948 30.0303C36.7852 30.0303 36.7852 31.8277 37.948 31.8277Z" fill="#BAB9B9"/>
<path d="M12.9625 38.5288C19.04 38.5288 25.1139 38.5288 31.1914 38.5288C37.2689 38.5288 43.3428 38.5288 49.4203 38.5288C52.8509 38.5288 56.2778 38.5288 59.7084 38.5288C60.8711 38.5288 60.8711 36.7314 59.7084 36.7314C53.6309 36.7314 47.557 36.7314 41.4795 36.7314C35.402 36.7314 29.3281 36.7314 23.2506 36.7314C19.82 36.7314 16.3931 36.7314 12.9625 36.7314C11.7998 36.7314 11.7962 38.5288 12.9625 38.5288Z" fill="#BAB9B9"/>
<path d="M13.1469 42.5689C19.2713 42.5689 25.3994 42.5689 31.5238 42.5689C37.6808 42.5689 43.8341 42.5689 49.991 42.5689C53.4433 42.5689 56.8991 42.5689 60.3513 42.5689C61.5141 42.5689 61.5141 40.7715 60.3513 40.7715C54.2269 40.7715 48.0988 40.7715 41.9744 40.7715C35.8174 40.7715 29.6641 40.7715 23.5072 40.7715C20.0549 40.7715 16.5991 40.7715 13.1469 40.7715C11.9841 40.7715 11.9805 42.5689 13.1469 42.5689Z" fill="#BAB9B9"/>
<path d="M28.5446 51.6529C36.7743 51.6529 45.004 51.6529 53.2338 51.6529C55.5774 51.6529 57.9174 51.6529 60.261 51.6529C61.4238 51.6529 61.4238 49.8555 60.261 49.8555C52.0313 49.8555 43.8015 49.8555 35.5718 49.8555C33.2282 49.8555 30.8882 49.8555 28.5446 49.8555C27.3818 49.8555 27.3782 51.6529 28.5446 51.6529Z" fill="#BAB9B9"/>
<path d="M15.2664 56.2437C24.2328 56.2437 33.1992 56.2437 42.1656 56.2437C44.6933 56.2437 47.2211 56.2437 49.7489 56.2437C50.9117 56.2437 50.9117 54.4463 49.7489 54.4463C40.7825 54.4463 31.8161 54.4463 22.8497 54.4463C20.3219 54.4463 17.7942 54.4463 15.2664 54.4463C14.1036 54.4463 14.1036 56.2437 15.2664 56.2437Z" fill="#BAB9B9"/>
<path d="M28.5446 67.6245C36.4746 67.6245 44.401 67.6245 52.331 67.6245C54.5735 67.6245 56.8196 67.6245 59.0621 67.6245C60.2249 67.6245 60.2249 65.8271 59.0621 65.8271C51.1321 65.8271 43.2057 65.8271 35.2757 65.8271C33.0332 65.8271 30.7871 65.8271 28.5446 65.8271C27.3818 65.8271 27.3782 67.6245 28.5446 67.6245Z" fill="#BAB9B9"/>
<path d="M28.4507 72.5816C33.0621 72.5816 37.6699 72.5816 42.2812 72.5816C43.444 72.5816 43.444 70.7842 42.2812 70.7842C37.6699 70.7842 33.0621 70.7842 28.4507 70.7842C27.2879 70.7842 27.2879 72.5816 28.4507 72.5816Z" fill="#BAB9B9"/>
<path d="M51.9194 86.7273L58.3508 81.3028C58.3508 81.3028 60.6403 79.4587 62.6011 80.2172C64.5619 80.9757 67.0608 88.3953 67.0608 88.3953L59.4883 95.1894L51.9194 86.7273Z" fill="#96CDE1"/>
<path d="M51.9193 86.7275L45.5818 92.3677C45.5818 92.3677 42.8735 94.2694 44.1807 98.1733C45.488 102.077 48.9763 101.969 48.9763 101.969C48.9763 101.969 51.3741 101.915 53.1724 100.668C54.9707 99.4207 59.4882 95.1896 59.4882 95.1896L51.9193 86.7275Z" fill="#2A7E99"/>
<path d="M45.5817 92.3672C45.5817 92.3672 46.0187 100.326 52.2876 99.6286C58.5565 98.9312 50.2184 101.821 50.2184 101.821C50.2184 101.821 46.2209 102.008 45.199 100.089C44.1806 98.1727 43.8376 96.5227 43.8376 96.5227C43.8376 96.5227 43.3934 95.6816 45.5817 92.3672Z" fill="#236E86"/>
<path d="M62.2868 94.3488L58.9394 88.989C58.9394 88.989 57.8127 87.0909 58.5963 85.7213C59.3799 84.3517 65.201 83.3164 65.201 83.3164L69.4477 89.672L62.2868 94.3488Z" fill="#FF7A59"/>
<path d="M62.2869 94.3484L65.8077 99.6651C65.8077 99.6651 66.9308 101.879 69.993 101.34C73.0588 100.801 73.3586 98.2056 73.3586 98.2056C73.3586 98.2056 73.5825 96.4226 72.8458 94.9523C72.1091 93.482 69.4441 89.668 69.4441 89.668L62.2869 94.3484Z" fill="#DDDDDD"/>
<path d="M65.8076 99.6612C65.8076 99.6612 71.8093 100.211 71.9754 95.4912C72.1415 90.7713 73.3873 97.2635 73.3873 97.2635C73.3873 97.2635 73.0876 100.247 71.542 100.79C69.9965 101.333 68.7254 101.405 68.7254 101.405C68.7254 101.405 68.0465 101.649 65.8076 99.6612Z" fill="#AFB0AF"/>
<path d="M61.8318 89.0139C64.3228 89.0139 66.3421 87.0038 66.3421 84.5241C66.3421 82.0444 64.3228 80.0342 61.8318 80.0342C59.3409 80.0342 57.3215 82.0444 57.3215 84.5241C57.3215 87.0038 59.3409 89.0139 61.8318 89.0139Z" fill="#EBFAFF"/>
<path d="M59.6543 80.5908L64.2766 88.2944" stroke="#C4C2C2" stroke-miterlimit="10"/>
<path d="M79.3347 96.8577C81.8257 96.8577 83.845 94.8475 83.845 92.3678C83.845 89.8881 81.8257 87.8779 79.3347 87.8779C76.8438 87.8779 74.8245 89.8881 74.8245 92.3678C74.8245 94.8475 76.8438 96.8577 79.3347 96.8577Z" fill="#007E96"/>
<path d="M81.4511 88.3633L76.7603 96.0273" stroke="#EBFAFF" stroke-miterlimit="10"/>
<defs>
<filter id="filter0_d" x="0" y="0" width="74.2616" height="98.4948" filterUnits="userSpaceOnUse" color-interpolation-filters="sRGB">
<feFlood flood-opacity="0" result="BackgroundImageFix"/>
<feColorMatrix in="SourceAlpha" type="matrix" values="0 0 0 0 0 0 0 0 0 0 0 0 0 0 0 0 0 0 127 0"/>
<feOffset dy="4"/>
<feGaussianBlur stdDeviation="2"/>
<feColorMatrix type="matrix" values="0 0 0 0 0 0 0 0 0 0 0 0 0 0 0 0 0 0 0.15 0"/>
<feBlend mode="normal" in2="BackgroundImageFix" result="effect1_dropShadow"/>
<feBlend mode="normal" in="SourceGraphic" in2="effect1_dropShadow" result="shape"/>
</filter>
</defs>
</svg>
