<svg width="100" height="100" viewBox="0 0 100 100" fill="none" xmlns="http://www.w3.org/2000/svg">
<mask id="mask0" mask-type="alpha" maskUnits="userSpaceOnUse" x="0" y="0" width="100" height="100">
<rect x="0.5" y="0.5" width="99" height="99" rx="7.5" fill="#FFFDFD" stroke="#F8F7FF"/>
</mask>
<g mask="url(#mask0)">
<g filter="url(#filter0_d)">
<path d="M92.4319 -7.44663V76.3129C92.4319 82.9053 87.3014 88.2496 80.9727 88.2496H18.6594C12.3307 88.2496 7.2002 82.9053 7.2002 76.3129V-7.44663C7.2002 -14.039 12.3307 -19.3833 18.6594 -19.3833H80.9727C87.3014 -19.3833 92.4319 -14.039 92.4319 -7.44663Z" fill="#9C77BC"/>
<path d="M80.5199 14.7609H35.1659C34.1565 14.7609 33.3398 13.9081 33.3398 12.8587C33.3398 11.8072 34.1585 10.9565 35.1659 10.9565H80.5219C81.5313 10.9565 82.348 11.8093 82.348 12.8587C82.346 13.9081 81.5293 14.7609 80.5199 14.7609Z" fill="white"/>
<path d="M71.2087 22.6862H35.1659C34.1565 22.6862 33.3398 21.8334 33.3398 20.784C33.3398 19.7325 34.1585 18.8818 35.1659 18.8818H71.2087C72.2181 18.8818 73.0348 19.7346 73.0348 20.784C73.0348 21.8355 72.2181 22.6862 71.2087 22.6862Z" fill="white"/>
<path d="M80.5199 36.4796H35.1659C34.1565 36.4796 33.3398 35.6269 33.3398 34.5775C33.3398 33.526 34.1585 32.6753 35.1659 32.6753H80.5219C81.5313 32.6753 82.348 33.5281 82.348 34.5775C82.346 35.6289 81.5293 36.4796 80.5199 36.4796Z" fill="white"/>
<path d="M71.2087 44.4069H35.1659C34.1565 44.4069 33.3398 43.5541 33.3398 42.5047C33.3398 41.4532 34.1585 40.6025 35.1659 40.6025H71.2087C72.2181 40.6025 73.0348 41.4553 73.0348 42.5047C73.0348 43.5562 72.2181 44.4069 71.2087 44.4069Z" fill="white"/>
<path d="M80.5199 58.2003H35.1659C34.1565 58.2003 33.3398 57.3476 33.3398 56.2982C33.3398 55.2467 34.1585 54.396 35.1659 54.396H80.5219C81.5313 54.396 82.348 55.2488 82.348 56.2982C82.346 57.3476 81.5293 58.2003 80.5199 58.2003Z" fill="white"/>
<path d="M71.2087 66.1276H35.1659C34.1565 66.1276 33.3398 65.2748 33.3398 64.2254C33.3398 63.1739 34.1585 62.3232 35.1659 62.3232H71.2087C72.2181 62.3232 73.0348 63.176 73.0348 64.2254C73.0348 65.2748 72.2181 66.1276 71.2087 66.1276Z" fill="white"/>
<path d="M20.8254 19.7182C20.6942 19.7182 20.5611 19.7017 20.4299 19.6686C19.9868 19.5568 19.6033 19.2629 19.3709 18.8551L17.4176 15.4192C16.9427 14.583 17.207 13.5046 18.0097 13.0079C18.8125 12.5132 19.8477 12.7885 20.3246 13.6247L21.3917 15.502L27.5197 11.4638C28.3085 10.9443 29.3517 11.1885 29.8505 12.0102C30.3492 12.8319 30.1147 13.9186 29.3259 14.4381L21.7275 19.445C21.4572 19.6251 21.1433 19.7182 20.8254 19.7182Z" fill="white"/>
<path d="M20.8254 41.3437C20.6942 41.3437 20.5611 41.3272 20.4299 41.2941C19.9868 41.1823 19.6033 40.8884 19.3709 40.4806L17.4176 37.0447C16.9427 36.2085 17.207 35.1301 18.0097 34.6334C18.8125 34.1387 19.8477 34.414 20.3246 35.2502L21.3917 37.1275L27.5197 33.0893C28.3085 32.5697 29.3517 32.814 29.8505 33.6357C30.3492 34.4574 30.1147 35.5441 29.3259 36.0636L21.7275 41.0684C21.4572 41.2506 21.1433 41.3437 20.8254 41.3437Z" fill="white"/>
<path d="M20.8254 63.414C20.6942 63.414 20.5611 63.3975 20.4299 63.3644C19.9868 63.2526 19.6033 62.9587 19.3709 62.5509L17.4176 59.115C16.9427 58.2788 17.207 57.2004 18.0097 56.7037C18.8125 56.209 19.8477 56.4843 20.3246 57.3205L21.3917 59.1978L27.5197 55.1596C28.3085 54.6401 29.3517 54.8843 29.8505 55.706C30.3492 56.5277 30.1147 57.6144 29.3259 58.1339L21.7275 63.1408C21.4572 63.3209 21.1433 63.414 20.8254 63.414Z" fill="white"/>
<path d="M78.7996 82.5002C78.137 82.5002 77.5996 81.9469 77.5996 81.2648V69.5689C77.5996 68.8867 78.137 68.3335 78.7996 68.3335C79.4622 68.3335 79.9996 68.8867 79.9996 69.5689V81.2648C79.9996 81.9469 79.4622 82.5002 78.7996 82.5002Z" fill="white"/>
<path d="M72 75.4165C72 74.7263 72.5311 74.1665 73.186 74.1665H84.414C85.0689 74.1665 85.6 74.7263 85.6 75.4165C85.6 76.1067 85.0689 76.6665 84.414 76.6665H73.186C72.5311 76.6638 72 76.1067 72 75.4165Z" fill="white"/>
</g>
</g>
<rect x="1" y="1" width="98" height="98" rx="7" stroke="#E9E5FF" stroke-width="2"/>
<defs>
<filter id="filter0_d" x="-2.7998" y="-32.6665" width="105.232" height="134.916" filterUnits="userSpaceOnUse" color-interpolation-filters="sRGB">
<feFlood flood-opacity="0" result="BackgroundImageFix"/>
<feColorMatrix in="SourceAlpha" type="matrix" values="0 0 0 0 0 0 0 0 0 0 0 0 0 0 0 0 0 0 127 0"/>
<feOffset dy="4"/>
<feGaussianBlur stdDeviation="5"/>
<feColorMatrix type="matrix" values="0 0 0 0 0 0 0 0 0 0 0 0 0 0 0 0 0 0 0.25 0"/>
<feBlend mode="normal" in2="BackgroundImageFix" result="effect1_dropShadow"/>
<feBlend mode="normal" in="SourceGraphic" in2="effect1_dropShadow" result="shape"/>
</filter>
</defs>
</svg>
