<svg width="27" height="19" viewBox="0 0 27 19" fill="none" xmlns="http://www.w3.org/2000/svg">
<path d="M19.3125 9.3125C18.3958 9.3125 17.6146 8.98958 16.9688 8.34375C16.3229 7.69792 16 6.91667 16 6C16 5.08333 16.3229 4.29167 16.9688 3.625C17.6146 2.95833 18.3958 2.625 19.3125 2.625C20.2292 2.625 21.0104 2.95833 21.6562 3.625C22.3021 4.29167 22.625 5.08333 22.625 6C22.625 6.91667 22.3021 7.69792 21.6562 8.34375C21.0104 8.98958 20.2292 9.3125 19.3125 9.3125ZM9.34375 8C8.23958 8 7.29167 7.60417 6.5 6.8125C5.70833 6.02083 5.3125 5.07292 5.3125 3.96875C5.3125 2.86458 5.70833 1.92708 6.5 1.15625C7.29167 0.385417 8.23958 0 9.34375 0C10.4479 0 11.3854 0.385417 12.1562 1.15625C12.9271 1.92708 13.3125 2.86458 13.3125 3.96875C13.3125 5.07292 12.9271 6.02083 12.1562 6.8125C11.3854 7.60417 10.4479 8 9.34375 8ZM19.3438 12C20.8646 12 22.4688 12.3333 24.1562 13C25.8438 13.6667 26.6875 14.5417 26.6875 15.625V18.625H12V15.625C12 14.5417 12.8438 13.6667 14.5312 13C16.2188 12.3333 17.8229 12 19.3438 12ZM9.3125 10.625C10.2292 10.625 11.2917 10.75 12.5 11C10.375 12.1667 9.3125 13.7083 9.3125 15.625V18.625H0V15.3125C0 14.3542 0.572917 13.5 1.71875 12.75C2.86458 12 4.13542 11.4583 5.53125 11.125C6.92708 10.7917 8.1875 10.625 9.3125 10.625Z" fill="#AAA4C5"/>
</svg>
