<svg width="57" height="57" viewBox="0 0 57 57" fill="none" xmlns="http://www.w3.org/2000/svg">
<path d="M33.2307 2L14.5 5.5L44 40L47.9999 44L53.5384 39L55.9999 25L53.5384 16.5L45.5384 8L33.2307 2Z" fill="#AAA4C5" stroke="#AAA4C5"/>
<mask id="path-2-inside-1" fill="white">
<path fill-rule="evenodd" clip-rule="evenodd" d="M28.5 57C12.7599 57 0 44.2401 0 28.5C0 22.0735 2.12706 16.1438 5.71557 11.3765C7.39117 9.15051 10.631 9.30795 12.5019 11.3726L43.9752 46.1056C45.8453 48.1694 45.685 51.4078 43.3066 52.8567C38.9914 55.4856 33.9225 57 28.5 57ZM52.415 44.0086C50.8344 46.4409 47.4302 46.3814 45.4824 44.2319L14.5097 10.0513C12.5626 7.90259 12.8365 4.5101 15.4114 3.17657C19.3308 1.14668 23.7815 0 28.5 0C44.2401 0 57 12.7599 57 28.5C57 34.2194 55.3153 39.5453 52.415 44.0086Z"/>
</mask>
<path d="M14.5097 10.0513L16.7327 8.03688L14.5097 10.0513ZM45.4824 44.2319L43.2593 46.2463L45.4824 44.2319ZM43.9752 46.1056L46.1983 44.0912L43.9752 46.1056ZM5.71557 11.3765L8.11242 13.1807L5.71557 11.3765ZM3 28.5C3 42.5833 14.4167 54 28.5 54V60C11.103 60 -3 45.897 -3 28.5H3ZM8.11242 13.1807C4.90184 17.4459 3 22.7465 3 28.5H-3C-3 21.4005 -0.647717 14.8417 3.31872 9.57232L8.11242 13.1807ZM14.725 9.35814L46.1983 44.0912L41.7522 48.1201L10.2788 13.387L14.725 9.35814ZM28.5 54C33.3565 54 37.8874 52.6453 41.7458 50.2947L44.8674 55.4187C40.0953 58.326 34.4886 60 28.5 60V54ZM43.2593 46.2463L12.2866 12.0658L16.7327 8.03688L47.7054 42.2175L43.2593 46.2463ZM28.5 3C24.2728 3 20.2942 4.02621 16.7911 5.8405L14.0317 0.51264C18.3674 -1.73286 23.2901 -3 28.5 -3V3ZM54 28.5C54 14.4167 42.5833 3 28.5 3V-3C45.897 -3 60 11.103 60 28.5H54ZM49.8994 42.3739C52.4931 38.3825 54 33.6218 54 28.5H60C60 34.817 58.1374 40.7082 54.9305 45.6432L49.8994 42.3739ZM12.2866 12.0658C9.30796 8.77863 9.34402 2.94043 14.0317 0.51264L16.7911 5.8405C16.4624 6.01069 16.2882 6.27549 16.2453 6.64954C16.1978 7.0644 16.3314 7.59404 16.7327 8.03688L12.2866 12.0658ZM47.7054 42.2175C48.1068 42.6604 48.6209 42.8454 49.0388 42.8388C49.4158 42.8328 49.6973 42.685 49.8994 42.3739L54.9305 45.6432C52.0542 50.0695 46.2397 49.5354 43.2593 46.2463L47.7054 42.2175ZM46.1983 44.0912C49.0696 47.2599 49.172 52.7963 44.8674 55.4187L41.7458 50.2947C42.0502 50.1093 42.2134 49.8369 42.2444 49.4637C42.2783 49.0547 42.1376 48.5454 41.7522 48.1201L46.1983 44.0912ZM3.31872 9.57232C6.35054 5.54459 11.8521 6.18768 14.725 9.35814L10.2788 13.387C9.89328 12.9615 9.40007 12.7715 8.98958 12.7652C8.61478 12.7595 8.32722 12.8953 8.11242 13.1807L3.31872 9.57232Z" fill="#AAA4C5" mask="url(#path-2-inside-1)"/>
</svg>
