<svg width="20" height="20" viewBox="0 0 20 20" fill="none" xmlns="http://www.w3.org/2000/svg">
<path d="M8.125 10.7875V3.75C8.125 3.08696 7.86161 2.45107 7.39277 1.98223C6.92393 1.51339 6.28804 1.25 5.625 1.25C4.96196 1.25 4.32607 1.51339 3.85723 1.98223C3.38839 2.45107 3.125 3.08696 3.125 3.75V10.7875C2.36063 11.3197 1.78608 12.082 1.48495 12.9634C1.18383 13.8448 1.17185 14.7993 1.45077 15.688C1.72969 16.5766 2.28494 17.3531 3.03571 17.9044C3.78648 18.4556 4.69359 18.7529 5.625 18.7529C6.55641 18.7529 7.46352 18.4556 8.21429 17.9044C8.96506 17.3531 9.52031 16.5766 9.79923 15.688C10.0781 14.7993 10.0662 13.8448 9.76505 12.9634C9.46392 12.082 8.88937 11.3197 8.125 10.7875ZM5.625 2.5C5.95652 2.5 6.27446 2.6317 6.50888 2.86612C6.7433 3.10054 6.875 3.41848 6.875 3.75V8.125H4.375V3.75C4.375 3.41848 4.5067 3.10054 4.74112 2.86612C4.97554 2.6317 5.29348 2.5 5.625 2.5ZM5.625 17.5C4.93711 17.5 4.26844 17.273 3.72271 16.8542C3.17697 16.4354 2.78466 15.8483 2.60662 15.1838C2.42858 14.5194 2.47475 13.8147 2.73798 13.1792C3.00121 12.5437 3.46678 12.0127 4.0625 11.6687L4.375 11.4937V9.375H6.875V11.4937L7.1875 11.6687C7.78322 12.0127 8.24879 12.5437 8.51202 13.1792C8.77525 13.8147 8.82142 14.5194 8.64338 15.1838C8.46534 15.8483 8.07303 16.4354 7.52729 16.8542C6.98156 17.273 6.31289 17.5 5.625 17.5Z" fill="#FF7A59"/>
<path d="M12.5 2.5H18.75V3.75H12.5V2.5Z" fill="#FF7A59"/>
<path d="M12.5 6.25H16.875V7.5H12.5V6.25Z" fill="#FF7A59"/>
<path d="M12.5 10H18.75V11.25H12.5V10Z" fill="#FF7A59"/>
<path d="M12.5 13.75H16.875V15H12.5V13.75Z" fill="#FF7A59"/>
</svg>
