<svg width="243" height="148" viewBox="0 0 243 148" fill="none" xmlns="http://www.w3.org/2000/svg">
<path d="M117.709 48.8855C117.674 48.8855 117.638 48.8836 117.602 48.8797C117.179 48.8303 116.845 48.498 116.794 48.0746L112.521 12.4326L104.655 39.4543C104.541 39.8476 104.181 40.1169 103.772 40.1169C103.769 40.1169 103.767 40.1169 103.764 40.1169C103.352 40.1131 102.993 39.836 102.884 39.4388L97.2876 18.8877L89.3425 45.9985C89.2224 46.4083 88.8368 46.6796 88.4095 46.6583C87.9833 46.635 87.6287 46.3221 87.5531 45.9016L80.3666 5.70913L72.8361 41.0838C72.7412 41.5285 72.3343 41.8395 71.8819 41.8114C71.4275 41.7842 71.0613 41.4306 71.0196 40.9772L69.7118 26.8405H0.920357C0.411739 26.8405 0 26.4288 0 25.9202C0 25.4116 0.411739 24.9998 0.920357 24.9998H70.5507C71.0264 24.9998 71.4236 25.3622 71.4672 25.8359L72.2955 34.7847L79.545 0.728536C79.6361 0.303234 80.011 0 80.4451 0C80.4499 0 80.4548 0 80.4606 0C80.9004 0.00775038 81.2743 0.324547 81.3519 0.758569L88.6769 41.7271L96.437 15.2469C96.5523 14.8546 96.9117 14.5852 97.3205 14.5852C97.3234 14.5852 97.3264 14.5852 97.3293 14.5852C97.741 14.5891 98.1004 14.8662 98.208 15.2634L103.802 35.8039L112.014 7.58859C112.136 7.1691 112.536 6.893 112.973 6.92884C113.409 6.96469 113.76 7.30183 113.812 7.73682L118.164 44.0367L124.896 25.6053C125.029 25.242 125.374 25.0008 125.761 25.0008H191.533C192.042 25.0008 192.454 25.4125 192.454 25.9212C192.454 26.4298 192.042 26.8415 191.533 26.8415H126.405L118.573 48.2829C118.438 48.6472 118.091 48.8855 117.709 48.8855Z" fill="#EA508F"/>
<path d="M219.043 129.178C215.273 140.086 203.377 145.872 192.467 142.102L192.466 142.102C181.558 138.332 175.773 126.433 179.544 115.525C182.808 106.079 192.166 100.477 201.7 101.591L232.217 13.304C232.624 12.1279 233.468 11.2263 234.506 10.7225C235.543 10.2184 236.773 10.1099 237.949 10.5169L237.951 10.5172C240.303 11.3323 241.552 13.8949 240.738 16.2489L210.221 104.536C218.407 109.547 222.309 119.732 219.043 129.178Z" fill="#9C77BC"/>
<g style="mix-blend-mode:multiply" opacity="0.6">
<g opacity="0.6">
<path opacity="0.6" d="M219.046 129.178C215.275 140.086 203.378 145.871 192.468 142.101L237.951 10.5186C240.304 11.3337 241.553 13.8964 240.739 16.2504L210.222 104.537C218.409 109.546 222.311 119.731 219.046 129.178Z" fill="#BF66FF"/>
</g>
</g>
<path d="M195.335 143.416C194.311 143.221 193.295 142.951 192.291 142.605C186.882 140.734 182.524 136.87 180.02 131.722C177.517 126.575 177.168 120.761 179.039 115.35C180.644 110.707 183.823 106.727 187.99 104.145C191.975 101.675 196.697 100.57 201.335 101.016L231.715 13.1297C232.155 11.8555 233.064 10.831 234.275 10.2437C235.486 9.6553 236.852 9.57287 238.125 10.0129C239.397 10.453 240.422 11.3618 241.012 12.5724C241.601 13.783 241.682 15.1505 241.243 16.4229L210.865 104.31C214.787 106.822 217.82 110.608 219.428 115.012C221.111 119.617 221.154 124.71 219.549 129.354L219.046 129.18L219.549 129.354C217.679 134.763 213.814 139.121 208.667 141.625C204.471 143.662 199.835 144.271 195.335 143.416ZM237.212 10.87C236.378 10.7114 235.518 10.8241 234.741 11.203C233.786 11.6655 233.07 12.4741 232.723 13.478L202.206 101.765C202.124 102.001 201.889 102.15 201.64 102.12C192.228 101.021 183.148 106.731 180.048 115.7C176.38 126.312 182.03 137.93 192.642 141.598C193.595 141.927 194.561 142.185 195.533 142.37C199.809 143.182 204.214 142.604 208.2 140.666C213.091 138.287 216.764 134.146 218.541 129.006C221.641 120.039 218.025 109.939 209.943 104.991C209.729 104.861 209.636 104.6 209.717 104.363L240.234 16.0754C240.581 15.0723 240.517 13.994 240.052 13.0389C239.588 12.0848 238.779 11.368 237.775 11.0204C237.59 10.9557 237.402 10.906 237.212 10.87Z" fill="#9C77BC"/>
<path d="M210.798 100.937C210.777 100.933 210.756 100.928 210.736 100.919L207.514 99.5707C207.29 99.4769 207.188 99.1321 207.287 98.8007C207.385 98.4693 207.646 98.2753 207.87 98.3703L211.093 99.7184C211.316 99.8122 211.418 100.157 211.32 100.488C211.231 100.791 211.006 100.977 210.798 100.937Z" fill="white"/>
<path d="M211.938 97.0927C211.917 97.0888 211.897 97.0829 211.876 97.0742L208.654 95.7261C208.43 95.6322 208.328 95.2874 208.427 94.956C208.525 94.6246 208.787 94.4307 209.011 94.5255L212.233 95.8737C212.457 95.9675 212.559 96.3123 212.46 96.6437C212.371 96.9453 212.146 97.1323 211.938 97.0927Z" fill="white"/>
<path d="M213.078 93.2474C213.058 93.2436 213.037 93.2376 213.017 93.2289L209.795 91.8808C209.571 91.787 209.469 91.4421 209.568 91.1108C209.666 90.7794 209.927 90.5854 210.151 90.6803L213.373 92.0284C213.597 92.1222 213.699 92.4671 213.601 92.7984C213.512 93.1001 213.287 93.2872 213.078 93.2474Z" fill="white"/>
<path d="M214.219 89.4012C214.199 89.3973 214.178 89.3915 214.158 89.3827L210.936 88.0346C210.712 87.9408 210.61 87.5959 210.708 87.2646C210.807 86.9332 211.067 86.7392 211.292 86.8341L214.514 88.1822C214.738 88.2761 214.84 88.6209 214.741 88.9522C214.652 89.2538 214.427 89.4408 214.219 89.4012Z" fill="white"/>
<path d="M215.359 85.5563C215.339 85.5524 215.318 85.5465 215.298 85.5378L209.191 82.9836C208.967 82.8898 208.865 82.545 208.964 82.2136C209.062 81.8822 209.322 81.689 209.547 81.7831L215.654 84.3373C215.878 84.4311 215.98 84.7759 215.882 85.1073C215.792 85.4089 215.568 85.596 215.359 85.5563Z" fill="white"/>
<path d="M216.5 81.7098C216.48 81.7059 216.459 81.7 216.439 81.6913L213.217 80.3432C212.993 80.2493 212.891 79.9045 212.989 79.5732C213.088 79.2418 213.349 79.0478 213.573 79.1427L216.795 80.4908C217.019 80.5846 217.121 80.9294 217.023 81.2608C216.933 81.5633 216.709 81.7494 216.5 81.7098Z" fill="white"/>
<path d="M217.64 77.8651C217.62 77.8612 217.599 77.8553 217.579 77.8466L214.357 76.4985C214.133 76.4046 214.031 76.0598 214.13 75.7284C214.228 75.3971 214.489 75.2031 214.713 75.298L217.935 76.6461C218.159 76.7399 218.261 77.0847 218.163 77.4161C218.074 77.7177 217.849 77.9047 217.64 77.8651Z" fill="white"/>
<path d="M218.78 74.0194C218.76 74.0155 218.739 74.0096 218.719 74.0009L215.497 72.6528C215.273 72.5589 215.171 72.2141 215.27 71.8827C215.368 71.5514 215.629 71.3574 215.853 71.4523L219.076 72.8004C219.299 72.8942 219.401 73.239 219.303 73.5704C219.214 73.8721 218.989 74.0591 218.78 74.0194Z" fill="white"/>
<path d="M219.921 70.1732C219.901 70.1693 219.88 70.1634 219.86 70.1547L216.638 68.8066C216.414 68.7127 216.312 68.3679 216.41 68.0365C216.509 67.7052 216.77 67.5112 216.994 67.6061L220.216 68.9542C220.44 69.048 220.542 69.3928 220.444 69.7242C220.354 70.0267 220.129 70.2128 219.921 70.1732Z" fill="white"/>
<path d="M221.061 66.3289C221.041 66.325 221.02 66.3191 221 66.3104L214.892 63.7561C214.668 63.6622 214.566 63.3174 214.665 62.986C214.763 62.6547 215.024 62.4616 215.248 62.5556L221.356 65.1099C221.58 65.2037 221.682 65.5486 221.583 65.8799C221.495 66.1816 221.27 66.3686 221.061 66.3289Z" fill="white"/>
<path d="M222.202 62.4828C222.182 62.4789 222.161 62.473 222.141 62.4642L218.919 61.1161C218.695 61.0223 218.593 60.6775 218.692 60.3461C218.79 60.0147 219.051 59.8208 219.275 59.9157L222.497 61.2638C222.721 61.3576 222.823 61.7024 222.725 62.0338C222.636 62.3353 222.411 62.5224 222.202 62.4828Z" fill="white"/>
<path d="M223.342 58.637C223.322 58.6332 223.301 58.6273 223.281 58.6185L220.059 57.2704C219.835 57.1766 219.733 56.8318 219.832 56.5004C219.93 56.169 220.191 55.975 220.415 56.07L223.638 57.4181C223.861 57.5119 223.963 57.8567 223.865 58.1881C223.776 58.4896 223.551 58.6768 223.342 58.637Z" fill="white"/>
<path d="M224.483 54.7924C224.463 54.7885 224.442 54.7826 224.422 54.7738L221.2 53.4257C220.976 53.3319 220.874 52.9871 220.972 52.6557C221.071 52.3243 221.332 52.1303 221.556 52.2252L224.778 53.5733C225.002 53.6672 225.104 54.012 225.006 54.3434C224.916 54.6449 224.691 54.8319 224.483 54.7924Z" fill="white"/>
<path d="M225.624 50.9471C225.603 50.9433 225.583 50.9374 225.563 50.9286L222.34 49.5805C222.117 49.4867 222.015 49.1418 222.113 48.8105C222.211 48.4791 222.472 48.2851 222.697 48.38L225.919 49.7281C226.143 49.822 226.245 50.1668 226.146 50.4981C226.057 50.7997 225.832 50.9867 225.624 50.9471Z" fill="white"/>
<path d="M226.764 47.1009C226.744 47.097 226.723 47.0911 226.703 47.0823L220.595 44.528C220.371 44.4342 220.269 44.0894 220.368 43.758C220.466 43.4266 220.727 43.2336 220.952 43.3276L227.059 45.8819C227.283 45.9757 227.385 46.3205 227.287 46.6519C227.198 46.9536 226.973 47.1406 226.764 47.1009Z" fill="white"/>
<path d="M227.904 43.2557C227.884 43.2518 227.863 43.2459 227.843 43.2372L224.621 41.8891C224.397 41.7953 224.295 41.4504 224.394 41.1191C224.492 40.7877 224.753 40.5937 224.977 40.6886L228.199 42.0367C228.423 42.1305 228.525 42.4754 228.427 42.8067C228.338 43.1083 228.113 43.2953 227.904 43.2557Z" fill="white"/>
<path d="M229.045 39.4096C229.024 39.4057 229.004 39.3998 228.983 39.391L225.761 38.0429C225.537 37.9491 225.435 37.6043 225.534 37.2729C225.632 36.9415 225.894 36.7476 226.118 36.8424L229.34 38.1905C229.564 38.2844 229.666 38.6292 229.567 38.9606C229.478 39.2631 229.254 39.4493 229.045 39.4096Z" fill="white"/>
<path d="M230.185 35.5646C230.165 35.5607 230.144 35.5548 230.124 35.5461L226.902 34.198C226.678 34.1041 226.576 33.7593 226.674 33.4279C226.773 33.0966 227.034 32.9035 227.258 32.9975L230.48 34.3456C230.704 34.4394 230.806 34.7842 230.708 35.1156C230.618 35.4172 230.394 35.6042 230.185 35.5646Z" fill="white"/>
<path d="M231.325 31.7191C231.305 31.7152 231.284 31.7093 231.264 31.7006L228.042 30.3525C227.818 30.2586 227.716 29.9138 227.815 29.5824C227.913 29.2511 228.174 29.0571 228.398 29.152L231.62 30.5001C231.844 30.5939 231.946 30.9387 231.848 31.2701C231.759 31.5717 231.534 31.7587 231.325 31.7191Z" fill="white"/>
<path d="M232.466 27.8729C232.446 27.869 232.425 27.8631 232.405 27.8543L226.297 25.3C226.074 25.2062 225.972 24.8614 226.07 24.53C226.168 24.1986 226.43 24.0057 226.654 24.0995L232.761 26.6538C232.985 26.7477 233.087 27.0925 232.989 27.4239C232.9 27.7256 232.675 27.9126 232.466 27.8729Z" fill="white"/>
<path d="M233.607 24.028C233.587 24.0241 233.566 24.0182 233.546 24.0094L230.324 22.6613C230.1 22.5675 229.998 22.2227 230.096 21.8913C230.195 21.5599 230.455 21.3669 230.68 21.4609L233.902 22.809C234.126 22.9028 234.228 23.2476 234.13 23.579C234.04 23.8805 233.815 24.0676 233.607 24.028Z" fill="white"/>
<path d="M234.747 20.183C234.727 20.1791 234.706 20.1732 234.686 20.1644L231.464 18.8163C231.24 18.7225 231.138 18.3777 231.236 18.0463C231.335 17.7149 231.596 17.5209 231.82 17.6159L235.042 18.964C235.266 19.0578 235.368 19.4026 235.27 19.734C235.18 20.0355 234.956 20.2227 234.747 20.183Z" fill="white"/>
<path d="M190.876 137.197C190.792 137.18 190.708 137.152 190.627 137.111C186.778 135.135 183.93 131.779 182.606 127.661C181.281 123.542 181.64 119.154 183.616 115.306C183.847 114.854 184.402 114.675 184.855 114.907C185.307 115.139 185.486 115.694 185.254 116.147C183.503 119.558 183.184 123.447 184.358 127.097C185.532 130.747 188.057 133.723 191.469 135.474C191.921 135.706 192.1 136.261 191.867 136.713C191.676 137.084 191.267 137.271 190.876 137.197Z" fill="white"/>
<path d="M183.496 6.52327C183.496 3.11311 180.732 0.350098 177.323 0.350098C173.913 0.350098 171.148 3.11311 171.148 6.52327C171.148 9.93344 173.912 12.6964 177.323 12.6964C179.743 12.6964 181.838 11.3053 182.85 9.2766C183.264 8.44731 183.496 7.51145 183.496 6.52327Z" fill="#6859A2"/>
<path d="M169.586 147.353C167.22 147.353 165.014 146.126 163.375 143.899C161.797 141.756 160.929 138.922 160.929 135.919V112.183C160.929 111.005 160.582 109.768 159.899 108.507C157.936 104.883 154.297 104.325 151.777 104.948C149.213 105.581 146.201 107.81 146.151 112.007C146.15 112.065 146.15 112.125 146.15 112.183V116.247C146.15 116.425 146.149 116.604 146.146 116.782C146.062 121.885 144.2 126.203 140.763 129.27C137.715 131.99 133.626 133.533 129.248 133.615C124.862 133.698 120.706 132.307 117.546 129.696C113.984 126.751 111.954 122.497 111.677 117.391C111.618 116.325 111.589 115.241 111.589 114.169H113.43C113.43 115.208 113.458 116.258 113.514 117.291C114.058 127.286 121.806 131.778 128.896 131.778C129.002 131.778 129.106 131.777 129.212 131.775C136.363 131.64 144.136 126.88 144.305 116.752C144.308 116.584 144.309 116.415 144.309 116.247V112.183C144.309 112.117 144.309 112.051 144.31 111.985C144.336 109.768 145.074 107.748 146.445 106.145C147.685 104.694 149.421 103.634 151.334 103.161C153.227 102.693 155.23 102.817 156.973 103.511C158.901 104.278 160.473 105.702 161.517 107.631C162.349 109.165 162.769 110.697 162.769 112.184V135.92C162.769 141.21 165.827 145.513 169.585 145.513C173.344 145.513 176.402 141.21 176.402 135.92V86.1143H178.243V135.92C178.243 138.923 177.375 141.757 175.797 143.9C174.159 146.126 171.953 147.353 169.586 147.353Z" fill="#EA508F"/>
<path d="M204.788 53.8482C204.788 27.711 192.492 6.52344 177.322 6.52344C162.155 6.52344 149.859 27.711 149.859 53.8482C149.859 79.9854 162.155 101.173 177.322 101.173C192.492 101.172 204.788 79.9844 204.788 53.8482Z" fill="#6859A2"/>
<g opacity="0.6">
<g opacity="0.6">
<path opacity="0.6" d="M183.388 7.68099C183.459 7.30509 183.497 6.91951 183.497 6.52327C183.497 3.11311 180.733 0.350098 177.324 0.350098V101.173C192.492 101.173 204.788 79.9852 204.788 53.848C204.787 31.3012 195.637 12.4388 183.388 7.68099Z" fill="#6859A2"/>
</g>
</g>
<path d="M165.735 91.2892C165.44 91.2892 165.15 91.1478 164.972 90.8862C164.744 90.549 159.334 82.4819 156.576 69.5378C154.956 61.9385 154.604 54.2434 155.53 46.6654C156.687 37.1974 159.851 27.8921 164.935 19.0092C165.188 18.5684 165.75 18.4153 166.191 18.6672C166.632 18.9201 166.785 19.482 166.533 19.9228C155.302 39.5457 155.898 57.5256 158.377 69.1541C161.061 81.7485 166.442 89.7721 166.496 89.8515C166.782 90.272 166.672 90.8445 166.252 91.1303C166.093 91.2379 165.913 91.2892 165.735 91.2892Z" fill="white"/>
<path d="M160.966 68.0544C160.908 69.2373 160.8 70.4037 160.65 71.5517C160.616 71.8084 160.58 72.0613 160.542 72.3161C160.503 72.569 160.463 72.8218 160.422 73.0737C160.359 73.4525 160.29 73.8274 160.217 74.2004C160.168 74.4494 160.116 74.6993 160.064 74.9464C159.986 75.3165 159.901 75.6866 159.812 76.0537C159.782 76.1758 159.752 76.2979 159.722 76.4199C159.662 76.6641 159.598 76.9063 159.533 77.1494C159.468 77.3916 159.401 77.6338 159.332 77.8731C159.125 78.5949 158.901 79.3089 158.661 80.0151C158.501 80.486 158.335 80.952 158.159 81.416C158.072 81.6485 157.983 81.8781 157.893 82.1087C157.712 82.5699 157.524 83.0252 157.329 83.4786C156.843 84.6101 156.316 85.7204 155.751 86.8083C155.526 87.2433 155.294 87.6754 155.057 88.1036C154.82 88.5318 154.578 88.9552 154.33 89.3757C154.082 89.7971 153.83 90.2137 153.571 90.6273C141.367 110.217 118.06 121.699 114.145 123.528C114.132 123.535 114.119 123.541 114.106 123.547C113.763 123.706 113.579 123.786 113.579 123.786C113.579 123.786 100.658 116.516 89.1907 104.125C88.9117 103.822 88.6317 103.517 88.3546 103.209C88.0766 102.901 87.7995 102.589 87.5243 102.275C87.2492 101.96 86.976 101.643 86.7028 101.324C86.4296 101.003 86.1583 100.681 85.89 100.354C85.6197 100.029 85.3533 99.6982 85.0869 99.3669C83.8894 97.8739 82.7317 96.321 81.6321 94.7137C81.387 94.3572 81.1458 93.9968 80.9075 93.6345C80.6691 93.2712 80.4337 92.9059 80.2002 92.5378C79.9687 92.1697 79.7401 91.7986 79.5143 91.4256C79.1743 90.8647 78.8449 90.2989 78.5233 89.7264C78.3072 89.3466 78.097 88.962 77.8916 88.5754C76.235 85.483 74.836 82.2259 73.7994 78.8187C73.315 77.2201 72.9091 75.5897 72.5932 73.9262C72.5361 73.624 72.4818 73.3198 72.4305 73.0156C72.2251 71.7997 72.0672 70.5645 71.9655 69.3148C71.9151 68.6899 71.8763 68.0611 71.8511 67.4285C71.8434 67.2609 71.8376 67.0943 71.8347 66.9247C71.8269 66.6157 71.8211 66.3076 71.8192 65.9976C71.8163 65.2342 71.8327 64.465 71.8705 63.6899C71.95 62.0643 72.2028 60.489 72.6058 58.9796C72.6543 58.8014 72.7037 58.6251 72.755 58.4497C72.9633 57.7464 73.2046 57.0575 73.4768 56.3871C73.5107 56.3028 73.5456 56.2195 73.5804 56.1352C73.7219 55.8029 73.8691 55.4736 74.0251 55.149C74.1026 54.9863 74.184 54.8254 74.2644 54.6636C74.3051 54.5842 74.3468 54.5038 74.3875 54.4253C74.4717 54.2655 74.557 54.1076 74.6432 53.9516C74.9484 53.4023 75.2758 52.8685 75.6246 52.3511C75.7234 52.2029 75.8261 52.0556 75.9288 51.9113C75.9811 51.8377 76.0325 51.765 76.0848 51.6933C76.1904 51.5509 76.295 51.4075 76.4035 51.2651C76.7804 50.771 77.1795 50.2924 77.5961 49.8313C77.7153 49.6986 77.8354 49.5687 77.9584 49.4399C78.0805 49.312 78.2045 49.1841 78.3295 49.0582C82.6251 44.7374 88.6685 42.1855 95.236 42.5072C96.8607 42.5866 98.4369 42.8375 99.9463 43.2425C100.125 43.2909 100.301 43.3403 100.476 43.3917C101.003 43.5467 101.522 43.723 102.031 43.9139C102.201 43.9778 102.37 44.0447 102.537 44.1125C102.621 44.1473 102.704 44.1822 102.789 44.2161C103.121 44.3556 103.45 44.5048 103.775 44.6608C103.938 44.7383 104.099 44.8178 104.258 44.9001C107.139 46.3688 109.648 48.442 111.628 50.9464C111.684 51.0152 111.739 51.0868 111.794 51.1585C112.228 51.7195 112.634 52.3007 113.012 52.9024C113.012 52.9024 113.012 52.9043 113.013 52.9053C113.202 53.2056 113.384 53.5098 113.559 53.8189C113.559 53.8208 113.561 53.8208 113.56 53.8218C113.647 53.9758 113.732 54.1308 113.817 54.2878C114.114 54.8438 114.386 55.4125 114.636 55.9948C114.701 56.1478 114.765 56.2999 114.826 56.4549C115.601 58.377 116.115 60.429 116.324 62.5623C116.427 63.6134 116.457 64.6849 116.409 65.7699C116.41 65.738 116.412 65.707 116.415 65.675V65.6682C116.423 65.5103 116.432 65.3543 116.445 65.1983C116.473 64.8186 116.51 64.4417 116.558 64.0697C116.64 63.4158 116.749 62.7715 116.887 62.1399C116.945 61.8686 117.008 61.5993 117.078 61.3319C117.124 61.1536 117.171 60.9763 117.221 60.8C117.345 60.3592 117.482 59.9232 117.634 59.496C117.695 59.3245 117.757 59.153 117.82 58.9845C117.82 58.9825 117.82 58.9825 117.82 58.9825C117.885 58.813 117.95 58.6444 118.018 58.4788C118.053 58.3945 118.087 58.3121 118.122 58.2288C118.261 57.8975 118.409 57.57 118.566 57.2455C118.605 57.1631 118.645 57.0827 118.685 57.0023C118.765 56.8415 118.847 56.6836 118.93 56.5257C119.012 56.3658 119.097 56.2098 119.186 56.0539C119.273 55.8979 119.363 55.7429 119.452 55.5888C123.526 48.6997 131.209 44.2694 139.783 44.6889C152.084 45.2915 161.568 55.7516 160.966 68.0544Z" fill="#EA508F"/>
<path d="M160.965 68.0544C160.907 69.2373 160.799 70.4037 160.649 71.5517C160.615 71.8084 160.579 72.0613 160.54 72.3161C160.502 72.569 160.462 72.8218 160.42 73.0737C160.356 73.4525 160.288 73.8274 160.216 74.2004C160.166 74.4494 160.115 74.6993 160.063 74.9464C159.983 75.3165 159.899 75.6856 159.811 76.0537C159.781 76.1758 159.751 76.2979 159.721 76.4199C159.659 76.6641 159.597 76.9063 159.532 77.1494C159.467 77.3916 159.4 77.6338 159.33 77.8731C159.124 78.5949 158.9 79.3089 158.66 80.0151C158.5 80.486 158.333 80.952 158.158 81.416C158.071 81.6485 157.982 81.8781 157.892 82.1087C157.711 82.5699 157.522 83.0252 157.328 83.4786C156.842 84.6101 156.314 85.7204 155.75 86.8083C155.524 87.2433 155.292 87.6754 155.056 88.1036C154.819 88.5318 154.576 88.9552 154.328 89.3757C154.08 89.7971 153.829 90.2137 153.57 90.6273C141.366 110.217 118.059 121.699 114.144 123.528C114.131 123.533 114.118 123.539 114.105 123.545V123.547C113.762 123.706 113.578 123.786 113.578 123.786C113.578 123.786 100.657 116.516 89.1894 104.125C88.9104 103.822 88.6304 103.517 88.3534 103.209C88.0753 102.901 87.7982 102.589 87.5231 102.275C87.248 101.96 86.9748 101.643 86.7016 101.324C86.4284 101.003 86.1571 100.681 85.8887 100.354C85.6185 100.029 85.352 99.6982 85.0856 99.3669C83.8882 97.8739 82.7305 96.321 81.6309 94.7137C81.3858 94.3572 81.1445 93.9968 80.9062 93.6345C80.6679 93.2712 80.4325 92.9059 80.199 92.5378C79.9675 92.1697 79.7388 91.7986 79.5131 91.4256C79.173 90.8647 78.8437 90.2989 78.522 89.7264C78.306 89.3466 78.0957 88.962 77.8904 88.5754C76.2337 85.483 74.8348 82.2259 73.7982 78.8187C73.3138 77.2201 72.9078 75.5897 72.592 73.9262C72.5348 73.624 72.4806 73.3198 72.4292 73.0156C72.2239 71.7997 72.0659 70.5645 71.9642 69.3148C71.9119 68.6899 71.8741 68.0602 71.8499 67.4285C71.8422 67.2609 71.8363 67.0943 71.8334 66.9247C71.8257 66.6157 71.8199 66.3076 71.8179 65.9976C71.8141 65.2342 71.8305 64.465 71.8673 63.6899C71.9468 62.0643 72.1996 60.489 72.6046 58.9796C72.653 58.8014 72.7024 58.6251 72.7538 58.4497C72.9601 57.7464 73.2014 57.0575 73.4755 56.3871C73.5095 56.3028 73.5443 56.2195 73.5792 56.1352C73.7187 55.8029 73.8669 55.4736 74.0239 55.149C74.1014 54.9863 74.1828 54.8254 74.2632 54.6636C74.3039 54.5842 74.3455 54.5038 74.3862 54.4253C74.4705 54.2655 74.5558 54.1076 74.642 53.9516C74.9472 53.4023 75.2746 52.8685 75.6234 52.3511C75.7222 52.2029 75.8249 52.0556 75.9276 51.9113C75.9799 51.8377 76.0312 51.765 76.0836 51.6933C76.1891 51.5509 76.2938 51.4075 76.4023 51.2651C76.7791 50.771 77.1783 50.2924 77.5949 49.8313C77.714 49.6986 77.8342 49.5687 77.9572 49.4399C78.0793 49.312 78.2033 49.1841 78.3283 49.0582C82.6239 44.7374 88.6673 42.1855 95.2347 42.5072C96.8594 42.5866 98.4356 42.8375 99.945 43.2425C100.121 43.2909 100.299 43.3403 100.475 43.3917C101.002 43.5467 101.521 43.723 102.03 43.9139C102.199 43.9788 102.368 44.0447 102.536 44.1125C102.62 44.1473 102.703 44.1822 102.787 44.2161C103.122 44.3576 103.449 44.5048 103.774 44.6608C103.936 44.7403 104.097 44.8197 104.257 44.9001C107.137 46.3688 109.647 48.442 111.627 50.9464C111.683 51.0152 111.738 51.0868 111.792 51.1585C112.226 51.7195 112.63 52.3007 113.011 52.9024C113.011 52.9024 113.011 52.9043 113.012 52.9053C113.201 53.2056 113.381 53.5098 113.558 53.8189C113.558 53.8208 113.56 53.8208 113.559 53.8218C113.646 53.9758 113.731 54.1308 113.815 54.2878C114.113 54.8438 114.385 55.4125 114.635 55.9948C114.7 56.1478 114.764 56.2999 114.825 56.4549C115.6 58.377 116.113 60.429 116.323 62.5623C116.424 63.5814 116.455 64.618 116.413 65.6692L116.409 65.7719C116.417 65.5994 116.427 65.4279 116.441 65.2574C116.47 64.8583 116.508 64.463 116.556 64.0697C116.639 63.4167 116.749 62.7735 116.884 62.1399C116.945 61.8686 117.007 61.5993 117.075 61.3319C117.122 61.1536 117.168 60.9763 117.219 60.8C117.344 60.3592 117.481 59.9252 117.631 59.496C117.692 59.3245 117.754 59.153 117.817 58.9845C117.817 58.9825 117.817 58.9825 117.817 58.9825C117.882 58.813 117.948 58.6444 118.016 58.4788C118.051 58.3945 118.085 58.3121 118.12 58.2288C118.261 57.8965 118.408 57.5681 118.563 57.2455C118.603 57.1631 118.643 57.0827 118.683 57.0023C118.763 56.8415 118.844 56.6836 118.928 56.5257C119.01 56.3658 119.095 56.2098 119.183 56.0539C119.271 55.8979 119.361 55.7429 119.45 55.5888C123.524 48.6997 131.207 44.2694 139.781 44.6889C152.083 45.2915 161.566 55.7516 160.965 68.0544Z" fill="#EA508F"/>
<path d="M93.762 100.284C93.4976 100.284 93.236 100.17 93.0538 99.9514C86.3808 91.9181 81.7984 84.4526 79.4326 77.7611C77.4746 72.2225 77.0106 67.1644 78.052 62.7263C79.1342 58.1187 81.6627 55.0467 83.5945 53.2806C85.6929 51.3623 87.5395 50.534 87.6179 50.4992C88.083 50.2938 88.6264 50.504 88.8318 50.969C89.0372 51.4331 88.828 51.9766 88.3639 52.182C88.3474 52.1897 86.6627 52.9531 84.7755 54.695C82.2702 57.0085 80.6077 59.8636 79.8356 63.1826C78.8842 67.271 79.3367 71.9793 81.1783 77.1769C83.4744 83.6553 87.9464 90.9222 94.4702 98.7753C94.7948 99.1667 94.7415 99.747 94.3501 100.072C94.1777 100.214 93.9694 100.284 93.762 100.284Z" fill="white"/>
<g opacity="0.6">
<g opacity="0.6">
<path opacity="0.6" d="M160.965 68.0545C160.907 69.2374 160.799 70.4038 160.649 71.5518C160.615 71.8086 160.579 72.0614 160.54 72.3162C160.502 72.5691 160.462 72.8219 160.42 73.0738C160.357 73.4526 160.289 73.8275 160.216 74.2005C160.166 74.4495 160.115 74.6995 160.063 74.9465C159.984 75.3166 159.9 75.6867 159.811 76.0538C159.781 76.1759 159.751 76.298 159.721 76.42C159.661 76.6642 159.597 76.9064 159.532 77.1495C159.467 77.3917 159.4 77.6339 159.33 77.8732C159.124 78.595 158.9 79.309 158.66 80.0153C158.5 80.4861 158.334 80.9521 158.158 81.4161C158.071 81.6486 157.982 81.8782 157.892 82.1088C157.711 82.57 157.523 83.0253 157.328 83.4787C156.842 84.6103 156.315 85.7205 155.75 86.8085C155.525 87.2434 155.292 87.6755 155.056 88.1037C154.819 88.5319 154.577 88.9553 154.328 89.3758C154.08 89.7972 153.829 90.2138 153.57 90.6274C141.366 110.217 118.059 121.699 114.144 123.528C114.131 123.536 114.118 123.541 114.105 123.547L116.443 65.1994C116.471 64.8197 116.508 64.4428 116.556 64.0708C116.637 63.4168 116.747 62.7726 116.884 62.141C116.943 61.8697 117.006 61.6004 117.075 61.333C117.122 61.1547 117.168 60.9774 117.219 60.8011C117.343 60.3603 117.48 59.9243 117.631 59.4971C117.692 59.3256 117.754 59.1541 117.817 58.9856C117.817 58.9836 117.817 58.9836 117.817 58.9836C117.882 58.8141 117.948 58.6455 118.016 58.4799C118.051 58.3956 118.085 58.3132 118.12 58.2299C118.259 57.8986 118.406 57.5711 118.563 57.2466C118.603 57.1642 118.643 57.0838 118.683 57.0034C118.763 56.8426 118.844 56.6847 118.928 56.5268C119.01 56.3669 119.095 56.2109 119.183 56.055C119.271 55.899 119.361 55.744 119.45 55.5899C123.524 48.7008 131.207 44.2705 139.781 44.69C152.083 45.2916 161.566 55.7517 160.965 68.0545Z" fill="#EA508F"/>
</g>
</g>
</svg>
