<svg width="231" height="209" viewBox="0 0 231 209" fill="none" xmlns="http://www.w3.org/2000/svg">
<path d="M179.986 41.2351C168.331 18.4389 144.682 9.27283 139.608 7.30282C134.597 5.36191 102.125 -7.22945 78.0572 8.1705C57.17 21.5404 65.4042 41.4079 40.1348 64.7316C22.0775 81.3976 19.3597 81.0428 13.2884 93.6651C2.48767 116.116 16.4953 149.282 43.7509 168.004C59.6946 178.953 81.4017 168.846 94.9292 184.359C99.3561 189.435 98.2656 191.244 102.17 195.737C115.992 211.644 147.905 209.943 167.684 203.164C212.992 187.636 241.465 129.431 227.376 105.525C219.61 92.3481 208.714 92.8456 196.714 73.7021C188.14 60.0239 188.048 57.0034 179.986 41.2351Z" fill="#FDD7C7"/>
<path d="M165.236 24.7418C165.54 25.0147 165.657 25.1284 165.655 25.1138C165.551 24.9858 165.438 24.8643 165.318 24.75L164.498 23.9569L164.006 23.4813C163.838 23.3221 163.664 23.1657 163.498 23.0119C163.165 22.7054 162.853 22.4162 162.615 22.1934C162.377 21.9705 162.205 21.8141 162.167 21.7595C162.129 21.705 162.217 21.7595 162.488 21.9569C162.758 22.1543 163.195 22.5217 163.868 23.0783C163.645 22.8728 163.404 22.6554 163.149 22.428C162.894 22.2007 162.627 21.9578 162.329 21.7204C161.749 21.2411 161.121 20.72 160.429 20.1979L159.907 19.7995L159.641 19.5976C159.55 19.5312 159.459 19.4657 159.368 19.3993L158.243 18.5908C157.859 18.3179 157.462 18.0569 157.065 17.7849C156.668 17.513 156.259 17.2511 155.849 16.9855C154.209 15.9268 152.488 14.9109 150.832 13.9986C149.177 13.0864 147.584 12.2796 146.207 11.6002C145.952 11.3019 147.078 11.6912 147.044 11.5202C147.026 11.4374 146.721 11.2055 145.795 10.6934C144.869 10.1814 143.32 9.38828 140.765 8.29686C137.323 6.8771 135.44 6.28046 134.398 5.98578C133.357 5.69109 133.153 5.72657 132.996 5.77295C132.84 5.81934 132.728 5.88573 131.867 5.70292C131.436 5.61197 130.816 5.4619 129.906 5.22906C128.996 4.99622 127.794 4.68335 126.191 4.30044C129.11 5.03594 131.991 5.89998 134.836 6.89257C132.657 6.29138 129.734 5.46553 126.311 4.67153C122.888 3.87752 118.951 3.11807 114.785 2.64785C110.619 2.17763 106.221 1.99845 101.953 2.27859C97.6842 2.55872 93.5452 3.29815 89.9237 4.43323C89.5811 4.52964 89.2368 4.61514 88.8978 4.71791L87.882 5.02078L86.8798 5.3473C86.5464 5.45553 86.2175 5.57922 85.8868 5.69382C84.5675 6.1692 83.2714 6.70187 81.9983 7.29185C79.4592 8.49241 76.982 9.92308 74.6469 11.723C73.4532 12.6422 72.3267 13.6452 71.276 14.7244C71.1439 14.8654 71.0108 15.0055 70.8769 15.1464L70.6774 15.3602L70.4824 15.5794L70.0916 16.0196L69.7098 16.4743C69.4511 16.7754 69.2106 17.0955 68.96 17.4111C68.837 17.5703 68.7186 17.734 68.5956 17.8968C68.4726 18.0596 68.3523 18.2233 68.2366 18.3925L67.8831 18.8982L67.5397 19.4166L67.3675 19.6786L67.2007 19.9451C67.0896 20.127 66.9766 20.3016 66.8664 20.4835C66.4291 21.2111 66.0072 21.9642 65.6009 22.7427C65.1946 23.5213 64.8037 24.3283 64.4284 25.1639C64.053 25.9976 63.6867 26.8556 63.3296 27.7378C63.469 27.3422 63.8763 26.2689 64.2179 25.3867C64.3865 24.9428 64.5413 24.5481 64.6179 24.2953C64.6944 24.0424 64.709 23.9487 64.586 24.1006C63.9136 25.333 63.1219 27.1093 62.3994 28.9284C61.6769 30.7474 61.0064 32.601 60.5035 33.9698C59.8575 35.8671 59.5997 36.6938 59.5815 36.9166C59.5633 37.1395 59.7846 36.7566 60.0561 36.2263C60.6028 35.1658 61.3562 33.515 60.9344 34.9712C59.7919 38.1181 58.6394 41.1959 57.0706 44.4838C56.2843 46.1255 55.3897 47.8163 54.3328 49.5771C53.7971 50.4539 53.2332 51.3543 52.6063 52.2638C52.2993 52.7186 51.9686 53.1734 51.6351 53.6454C51.4675 53.8791 51.2917 54.1092 51.1167 54.3439C50.9418 54.5786 50.766 54.8159 50.5792 55.0506C48.0443 58.0661 45.2745 60.8768 42.2958 63.4564C42.1382 63.6465 41.9769 63.8402 41.8102 64.0348C41.6434 64.2294 41.4676 64.4214 41.29 64.6178L40.7433 65.2108C40.5565 65.41 40.3634 65.6056 40.1666 65.8066C39.3807 66.6051 38.5303 67.4367 37.6156 68.3014C36.7009 69.166 35.7212 70.0567 34.6765 70.9735C33.6315 71.8876 32.5364 72.8453 31.3821 73.8258L27.7779 76.8808L25.8838 78.4998L24.9272 79.3411C24.6083 79.6258 24.2776 79.9068 23.9623 80.2042L23.0012 81.0946C22.921 81.1701 22.8381 81.2447 22.7588 81.3211L22.5247 81.5539L22.0536 82.0232L21.579 82.4962C21.4979 82.5744 21.4223 82.6572 21.3476 82.7399L21.1198 82.9882L20.6643 83.4885L20.4347 83.7404C20.3572 83.8241 20.2807 83.9078 20.2106 83.9969C18.9967 85.428 17.9142 86.9652 16.9763 88.59C16.8569 88.7391 16.7139 88.9347 16.5517 89.1702C16.4715 89.2885 16.385 89.4158 16.2948 89.5531C16.2046 89.6905 16.1044 89.8351 16.0133 89.997C15.831 90.3171 15.6251 90.6718 15.4101 91.0575L15.0785 91.6559C14.9646 91.8624 14.8598 92.0825 14.746 92.3053L14.0444 93.7115C13.9196 93.9552 13.8103 94.2053 13.6946 94.4582C13.5789 94.711 13.4577 94.9648 13.3529 95.2304C13.2482 95.4959 13.1343 95.7606 13.0231 96.0289C12.912 96.2972 12.8191 96.5746 12.7161 96.8475C12.6132 97.1203 12.5193 97.405 12.4246 97.6861C12.3298 97.9671 12.2332 98.249 12.1512 98.5355C11.4461 100.809 11.006 103.162 10.7436 105.122C10.4813 107.082 10.3792 108.658 10.2535 109.418C10.2344 110.327 10.2207 111.039 10.2034 111.589C10.1936 112 10.1632 112.411 10.1123 112.82C10.0212 113.393 9.87266 113.533 9.70776 113.631C9.54285 113.728 9.36428 113.785 9.23309 114.197C9.19364 114.323 9.16319 114.451 9.14198 114.581C9.11436 114.766 9.09672 114.953 9.08914 115.14C9.0773 115.358 9.07183 115.611 9.07274 115.905C9.07365 116.198 9.09643 116.533 9.12194 116.916C9.15018 117.249 9.19209 117.553 9.22307 117.825C9.25404 118.098 9.28138 118.355 9.31417 118.582C9.37613 119.037 9.42259 119.392 9.4563 119.665C9.53101 120.21 9.55379 120.42 9.53192 120.411C9.51005 120.402 9.45084 120.171 9.37066 119.828C9.29049 119.485 9.20667 119.029 9.11556 118.573L8.88871 117.315C8.82858 116.969 8.78667 116.732 8.76571 116.722C8.74476 116.712 8.74567 116.927 8.7976 117.478C8.82584 117.751 8.8632 118.115 8.91604 118.569C8.94793 118.798 8.98346 119.051 9.02172 119.33C9.05999 119.609 9.10372 119.915 9.16203 120.246C8.91948 119.086 8.73702 117.914 8.61539 116.736C8.59352 116.504 8.57348 116.281 8.55343 116.079C8.53339 115.877 8.52883 115.678 8.51972 115.495C8.50423 115.132 8.48875 114.81 8.49512 114.522C8.50606 113.375 8.63452 112.779 8.75387 112.066C8.82129 111.71 8.88597 111.324 8.94884 110.825C9.0117 110.326 9.07821 109.714 9.16385 108.908C9.24949 108.101 9.34606 107.099 9.49639 105.822C9.5383 105.503 9.58264 105.167 9.6294 104.812C9.67617 104.457 9.73296 104.085 9.79977 103.693L10.0157 102.459C10.0594 102.244 10.1044 102.024 10.1505 101.798C10.1979 101.572 10.2416 101.343 10.2954 101.105C10.1788 101.338 10.0813 101.576 9.9747 101.813C10.2874 100.005 10.7687 98.2308 11.4124 96.5128C11.5946 96.0453 11.7704 95.5669 11.9791 95.0976C12.082 94.862 12.1795 94.6228 12.2879 94.3881C12.3963 94.1535 12.5084 93.9188 12.6195 93.6842C12.7307 93.4495 12.8455 93.2176 12.9621 92.9884C13.0787 92.7592 13.1962 92.5336 13.3129 92.3008C13.4295 92.068 13.547 91.846 13.6627 91.6141C13.7784 91.3822 13.8932 91.1593 14.0189 90.9338C14.2649 90.4863 14.5079 90.0425 14.7478 89.6022C14.8079 89.4931 14.8671 89.3831 14.93 89.2748C14.9929 89.1666 15.0557 89.0602 15.1177 88.9538L15.494 88.3171L15.8584 87.6968C15.9203 87.5949 15.9768 87.4913 16.0406 87.3921L16.2328 87.0984C16.4861 86.7073 16.7321 86.3262 16.9708 85.9587C17.0282 85.8678 17.0911 85.7768 17.153 85.6859L17.3352 85.4248L17.6942 84.9155C17.8108 84.7482 17.9247 84.5854 18.0349 84.4253C18.1452 84.2652 18.2672 84.1197 18.3766 83.9705C18.5995 83.6764 18.8069 83.3969 18.9988 83.132C19.181 82.8591 19.3788 82.6317 19.5455 82.4043L20.0639 81.845C20.2306 81.6631 20.3909 81.4884 20.5568 81.3311L21.4678 80.4325C21.7484 80.1496 22.0245 79.9104 22.2741 79.6803L22.9693 79.0518C23.1806 78.859 23.3783 78.688 23.5587 78.5398L24.0471 78.1296C24.3395 77.8868 24.5682 77.7039 24.7422 77.5712C25.4437 77.0436 25.2779 77.3065 24.9244 77.7531C24.5709 78.1996 24.0307 78.8354 23.9696 79.0318C23.9386 79.1283 24.0279 79.1182 24.3195 78.9236C24.4652 78.8254 24.662 78.6826 24.919 78.4834C25.1759 78.2842 25.4938 78.0286 25.8902 77.7158C27.5301 76.0186 31.8813 72.1313 35.737 68.4578C36.7073 67.5483 37.6375 66.6388 38.4993 65.7947L39.7329 64.5805C40.1211 64.1931 40.4764 63.8211 40.808 63.4791C42.1172 62.0939 42.9199 61.0907 42.9381 60.8788L41.8275 62.0066L40.6941 63.1098L39.5398 64.1949L38.3627 65.2718C37.5755 65.9875 36.7957 66.7115 36.0039 67.4219L33.6279 69.5519C35.1603 68.1595 33.8948 69.1381 34.4897 68.5406C35.3534 67.8539 36.3629 66.9944 37.437 65.9939C37.9764 65.4973 38.5367 64.9725 39.1098 64.4277L39.5416 64.0148L39.9689 63.5928C40.2532 63.3072 40.5474 63.0252 40.8299 62.7278C41.9787 61.5573 43.1066 60.2958 44.1653 59.0225C45.2239 57.7491 46.2161 56.4758 47.0962 55.2616C47.9763 54.0474 48.7361 52.9069 49.3839 51.9273L49.8394 51.2243C49.9861 51.0014 50.1191 50.7868 50.2485 50.5876L50.6129 50.0319C50.7241 49.8579 50.8276 49.7002 50.9236 49.5589C51.3099 48.9941 51.5541 48.6758 51.6524 48.7031C51.7007 48.7158 51.7108 48.8131 51.677 49.0069C51.6597 49.1033 51.6333 49.2242 51.5932 49.3707C51.5531 49.5171 51.5021 49.6844 51.4329 49.88C51.0311 50.6076 50.1902 51.89 49.3374 53.1033C48.4847 54.3166 47.6191 55.4681 47.272 56.0338C47.3586 56.0001 47.5208 55.8664 47.7376 55.64C47.9544 55.4135 48.2305 55.0997 48.553 54.7132C49.1907 53.9328 50.0052 52.855 50.8671 51.5862C51.729 50.3175 52.6382 48.8577 53.4983 47.3434C54.3583 45.829 55.1737 44.261 55.8944 42.7958C56.5394 41.2414 57.1444 39.607 57.7502 37.878C58.3561 36.149 58.9538 34.3218 59.6097 32.3772C60.2657 30.4327 60.9763 28.3754 61.8701 26.1925C62.7638 24.0097 63.8325 21.7095 65.2811 19.3802C66.3061 17.7849 66.6222 17.5285 66.8992 17.252C67.0897 17.0774 67.2698 16.8918 67.4385 16.6963L67.9168 16.1378L68.2457 15.7413C68.3696 15.5948 68.5072 15.4338 68.6603 15.2547C70.168 13.3204 71.8848 11.558 73.7796 9.99948C75.256 8.79311 76.8207 7.69864 78.4606 6.72522C79.794 5.9335 81.1716 5.21866 82.5869 4.58421C83.8952 3.98302 85.1634 3.50462 86.4443 3.06896C87.0821 2.84612 87.7381 2.6524 88.4013 2.45048L89.4135 2.16762C89.7552 2.07122 90.105 1.99027 90.4585 1.89477C91.878 1.5437 93.4049 1.21809 95.1296 0.930681C96.8542 0.643274 98.7738 0.390428 100.99 0.220348C102.095 0.129396 103.273 0.0730061 104.533 0.0320778C105.793 -0.00885048 107.136 -0.00885045 108.57 0.0220731C112.307 0.259496 116.028 0.709834 119.715 1.37089C123.589 2.06209 127.422 2.97001 131.194 4.09034C133.095 4.65515 134.98 5.27272 136.831 5.94485C137.757 6.27955 138.675 6.63063 139.582 6.99079C140.488 7.35096 141.39 7.71841 142.276 8.09677C145.705 9.56268 149.02 11.2797 152.194 13.2337C151.332 12.558 153.427 13.6548 155.947 15.2792C157.2 16.0978 158.57 17.0355 159.737 17.9168C160.03 18.1369 160.317 18.3443 160.582 18.5535L161.33 19.1401L161.967 19.6422L162.461 20.0515C162.643 20.2252 162.902 20.4562 163.216 20.7345L163.462 20.9528L163.722 21.1947L164.3 21.7259L164.945 22.3143L165.632 22.971L166.369 23.6713L167.127 24.4253L167.916 25.2093L168.705 26.0352L169.106 26.4517C169.24 26.5909 169.379 26.73 169.505 26.8756L170.292 27.7387C170.826 28.3053 171.32 28.902 171.822 29.4668L172.194 29.8906C172.316 30.0343 172.434 30.1771 172.549 30.319L173.241 31.1485C172.714 30.5055 172.394 30.1244 172.18 29.8943C172.057 29.7579 171.921 29.6339 171.774 29.5241C171.606 29.4068 171.513 29.3904 170.724 28.5482L171.493 29.4122L171.863 29.8288L172.046 30.0334C172.104 30.1016 172.16 30.1717 172.218 30.2399C172.673 30.791 173.101 31.3113 173.5 31.8097L174.586 33.2567C174.669 33.3713 174.756 33.4823 174.834 33.596L175.064 33.9316L175.501 34.5746C176.077 35.3987 176.518 36.1572 176.911 36.8139L177.192 37.2914C177.283 37.4442 177.358 37.5988 177.436 37.7461C177.589 38.039 177.729 38.3091 177.855 38.5647C178.226 39.2711 178.54 40.0062 178.794 40.763C178.908 41.0746 178.983 41.399 179.018 41.7289C178.719 41.2032 178.437 40.7075 178.168 40.2364L177.968 39.8899C177.904 39.7753 177.838 39.6625 177.768 39.5552C177.63 39.3387 177.495 39.1265 177.365 38.9185C177.102 38.5083 176.852 38.1199 176.612 37.7479C176.357 37.3841 176.112 37.0412 175.877 36.7093L175.529 36.2209C175.414 36.0617 175.305 35.9034 175.184 35.7543L174.499 34.8739C174.387 34.7311 174.277 34.5883 174.167 34.4473C174.056 34.3063 173.949 34.1626 173.832 34.028L173.145 33.2094C172.915 32.9366 172.69 32.6528 172.448 32.3736L171.7 31.5196L171.311 31.0703L171.113 30.8392L170.902 30.61L170.021 29.636C168.779 28.2899 167.294 26.6909 165.236 24.7418Z" fill="white"/>
<path d="M23.0355 146.187C22.7877 145.977 22.7877 146.096 22.9663 146.448C23.0574 146.624 23.195 146.854 23.3672 147.133C23.5394 147.411 23.748 147.737 23.994 148.088C24.4778 148.795 25.0873 149.634 25.7423 150.49C26.074 150.918 26.412 151.358 26.7618 151.786L27.2811 152.429L27.8013 153.052C29.168 154.689 30.4298 156.066 30.8079 156.565C30.9965 156.816 30.9646 156.85 30.6257 156.582C30.4553 156.446 30.2047 156.239 29.8713 155.939L29.3064 155.418C29.096 155.222 28.8609 155.004 28.6086 154.753C30.6021 157.055 32.7541 159.215 35.0489 161.217C36.6999 162.649 38.4284 163.99 40.2265 165.233C39.7947 164.883 39.4293 164.573 39.1141 164.312C38.7989 164.051 38.5465 163.824 38.3351 163.642C37.9142 163.278 37.6801 163.063 37.5789 162.959C37.4778 162.855 37.5042 162.868 37.609 162.944L38.1064 163.323C38.5274 163.641 39.0439 164.051 39.2453 164.155C39.4466 164.26 39.3081 164.111 38.4363 163.299C39.8256 164.405 41.2396 165.473 42.6873 166.483C43.4107 166.985 44.145 167.492 44.8666 167.952C45.5881 168.413 46.358 168.829 47.1288 169.218C47.8995 169.608 48.6922 169.946 49.4975 170.268C50.3029 170.59 51.1174 170.861 51.941 171.114C53.5941 171.608 55.2761 172 56.9774 172.288C60.3803 172.878 63.8341 173.141 67.2889 173.4C70.7437 173.66 74.213 173.911 77.6569 174.492C79.383 174.775 81.0897 175.165 82.767 175.66C83.6052 175.915 84.437 176.195 85.2543 176.517C86.0715 176.839 86.875 177.196 87.6604 177.59C88.4457 177.983 89.2092 178.423 89.9508 178.893C90.6924 179.363 91.4085 179.877 92.0918 180.422C92.2649 180.556 92.4298 180.7 92.5993 180.839L92.8517 181.049C92.9346 181.12 93.0147 181.194 93.0967 181.267L93.586 181.704L94.0579 182.159C94.1363 182.234 94.2164 182.309 94.293 182.386L94.5198 182.621C94.6711 182.778 94.825 182.933 94.9754 183.092L95.4127 183.577C95.4846 183.658 95.5594 183.737 95.6295 183.82L95.8381 184.069C96.1115 184.402 96.3994 184.727 96.6581 185.078L97.0562 185.595L97.4343 186.131L97.622 186.399C97.6831 186.49 97.7414 186.581 97.8042 186.672C97.9218 186.854 98.042 187.036 98.1559 187.228L98.4857 187.796C98.5978 187.984 98.6934 188.18 98.7973 188.372C99.2027 189.143 99.5517 189.924 99.9024 190.666C100.237 191.395 100.618 192.102 101.042 192.782C101.142 192.953 101.256 193.116 101.368 193.281L101.536 193.526C101.591 193.609 101.648 193.691 101.71 193.769C101.951 194.087 102.184 194.41 102.448 194.716L102.832 195.18L103.236 195.629L103.438 195.855C103.506 195.928 103.578 196 103.647 196.073L104.067 196.508C105.21 197.646 106.446 198.686 107.762 199.619C109.687 201.031 111.76 202.231 113.944 203.196C115.023 203.683 116.124 204.106 117.234 204.489C118.343 204.873 119.464 205.212 120.593 205.504C121.722 205.796 122.855 206.049 123.992 206.267C125.129 206.484 126.27 206.66 127.413 206.812C129.688 207.101 131.976 207.274 134.268 207.331C138.829 207.434 143.392 207.168 147.91 206.537C152.477 205.911 156.992 204.955 161.42 203.675C162.816 203.335 163.918 203.039 164.78 202.813L165.897 202.518C166.213 202.436 166.475 202.371 166.689 202.319C167.545 202.117 167.633 202.178 167.307 202.397C167.143 202.503 166.874 202.646 166.544 202.81C166.215 202.975 165.816 203.152 165.407 203.333C164.587 203.696 163.684 204.06 163.072 204.323C167.768 203.029 172.331 201.296 176.7 199.147L175.886 199.579L175.06 199.988L174.234 200.398C174.096 200.466 173.96 200.537 173.82 200.601L173.401 200.795C172.843 201.051 172.286 201.314 171.724 201.564L170.025 202.292C169.743 202.418 169.453 202.522 169.167 202.637L168.307 202.975C167.735 203.204 167.156 203.415 166.576 203.625C165.415 204.04 164.244 204.429 163.063 204.793C162.869 204.975 164.383 204.656 166.372 204.08C166.87 203.938 167.396 203.777 167.934 203.61L169.556 203.077L169.961 202.944C170.095 202.9 170.226 202.853 170.357 202.804L171.132 202.531C171.636 202.349 172.121 202.195 172.553 202.03L173.501 201.607L173.976 201.395L174.213 201.29L174.447 201.177L176.317 200.277C175.339 201.062 173.173 202.278 170.157 203.466L168.987 203.906L168.377 204.133L168.067 204.247L167.75 204.355C166.901 204.65 166.005 204.93 165.075 205.209C164.145 205.488 163.176 205.747 162.18 206.001C161.185 206.255 160.158 206.491 159.111 206.714C154.799 207.622 150.433 208.25 146.04 208.595C143.861 208.777 141.722 208.876 139.689 208.931C137.655 208.985 135.725 208.978 133.957 208.949C136.084 209.024 137.637 209.002 138.74 208.972C139.844 208.942 140.497 208.891 140.826 208.86C141.485 208.786 140.847 208.762 139.905 208.728C139.434 208.712 138.886 208.687 138.387 208.663C137.888 208.64 137.436 208.604 137.155 208.572C136.875 208.54 136.763 208.503 136.946 208.473C137.13 208.443 137.606 208.412 138.495 208.377C136.734 208.382 134.973 208.333 133.211 208.229C135.562 208.347 139.073 208.334 143.484 207.948C148.744 207.477 153.964 206.629 159.102 205.409C155.001 206.334 150.846 207.007 146.662 207.424C145.619 207.525 144.576 207.617 143.532 207.685C143.011 207.724 142.488 207.748 141.966 207.776C141.445 207.803 140.922 207.826 140.401 207.842C139.358 207.882 138.316 207.893 137.274 207.898C136.233 207.904 135.194 207.883 134.156 207.842C130.008 207.687 125.889 207.235 121.891 206.353C117.893 205.471 114.016 204.17 110.467 202.284C109.577 201.817 108.718 201.302 107.879 200.759C107.043 200.217 106.235 199.633 105.457 199.01C104.682 198.392 103.941 197.733 103.237 197.035C102.534 196.343 101.873 195.611 101.254 194.843L100.799 194.261L100.373 193.659C100.1 193.251 99.8368 192.836 99.5972 192.409C99.1125 191.558 98.7071 190.673 98.2825 189.817C97.4551 188.121 96.4035 186.543 95.1558 185.126C93.9596 183.716 92.6119 182.442 91.137 181.327C90.4146 180.779 89.6601 180.274 88.8776 179.815C88.1061 179.358 87.3099 178.945 86.4924 178.576C85.6803 178.213 84.8567 177.886 84.0216 177.598C83.1861 177.313 82.3425 177.068 81.497 176.853C80.6515 176.637 79.8006 176.458 78.946 176.302C78.0914 176.145 77.2451 176.013 76.395 175.903C76.795 175.923 77.5257 176.002 77.8527 176.016C78.0167 176.024 78.0805 176.016 77.9511 175.965C77.6024 175.862 77.248 175.778 76.8897 175.715C74.6817 175.37 72.4567 175.142 70.2244 175.034C68.2145 174.925 66.4106 174.88 64.7753 174.834C61.5054 174.748 58.9016 174.646 56.6831 174.348C58.1609 174.546 59.6368 174.683 61.1064 174.782L58.6164 174.385C57.7327 174.242 56.7998 174.081 55.8331 173.889C53.9016 173.508 51.8244 173.013 49.7663 172.292C47.6828 171.574 45.6827 170.635 43.8006 169.49L43.1137 169.054C42.8896 168.907 42.6764 168.762 42.4595 168.616L41.8163 168.183C41.604 168.038 41.3963 167.89 41.1886 167.744L40.5718 167.309C40.3677 167.166 40.17 167.016 39.9714 166.871C39.576 166.58 39.1861 166.296 38.8153 166.004C37.2409 164.677 35.8516 163.405 34.4959 162.093C33.1402 160.782 31.8265 159.439 30.4234 157.937C29.0204 156.434 27.5335 154.767 25.8863 152.778C25.0581 151.787 24.2008 150.706 23.2934 149.525C22.386 148.343 21.4439 147.05 20.459 145.624L20.9374 145.87C18.8924 142.764 17.0732 139.515 15.4937 136.149C15.8089 136.766 16.0221 137.159 16.1588 137.396C16.2955 137.634 16.3629 137.71 16.3775 137.696C16.4066 137.669 16.2463 137.27 16.1442 136.997C16.3556 137.343 16.5214 137.644 16.7382 138.081C16.9551 138.518 17.2339 139.082 17.6885 139.946C17.8616 140.051 17.8415 139.804 17.6885 139.283C17.611 139.023 17.4962 138.697 17.3541 138.312C17.212 137.927 17.048 137.482 16.8594 136.991L16.567 136.217L16.4084 135.805L16.2499 135.377C16.1406 135.088 16.0282 134.789 15.9128 134.48C15.7974 134.172 15.6826 133.855 15.5684 133.53C15.101 132.233 14.6145 130.819 14.1544 129.372C14.784 131.178 15.5028 132.956 16.0932 134.182C15.6158 133.036 14.8605 131.174 14.18 129.11C13.4971 127.079 12.9298 125.01 12.4808 122.914C12.3897 122.445 12.2922 122.004 12.2239 121.592C12.1556 121.18 12.0891 120.807 12.0417 120.475C11.9506 119.808 11.895 119.32 11.9014 119.075C11.9132 118.586 12.0581 119.096 12.5938 121.137C13.3536 124.599 14.1426 127.14 14.8141 129.221C15.4983 131.302 16.0795 132.929 16.6945 134.509C17.347 136.2 18.089 137.856 18.9175 139.468C19.1589 139.923 19.4068 140.411 19.6928 140.911L20.1311 141.687L20.6139 142.498C21.2827 143.607 22.0662 144.83 23.0355 146.187Z" fill="white"/>
<path d="M15.9432 87.0367C15.7455 87.3095 15.5897 87.5824 15.4339 87.8307L15.0112 88.511C14.8809 88.7202 14.7624 88.9112 14.654 89.084C14.5456 89.2568 14.46 89.4187 14.3807 89.5615C14.05 90.129 13.8641 90.4292 13.7867 90.5328C13.63 90.7384 13.9024 90.1536 14.2987 89.3341C14.4882 88.9212 14.7497 88.4655 14.9875 88.0144C15.2253 87.5633 15.4521 87.1212 15.6626 86.7747C16.0653 86.0744 16.2548 85.6833 15.8639 86.1535L16.1955 85.6369L16.3641 85.3795L16.5463 85.1294L17.2752 84.1289L17.4574 83.8788L17.6533 83.6405L18.0459 83.1621L18.4386 82.6837L18.6354 82.4445L18.8422 82.2162L19.6713 81.3067L19.879 81.0793L20.094 80.8619L20.524 80.429L20.955 79.9952C21.0989 79.8515 21.241 79.7041 21.3886 79.5677L22.2696 78.7373C22.3708 78.7428 22.0063 79.162 21.3978 79.7996C21.098 80.128 20.7427 80.5181 20.3518 80.9374L20.0539 81.2585L19.7578 81.6041L19.1456 82.3153C19.0436 82.4363 18.9379 82.5546 18.8367 82.6792C18.7356 82.8038 18.6409 82.9311 18.5434 83.0566C18.3493 83.3085 18.1553 83.5577 17.9667 83.8015C17.8756 83.9252 17.7744 84.0416 17.6933 84.1653L17.4419 84.5291L16.9745 85.2176C16.7221 85.5886 16.4886 85.972 16.2748 86.3663C16.1479 86.5813 16.0371 86.8054 15.9432 87.0367Z" fill="white"/>
<path d="M212.464 166.445C212.642 166.296 213.026 165.842 213.507 165.172C213.749 164.84 214.022 164.458 214.316 164.043L215.222 162.687C215.544 162.214 215.855 161.707 216.178 161.2L216.66 160.437L217.125 159.669C217.751 158.657 218.317 157.668 218.811 156.844C219.693 155.164 220.372 153.786 220.955 152.504L221.386 151.564C221.528 151.256 221.659 150.945 221.79 150.64C221.921 150.334 222.058 150.029 222.192 149.72C222.326 149.412 222.453 149.097 222.588 148.78C222.723 148.462 222.862 148.138 223 147.804C223.139 147.47 223.273 147.125 223.422 146.767C223.57 146.41 223.724 146.04 223.877 145.654C224.03 145.268 224.189 144.863 224.356 144.44C225.009 142.743 225.772 140.73 226.603 138.145C226.494 138.664 226.406 139.084 226.335 139.418C226.265 139.752 226.23 139.992 226.215 140.156C226.185 140.482 226.253 140.488 226.397 140.239C226.644 139.769 226.861 139.285 227.047 138.789C227.311 138.089 227.644 137.201 227.965 136.176C228.719 133.818 229.335 131.419 229.811 128.991C229.88 128.67 229.934 128.354 229.993 128.031C230.053 127.708 230.105 127.394 230.16 127.08C230.216 126.765 230.251 126.451 230.301 126.143C230.351 125.835 230.392 125.529 230.435 125.228C230.478 124.927 230.506 124.631 230.541 124.341C230.558 124.197 230.576 124.053 230.593 123.911C230.61 123.769 230.628 123.629 230.639 123.491C230.688 122.936 230.746 122.41 230.785 121.922C230.761 123.286 230.718 124.941 230.536 126.782C230.34 128.786 230.041 130.778 229.64 132.751C229.2 134.922 228.64 137.067 227.965 139.177C227.284 141.296 226.486 143.374 225.573 145.404C225.621 145.145 225.469 145.397 225.189 145.976L224.671 147.061C224.57 147.274 224.463 147.501 224.35 147.74C224.237 147.98 224.122 148.231 223.995 148.488L223.205 150.114C222.924 150.671 222.638 151.241 222.357 151.8C222.075 152.36 221.779 152.899 221.51 153.411C221.242 153.923 220.972 154.395 220.742 154.819C220.439 155.499 220.243 155.941 220.134 156.252C220.054 156.444 220.007 156.648 219.994 156.856C219.994 157.099 220.119 157.143 219.954 157.681C219.789 158.22 219.338 159.254 218.106 161.443C217.791 161.989 217.429 162.602 217.013 163.299L216.324 164.398L215.947 164.997C215.816 165.201 215.673 165.408 215.536 165.621C215.251 166.048 214.954 166.5 214.635 166.973L213.604 168.45C212.87 169.477 212.05 170.596 211.114 171.801C210.764 172.238 210.333 172.742 209.871 173.306C209.409 173.87 208.891 174.476 208.356 175.109L207.952 175.587L207.533 176.064L206.687 177.024C206.409 177.348 206.114 177.656 205.832 177.967L204.993 178.877C204.433 179.462 203.899 180.013 203.414 180.508C202.928 181.002 202.476 181.417 202.108 181.763C201.833 182.026 201.544 182.274 201.242 182.506C201.044 182.651 200.949 182.688 200.978 182.597C200.688 182.852 200.407 183.113 200.132 183.379C199.857 183.644 199.58 183.902 199.312 184.169C199.044 184.437 198.774 184.705 198.506 184.976C198.238 185.247 197.959 185.509 197.686 185.777C197.413 186.046 197.129 186.314 196.843 186.582C196.557 186.85 196.255 187.105 195.949 187.364C195.642 187.624 195.329 187.883 195 188.133C194.671 188.383 194.323 188.623 193.966 188.861L193.245 189.341L192.517 189.805C194.482 188.217 196.387 186.561 198.23 184.835C200.073 183.109 201.846 181.318 203.549 179.461C203.76 179.279 204.083 178.998 204.469 178.637C204.855 178.276 205.289 177.818 205.744 177.302C205.478 177.542 205.446 177.528 205.577 177.331C205.643 177.232 205.75 177.089 205.889 176.909L206.386 176.26C206.579 176.014 206.794 175.739 207.024 175.441C207.137 175.294 207.259 175.145 207.378 174.987L207.742 174.508L208.495 173.518C208.749 173.187 208.988 172.846 209.224 172.517L209.897 171.58C210.104 171.28 210.291 171 210.455 170.751C210.784 170.252 211.016 169.874 211.092 169.695C211.169 169.516 211.088 169.536 210.788 169.831C210.639 169.978 210.436 170.194 210.17 170.49C209.905 170.786 209.583 171.163 209.174 171.615C207.038 174.287 204.782 176.859 202.408 179.33C200.034 181.801 197.541 184.142 194.929 186.353C194.441 186.74 194.095 187.006 193.869 187.155C193.642 187.304 193.547 187.355 193.561 187.313C193.574 187.272 193.697 187.141 193.914 186.934C194.131 186.728 194.43 186.437 194.808 186.088C195.186 185.74 195.64 185.333 196.133 184.86L196.918 184.122C197.055 183.994 197.197 183.865 197.337 183.729L197.765 183.314L198.662 182.449C198.817 182.303 198.97 182.151 199.123 181.995L199.589 181.529C199.903 181.215 200.227 180.901 200.543 180.577L201.499 179.593C201.986 179.132 202.423 178.683 202.837 178.27L203.438 177.668C203.631 177.473 203.811 177.28 203.989 177.095L204.98 176.055C205.283 175.728 205.562 175.419 205.826 175.13C206.091 174.84 206.336 174.57 206.564 174.311L207.202 173.572C207.601 173.106 207.958 172.69 208.279 172.282C208.6 171.873 208.906 171.491 209.211 171.099C209.516 170.708 209.809 170.292 210.134 169.846C210.294 169.622 210.466 169.391 210.639 169.144L211.185 168.355C211.378 168.075 211.582 167.78 211.8 167.464C212.019 167.149 212.221 166.812 212.464 166.445Z" fill="white"/>
<path d="M174.539 199.924L174.007 200.106L173.742 200.197L173.469 200.283C178.967 197.827 184.177 194.749 189.037 191.202C184.502 194.576 179.646 197.497 174.539 199.924Z" fill="white"/>
<path d="M225.396 105.216C225.633 105.569 225.862 105.92 226.085 106.268C226.287 106.616 226.481 106.962 226.675 107.306C226.85 107.659 227.015 108.014 227.185 108.365C227.229 108.456 227.262 108.547 227.3 108.638L227.41 108.911C227.483 109.093 227.556 109.275 227.63 109.457C228.183 110.912 228.602 112.43 228.977 114.08C228.839 114.244 228.699 114.407 228.559 114.568C228.347 112.924 227.981 111.304 227.466 109.728L227.046 108.566L226.564 107.433L226.017 106.332L225.396 105.216Z" fill="white"/>
<path d="M106.613 201.459C106.34 201.303 106.047 201.119 105.732 200.921C105.417 200.723 105.094 200.487 104.752 200.24L104.236 199.847L103.97 199.64L103.705 199.42C103.523 199.271 103.34 199.12 103.158 198.965L102.611 198.471C102.429 198.306 102.247 198.126 102.065 197.947C101.883 197.767 101.694 197.583 101.518 197.394L100.977 196.812C100.799 196.611 100.624 196.404 100.447 196.198C99.7206 195.338 99.069 194.419 98.4989 193.449C98.2128 192.96 97.9522 192.461 97.7117 191.982L97.5295 191.623L97.3719 191.275L97.0466 190.604C96.6674 189.808 96.2339 189.04 95.7493 188.303C95.3331 187.677 94.8766 187.079 94.3827 186.512C94.277 186.382 94.1576 186.263 94.0501 186.148L93.7276 185.809C93.5281 185.594 93.3322 185.416 93.1582 185.258C93.2867 185.403 93.406 185.531 93.5126 185.654L93.8005 185.994L94.2314 186.492C94.3609 186.658 94.5005 186.816 94.6496 186.964C94.6997 187.01 94.7554 187.05 94.8154 187.082C94.9062 187.141 94.9861 187.214 95.0514 187.3L94.9494 187.146L94.8391 186.996L94.6187 186.696L94.3982 186.395C94.3253 186.295 94.2433 186.198 94.1658 186.099L93.6948 185.509C93.5345 185.315 93.3696 185.129 93.2065 184.938C92.5481 184.187 91.8447 183.476 91.1001 182.81C91.8309 183.382 92.5259 183.998 93.181 184.656C93.5026 184.992 93.8297 185.323 94.1349 185.683C94.2888 185.859 94.4474 186.035 94.5986 186.214L95.0359 186.76C95.6093 187.485 96.127 188.253 96.5847 189.056C97.0403 189.86 97.4357 190.731 97.8876 191.67C98.0014 191.905 98.1135 192.139 98.2402 192.379L98.4224 192.735C98.4861 192.854 98.5554 192.973 98.621 193.092L98.8296 193.449L99.0464 193.799L99.2642 194.15C99.338 194.266 99.4182 194.378 99.4956 194.491C99.7999 194.952 100.138 195.383 100.474 195.818C100.824 196.237 101.171 196.664 101.546 197.064C103.058 198.72 104.759 200.195 106.613 201.459Z" fill="white"/>
<path d="M199.726 80.5837C197.813 78.1471 196.412 76.107 195.202 74.2953C194.906 73.8405 194.618 73.4085 194.338 72.9819C194.058 72.5554 193.779 72.1425 193.518 71.7259L192.726 70.4935L192.334 69.8814L191.949 69.2602L191.171 67.996C190.912 67.5649 190.655 67.121 190.389 66.6654C190.257 66.4374 190.123 66.2057 189.986 65.9705L189.583 65.2429C189.31 64.7481 189.026 64.2424 188.749 63.6967C188.182 62.6189 187.59 61.4384 186.969 60.1196L186.492 59.1036L186.006 58.0349C185.673 57.3073 185.335 56.5351 184.976 55.7229C184.394 54.2986 184.848 55.1299 185.229 55.8075C185.61 56.4851 185.916 57.0072 185.032 54.9599C184.592 53.9403 184.223 53.1245 183.898 52.4441C183.574 51.7638 183.298 51.2163 183.043 50.7379C182.788 50.2595 182.559 49.8466 182.327 49.4355C182.094 49.0244 181.859 48.6169 181.598 48.1376L182.192 49.7456C181.605 48.1449 180.187 44.8897 179.232 42.6514C178.276 40.413 177.865 39.1515 179.391 41.5372L184.616 52.0121C186.165 55.1127 187.549 57.9012 188.97 60.5316C190.391 63.1619 191.828 65.6358 193.351 68.1824L193.923 69.1438L194.509 70.1115C194.702 70.4383 194.898 70.767 195.096 71.0974L195.699 72.0979L196.308 73.1175C196.512 73.4622 196.716 73.8105 196.931 74.158C197.146 74.5054 197.357 74.861 197.574 75.2194L197.736 75.4922L197.905 75.7596L198.247 76.3008C198.4 76.6791 198.546 77.063 198.707 77.4395L199.197 78.5682L199.508 78.9838L199.832 79.3913L200.48 80.2044C200.692 80.4773 200.922 80.7383 201.144 81.0048L201.815 81.7988C202.735 82.8366 203.667 83.8643 204.655 84.8348C204.837 85.0576 204.856 85.1531 205.086 85.4314C205.203 85.5697 205.37 85.7543 205.633 86.0235C205.766 86.1581 205.921 86.3164 206.109 86.4956C206.298 86.6747 206.522 86.8757 206.78 87.1086C206.917 87.2268 207.042 87.3359 207.158 87.4324L207.476 87.6897C207.666 87.8435 207.816 87.9626 207.931 88.0445C208.155 88.2136 208.23 88.2536 208.197 88.1991C208.079 88.0522 207.951 87.9139 207.813 87.7852C207.604 87.5733 207.318 87.3078 207.017 86.9976L206.544 86.521C206.382 86.3582 206.217 86.1927 206.06 86.0226C205.743 85.6852 205.431 85.3568 205.172 85.0649C204.659 84.4728 204.323 84.0517 204.453 84.0917C204.926 84.5592 205.391 85.0331 205.88 85.4842C206.124 85.7097 206.361 85.9435 206.609 86.1636L207.351 86.8284C208.353 87.7016 209.369 88.5565 210.419 89.3651C211.47 90.1736 212.53 90.9695 213.608 91.7453C214.686 92.5211 215.764 93.2915 216.836 94.0727C217.6 94.6776 217.256 94.4629 216.775 94.1455C216.294 93.8281 215.669 93.4179 215.882 93.6107C217.349 94.7931 218.696 95.8418 219.928 96.8641C221.109 97.8279 222.238 98.8525 223.311 99.9337C224.34 100.977 225.281 102.102 226.124 103.299C226.331 103.605 226.537 103.915 226.744 104.229C226.939 104.551 227.129 104.879 227.321 105.212L227.464 105.463C227.509 105.548 227.555 105.635 227.595 105.723C227.681 105.897 227.768 106.073 227.855 106.25C227.897 106.341 227.94 106.432 227.984 106.518L228.048 106.652L228.104 106.791L228.327 107.354L228.048 106.809C228.003 106.718 227.951 106.627 227.898 106.536L227.742 106.271C227.533 105.919 227.336 105.561 227.105 105.223L226.768 104.71C226.655 104.539 226.544 104.368 226.422 104.203C226.183 103.872 225.95 103.536 225.705 103.209C224.726 101.905 223.648 100.677 222.481 99.5371C223.466 100.572 224.379 101.672 225.214 102.831C225.628 103.386 225.991 103.964 226.362 104.523L226.877 105.38C226.96 105.523 227.052 105.661 227.126 105.806L227.355 106.237L227.583 106.664C227.619 106.735 227.66 106.805 227.694 106.878L227.794 107.096L228.191 107.961C228.313 108.251 228.421 108.545 228.536 108.834C228.593 108.979 228.648 109.123 228.705 109.267C228.761 109.411 228.801 109.56 228.849 109.706C228.94 109.998 229.043 110.287 229.132 110.576L229.368 111.448C229.407 111.593 229.448 111.736 229.484 111.88C229.519 112.025 229.547 112.17 229.575 112.315C229.638 112.604 229.701 112.891 229.763 113.176C230.172 115.383 230.372 117.623 230.361 119.867C230.352 121.966 230.206 124.062 229.923 126.142C230.105 124.687 230.182 123.269 230.224 121.887C230.224 121.196 230.247 120.513 230.215 119.842C230.202 119.506 230.2 119.171 230.178 118.842C230.156 118.512 230.131 118.182 230.108 117.856C230.084 117.529 230.049 117.206 230.017 116.885C229.984 116.564 229.949 116.249 229.903 115.929C229.856 115.61 229.803 115.301 229.753 114.99C229.727 114.835 229.709 114.679 229.675 114.526C229.64 114.373 229.611 114.22 229.584 114.071C229.346 112.88 229.03 111.707 228.636 110.558C228.426 110.005 228.24 109.447 227.998 108.921C227.941 108.788 227.883 108.655 227.825 108.523C227.768 108.391 227.714 108.258 227.643 108.131L227.256 107.369C227.135 107.112 226.983 106.873 226.842 106.63L226.63 106.267C226.56 106.146 226.491 106.025 226.41 105.903C226.255 105.666 226.099 105.43 225.945 105.193C225.867 105.077 225.793 104.956 225.711 104.842L225.467 104.501L224.979 103.822C224.809 103.604 224.639 103.386 224.469 103.168L224.216 102.841L223.949 102.528L223.419 101.901L222.866 101.299C222.775 101.199 222.684 101.097 222.593 100.999L222.307 100.709C222.116 100.518 221.93 100.321 221.735 100.134L221.145 99.5762C217.981 96.6285 214.267 94.3138 210.517 91.4251C206.745 88.5583 203.022 85.0522 199.726 80.5837Z" fill="white"/>
<path d="M181.255 38.5355H119.401L111.828 59.2325L107.305 21.5676L98.7227 51.0014L92.6559 28.7582L84.3233 57.1433L76.786 15.0654L68.7841 52.5912L67.4812 38.5355H2" stroke="white" stroke-width="4" stroke-linecap="round" stroke-linejoin="round"/>
<path d="M193.862 159.634C192.294 170.355 182.32 177.776 171.579 176.213C160.84 174.647 153.406 164.687 154.974 153.967C156.331 144.682 163.993 137.875 172.997 137.232L185.688 50.4547C185.768 49.9049 185.956 49.3763 186.241 48.899C186.526 48.4218 186.903 48.0052 187.349 47.6732C187.795 47.3412 188.303 47.1002 188.842 46.964C189.382 46.8278 189.943 46.7991 190.494 46.8794C191.606 47.0416 192.608 47.6381 193.28 48.5379C193.951 49.4376 194.237 50.5668 194.075 51.6771L181.384 138.454C189.827 141.639 195.22 150.349 193.862 159.634Z" fill="#F3795B"/>
<g style="mix-blend-mode:multiply" opacity="0.6">
<path d="M193.862 159.636C192.294 170.356 182.32 177.778 171.579 176.214L190.494 46.8809C191.606 47.043 192.608 47.6396 193.28 48.5393C193.951 49.439 194.238 50.5682 194.075 51.6786L181.384 138.456C189.827 141.641 195.22 150.35 193.862 159.636Z" fill="#F3795B"/>
</g>
<path d="M193.863 159.635C192.295 170.355 182.318 177.778 171.577 176.213C160.837 174.647 153.402 164.687 154.971 153.967C156.33 144.682 163.991 137.875 172.996 137.232L185.686 50.4545C185.858 49.3525 186.459 48.3628 187.358 47.7006C188.257 47.0384 189.381 46.7573 190.487 46.9184C191.592 47.0795 192.59 47.6697 193.262 48.5608C193.933 49.4519 194.226 50.5717 194.075 51.6769L181.384 138.454C189.827 141.64 195.22 150.35 193.863 159.635Z" stroke="#F3795B" stroke-width="8" stroke-linecap="round" stroke-linejoin="round"/>
<path d="M170.844 133.469L166.19 132.791" stroke="#F3795B" stroke-width="2" stroke-linecap="round" stroke-linejoin="round"/>
<path d="M171.392 129.721L166.738 129.043" stroke="#F3795B" stroke-width="2" stroke-linecap="round" stroke-linejoin="round"/>
<path d="M171.94 125.975L167.286 125.297" stroke="#F3795B" stroke-width="2" stroke-linecap="round" stroke-linejoin="round"/>
<path d="M172.487 122.228L167.833 121.55" stroke="#F3795B" stroke-width="2" stroke-linecap="round" stroke-linejoin="round"/>
<path d="M173.035 118.481L164.215 117.195" stroke="#F3795B" stroke-width="2" stroke-linecap="round" stroke-linejoin="round"/>
<path d="M173.583 114.735L168.93 114.058" stroke="#F3795B" stroke-width="2" stroke-linecap="round" stroke-linejoin="round"/>
<path d="M174.131 110.989L169.477 110.311" stroke="#F3795B" stroke-width="2" stroke-linecap="round" stroke-linejoin="round"/>
<path d="M174.68 107.241L170.026 106.562" stroke="#F3795B" stroke-width="2" stroke-linecap="round" stroke-linejoin="round"/>
<path d="M175.227 103.495L170.573 102.817" stroke="#F3795B" stroke-width="2" stroke-linecap="round" stroke-linejoin="round"/>
<path d="M175.775 99.7489L166.955 98.4629" stroke="#F3795B" stroke-width="2" stroke-linecap="round" stroke-linejoin="round"/>
<path d="M176.323 96.0027L171.669 95.3242" stroke="#F3795B" stroke-width="2" stroke-linecap="round" stroke-linejoin="round"/>
<path d="M176.871 92.2547L172.217 91.5762" stroke="#F3795B" stroke-width="2" stroke-linecap="round" stroke-linejoin="round"/>
<path d="M177.419 88.5096L172.766 87.8311" stroke="#F3795B" stroke-width="2" stroke-linecap="round" stroke-linejoin="round"/>
<path d="M177.966 84.7626L173.312 84.085" stroke="#F3795B" stroke-width="2" stroke-linecap="round" stroke-linejoin="round"/>
<path d="M178.515 81.0156L169.694 79.7305" stroke="#F3795B" stroke-width="2" stroke-linecap="round" stroke-linejoin="round"/>
<path d="M179.062 77.2693L174.409 76.5908" stroke="#F3795B" stroke-width="2" stroke-linecap="round" stroke-linejoin="round"/>
<path d="M179.61 73.5223L174.956 72.8447" stroke="#F3795B" stroke-width="2" stroke-linecap="round" stroke-linejoin="round"/>
<path d="M180.159 69.7762L175.505 69.0977" stroke="#F3795B" stroke-width="2" stroke-linecap="round" stroke-linejoin="round"/>
<path d="M180.706 66.0291L176.052 65.3506" stroke="#F3795B" stroke-width="2" stroke-linecap="round" stroke-linejoin="round"/>
<path d="M181.255 62.2822L172.434 60.9971" stroke="#F3795B" stroke-width="2" stroke-linecap="round" stroke-linejoin="round"/>
<path d="M181.802 58.5359L177.148 57.8574" stroke="#F3795B" stroke-width="2" stroke-linecap="round" stroke-linejoin="round"/>
<path d="M182.35 54.7889L177.696 54.1113" stroke="#F3795B" stroke-width="2" stroke-linecap="round" stroke-linejoin="round"/>
<path d="M169.247 171.104C165.592 170.029 162.515 167.549 160.692 164.209C158.869 160.869 158.449 156.943 159.526 153.295" stroke="white" stroke-width="4" stroke-linecap="round" stroke-linejoin="round"/>
<path d="M145.642 42.9436C145.641 41.5235 145.117 40.1533 144.17 39.0935C143.223 38.0337 141.919 37.3582 140.506 37.1954C139.093 37.0326 137.669 37.3939 136.505 38.2106C135.342 39.0273 134.519 40.2424 134.194 41.625C133.869 43.0076 134.064 44.4612 134.742 45.7094C135.421 46.9577 136.535 47.9137 137.873 48.3955C139.211 48.8774 140.68 48.8515 142 48.3229C143.321 47.7943 144.401 46.7998 145.034 45.5285C145.435 44.7254 145.643 43.8406 145.642 42.9436Z" fill="#007E96"/>
<path d="M139.836 117.664V164.422C139.836 169.873 136.579 174.292 132.561 174.292C128.543 174.292 125.285 169.873 125.285 164.422V142.139C125.285 140.775 124.862 139.474 124.213 138.277C120.421 131.292 109.751 134.021 109.656 141.965C109.656 142.023 109.656 142.081 109.656 142.139V145.959C109.656 146.122 109.656 146.285 109.656 146.448C109.331 166.039 80.0376 166.548 78.9707 146.987C78.9173 146 78.8903 145.007 78.8896 144.008" stroke="#007E96" stroke-width="4" stroke-miterlimit="10"/>
<path d="M165.665 87.3733C165.665 62.8355 154.101 42.9443 139.836 42.9443C125.57 42.9443 114.009 62.8355 114.009 87.3733C114.009 111.911 125.572 131.801 139.836 131.801C154.099 131.801 165.665 111.91 165.665 87.3733Z" fill="#007E96"/>
<g style="mix-blend-mode:multiply" opacity="0.6">
<path d="M145.54 44.0317C145.608 43.6734 145.642 43.3095 145.642 42.9449C145.642 42.1838 145.492 41.4301 145.2 40.7269C144.908 40.0237 144.481 39.3848 143.942 38.8466C143.403 38.3084 142.763 37.8815 142.058 37.5903C141.354 37.2991 140.599 37.1493 139.836 37.1494V131.802C154.1 131.802 165.663 111.911 165.663 87.3739C165.663 66.2085 157.059 48.4984 145.54 44.0317Z" fill="#007E96"/>
</g>
<path d="M128.937 121.658C128.937 121.658 108.229 91.2152 128.937 55.0938" stroke="white" stroke-width="3" stroke-linecap="round" stroke-linejoin="round"/>
<path d="M124.453 100.71C124.399 101.821 124.297 102.915 124.156 103.993C124.124 104.234 124.092 104.471 124.055 104.71C124.019 104.949 123.98 105.185 123.941 105.421C123.883 105.776 123.818 106.128 123.749 106.479C123.703 106.713 123.655 106.946 123.605 107.18C123.531 107.527 123.452 107.874 123.368 108.219L123.283 108.563C123.226 108.792 123.165 109.02 123.101 109.248C123.04 109.475 122.977 109.703 122.912 109.927C122.717 110.606 122.507 111.276 122.281 111.938C122.131 112.381 121.973 112.819 121.808 113.254C121.727 113.472 121.643 113.688 121.558 113.904C121.388 114.337 121.211 114.766 121.028 115.191C120.57 116.253 120.076 117.295 119.543 118.317C119.332 118.725 119.115 119.13 118.891 119.533C118.668 119.935 118.44 120.333 118.207 120.727C117.974 121.122 117.736 121.514 117.494 121.902C106.014 140.293 84.0983 151.072 80.4131 152.789L80.3766 152.806C80.0541 152.956 79.8819 153.032 79.8819 153.032C79.8819 153.032 67.731 146.205 56.9467 134.573C56.6843 134.29 56.421 134.003 56.1604 133.714C55.8998 133.425 55.6384 133.132 55.3796 132.836C55.1209 132.54 54.864 132.243 54.6061 131.943C54.3483 131.643 54.0941 131.339 53.8417 131.033C53.5894 130.728 53.337 130.418 53.0865 130.107C51.9613 128.705 50.8717 127.247 49.8376 125.741C49.6068 125.406 49.3796 125.069 49.1561 124.728C48.9326 124.387 48.7109 124.044 48.491 123.698C48.2736 123.353 48.0586 123.005 47.846 122.654C47.5271 122.128 47.2164 121.596 46.914 121.058C46.7117 120.701 46.5137 120.341 46.32 119.977C44.7391 117.057 43.4498 113.989 42.4707 110.818C42.011 109.308 41.6324 107.775 41.3364 106.225C41.2827 105.941 41.2316 105.655 41.1833 105.37C40.9902 104.228 40.8417 103.069 40.746 101.896C40.6987 101.31 40.6628 100.72 40.6385 100.125C40.6322 99.968 40.6258 99.8115 40.624 99.6523C40.6154 99.3631 40.6106 99.0733 40.6094 98.7829C40.6094 98.0656 40.6255 97.3434 40.6577 96.6164C40.7306 95.1221 40.9624 93.6397 41.3492 92.1943C41.3947 92.027 41.4403 91.8605 41.4904 91.6968C41.686 91.0365 41.9119 90.391 42.1682 89.7604C42.2001 89.6813 42.2329 89.6022 42.2657 89.524C42.3987 89.2111 42.5378 88.9025 42.683 88.5981C42.7568 88.4453 42.8324 88.2934 42.908 88.1433C42.9472 88.0687 42.9854 87.9932 43.0246 87.9196C43.103 87.7692 43.1831 87.621 43.2651 87.4748C43.5524 86.9594 43.8601 86.4586 44.1881 85.9723C44.2792 85.8341 44.3776 85.6994 44.4732 85.5594C44.5224 85.4903 44.5707 85.422 44.6199 85.3547C44.7192 85.2201 44.8176 85.0819 44.9196 84.9527C45.275 84.4889 45.6488 84.0402 46.0412 83.6066C46.1532 83.482 46.2671 83.3602 46.3819 83.2428C46.4967 83.1255 46.6133 83.0027 46.7308 82.879C49.3394 80.2656 52.5922 78.3849 56.1611 77.4269C59.73 76.4688 63.4888 76.4671 67.0586 77.4219C67.2262 77.4674 67.393 77.5129 67.557 77.562C68.0526 77.7084 68.5409 77.873 69.0201 78.0522C69.1796 78.1123 69.339 78.175 69.4957 78.2396C69.575 78.2723 69.6533 78.3051 69.7326 78.336C70.0451 78.4679 70.3549 78.6088 70.6601 78.7535C70.8131 78.8262 70.965 78.9011 71.1156 78.9781C73.8113 80.3475 76.1791 82.2819 78.057 84.649C78.1099 84.7135 78.1618 84.7808 78.2128 84.8481C78.621 85.3744 79.003 85.9202 79.3589 86.4853C79.5369 86.7672 79.7079 87.0531 79.8719 87.3429C79.953 87.4876 80.034 87.6331 80.1124 87.7804C80.3924 88.3025 80.6496 88.8367 80.8841 89.383C80.9451 89.5267 81.0043 89.6695 81.0663 89.8141C81.8074 91.6472 82.2817 93.5767 82.4748 95.5441C82.5729 96.5447 82.5997 97.551 82.555 98.5555C82.555 98.5264 82.555 98.4964 82.555 98.4645V98.4582C82.5623 98.3099 82.5714 98.1635 82.5832 98.017C82.6096 97.6605 82.6443 97.3076 82.6898 96.9574C82.7663 96.3426 82.8693 95.7387 82.9987 95.1457C83.0533 94.891 83.1141 94.6382 83.1809 94.3872C83.2246 94.2198 83.272 94.0534 83.3157 93.8878C83.4314 93.474 83.5608 93.0693 83.7038 92.6636C83.7603 92.5026 83.8186 92.3417 83.8788 92.1843C83.9398 92.0251 84.0018 91.8669 84.061 91.7114L84.1585 91.4758C84.2896 91.1647 84.4287 90.8573 84.5757 90.5535L84.6878 90.3243C84.7634 90.1734 84.8399 90.0251 84.9183 89.8769C84.9966 89.7286 85.0759 89.5804 85.1588 89.4339C85.2417 89.2875 85.3255 89.142 85.4103 88.9974C87.3602 85.7139 90.1721 83.025 93.5419 81.2213C96.9118 79.4176 100.711 78.5677 104.53 78.7635C116.101 79.3401 125.019 89.1602 124.453 100.71Z" fill="#F3795B"/>
<path d="M124.453 100.71C124.399 101.821 124.297 102.915 124.156 103.992C124.124 104.234 124.092 104.471 124.055 104.71C124.019 104.949 123.98 105.185 123.941 105.42C123.881 105.776 123.816 106.128 123.749 106.479C123.703 106.713 123.655 106.946 123.605 107.179C123.53 107.527 123.45 107.873 123.368 108.219L123.283 108.563C123.225 108.792 123.167 109.018 123.101 109.248C123.036 109.478 122.977 109.702 122.912 109.927C122.717 110.606 122.507 111.276 122.281 111.938C122.131 112.381 121.973 112.818 121.808 113.254C121.727 113.471 121.643 113.688 121.558 113.904C121.388 114.337 121.211 114.765 121.028 115.19C120.57 116.253 120.076 117.295 119.543 118.316C119.331 118.725 119.113 119.13 118.891 119.533C118.669 119.935 118.441 120.333 118.207 120.727C117.974 121.122 117.736 121.514 117.494 121.902C106.014 140.293 84.0984 151.072 80.4131 152.789L80.3766 152.805C80.0541 152.955 79.8819 153.031 79.8819 153.031C79.8819 153.031 67.731 146.204 56.9467 134.572C56.6843 134.289 56.421 134.002 56.1604 133.713C55.8999 133.424 55.6384 133.131 55.3797 132.835C55.1209 132.54 54.864 132.242 54.6062 131.942C54.3483 131.642 54.0941 131.338 53.8418 131.032C53.5894 130.727 53.337 130.417 53.0865 130.106C51.9613 128.704 50.8717 127.246 49.8376 125.74C49.6068 125.405 49.3797 125.068 49.1561 124.727C48.9326 124.386 48.7109 124.043 48.4911 123.697C48.2736 123.352 48.0586 123.004 47.846 122.653C47.5272 122.127 47.2165 121.595 46.914 121.057C46.7117 120.7 46.5137 120.34 46.32 119.976C44.7391 117.057 43.4498 113.988 42.4707 110.817C42.0111 109.307 41.6325 107.774 41.3364 106.224C41.2827 105.94 41.2317 105.654 41.1834 105.369C40.9902 104.227 40.8417 103.068 40.7461 101.895C40.6969 101.308 40.661 100.717 40.6386 100.124C40.6322 99.967 40.6258 99.8105 40.624 99.6514C40.6155 99.3621 40.6106 99.0723 40.6094 98.7819C40.6058 98.0646 40.6213 97.3421 40.6559 96.6145C40.7287 95.1203 40.9611 93.6382 41.3492 92.1933C41.3947 92.026 41.4403 91.8595 41.4904 91.6958C41.6834 91.0393 41.9096 90.393 42.1682 89.7595C42.2001 89.6803 42.2329 89.6012 42.2657 89.523C42.3969 89.2101 42.536 88.9015 42.683 88.5971C42.7568 88.4443 42.8324 88.2924 42.908 88.1423C42.9472 88.0678 42.9855 87.9923 43.0247 87.9186C43.103 87.7682 43.1832 87.62 43.2652 87.4738C43.5525 86.9585 43.8601 86.4576 44.1881 85.9713C44.2792 85.8331 44.3776 85.6985 44.4732 85.5584C44.5224 85.4893 44.5707 85.4211 44.6199 85.3538C44.7192 85.2192 44.8176 85.0809 44.9197 84.9518C45.275 84.4879 45.6488 84.0392 46.0412 83.6057C46.1533 83.4811 46.2671 83.3592 46.3819 83.2419C46.4967 83.1245 46.6134 83.0017 46.7309 82.8781C49.3394 80.2646 52.5922 78.384 56.1611 77.4259C59.73 76.4678 63.4889 76.4661 67.0586 77.4209C67.2257 77.4664 67.3918 77.5131 67.557 77.561C68.0526 77.7074 68.541 77.8721 69.0202 78.0512C69.1796 78.1131 69.3372 78.174 69.4958 78.2386C69.575 78.2714 69.6534 78.3041 69.7326 78.335C70.0469 78.4678 70.3549 78.6079 70.6601 78.7525C70.8132 78.8271 70.9644 78.9007 71.1156 78.9771C73.8114 80.3468 76.1792 82.2815 78.0571 84.6489C78.1099 84.7135 78.1618 84.7808 78.2129 84.8481C78.6204 85.3744 79.0024 85.9201 79.359 86.4852C79.5369 86.7672 79.7079 87.053 79.8719 87.3429C79.953 87.4875 80.0341 87.633 80.1124 87.7804C80.3924 88.3024 80.6497 88.8366 80.8841 89.3829C80.9452 89.5266 81.0044 89.6694 81.0663 89.814C82.1716 92.5595 82.6806 95.508 82.5596 98.4645V98.5609C82.5678 98.3999 82.5769 98.238 82.5896 98.0779C82.6164 97.7038 82.6525 97.3324 82.698 96.9638C82.7764 96.3507 82.8794 95.7468 83.0069 95.152C83.0634 94.8973 83.1226 94.6445 83.1891 94.3935C83.2328 94.2261 83.2802 94.0597 83.324 93.8941C83.4412 93.48 83.5705 93.0719 83.7121 92.6699C83.7686 92.5089 83.8269 92.3479 83.887 92.1906C83.948 92.0314 84.01 91.8732 84.0692 91.7177L84.1667 91.4821C84.2997 91.1704 84.4388 90.863 84.584 90.5598L84.696 90.3306C84.7716 90.1797 84.8482 90.0314 84.9265 89.8832C85.0049 89.7349 85.0841 89.5867 85.167 89.4402C85.2499 89.2938 85.3338 89.1483 85.4185 89.0037C87.3685 85.7202 90.1803 83.0313 93.5502 81.2276C96.92 79.4239 100.72 78.574 104.538 78.7698C116.101 79.34 125.019 89.1601 124.453 100.71Z" fill="#F3795B"/>
<path d="M55.827 85.0195C55.827 85.0195 32.3615 95.3798 61.2561 130.103" stroke="white" stroke-width="3" stroke-linecap="round" stroke-linejoin="round"/>
<g style="mix-blend-mode:multiply" opacity="0.6">
<path d="M124.453 100.71C124.398 101.821 124.297 102.915 124.156 103.993C124.124 104.234 124.091 104.471 124.055 104.711C124.018 104.95 123.98 105.185 123.941 105.421C123.883 105.776 123.818 106.128 123.749 106.48C123.703 106.713 123.655 106.946 123.605 107.18C123.531 107.527 123.452 107.875 123.368 108.219L123.283 108.563C123.226 108.792 123.165 109.021 123.101 109.248C123.04 109.475 122.977 109.703 122.912 109.927C122.717 110.606 122.507 111.276 122.281 111.938C122.131 112.381 121.973 112.819 121.808 113.255C121.727 113.472 121.642 113.688 121.558 113.905C121.388 114.337 121.211 114.766 121.027 115.191C120.57 116.253 120.075 117.295 119.543 118.317C119.332 118.725 119.114 119.13 118.891 119.533C118.667 119.936 118.439 120.334 118.207 120.727C117.974 121.122 117.736 121.514 117.493 121.902C106.014 140.294 84.0982 151.072 80.4129 152.789L80.3765 152.807L82.5749 98.0292C82.6013 97.6727 82.6359 97.3198 82.6815 96.9696C82.758 96.3548 82.8609 95.7509 82.9903 95.1579C83.045 94.9032 83.1057 94.6503 83.1725 94.3993C83.2163 94.232 83.2636 94.0655 83.3074 93.9C83.4231 93.4862 83.5524 93.0814 83.6955 92.6758C83.752 92.5148 83.8103 92.3538 83.8704 92.1965C83.9315 92.0373 83.9934 91.879 84.0526 91.7235L84.1501 91.4879C84.2813 91.1769 84.4204 90.8695 84.5674 90.5657L84.6794 90.3365C84.7551 90.1855 84.8316 90.0373 84.9099 89.889C84.9883 89.7408 85.0676 89.5925 85.1505 89.4461C85.2334 89.2996 85.3172 89.1541 85.4019 89.0095C87.3519 85.7261 90.1638 83.0371 93.5336 81.2334C96.9034 79.4297 100.703 78.5798 104.522 78.7756C116.1 79.3404 125.019 89.1605 124.453 100.71Z" fill="#F3795B"/>
</g>
</svg>
